<svg xmlns="http://www.w3.org/2000/svg" xmlns:xlink="http://www.w3.org/1999/xlink" width="600" height="400" viewBox="0 0 2400 1600">
<defs>
  <clipPath id="clip070">
    <rect x="0" y="0" width="2400" height="1600"></rect>
  </clipPath>
</defs>
<path clip-path="url(#clip070)" d="M0 1600 L2400 1600 L2400 0 L0 0  Z" fill="#ffffff" fill-rule="evenodd" fill-opacity="1"></path>
<defs>
  <clipPath id="clip071">
    <rect x="480" y="0" width="1681" height="1600"></rect>
  </clipPath>
</defs>
<path clip-path="url(#clip070)" d="M247.459 1423.18 L2352.76 1423.18 L2352.76 123.472 L247.459 123.472  Z" fill="#ffffff" fill-rule="evenodd" fill-opacity="1"></path>
<defs>
  <clipPath id="clip072">
    <rect x="247" y="123" width="2106" height="1301"></rect>
  </clipPath>
</defs>
<polyline clip-path="url(#clip072)" style="stroke:#000000; stroke-linecap:round; stroke-linejoin:round; stroke-width:2; stroke-opacity:0.1; fill:none" points="506.18,1423.18 506.18,123.472 "></polyline>
<polyline clip-path="url(#clip072)" style="stroke:#000000; stroke-linecap:round; stroke-linejoin:round; stroke-width:2; stroke-opacity:0.1; fill:none" points="820.564,1423.18 820.564,123.472 "></polyline>
<polyline clip-path="url(#clip072)" style="stroke:#000000; stroke-linecap:round; stroke-linejoin:round; stroke-width:2; stroke-opacity:0.1; fill:none" points="1134.95,1423.18 1134.95,123.472 "></polyline>
<polyline clip-path="url(#clip072)" style="stroke:#000000; stroke-linecap:round; stroke-linejoin:round; stroke-width:2; stroke-opacity:0.1; fill:none" points="1449.33,1423.18 1449.33,123.472 "></polyline>
<polyline clip-path="url(#clip072)" style="stroke:#000000; stroke-linecap:round; stroke-linejoin:round; stroke-width:2; stroke-opacity:0.1; fill:none" points="1763.71,1423.18 1763.71,123.472 "></polyline>
<polyline clip-path="url(#clip072)" style="stroke:#000000; stroke-linecap:round; stroke-linejoin:round; stroke-width:2; stroke-opacity:0.1; fill:none" points="2078.1,1423.18 2078.1,123.472 "></polyline>
<polyline clip-path="url(#clip072)" style="stroke:#000000; stroke-linecap:round; stroke-linejoin:round; stroke-width:2; stroke-opacity:0.1; fill:none" points="247.459,1386.4 2352.76,1386.4 "></polyline>
<polyline clip-path="url(#clip072)" style="stroke:#000000; stroke-linecap:round; stroke-linejoin:round; stroke-width:2; stroke-opacity:0.1; fill:none" points="247.459,1117.92 2352.76,1117.92 "></polyline>
<polyline clip-path="url(#clip072)" style="stroke:#000000; stroke-linecap:round; stroke-linejoin:round; stroke-width:2; stroke-opacity:0.1; fill:none" points="247.459,849.435 2352.76,849.435 "></polyline>
<polyline clip-path="url(#clip072)" style="stroke:#000000; stroke-linecap:round; stroke-linejoin:round; stroke-width:2; stroke-opacity:0.1; fill:none" points="247.459,580.954 2352.76,580.954 "></polyline>
<polyline clip-path="url(#clip072)" style="stroke:#000000; stroke-linecap:round; stroke-linejoin:round; stroke-width:2; stroke-opacity:0.1; fill:none" points="247.459,312.473 2352.76,312.473 "></polyline>
<polyline clip-path="url(#clip070)" style="stroke:#000000; stroke-linecap:round; stroke-linejoin:round; stroke-width:4; stroke-opacity:1; fill:none" points="247.459,1423.18 2352.76,1423.18 "></polyline>
<polyline clip-path="url(#clip070)" style="stroke:#000000; stroke-linecap:round; stroke-linejoin:round; stroke-width:4; stroke-opacity:1; fill:none" points="506.18,1423.18 506.18,1404.28 "></polyline>
<polyline clip-path="url(#clip070)" style="stroke:#000000; stroke-linecap:round; stroke-linejoin:round; stroke-width:4; stroke-opacity:1; fill:none" points="820.564,1423.18 820.564,1404.28 "></polyline>
<polyline clip-path="url(#clip070)" style="stroke:#000000; stroke-linecap:round; stroke-linejoin:round; stroke-width:4; stroke-opacity:1; fill:none" points="1134.95,1423.18 1134.95,1404.28 "></polyline>
<polyline clip-path="url(#clip070)" style="stroke:#000000; stroke-linecap:round; stroke-linejoin:round; stroke-width:4; stroke-opacity:1; fill:none" points="1449.33,1423.18 1449.33,1404.28 "></polyline>
<polyline clip-path="url(#clip070)" style="stroke:#000000; stroke-linecap:round; stroke-linejoin:round; stroke-width:4; stroke-opacity:1; fill:none" points="1763.71,1423.18 1763.71,1404.28 "></polyline>
<polyline clip-path="url(#clip070)" style="stroke:#000000; stroke-linecap:round; stroke-linejoin:round; stroke-width:4; stroke-opacity:1; fill:none" points="2078.1,1423.18 2078.1,1404.28 "></polyline>
<path clip-path="url(#clip070)" d="M468.981 1454.1 Q465.37 1454.1 463.542 1457.66 Q461.736 1461.2 461.736 1468.33 Q461.736 1475.44 463.542 1479.01 Q465.37 1482.55 468.981 1482.55 Q472.616 1482.55 474.421 1479.01 Q476.25 1475.44 476.25 1468.33 Q476.25 1461.2 474.421 1457.66 Q472.616 1454.1 468.981 1454.1 M468.981 1450.39 Q474.792 1450.39 477.847 1455 Q480.926 1459.58 480.926 1468.33 Q480.926 1477.06 477.847 1481.67 Q474.792 1486.25 468.981 1486.25 Q463.171 1486.25 460.093 1481.67 Q457.037 1477.06 457.037 1468.33 Q457.037 1459.58 460.093 1455 Q463.171 1450.39 468.981 1450.39 Z" fill="#000000" fill-rule="nonzero" fill-opacity="1"></path><path clip-path="url(#clip070)" d="M489.143 1479.7 L494.028 1479.7 L494.028 1485.58 L489.143 1485.58 L489.143 1479.7 Z" fill="#000000" fill-rule="nonzero" fill-opacity="1"></path><path clip-path="url(#clip070)" d="M514.213 1454.1 Q510.602 1454.1 508.773 1457.66 Q506.967 1461.2 506.967 1468.33 Q506.967 1475.44 508.773 1479.01 Q510.602 1482.55 514.213 1482.55 Q517.847 1482.55 519.652 1479.01 Q521.481 1475.44 521.481 1468.33 Q521.481 1461.2 519.652 1457.66 Q517.847 1454.1 514.213 1454.1 M514.213 1450.39 Q520.023 1450.39 523.078 1455 Q526.157 1459.58 526.157 1468.33 Q526.157 1477.06 523.078 1481.67 Q520.023 1486.25 514.213 1486.25 Q508.403 1486.25 505.324 1481.67 Q502.268 1477.06 502.268 1468.33 Q502.268 1459.58 505.324 1455 Q508.403 1450.39 514.213 1450.39 Z" fill="#000000" fill-rule="nonzero" fill-opacity="1"></path><path clip-path="url(#clip070)" d="M534.421 1451.02 L552.777 1451.02 L552.777 1454.96 L538.703 1454.96 L538.703 1463.43 Q539.722 1463.08 540.74 1462.92 Q541.759 1462.73 542.777 1462.73 Q548.564 1462.73 551.944 1465.9 Q555.324 1469.08 555.324 1474.49 Q555.324 1480.07 551.851 1483.17 Q548.379 1486.25 542.06 1486.25 Q539.884 1486.25 537.615 1485.88 Q535.37 1485.51 532.963 1484.77 L532.963 1480.07 Q535.046 1481.2 537.268 1481.76 Q539.49 1482.32 541.967 1482.32 Q545.972 1482.32 548.31 1480.21 Q550.648 1478.1 550.648 1474.49 Q550.648 1470.88 548.31 1468.77 Q545.972 1466.67 541.967 1466.67 Q540.092 1466.67 538.217 1467.08 Q536.365 1467.5 534.421 1468.38 L534.421 1451.02 Z" fill="#000000" fill-rule="nonzero" fill-opacity="1"></path><path clip-path="url(#clip070)" d="M782.867 1454.1 Q779.256 1454.1 777.428 1457.66 Q775.622 1461.2 775.622 1468.33 Q775.622 1475.44 777.428 1479.01 Q779.256 1482.55 782.867 1482.55 Q786.502 1482.55 788.307 1479.01 Q790.136 1475.44 790.136 1468.33 Q790.136 1461.2 788.307 1457.66 Q786.502 1454.1 782.867 1454.1 M782.867 1450.39 Q788.677 1450.39 791.733 1455 Q794.812 1459.58 794.812 1468.33 Q794.812 1477.06 791.733 1481.67 Q788.677 1486.25 782.867 1486.25 Q777.057 1486.25 773.978 1481.67 Q770.923 1477.06 770.923 1468.33 Q770.923 1459.58 773.978 1455 Q777.057 1450.39 782.867 1450.39 Z" fill="#000000" fill-rule="nonzero" fill-opacity="1"></path><path clip-path="url(#clip070)" d="M803.029 1479.7 L807.913 1479.7 L807.913 1485.58 L803.029 1485.58 L803.029 1479.7 Z" fill="#000000" fill-rule="nonzero" fill-opacity="1"></path><path clip-path="url(#clip070)" d="M818.909 1481.64 L826.548 1481.64 L826.548 1455.28 L818.237 1456.95 L818.237 1452.69 L826.501 1451.02 L831.177 1451.02 L831.177 1481.64 L838.816 1481.64 L838.816 1485.58 L818.909 1485.58 L818.909 1481.64 Z" fill="#000000" fill-rule="nonzero" fill-opacity="1"></path><path clip-path="url(#clip070)" d="M858.26 1454.1 Q854.649 1454.1 852.821 1457.66 Q851.015 1461.2 851.015 1468.33 Q851.015 1475.44 852.821 1479.01 Q854.649 1482.55 858.26 1482.55 Q861.895 1482.55 863.7 1479.01 Q865.529 1475.44 865.529 1468.33 Q865.529 1461.2 863.7 1457.66 Q861.895 1454.1 858.26 1454.1 M858.26 1450.39 Q864.071 1450.39 867.126 1455 Q870.205 1459.58 870.205 1468.33 Q870.205 1477.06 867.126 1481.67 Q864.071 1486.25 858.26 1486.25 Q852.45 1486.25 849.372 1481.67 Q846.316 1477.06 846.316 1468.33 Q846.316 1459.58 849.372 1455 Q852.45 1450.39 858.26 1450.39 Z" fill="#000000" fill-rule="nonzero" fill-opacity="1"></path><path clip-path="url(#clip070)" d="M1097.75 1454.1 Q1094.14 1454.1 1092.31 1457.66 Q1090.5 1461.2 1090.5 1468.33 Q1090.5 1475.44 1092.31 1479.01 Q1094.14 1482.55 1097.75 1482.55 Q1101.38 1482.55 1103.19 1479.01 Q1105.02 1475.44 1105.02 1468.33 Q1105.02 1461.2 1103.19 1457.66 Q1101.38 1454.1 1097.75 1454.1 M1097.75 1450.39 Q1103.56 1450.39 1106.61 1455 Q1109.69 1459.58 1109.69 1468.33 Q1109.69 1477.06 1106.61 1481.67 Q1103.56 1486.25 1097.75 1486.25 Q1091.94 1486.25 1088.86 1481.67 Q1085.8 1477.06 1085.8 1468.33 Q1085.8 1459.58 1088.86 1455 Q1091.94 1450.39 1097.75 1450.39 Z" fill="#000000" fill-rule="nonzero" fill-opacity="1"></path><path clip-path="url(#clip070)" d="M1117.91 1479.7 L1122.79 1479.7 L1122.79 1485.58 L1117.91 1485.58 L1117.91 1479.7 Z" fill="#000000" fill-rule="nonzero" fill-opacity="1"></path><path clip-path="url(#clip070)" d="M1133.79 1481.64 L1141.43 1481.64 L1141.43 1455.28 L1133.12 1456.95 L1133.12 1452.69 L1141.38 1451.02 L1146.06 1451.02 L1146.06 1481.64 L1153.7 1481.64 L1153.7 1485.58 L1133.79 1485.58 L1133.79 1481.64 Z" fill="#000000" fill-rule="nonzero" fill-opacity="1"></path><path clip-path="url(#clip070)" d="M1163.19 1451.02 L1181.54 1451.02 L1181.54 1454.96 L1167.47 1454.96 L1167.47 1463.43 Q1168.49 1463.08 1169.51 1462.92 Q1170.53 1462.73 1171.54 1462.73 Q1177.33 1462.73 1180.71 1465.9 Q1184.09 1469.08 1184.09 1474.49 Q1184.09 1480.07 1180.62 1483.17 Q1177.15 1486.25 1170.83 1486.25 Q1168.65 1486.25 1166.38 1485.88 Q1164.14 1485.51 1161.73 1484.77 L1161.73 1480.07 Q1163.81 1481.2 1166.04 1481.76 Q1168.26 1482.32 1170.73 1482.32 Q1174.74 1482.32 1177.08 1480.21 Q1179.41 1478.1 1179.41 1474.49 Q1179.41 1470.88 1177.08 1468.77 Q1174.74 1466.67 1170.73 1466.67 Q1168.86 1466.67 1166.98 1467.08 Q1165.13 1467.5 1163.19 1468.38 L1163.19 1451.02 Z" fill="#000000" fill-rule="nonzero" fill-opacity="1"></path><path clip-path="url(#clip070)" d="M1411.63 1454.1 Q1408.02 1454.1 1406.19 1457.66 Q1404.39 1461.2 1404.39 1468.33 Q1404.39 1475.44 1406.19 1479.01 Q1408.02 1482.55 1411.63 1482.55 Q1415.27 1482.55 1417.07 1479.01 Q1418.9 1475.44 1418.9 1468.33 Q1418.9 1461.2 1417.07 1457.66 Q1415.27 1454.1 1411.63 1454.1 M1411.63 1450.39 Q1417.44 1450.39 1420.5 1455 Q1423.58 1459.58 1423.58 1468.33 Q1423.58 1477.06 1420.5 1481.67 Q1417.44 1486.25 1411.63 1486.25 Q1405.82 1486.25 1402.75 1481.67 Q1399.69 1477.06 1399.69 1468.33 Q1399.69 1459.58 1402.75 1455 Q1405.82 1450.39 1411.63 1450.39 Z" fill="#000000" fill-rule="nonzero" fill-opacity="1"></path><path clip-path="url(#clip070)" d="M1431.8 1479.7 L1436.68 1479.7 L1436.68 1485.58 L1431.8 1485.58 L1431.8 1479.7 Z" fill="#000000" fill-rule="nonzero" fill-opacity="1"></path><path clip-path="url(#clip070)" d="M1450.89 1481.64 L1467.21 1481.64 L1467.21 1485.58 L1445.27 1485.58 L1445.27 1481.64 Q1447.93 1478.89 1452.51 1474.26 Q1457.12 1469.61 1458.3 1468.27 Q1460.55 1465.74 1461.43 1464.01 Q1462.33 1462.25 1462.33 1460.56 Q1462.33 1457.8 1460.38 1456.07 Q1458.46 1454.33 1455.36 1454.33 Q1453.16 1454.33 1450.71 1455.09 Q1448.28 1455.86 1445.5 1457.41 L1445.5 1452.69 Q1448.32 1451.55 1450.78 1450.97 Q1453.23 1450.39 1455.27 1450.39 Q1460.64 1450.39 1463.83 1453.08 Q1467.03 1455.77 1467.03 1460.26 Q1467.03 1462.39 1466.22 1464.31 Q1465.43 1466.2 1463.32 1468.8 Q1462.75 1469.47 1459.64 1472.69 Q1456.54 1475.88 1450.89 1481.64 Z" fill="#000000" fill-rule="nonzero" fill-opacity="1"></path><path clip-path="url(#clip070)" d="M1487.03 1454.1 Q1483.42 1454.1 1481.59 1457.66 Q1479.78 1461.2 1479.78 1468.33 Q1479.78 1475.44 1481.59 1479.01 Q1483.42 1482.55 1487.03 1482.55 Q1490.66 1482.55 1492.47 1479.01 Q1494.3 1475.44 1494.3 1468.33 Q1494.3 1461.2 1492.47 1457.66 Q1490.66 1454.1 1487.03 1454.1 M1487.03 1450.39 Q1492.84 1450.39 1495.89 1455 Q1498.97 1459.58 1498.97 1468.33 Q1498.97 1477.06 1495.89 1481.67 Q1492.84 1486.25 1487.03 1486.25 Q1481.22 1486.25 1478.14 1481.67 Q1475.08 1477.06 1475.08 1468.33 Q1475.08 1459.58 1478.14 1455 Q1481.22 1450.39 1487.03 1450.39 Z" fill="#000000" fill-rule="nonzero" fill-opacity="1"></path><path clip-path="url(#clip070)" d="M1726.52 1454.1 Q1722.9 1454.1 1721.08 1457.66 Q1719.27 1461.2 1719.27 1468.33 Q1719.27 1475.44 1721.08 1479.01 Q1722.9 1482.55 1726.52 1482.55 Q1730.15 1482.55 1731.96 1479.01 Q1733.78 1475.44 1733.78 1468.33 Q1733.78 1461.2 1731.96 1457.66 Q1730.15 1454.1 1726.52 1454.1 M1726.52 1450.39 Q1732.33 1450.39 1735.38 1455 Q1738.46 1459.58 1738.46 1468.33 Q1738.46 1477.06 1735.38 1481.67 Q1732.33 1486.25 1726.52 1486.25 Q1720.71 1486.25 1717.63 1481.67 Q1714.57 1477.06 1714.57 1468.33 Q1714.57 1459.58 1717.63 1455 Q1720.71 1450.39 1726.52 1450.39 Z" fill="#000000" fill-rule="nonzero" fill-opacity="1"></path><path clip-path="url(#clip070)" d="M1746.68 1479.7 L1751.56 1479.7 L1751.56 1485.58 L1746.68 1485.58 L1746.68 1479.7 Z" fill="#000000" fill-rule="nonzero" fill-opacity="1"></path><path clip-path="url(#clip070)" d="M1765.77 1481.64 L1782.09 1481.64 L1782.09 1485.58 L1760.15 1485.58 L1760.15 1481.64 Q1762.81 1478.89 1767.4 1474.26 Q1772 1469.61 1773.18 1468.27 Q1775.43 1465.74 1776.31 1464.01 Q1777.21 1462.25 1777.21 1460.56 Q1777.21 1457.8 1775.27 1456.07 Q1773.34 1454.33 1770.24 1454.33 Q1768.04 1454.33 1765.59 1455.09 Q1763.16 1455.86 1760.38 1457.41 L1760.38 1452.69 Q1763.21 1451.55 1765.66 1450.97 Q1768.11 1450.39 1770.15 1450.39 Q1775.52 1450.39 1778.71 1453.08 Q1781.91 1455.77 1781.91 1460.26 Q1781.91 1462.39 1781.1 1464.31 Q1780.31 1466.2 1778.21 1468.8 Q1777.63 1469.47 1774.52 1472.69 Q1771.42 1475.88 1765.77 1481.64 Z" fill="#000000" fill-rule="nonzero" fill-opacity="1"></path><path clip-path="url(#clip070)" d="M1791.96 1451.02 L1810.31 1451.02 L1810.31 1454.96 L1796.24 1454.96 L1796.24 1463.43 Q1797.26 1463.08 1798.27 1462.92 Q1799.29 1462.73 1800.31 1462.73 Q1806.1 1462.73 1809.48 1465.9 Q1812.86 1469.08 1812.86 1474.49 Q1812.86 1480.07 1809.39 1483.17 Q1805.91 1486.25 1799.59 1486.25 Q1797.42 1486.25 1795.15 1485.88 Q1792.9 1485.51 1790.5 1484.77 L1790.5 1480.07 Q1792.58 1481.2 1794.8 1481.76 Q1797.02 1482.32 1799.5 1482.32 Q1803.51 1482.32 1805.84 1480.21 Q1808.18 1478.1 1808.18 1474.49 Q1808.18 1470.88 1805.84 1468.77 Q1803.51 1466.67 1799.5 1466.67 Q1797.63 1466.67 1795.75 1467.08 Q1793.9 1467.5 1791.96 1468.38 L1791.96 1451.02 Z" fill="#000000" fill-rule="nonzero" fill-opacity="1"></path><path clip-path="url(#clip070)" d="M2040.4 1454.1 Q2036.79 1454.1 2034.96 1457.66 Q2033.16 1461.2 2033.16 1468.33 Q2033.16 1475.44 2034.96 1479.01 Q2036.79 1482.55 2040.4 1482.55 Q2044.04 1482.55 2045.84 1479.01 Q2047.67 1475.44 2047.67 1468.33 Q2047.67 1461.2 2045.84 1457.66 Q2044.04 1454.1 2040.4 1454.1 M2040.4 1450.39 Q2046.21 1450.39 2049.27 1455 Q2052.35 1459.58 2052.35 1468.33 Q2052.35 1477.06 2049.27 1481.67 Q2046.21 1486.25 2040.4 1486.25 Q2034.59 1486.25 2031.51 1481.67 Q2028.46 1477.06 2028.46 1468.33 Q2028.46 1459.58 2031.51 1455 Q2034.59 1450.39 2040.4 1450.39 Z" fill="#000000" fill-rule="nonzero" fill-opacity="1"></path><path clip-path="url(#clip070)" d="M2060.56 1479.7 L2065.45 1479.7 L2065.45 1485.58 L2060.56 1485.58 L2060.56 1479.7 Z" fill="#000000" fill-rule="nonzero" fill-opacity="1"></path><path clip-path="url(#clip070)" d="M2089.8 1466.95 Q2093.16 1467.66 2095.03 1469.93 Q2096.93 1472.2 2096.93 1475.53 Q2096.93 1480.65 2093.41 1483.45 Q2089.89 1486.25 2083.41 1486.25 Q2081.23 1486.25 2078.92 1485.81 Q2076.63 1485.39 2074.17 1484.54 L2074.17 1480.02 Q2076.12 1481.16 2078.43 1481.74 Q2080.75 1482.32 2083.27 1482.32 Q2087.67 1482.32 2089.96 1480.58 Q2092.28 1478.84 2092.28 1475.53 Q2092.28 1472.48 2090.12 1470.77 Q2087.99 1469.03 2084.17 1469.03 L2080.15 1469.03 L2080.15 1465.19 L2084.36 1465.19 Q2087.81 1465.19 2089.64 1463.82 Q2091.47 1462.43 2091.47 1459.84 Q2091.47 1457.18 2089.57 1455.77 Q2087.69 1454.33 2084.17 1454.33 Q2082.25 1454.33 2080.05 1454.75 Q2077.85 1455.16 2075.22 1456.04 L2075.22 1451.88 Q2077.88 1451.14 2080.19 1450.77 Q2082.53 1450.39 2084.59 1450.39 Q2089.92 1450.39 2093.02 1452.83 Q2096.12 1455.23 2096.12 1459.35 Q2096.12 1462.22 2094.48 1464.21 Q2092.83 1466.18 2089.8 1466.95 Z" fill="#000000" fill-rule="nonzero" fill-opacity="1"></path><path clip-path="url(#clip070)" d="M2115.79 1454.1 Q2112.18 1454.1 2110.35 1457.66 Q2108.55 1461.2 2108.55 1468.33 Q2108.55 1475.44 2110.35 1479.01 Q2112.18 1482.55 2115.79 1482.55 Q2119.43 1482.55 2121.23 1479.01 Q2123.06 1475.44 2123.06 1468.33 Q2123.06 1461.2 2121.23 1457.66 Q2119.43 1454.1 2115.79 1454.1 M2115.79 1450.39 Q2121.6 1450.39 2124.66 1455 Q2127.74 1459.58 2127.74 1468.33 Q2127.74 1477.06 2124.66 1481.67 Q2121.6 1486.25 2115.79 1486.25 Q2109.98 1486.25 2106.91 1481.67 Q2103.85 1477.06 2103.85 1468.33 Q2103.85 1459.58 2106.91 1455 Q2109.98 1450.39 2115.79 1450.39 Z" fill="#000000" fill-rule="nonzero" fill-opacity="1"></path><path clip-path="url(#clip070)" d="M945.283 1545.76 Q947.352 1546.46 949.293 1548.76 Q951.267 1551.05 953.24 1555.06 L959.765 1568.04 L952.858 1568.04 L946.779 1555.85 Q944.423 1551.08 942.195 1549.52 Q939.999 1547.96 936.18 1547.96 L929.178 1547.96 L929.178 1568.04 L922.748 1568.04 L922.748 1520.52 L937.262 1520.52 Q945.41 1520.52 949.421 1523.93 Q953.431 1527.34 953.431 1534.21 Q953.431 1538.7 951.33 1541.66 Q949.261 1544.62 945.283 1545.76 M929.178 1525.81 L929.178 1542.68 L937.262 1542.68 Q941.909 1542.68 944.264 1540.54 Q946.651 1538.38 946.651 1534.21 Q946.651 1530.04 944.264 1527.94 Q941.909 1525.81 937.262 1525.81 L929.178 1525.81 Z" fill="#000000" fill-rule="nonzero" fill-opacity="1"></path><path clip-path="url(#clip070)" d="M967.786 1532.4 L973.642 1532.4 L973.642 1568.04 L967.786 1568.04 L967.786 1532.4 M967.786 1518.52 L973.642 1518.52 L973.642 1525.93 L967.786 1525.93 L967.786 1518.52 Z" fill="#000000" fill-rule="nonzero" fill-opacity="1"></path><path clip-path="url(#clip070)" d="M1008.62 1533.45 L1008.62 1538.98 Q1006.14 1537.71 1003.47 1537.07 Q1000.79 1536.44 997.927 1536.44 Q993.567 1536.44 991.371 1537.77 Q989.206 1539.11 989.206 1541.79 Q989.206 1543.82 990.766 1545 Q992.325 1546.15 997.036 1547.2 L999.041 1547.64 Q1005.28 1548.98 1007.89 1551.43 Q1010.53 1553.85 1010.53 1558.21 Q1010.53 1563.17 1006.58 1566.07 Q1002.67 1568.97 995.795 1568.97 Q992.93 1568.97 989.811 1568.39 Q986.724 1567.85 983.286 1566.74 L983.286 1560.69 Q986.533 1562.38 989.684 1563.24 Q992.835 1564.07 995.922 1564.07 Q1000.06 1564.07 1002.29 1562.66 Q1004.52 1561.23 1004.52 1558.65 Q1004.52 1556.27 1002.89 1554.99 Q1001.3 1553.72 995.858 1552.54 L993.821 1552.07 Q988.379 1550.92 985.96 1548.56 Q983.541 1546.18 983.541 1542.04 Q983.541 1537.01 987.106 1534.27 Q990.67 1531.54 997.227 1531.54 Q1000.47 1531.54 1003.34 1532.01 Q1006.2 1532.49 1008.62 1533.45 Z" fill="#000000" fill-rule="nonzero" fill-opacity="1"></path><path clip-path="url(#clip070)" d="M1019.63 1518.52 L1025.52 1518.52 L1025.52 1547.77 L1043 1532.4 L1050.48 1532.4 L1031.57 1549.07 L1051.27 1568.04 L1043.63 1568.04 L1025.52 1550.63 L1025.52 1568.04 L1019.63 1568.04 L1019.63 1518.52 Z" fill="#000000" fill-rule="nonzero" fill-opacity="1"></path><path clip-path="url(#clip070)" d="M1083.99 1562.7 L1083.99 1581.6 L1078.1 1581.6 L1078.1 1532.4 L1083.99 1532.4 L1083.99 1537.81 Q1085.84 1534.62 1088.64 1533.1 Q1091.47 1531.54 1095.39 1531.54 Q1101.88 1531.54 1105.92 1536.69 Q1110 1541.85 1110 1550.25 Q1110 1558.65 1105.92 1563.81 Q1101.88 1568.97 1095.39 1568.97 Q1091.47 1568.97 1088.64 1567.44 Q1085.84 1565.88 1083.99 1562.7 M1103.92 1550.25 Q1103.92 1543.79 1101.24 1540.13 Q1098.6 1536.44 1093.95 1536.44 Q1089.31 1536.44 1086.63 1540.13 Q1083.99 1543.79 1083.99 1550.25 Q1083.99 1556.71 1086.63 1560.4 Q1089.31 1564.07 1093.95 1564.07 Q1098.6 1564.07 1101.24 1560.4 Q1103.92 1556.71 1103.92 1550.25 Z" fill="#000000" fill-rule="nonzero" fill-opacity="1"></path><path clip-path="url(#clip070)" d="M1140.36 1537.87 Q1139.37 1537.3 1138.2 1537.04 Q1137.05 1536.76 1135.65 1536.76 Q1130.68 1536.76 1128.01 1540 Q1125.37 1543.22 1125.37 1549.27 L1125.37 1568.04 L1119.48 1568.04 L1119.48 1532.4 L1125.37 1532.4 L1125.37 1537.93 Q1127.21 1534.69 1130.17 1533.13 Q1133.13 1531.54 1137.37 1531.54 Q1137.97 1531.54 1138.7 1531.63 Q1139.44 1531.7 1140.33 1531.85 L1140.36 1537.87 Z" fill="#000000" fill-rule="nonzero" fill-opacity="1"></path><path clip-path="url(#clip070)" d="M1175.56 1548.76 L1175.56 1551.62 L1148.64 1551.62 Q1149.02 1557.67 1152.26 1560.85 Q1155.54 1564 1161.37 1564 Q1164.74 1564 1167.89 1563.17 Q1171.07 1562.35 1174.19 1560.69 L1174.19 1566.23 Q1171.04 1567.57 1167.73 1568.27 Q1164.42 1568.97 1161.02 1568.97 Q1152.49 1568.97 1147.49 1564 Q1142.52 1559.04 1142.52 1550.57 Q1142.52 1541.82 1147.23 1536.69 Q1151.98 1531.54 1160 1531.54 Q1167.19 1531.54 1171.36 1536.18 Q1175.56 1540.8 1175.56 1548.76 M1169.71 1547.04 Q1169.64 1542.23 1167 1539.37 Q1164.39 1536.5 1160.06 1536.5 Q1155.16 1536.5 1152.2 1539.27 Q1149.27 1542.04 1148.83 1547.07 L1169.71 1547.04 Z" fill="#000000" fill-rule="nonzero" fill-opacity="1"></path><path clip-path="url(#clip070)" d="M1212.93 1539.24 Q1215.13 1535.29 1218.18 1533.41 Q1221.24 1531.54 1225.37 1531.54 Q1230.94 1531.54 1233.97 1535.45 Q1236.99 1539.33 1236.99 1546.53 L1236.99 1568.04 L1231.1 1568.04 L1231.1 1546.72 Q1231.1 1541.59 1229.29 1539.11 Q1227.47 1536.63 1223.75 1536.63 Q1219.2 1536.63 1216.56 1539.65 Q1213.92 1542.68 1213.92 1547.9 L1213.92 1568.04 L1208.03 1568.04 L1208.03 1546.72 Q1208.03 1541.56 1206.21 1539.11 Q1204.4 1536.63 1200.61 1536.63 Q1196.12 1536.63 1193.48 1539.68 Q1190.84 1542.71 1190.84 1547.9 L1190.84 1568.04 L1184.95 1568.04 L1184.95 1532.4 L1190.84 1532.4 L1190.84 1537.93 Q1192.85 1534.66 1195.65 1533.1 Q1198.45 1531.54 1202.3 1531.54 Q1206.18 1531.54 1208.89 1533.51 Q1211.62 1535.48 1212.93 1539.24 Z" fill="#000000" fill-rule="nonzero" fill-opacity="1"></path><path clip-path="url(#clip070)" d="M1248.67 1532.4 L1254.53 1532.4 L1254.53 1568.04 L1248.67 1568.04 L1248.67 1532.4 M1248.67 1518.52 L1254.53 1518.52 L1254.53 1525.93 L1248.67 1525.93 L1248.67 1518.52 Z" fill="#000000" fill-rule="nonzero" fill-opacity="1"></path><path clip-path="url(#clip070)" d="M1266.18 1553.98 L1266.18 1532.4 L1272.03 1532.4 L1272.03 1553.75 Q1272.03 1558.81 1274.01 1561.36 Q1275.98 1563.87 1279.93 1563.87 Q1284.67 1563.87 1287.41 1560.85 Q1290.18 1557.83 1290.18 1552.61 L1290.18 1532.4 L1296.03 1532.4 L1296.03 1568.04 L1290.18 1568.04 L1290.18 1562.57 Q1288.04 1565.82 1285.21 1567.41 Q1282.41 1568.97 1278.69 1568.97 Q1272.54 1568.97 1269.36 1565.15 Q1266.18 1561.33 1266.18 1553.98 M1280.91 1531.54 L1280.91 1531.54 Z" fill="#000000" fill-rule="nonzero" fill-opacity="1"></path><path clip-path="url(#clip070)" d="M1335.85 1539.24 Q1338.05 1535.29 1341.1 1533.41 Q1344.16 1531.54 1348.3 1531.54 Q1353.87 1531.54 1356.89 1535.45 Q1359.91 1539.33 1359.91 1546.53 L1359.91 1568.04 L1354.02 1568.04 L1354.02 1546.72 Q1354.02 1541.59 1352.21 1539.11 Q1350.4 1536.63 1346.67 1536.63 Q1342.12 1536.63 1339.48 1539.65 Q1336.84 1542.68 1336.84 1547.9 L1336.84 1568.04 L1330.95 1568.04 L1330.95 1546.72 Q1330.95 1541.56 1329.13 1539.11 Q1327.32 1536.63 1323.53 1536.63 Q1319.05 1536.63 1316.4 1539.68 Q1313.76 1542.71 1313.76 1547.9 L1313.76 1568.04 L1307.87 1568.04 L1307.87 1532.4 L1313.76 1532.4 L1313.76 1537.93 Q1315.77 1534.66 1318.57 1533.1 Q1321.37 1531.54 1325.22 1531.54 Q1329.1 1531.54 1331.81 1533.51 Q1334.55 1535.48 1335.85 1539.24 Z" fill="#000000" fill-rule="nonzero" fill-opacity="1"></path><path clip-path="url(#clip070)" d="M1406.38 1518.58 Q1402.12 1525.9 1400.05 1533.06 Q1397.98 1540.23 1397.98 1547.58 Q1397.98 1554.93 1400.05 1562.16 Q1402.15 1569.35 1406.38 1576.64 L1401.29 1576.64 Q1396.52 1569.16 1394.13 1561.93 Q1391.77 1554.71 1391.77 1547.58 Q1391.77 1540.48 1394.13 1533.29 Q1396.48 1526.09 1401.29 1518.58 L1406.38 1518.58 Z" fill="#000000" fill-rule="nonzero" fill-opacity="1"></path><path clip-path="url(#clip070)" d="M1431.78 1524.09 L1448.24 1568.04 L1442.03 1568.04 L1432.04 1541.69 L1419.75 1568.04 L1413.54 1568.04 L1429.17 1533.86 L1426.82 1527.56 Q1425.32 1523.55 1421.92 1523.55 L1418.86 1523.55 L1418.86 1518.52 L1422.58 1518.58 Q1429.78 1518.68 1431.78 1524.09 Z" fill="#000000" fill-rule="nonzero" fill-opacity="1"></path><path clip-path="url(#clip070)" d="M1479.05 1533.45 L1479.05 1538.98 Q1476.56 1537.71 1473.89 1537.07 Q1471.22 1536.44 1468.35 1536.44 Q1463.99 1536.44 1461.8 1537.77 Q1459.63 1539.11 1459.63 1541.79 Q1459.63 1543.82 1461.19 1545 Q1462.75 1546.15 1467.46 1547.2 L1469.47 1547.64 Q1475.71 1548.98 1478.32 1551.43 Q1480.96 1553.85 1480.96 1558.21 Q1480.96 1563.17 1477.01 1566.07 Q1473.1 1568.97 1466.22 1568.97 Q1463.36 1568.97 1460.24 1568.39 Q1457.15 1567.85 1453.71 1566.74 L1453.71 1560.69 Q1456.96 1562.38 1460.11 1563.24 Q1463.26 1564.07 1466.35 1564.07 Q1470.49 1564.07 1472.71 1562.66 Q1474.94 1561.23 1474.94 1558.65 Q1474.94 1556.27 1473.32 1554.99 Q1471.73 1553.72 1466.28 1552.54 L1464.25 1552.07 Q1458.8 1550.92 1456.39 1548.56 Q1453.97 1546.18 1453.97 1542.04 Q1453.97 1537.01 1457.53 1534.27 Q1461.1 1531.54 1467.65 1531.54 Q1470.9 1531.54 1473.76 1532.01 Q1476.63 1532.49 1479.05 1533.45 Z" fill="#000000" fill-rule="nonzero" fill-opacity="1"></path><path clip-path="url(#clip070)" d="M1496.08 1522.27 L1496.08 1532.4 L1508.14 1532.4 L1508.14 1536.95 L1496.08 1536.95 L1496.08 1556.3 Q1496.08 1560.66 1497.25 1561.9 Q1498.46 1563.14 1502.12 1563.14 L1508.14 1563.14 L1508.14 1568.04 L1502.12 1568.04 Q1495.34 1568.04 1492.77 1565.53 Q1490.19 1562.98 1490.19 1556.3 L1490.19 1536.95 L1485.89 1536.95 L1485.89 1532.4 L1490.19 1532.4 L1490.19 1522.27 L1496.08 1522.27 Z" fill="#000000" fill-rule="nonzero" fill-opacity="1"></path><path clip-path="url(#clip070)" d="M1536.5 1537.87 Q1535.51 1537.3 1534.33 1537.04 Q1533.19 1536.76 1531.79 1536.76 Q1526.82 1536.76 1524.15 1540 Q1521.51 1543.22 1521.51 1549.27 L1521.51 1568.04 L1515.62 1568.04 L1515.62 1532.4 L1521.51 1532.4 L1521.51 1537.93 Q1523.35 1534.69 1526.31 1533.13 Q1529.27 1531.54 1533.51 1531.54 Q1534.11 1531.54 1534.84 1531.63 Q1535.57 1531.7 1536.47 1531.85 L1536.5 1537.87 Z" fill="#000000" fill-rule="nonzero" fill-opacity="1"></path><path clip-path="url(#clip070)" d="M1555.02 1536.5 Q1550.31 1536.5 1547.57 1540.19 Q1544.84 1543.85 1544.84 1550.25 Q1544.84 1556.65 1547.54 1560.34 Q1550.28 1564 1555.02 1564 Q1559.7 1564 1562.44 1560.31 Q1565.18 1556.62 1565.18 1550.25 Q1565.18 1543.92 1562.44 1540.23 Q1559.7 1536.5 1555.02 1536.5 M1555.02 1531.54 Q1562.66 1531.54 1567.02 1536.5 Q1571.38 1541.47 1571.38 1550.25 Q1571.38 1559 1567.02 1564 Q1562.66 1568.97 1555.02 1568.97 Q1547.35 1568.97 1542.99 1564 Q1538.66 1559 1538.66 1550.25 Q1538.66 1541.47 1542.99 1536.5 Q1547.35 1531.54 1555.02 1531.54 Z" fill="#000000" fill-rule="nonzero" fill-opacity="1"></path><path clip-path="url(#clip070)" d="M1610.72 1546.53 L1610.72 1568.04 L1604.87 1568.04 L1604.87 1546.72 Q1604.87 1541.66 1602.89 1539.14 Q1600.92 1536.63 1596.97 1536.63 Q1592.23 1536.63 1589.49 1539.65 Q1586.76 1542.68 1586.76 1547.9 L1586.76 1568.04 L1580.87 1568.04 L1580.87 1532.4 L1586.76 1532.4 L1586.76 1537.93 Q1588.86 1534.72 1591.69 1533.13 Q1594.55 1531.54 1598.28 1531.54 Q1604.42 1531.54 1607.57 1535.36 Q1610.72 1539.14 1610.72 1546.53 Z" fill="#000000" fill-rule="nonzero" fill-opacity="1"></path><path clip-path="url(#clip070)" d="M1645.86 1549.81 Q1645.86 1543.44 1643.22 1539.94 Q1640.61 1536.44 1635.87 1536.44 Q1631.16 1536.44 1628.51 1539.94 Q1625.9 1543.44 1625.9 1549.81 Q1625.9 1556.14 1628.51 1559.64 Q1631.16 1563.14 1635.87 1563.14 Q1640.61 1563.14 1643.22 1559.64 Q1645.86 1556.14 1645.86 1549.81 M1651.72 1563.62 Q1651.72 1572.72 1647.67 1577.15 Q1643.63 1581.6 1635.29 1581.6 Q1632.21 1581.6 1629.47 1581.13 Q1626.73 1580.68 1624.15 1579.72 L1624.15 1574.03 Q1626.73 1575.43 1629.25 1576.1 Q1631.76 1576.76 1634.37 1576.76 Q1640.13 1576.76 1643 1573.74 Q1645.86 1570.75 1645.86 1564.67 L1645.86 1561.77 Q1644.05 1564.92 1641.21 1566.48 Q1638.38 1568.04 1634.43 1568.04 Q1627.88 1568.04 1623.87 1563.05 Q1619.86 1558.05 1619.86 1549.81 Q1619.86 1541.53 1623.87 1536.53 Q1627.88 1531.54 1634.43 1531.54 Q1638.38 1531.54 1641.21 1533.1 Q1644.05 1534.66 1645.86 1537.81 L1645.86 1532.4 L1651.72 1532.4 L1651.72 1563.62 Z" fill="#000000" fill-rule="nonzero" fill-opacity="1"></path><path clip-path="url(#clip070)" d="M1662.86 1518.58 L1667.95 1518.58 Q1672.72 1526.09 1675.08 1533.29 Q1677.47 1540.48 1677.47 1547.58 Q1677.47 1554.71 1675.08 1561.93 Q1672.72 1569.16 1667.95 1576.64 L1662.86 1576.64 Q1667.09 1569.35 1669.16 1562.16 Q1671.26 1554.93 1671.26 1547.58 Q1671.26 1540.23 1669.16 1533.06 Q1667.09 1525.9 1662.86 1518.58 Z" fill="#000000" fill-rule="nonzero" fill-opacity="1"></path><polyline clip-path="url(#clip070)" style="stroke:#000000; stroke-linecap:round; stroke-linejoin:round; stroke-width:4; stroke-opacity:1; fill:none" points="247.459,1423.18 247.459,123.472 "></polyline>
<polyline clip-path="url(#clip070)" style="stroke:#000000; stroke-linecap:round; stroke-linejoin:round; stroke-width:4; stroke-opacity:1; fill:none" points="247.459,1386.4 266.356,1386.4 "></polyline>
<polyline clip-path="url(#clip070)" style="stroke:#000000; stroke-linecap:round; stroke-linejoin:round; stroke-width:4; stroke-opacity:1; fill:none" points="247.459,1117.92 266.356,1117.92 "></polyline>
<polyline clip-path="url(#clip070)" style="stroke:#000000; stroke-linecap:round; stroke-linejoin:round; stroke-width:4; stroke-opacity:1; fill:none" points="247.459,849.435 266.356,849.435 "></polyline>
<polyline clip-path="url(#clip070)" style="stroke:#000000; stroke-linecap:round; stroke-linejoin:round; stroke-width:4; stroke-opacity:1; fill:none" points="247.459,580.954 266.356,580.954 "></polyline>
<polyline clip-path="url(#clip070)" style="stroke:#000000; stroke-linecap:round; stroke-linejoin:round; stroke-width:4; stroke-opacity:1; fill:none" points="247.459,312.473 266.356,312.473 "></polyline>
<path clip-path="url(#clip070)" d="M154.283 1372.19 Q150.672 1372.19 148.843 1375.76 Q147.038 1379.3 147.038 1386.43 Q147.038 1393.54 148.843 1397.1 Q150.672 1400.64 154.283 1400.64 Q157.917 1400.64 159.723 1397.1 Q161.552 1393.54 161.552 1386.43 Q161.552 1379.3 159.723 1375.76 Q157.917 1372.19 154.283 1372.19 M154.283 1368.49 Q160.093 1368.49 163.149 1373.1 Q166.227 1377.68 166.227 1386.43 Q166.227 1395.16 163.149 1399.76 Q160.093 1404.35 154.283 1404.35 Q148.473 1404.35 145.394 1399.76 Q142.339 1395.16 142.339 1386.43 Q142.339 1377.68 145.394 1373.1 Q148.473 1368.49 154.283 1368.49 Z" fill="#000000" fill-rule="nonzero" fill-opacity="1"></path><path clip-path="url(#clip070)" d="M174.445 1397.8 L179.329 1397.8 L179.329 1403.68 L174.445 1403.68 L174.445 1397.8 Z" fill="#000000" fill-rule="nonzero" fill-opacity="1"></path><path clip-path="url(#clip070)" d="M199.514 1372.19 Q195.903 1372.19 194.075 1375.76 Q192.269 1379.3 192.269 1386.43 Q192.269 1393.54 194.075 1397.1 Q195.903 1400.64 199.514 1400.64 Q203.149 1400.64 204.954 1397.1 Q206.783 1393.54 206.783 1386.43 Q206.783 1379.3 204.954 1375.76 Q203.149 1372.19 199.514 1372.19 M199.514 1368.49 Q205.324 1368.49 208.38 1373.1 Q211.459 1377.68 211.459 1386.43 Q211.459 1395.16 208.38 1399.76 Q205.324 1404.35 199.514 1404.35 Q193.704 1404.35 190.625 1399.76 Q187.57 1395.16 187.57 1386.43 Q187.57 1377.68 190.625 1373.1 Q193.704 1368.49 199.514 1368.49 Z" fill="#000000" fill-rule="nonzero" fill-opacity="1"></path><path clip-path="url(#clip070)" d="M149.306 1131.26 L165.626 1131.26 L165.626 1135.2 L143.681 1135.2 L143.681 1131.26 Q146.343 1128.51 150.927 1123.88 Q155.533 1119.22 156.714 1117.88 Q158.959 1115.36 159.839 1113.62 Q160.741 1111.86 160.741 1110.17 Q160.741 1107.42 158.797 1105.68 Q156.876 1103.95 153.774 1103.95 Q151.575 1103.95 149.121 1104.71 Q146.691 1105.47 143.913 1107.02 L143.913 1102.3 Q146.737 1101.17 149.191 1100.59 Q151.644 1100.01 153.681 1100.01 Q159.052 1100.01 162.246 1102.7 Q165.44 1105.38 165.44 1109.87 Q165.44 1112 164.63 1113.92 Q163.843 1115.82 161.737 1118.41 Q161.158 1119.08 158.056 1122.3 Q154.954 1125.5 149.306 1131.26 Z" fill="#000000" fill-rule="nonzero" fill-opacity="1"></path><path clip-path="url(#clip070)" d="M175.44 1129.32 L180.325 1129.32 L180.325 1135.2 L175.44 1135.2 L175.44 1129.32 Z" fill="#000000" fill-rule="nonzero" fill-opacity="1"></path><path clip-path="url(#clip070)" d="M190.556 1100.64 L208.912 1100.64 L208.912 1104.57 L194.838 1104.57 L194.838 1113.04 Q195.857 1112.7 196.875 1112.53 Q197.894 1112.35 198.912 1112.35 Q204.699 1112.35 208.079 1115.52 Q211.459 1118.69 211.459 1124.11 Q211.459 1129.69 207.987 1132.79 Q204.514 1135.87 198.195 1135.87 Q196.019 1135.87 193.75 1135.5 Q191.505 1135.13 189.098 1134.39 L189.098 1129.69 Q191.181 1130.82 193.403 1131.38 Q195.625 1131.93 198.102 1131.93 Q202.107 1131.93 204.445 1129.82 Q206.783 1127.72 206.783 1124.11 Q206.783 1120.5 204.445 1118.39 Q202.107 1116.28 198.102 1116.28 Q196.227 1116.28 194.352 1116.7 Q192.5 1117.12 190.556 1118 L190.556 1100.64 Z" fill="#000000" fill-rule="nonzero" fill-opacity="1"></path><path clip-path="url(#clip070)" d="M144.329 832.155 L162.686 832.155 L162.686 836.09 L148.612 836.09 L148.612 844.562 Q149.63 844.215 150.649 844.053 Q151.667 843.868 152.686 843.868 Q158.473 843.868 161.852 847.039 Q165.232 850.21 165.232 855.627 Q165.232 861.205 161.76 864.307 Q158.288 867.386 151.968 867.386 Q149.792 867.386 147.524 867.016 Q145.279 866.645 142.871 865.904 L142.871 861.205 Q144.954 862.34 147.177 862.895 Q149.399 863.451 151.876 863.451 Q155.88 863.451 158.218 861.344 Q160.556 859.238 160.556 855.627 Q160.556 852.016 158.218 849.909 Q155.88 847.803 151.876 847.803 Q150.001 847.803 148.126 848.219 Q146.274 848.636 144.329 849.516 L144.329 832.155 Z" fill="#000000" fill-rule="nonzero" fill-opacity="1"></path><path clip-path="url(#clip070)" d="M174.445 860.835 L179.329 860.835 L179.329 866.715 L174.445 866.715 L174.445 860.835 Z" fill="#000000" fill-rule="nonzero" fill-opacity="1"></path><path clip-path="url(#clip070)" d="M199.514 835.233 Q195.903 835.233 194.075 838.798 Q192.269 842.34 192.269 849.469 Q192.269 856.576 194.075 860.141 Q195.903 863.682 199.514 863.682 Q203.149 863.682 204.954 860.141 Q206.783 856.576 206.783 849.469 Q206.783 842.34 204.954 838.798 Q203.149 835.233 199.514 835.233 M199.514 831.53 Q205.324 831.53 208.38 836.136 Q211.459 840.719 211.459 849.469 Q211.459 858.196 208.38 862.803 Q205.324 867.386 199.514 867.386 Q193.704 867.386 190.625 862.803 Q187.57 858.196 187.57 849.469 Q187.57 840.719 190.625 836.136 Q193.704 831.53 199.514 831.53 Z" fill="#000000" fill-rule="nonzero" fill-opacity="1"></path><path clip-path="url(#clip070)" d="M144.098 563.674 L166.32 563.674 L166.32 565.665 L153.774 598.234 L148.89 598.234 L160.695 567.609 L144.098 567.609 L144.098 563.674 Z" fill="#000000" fill-rule="nonzero" fill-opacity="1"></path><path clip-path="url(#clip070)" d="M175.44 592.354 L180.325 592.354 L180.325 598.234 L175.44 598.234 L175.44 592.354 Z" fill="#000000" fill-rule="nonzero" fill-opacity="1"></path><path clip-path="url(#clip070)" d="M190.556 563.674 L208.912 563.674 L208.912 567.609 L194.838 567.609 L194.838 576.081 Q195.857 575.734 196.875 575.572 Q197.894 575.387 198.912 575.387 Q204.699 575.387 208.079 578.558 Q211.459 581.729 211.459 587.146 Q211.459 592.725 207.987 595.827 Q204.514 598.905 198.195 598.905 Q196.019 598.905 193.75 598.535 Q191.505 598.165 189.098 597.424 L189.098 592.725 Q191.181 593.859 193.403 594.415 Q195.625 594.97 198.102 594.97 Q202.107 594.97 204.445 592.864 Q206.783 590.757 206.783 587.146 Q206.783 583.535 204.445 581.428 Q202.107 579.322 198.102 579.322 Q196.227 579.322 194.352 579.739 Q192.5 580.155 190.556 581.035 L190.556 563.674 Z" fill="#000000" fill-rule="nonzero" fill-opacity="1"></path><path clip-path="url(#clip070)" d="M114.931 325.818 L122.57 325.818 L122.57 299.453 L114.26 301.119 L114.26 296.86 L122.524 295.193 L127.2 295.193 L127.2 325.818 L134.839 325.818 L134.839 329.753 L114.931 329.753 L114.931 325.818 Z" fill="#000000" fill-rule="nonzero" fill-opacity="1"></path><path clip-path="url(#clip070)" d="M154.283 298.272 Q150.672 298.272 148.843 301.837 Q147.038 305.378 147.038 312.508 Q147.038 319.614 148.843 323.179 Q150.672 326.721 154.283 326.721 Q157.917 326.721 159.723 323.179 Q161.552 319.614 161.552 312.508 Q161.552 305.378 159.723 301.837 Q157.917 298.272 154.283 298.272 M154.283 294.568 Q160.093 294.568 163.149 299.175 Q166.227 303.758 166.227 312.508 Q166.227 321.235 163.149 325.841 Q160.093 330.425 154.283 330.425 Q148.473 330.425 145.394 325.841 Q142.339 321.235 142.339 312.508 Q142.339 303.758 145.394 299.175 Q148.473 294.568 154.283 294.568 Z" fill="#000000" fill-rule="nonzero" fill-opacity="1"></path><path clip-path="url(#clip070)" d="M174.445 323.874 L179.329 323.874 L179.329 329.753 L174.445 329.753 L174.445 323.874 Z" fill="#000000" fill-rule="nonzero" fill-opacity="1"></path><path clip-path="url(#clip070)" d="M199.514 298.272 Q195.903 298.272 194.075 301.837 Q192.269 305.378 192.269 312.508 Q192.269 319.614 194.075 323.179 Q195.903 326.721 199.514 326.721 Q203.149 326.721 204.954 323.179 Q206.783 319.614 206.783 312.508 Q206.783 305.378 204.954 301.837 Q203.149 298.272 199.514 298.272 M199.514 294.568 Q205.324 294.568 208.38 299.175 Q211.459 303.758 211.459 312.508 Q211.459 321.235 208.38 325.841 Q205.324 330.425 199.514 330.425 Q193.704 330.425 190.625 325.841 Q187.57 321.235 187.57 312.508 Q187.57 303.758 190.625 299.175 Q193.704 294.568 199.514 294.568 Z" fill="#000000" fill-rule="nonzero" fill-opacity="1"></path><path clip-path="url(#clip070)" d="M21.7677 886.636 L58.7206 886.636 L58.7206 878.869 Q58.7206 869.034 54.2646 864.483 Q49.8086 859.9 40.1964 859.9 Q30.6479 859.9 26.2237 864.483 Q21.7677 869.034 21.7677 878.869 L21.7677 886.636 M16.4842 893.065 L16.4842 879.856 Q16.4842 866.043 22.2451 859.581 Q27.9743 853.12 40.1964 853.12 Q52.4822 853.12 58.2432 859.613 Q64.0042 866.106 64.0042 879.856 L64.0042 893.065 L16.4842 893.065 Z" fill="#000000" fill-rule="nonzero" fill-opacity="1"></path><path clip-path="url(#clip070)" d="M44.7161 812.634 L47.5806 812.634 L47.5806 839.561 Q53.6281 839.179 56.8109 835.933 Q59.9619 832.654 59.9619 826.83 Q59.9619 823.456 59.1344 820.305 Q58.3069 817.122 56.6518 814.003 L62.1899 814.003 Q63.5267 817.154 64.227 820.464 Q64.9272 823.774 64.9272 827.18 Q64.9272 835.71 59.9619 840.707 Q54.9967 845.672 46.5303 845.672 Q37.7774 845.672 32.6531 840.962 Q27.4968 836.219 27.4968 828.198 Q27.4968 821.005 32.1438 816.836 Q36.7589 812.634 44.7161 812.634 M42.9973 818.491 Q38.1912 818.554 35.3266 821.196 Q32.4621 823.806 32.4621 828.135 Q32.4621 833.036 35.2312 835.996 Q38.0002 838.925 43.0292 839.37 L42.9973 818.491 Z" fill="#000000" fill-rule="nonzero" fill-opacity="1"></path><path clip-path="url(#clip070)" d="M42.4881 773.39 L64.0042 773.39 L64.0042 779.246 L42.679 779.246 Q37.6183 779.246 35.1038 781.219 Q32.5894 783.193 32.5894 787.14 Q32.5894 791.882 35.6131 794.619 Q38.6368 797.357 43.8567 797.357 L64.0042 797.357 L64.0042 803.245 L28.3562 803.245 L28.3562 797.357 L33.8944 797.357 Q30.6797 795.256 29.0883 792.423 Q27.4968 789.559 27.4968 785.835 Q27.4968 779.692 31.3163 776.541 Q35.1038 773.39 42.4881 773.39 Z" fill="#000000" fill-rule="nonzero" fill-opacity="1"></path><path clip-path="url(#clip070)" d="M29.4065 738.983 L34.9447 738.983 Q33.6716 741.466 33.035 744.139 Q32.3984 746.813 32.3984 749.677 Q32.3984 754.038 33.7352 756.234 Q35.072 758.398 37.7456 758.398 Q39.7826 758.398 40.9603 756.839 Q42.1061 755.279 43.1565 750.569 L43.6021 748.563 Q44.9389 742.325 47.3897 739.715 Q49.8086 737.073 54.1691 737.073 Q59.1344 737.073 62.0308 741.02 Q64.9272 744.935 64.9272 751.81 Q64.9272 754.674 64.3543 757.794 Q63.8132 760.881 62.6992 764.319 L56.6518 764.319 Q58.3387 761.072 59.198 757.921 Q60.0256 754.77 60.0256 751.683 Q60.0256 747.545 58.6251 745.317 Q57.1929 743.089 54.6147 743.089 Q52.2276 743.089 50.9545 744.712 Q49.6813 746.304 48.5037 751.746 L48.0262 753.783 Q46.8804 759.226 44.5251 761.645 Q42.138 764.064 38.0002 764.064 Q32.9713 764.064 30.2341 760.499 Q27.4968 756.934 27.4968 750.378 Q27.4968 747.131 27.9743 744.267 Q28.4517 741.402 29.4065 738.983 Z" fill="#000000" fill-rule="nonzero" fill-opacity="1"></path><path clip-path="url(#clip070)" d="M28.3562 727.748 L28.3562 721.891 L64.0042 721.891 L64.0042 727.748 L28.3562 727.748 M14.479 727.748 L14.479 721.891 L21.895 721.891 L21.895 727.748 L14.479 727.748 Z" fill="#000000" fill-rule="nonzero" fill-opacity="1"></path><path clip-path="url(#clip070)" d="M18.2347 703.844 L28.3562 703.844 L28.3562 691.781 L32.9077 691.781 L32.9077 703.844 L52.2594 703.844 Q56.6199 703.844 57.8613 702.667 Q59.1026 701.457 59.1026 697.797 L59.1026 691.781 L64.0042 691.781 L64.0042 697.797 Q64.0042 704.576 61.4897 707.154 Q58.9434 709.733 52.2594 709.733 L32.9077 709.733 L32.9077 714.029 L28.3562 714.029 L28.3562 709.733 L18.2347 709.733 L18.2347 703.844 Z" fill="#000000" fill-rule="nonzero" fill-opacity="1"></path><path clip-path="url(#clip070)" d="M67.3143 669.247 Q73.68 671.729 75.6216 674.085 Q77.5631 676.44 77.5631 680.387 L77.5631 685.065 L72.6615 685.065 L72.6615 681.628 Q72.6615 679.209 71.5157 677.872 Q70.3699 676.535 66.1048 674.912 L63.4312 673.862 L28.3562 688.28 L28.3562 682.074 L56.238 670.934 L28.3562 659.794 L28.3562 653.587 L67.3143 669.247 Z" fill="#000000" fill-rule="nonzero" fill-opacity="1"></path><path clip-path="url(#clip070)" d="M1064.87 14.0809 L1064.87 22.0612 Q1060.21 19.8332 1056.08 18.7395 Q1051.95 17.6457 1048.1 17.6457 Q1041.42 17.6457 1037.77 20.2383 Q1034.17 22.8309 1034.17 27.611 Q1034.17 31.6214 1036.56 33.6873 Q1038.99 35.7128 1045.71 36.9686 L1050.65 37.9813 Q1059.81 39.7232 1064.14 44.1387 Q1068.52 48.5136 1068.52 55.8863 Q1068.52 64.6767 1062.6 69.2137 Q1056.73 73.7508 1045.35 73.7508 Q1041.05 73.7508 1036.19 72.7785 Q1031.37 71.8063 1026.19 69.9024 L1026.19 61.4765 Q1031.17 64.2716 1035.95 65.6895 Q1040.73 67.1073 1045.35 67.1073 Q1052.35 67.1073 1056.16 64.3527 Q1059.97 61.598 1059.97 56.4939 Q1059.97 52.0379 1057.22 49.5264 Q1054.5 47.0148 1048.26 45.759 L1043.28 44.7868 Q1034.12 42.9639 1030.03 39.075 Q1025.94 35.1862 1025.94 28.2591 Q1025.94 20.2383 1031.57 15.6203 Q1037.24 11.0023 1047.17 11.0023 Q1051.42 11.0023 1055.84 11.7719 Q1060.25 12.5416 1064.87 14.0809 Z" fill="#000000" fill-rule="nonzero" fill-opacity="1"></path><path clip-path="url(#clip070)" d="M1088.33 14.324 L1088.33 27.2059 L1103.68 27.2059 L1103.68 32.9987 L1088.33 32.9987 L1088.33 57.6282 Q1088.33 63.1779 1089.82 64.7578 Q1091.36 66.3376 1096.02 66.3376 L1103.68 66.3376 L1103.68 72.576 L1096.02 72.576 Q1087.39 72.576 1084.11 69.3758 Q1080.83 66.1351 1080.83 57.6282 L1080.83 32.9987 L1075.36 32.9987 L1075.36 27.2059 L1080.83 27.2059 L1080.83 14.324 L1088.33 14.324 Z" fill="#000000" fill-rule="nonzero" fill-opacity="1"></path><path clip-path="url(#clip070)" d="M1139.77 34.1734 Q1138.52 33.4443 1137.02 33.1202 Q1135.56 32.7556 1133.78 32.7556 Q1127.46 32.7556 1124.06 36.8875 Q1120.69 40.9789 1120.69 48.6757 L1120.69 72.576 L1113.2 72.576 L1113.2 27.2059 L1120.69 27.2059 L1120.69 34.2544 Q1123.04 30.1225 1126.81 28.1376 Q1130.58 26.1121 1135.96 26.1121 Q1136.73 26.1121 1137.67 26.2337 Q1138.6 26.3147 1139.73 26.5172 L1139.77 34.1734 Z" fill="#000000" fill-rule="nonzero" fill-opacity="1"></path><path clip-path="url(#clip070)" d="M1163.35 32.4315 Q1157.35 32.4315 1153.87 37.1306 Q1150.39 41.7891 1150.39 49.9314 Q1150.39 58.0738 1153.83 62.7728 Q1157.31 67.4314 1163.35 67.4314 Q1169.3 67.4314 1172.79 62.7323 Q1176.27 58.0333 1176.27 49.9314 Q1176.27 41.8701 1172.79 37.1711 Q1169.3 32.4315 1163.35 32.4315 M1163.35 26.1121 Q1173.07 26.1121 1178.62 32.4315 Q1184.17 38.7509 1184.17 49.9314 Q1184.17 61.0714 1178.62 67.4314 Q1173.07 73.7508 1163.35 73.7508 Q1153.59 73.7508 1148.04 67.4314 Q1142.53 61.0714 1142.53 49.9314 Q1142.53 38.7509 1148.04 32.4315 Q1153.59 26.1121 1163.35 26.1121 Z" fill="#000000" fill-rule="nonzero" fill-opacity="1"></path><path clip-path="url(#clip070)" d="M1234.24 45.1919 L1234.24 72.576 L1226.79 72.576 L1226.79 45.4349 Q1226.79 38.994 1224.27 35.7938 Q1221.76 32.5936 1216.74 32.5936 Q1210.7 32.5936 1207.22 36.4419 Q1203.74 40.2903 1203.74 46.9338 L1203.74 72.576 L1196.24 72.576 L1196.24 27.2059 L1203.74 27.2059 L1203.74 34.2544 Q1206.41 30.163 1210.02 28.1376 Q1213.66 26.1121 1218.4 26.1121 Q1226.22 26.1121 1230.23 30.9732 Q1234.24 35.7938 1234.24 45.1919 Z" fill="#000000" fill-rule="nonzero" fill-opacity="1"></path><path clip-path="url(#clip070)" d="M1278.96 49.3643 Q1278.96 41.2625 1275.6 36.8065 Q1272.28 32.3505 1266.24 32.3505 Q1260.25 32.3505 1256.88 36.8065 Q1253.56 41.2625 1253.56 49.3643 Q1253.56 57.4256 1256.88 61.8816 Q1260.25 66.3376 1266.24 66.3376 Q1272.28 66.3376 1275.6 61.8816 Q1278.96 57.4256 1278.96 49.3643 M1286.42 66.9452 Q1286.42 78.5308 1281.27 84.1616 Q1276.13 89.8329 1265.51 89.8329 Q1261.58 89.8329 1258.1 89.2252 Q1254.62 88.6581 1251.33 87.4428 L1251.33 80.1917 Q1254.62 81.9741 1257.82 82.8248 Q1261.02 83.6755 1264.34 83.6755 Q1271.67 83.6755 1275.32 79.8271 Q1278.96 76.0193 1278.96 68.282 L1278.96 64.5957 Q1276.65 68.6061 1273.05 70.5911 Q1269.44 72.576 1264.42 72.576 Q1256.07 72.576 1250.97 66.2161 Q1245.87 59.8562 1245.87 49.3643 Q1245.87 38.832 1250.97 32.472 Q1256.07 26.1121 1264.42 26.1121 Q1269.44 26.1121 1273.05 28.0971 Q1276.65 30.082 1278.96 34.0924 L1278.96 27.2059 L1286.42 27.2059 L1286.42 66.9452 Z" fill="#000000" fill-rule="nonzero" fill-opacity="1"></path><path clip-path="url(#clip070)" d="M1328.46 12.096 L1363.22 12.096 L1363.22 18.9825 L1336.65 18.9825 L1336.65 36.8065 L1360.63 36.8065 L1360.63 43.6931 L1336.65 43.6931 L1336.65 72.576 L1328.46 72.576 L1328.46 12.096 Z" fill="#000000" fill-rule="nonzero" fill-opacity="1"></path><path clip-path="url(#clip070)" d="M1388.86 49.7694 Q1379.83 49.7694 1376.35 51.8354 Q1372.86 53.9013 1372.86 58.8839 Q1372.86 62.8538 1375.45 65.2034 Q1378.09 67.5124 1382.58 67.5124 Q1388.78 67.5124 1392.51 63.1374 Q1396.28 58.7219 1396.28 51.4303 L1396.28 49.7694 L1388.86 49.7694 M1403.73 46.6907 L1403.73 72.576 L1396.28 72.576 L1396.28 65.6895 Q1393.72 69.8214 1389.92 71.8063 Q1386.11 73.7508 1380.6 73.7508 Q1373.63 73.7508 1369.5 69.8619 Q1365.41 65.9325 1365.41 59.3701 Q1365.41 51.7138 1370.51 47.825 Q1375.66 43.9361 1385.82 43.9361 L1396.28 43.9361 L1396.28 43.2069 Q1396.28 38.0623 1392.87 35.2672 Q1389.51 32.4315 1383.39 32.4315 Q1379.51 32.4315 1375.82 33.3632 Q1372.13 34.295 1368.73 36.1584 L1368.73 29.2718 Q1372.82 27.692 1376.67 26.9223 Q1380.52 26.1121 1384.16 26.1121 Q1394.01 26.1121 1398.87 31.2163 Q1403.73 36.3204 1403.73 46.6907 Z" fill="#000000" fill-rule="nonzero" fill-opacity="1"></path><path clip-path="url(#clip070)" d="M1451.73 28.9478 L1451.73 35.9153 Q1448.57 34.1734 1445.37 33.3227 Q1442.21 32.4315 1438.97 32.4315 Q1431.72 32.4315 1427.71 37.0496 Q1423.7 41.6271 1423.7 49.9314 Q1423.7 58.2358 1427.71 62.8538 Q1431.72 67.4314 1438.97 67.4314 Q1442.21 67.4314 1445.37 66.5807 Q1448.57 65.6895 1451.73 63.9476 L1451.73 70.8341 Q1448.61 72.2924 1445.25 73.0216 Q1441.93 73.7508 1438.16 73.7508 Q1427.91 73.7508 1421.88 67.3098 Q1415.84 60.8689 1415.84 49.9314 Q1415.84 38.832 1421.92 32.472 Q1428.03 26.1121 1438.65 26.1121 Q1442.09 26.1121 1445.37 26.8413 Q1448.65 27.5299 1451.73 28.9478 Z" fill="#000000" fill-rule="nonzero" fill-opacity="1"></path><path clip-path="url(#clip070)" d="M1472.07 14.324 L1472.07 27.2059 L1487.42 27.2059 L1487.42 32.9987 L1472.07 32.9987 L1472.07 57.6282 Q1472.07 63.1779 1473.57 64.7578 Q1475.11 66.3376 1479.76 66.3376 L1487.42 66.3376 L1487.42 72.576 L1479.76 72.576 Q1471.14 72.576 1467.86 69.3758 Q1464.57 66.1351 1464.57 57.6282 L1464.57 32.9987 L1459.11 32.9987 L1459.11 27.2059 L1464.57 27.2059 L1464.57 14.324 L1472.07 14.324 Z" fill="#000000" fill-rule="nonzero" fill-opacity="1"></path><path clip-path="url(#clip070)" d="M1514.81 32.4315 Q1508.81 32.4315 1505.33 37.1306 Q1501.84 41.7891 1501.84 49.9314 Q1501.84 58.0738 1505.29 62.7728 Q1508.77 67.4314 1514.81 67.4314 Q1520.76 67.4314 1524.24 62.7323 Q1527.73 58.0333 1527.73 49.9314 Q1527.73 41.8701 1524.24 37.1711 Q1520.76 32.4315 1514.81 32.4315 M1514.81 26.1121 Q1524.53 26.1121 1530.08 32.4315 Q1535.63 38.7509 1535.63 49.9314 Q1535.63 61.0714 1530.08 67.4314 Q1524.53 73.7508 1514.81 73.7508 Q1505.04 73.7508 1499.49 67.4314 Q1493.98 61.0714 1493.98 49.9314 Q1493.98 38.7509 1499.49 32.4315 Q1505.04 26.1121 1514.81 26.1121 Z" fill="#000000" fill-rule="nonzero" fill-opacity="1"></path><path clip-path="url(#clip070)" d="M1574.27 34.1734 Q1573.02 33.4443 1571.52 33.1202 Q1570.06 32.7556 1568.28 32.7556 Q1561.96 32.7556 1558.55 36.8875 Q1555.19 40.9789 1555.19 48.6757 L1555.19 72.576 L1547.7 72.576 L1547.7 27.2059 L1555.19 27.2059 L1555.19 34.2544 Q1557.54 30.1225 1561.31 28.1376 Q1565.08 26.1121 1570.46 26.1121 Q1571.23 26.1121 1572.17 26.2337 Q1573.1 26.3147 1574.23 26.5172 L1574.27 34.1734 Z" fill="#000000" fill-rule="nonzero" fill-opacity="1"></path><polyline clip-path="url(#clip072)" style="stroke:#009af9; stroke-linecap:round; stroke-linejoin:round; stroke-width:8; stroke-opacity:1; fill:none" points="432.859,1386.39 441.81,1386.39 450.76,1386.39 459.711,1386.38 468.662,1386.37 477.613,1386.34 486.564,1386.3 495.514,1386.23 504.465,1386.12 513.416,1385.96 522.367,1385.71 531.318,1385.35 540.268,1384.84 549.219,1384.15 558.17,1383.23 567.121,1382.03 576.072,1380.51 585.022,1378.64 593.973,1376.39 602.924,1373.72 611.875,1370.65 620.826,1367.15 629.777,1363.24 638.727,1358.94 647.678,1354.25 656.629,1349.21 665.58,1343.83 674.531,1338.12 683.481,1332.1 692.432,1325.74 701.383,1319.03 710.334,1311.92 719.285,1304.34 728.235,1296.19 737.186,1287.36 746.137,1277.7 755.088,1267.05 764.039,1255.27 772.99,1242.23 781.94,1227.84 790.891,1212.04 799.842,1194.85 808.793,1176.35 817.744,1156.7 826.694,1136.1 835.645,1114.81 844.596,1093.1 853.547,1071.27 862.498,1049.59 871.448,1028.29 880.399,1007.57 889.35,987.539 898.301,968.261 907.252,949.727 916.202,931.861 925.153,914.523 934.104,897.511 943.055,880.564 952.006,863.366 960.957,845.563 969.907,826.784 978.858,806.67 987.809,784.911 996.76,761.282 1005.71,735.679 1014.66,708.133 1023.61,678.812 1032.56,648.004 1041.51,616.078 1050.46,583.442 1059.42,550.5 1068.37,517.613 1077.32,485.091 1086.27,453.193 1095.22,422.156 1104.17,392.217 1113.12,363.646 1122.07,336.75 1131.02,311.868 1139.97,289.34 1148.92,269.469 1157.87,252.473 1166.83,238.46 1175.78,227.409 1184.73,219.186 1193.68,213.566 1202.63,210.284 1211.58,209.074 1220.53,209.706 1229.48,212.012 1238.43,215.884 1247.38,221.254 1256.33,228.062 1265.28,236.213 1274.23,245.544 1283.19,255.797 1292.14,266.623 1301.09,277.608 1310.04,288.331 1318.99,298.437 1327.94,307.72 1336.89,316.189 1345.84,324.116 1354.79,332.034 1363.74,340.692 1372.69,350.964 1381.64,363.732 1390.6,379.755 1399.55,399.556 1408.5,423.343 1417.45,450.989 1426.4,482.058 1435.35,515.879 1444.3,551.649 1453.25,588.541 1462.2,625.79 1471.15,662.764 1480.1,698.986 1489.05,734.131 1498.01,768.005 1506.96,800.506 1515.91,831.595 1524.86,861.263 1533.81,889.522 1542.76,916.399 1551.71,941.939 1560.66,966.211 1569.61,989.314 1578.56,1011.38 1587.51,1032.55 1596.46,1053.01 1605.41,1072.93 1614.37,1092.46 1623.32,1111.73 1632.27,1130.81 1641.22,1149.69 1650.17,1168.32 1659.12,1186.54 1668.07,1204.16 1677.02,1220.91 1685.97,1236.52 1694.92,1250.75 1703.87,1263.39 1712.82,1274.28 1721.78,1283.38 1730.73,1290.74 1739.68,1296.5 1748.63,1300.88 1757.58,1304.18 1766.53,1306.73 1775.48,1308.87 1784.43,1310.91 1793.38,1313.15 1802.33,1315.77 1811.28,1318.93 1820.23,1322.64 1829.19,1326.86 1838.14,1331.49 1847.09,1336.36 1856.04,1341.29 1864.99,1346.09 1873.94,1350.62 1882.89,1354.75 1891.84,1358.41 1900.79,1361.57 1909.74,1364.23 1918.69,1366.43 1927.64,1368.18 1936.59,1369.56 1945.55,1370.61 1954.5,1371.39 1963.45,1371.98 1972.4,1372.44 1981.35,1372.85 1990.3,1373.29 1999.25,1373.81 2008.2,1374.47 2017.15,1375.28 2026.1,1376.24 2035.05,1377.33 2044,1378.5 2052.96,1379.7 2061.91,1380.87 2070.86,1381.96 2079.81,1382.94 2088.76,1383.77 2097.71,1384.47 2106.66,1385.02 2115.61,1385.44 2124.56,1385.76 2133.51,1385.98 2142.46,1386.13 2151.41,1386.23 2160.37,1386.3 2169.32,1386.34 2178.27,1386.36 2187.22,1386.38 2196.17,1386.39 2205.12,1386.39 2214.07,1386.39 "></polyline>
<polyline clip-path="url(#clip072)" style="stroke:#e26f46; stroke-linecap:round; stroke-linejoin:round; stroke-width:8; stroke-opacity:1; fill:none" points="307.043,1386.4 317.023,1386.4 327.004,1386.39 336.984,1386.39 346.965,1386.37 356.945,1386.34 366.926,1386.28 376.906,1386.17 386.887,1386.01 396.868,1385.82 406.848,1385.6 416.829,1385.39 426.809,1385.23 436.79,1385.11 446.77,1385.03 456.751,1384.95 466.731,1384.84 476.712,1384.65 486.692,1384.29 496.673,1383.73 506.654,1382.92 516.634,1381.86 526.615,1380.54 536.595,1378.97 546.576,1377.14 556.556,1375.03 566.537,1372.69 576.517,1370.24 586.498,1367.93 596.479,1365.99 606.459,1364.49 616.44,1363.24 626.42,1361.81 636.401,1359.64 646.381,1356.33 656.362,1351.8 666.342,1346.27 676.323,1340.13 686.303,1333.6 696.284,1326.61 706.265,1318.9 716.245,1310.25 726.226,1300.77 736.206,1290.9 746.187,1281.19 756.167,1271.95 766.148,1263.02 776.128,1253.93 786.109,1244.16 796.09,1233.36 806.07,1221.35 816.051,1207.97 826.031,1192.85 836.012,1175.56 845.992,1155.74 855.973,1133.37 865.953,1108.69 875.934,1082.14 885.914,1054.17 895.895,1025.12 905.876,995.299 915.856,965.017 925.837,934.591 935.817,904.302 945.798,874.374 955.778,844.987 965.759,816.284 975.739,788.247 985.72,760.487 995.701,732.16 1005.68,702.218 1015.66,669.94 1025.64,635.406 1035.62,599.504 1045.6,563.449 1055.58,528.221 1065.56,494.366 1075.54,462.18 1085.53,431.921 1095.51,403.776 1105.49,377.658 1115.47,353.16 1125.45,329.764 1135.43,307.064 1145.41,284.786 1155.39,262.737 1165.37,240.92 1175.35,219.833 1185.33,200.602 1195.31,184.657 1205.29,173.072 1215.27,165.985 1225.25,162.479 1235.23,161.04 1245.21,160.393 1255.19,160.256 1265.18,161.515 1275.16,165.642 1285.14,173.704 1295.12,185.674 1305.1,200.544 1315.08,217.072 1325.06,234.608 1335.04,253.46 1345.02,274.723 1355,299.745 1364.98,329.477 1374.96,363.933 1384.94,401.943 1394.92,441.36 1404.9,479.694 1414.88,514.961 1424.86,546.367 1434.84,574.485 1444.83,600.828 1454.81,627.072 1464.79,654.388 1474.77,683.248 1484.75,713.667 1494.73,745.517 1504.71,778.586 1514.69,812.418 1524.67,846.274 1534.65,879.397 1544.63,911.407 1554.61,942.426 1564.59,972.791 1574.57,1002.58 1584.55,1031.37 1594.53,1058.46 1604.51,1083.41 1614.49,1106.32 1624.48,1127.72 1634.46,1148.19 1644.44,1167.93 1654.42,1186.63 1664.4,1203.7 1674.38,1218.64 1684.36,1231.23 1694.34,1241.7 1704.32,1250.7 1714.3,1259.12 1724.28,1267.91 1734.26,1277.72 1744.24,1288.56 1754.22,1299.89 1764.2,1310.83 1774.18,1320.61 1784.16,1328.87 1794.14,1335.69 1804.13,1341.42 1814.11,1346.46 1824.09,1351.05 1834.07,1355.23 1844.05,1358.97 1854.03,1362.25 1864.01,1365.14 1873.99,1367.76 1883.97,1370.21 1893.95,1372.48 1903.93,1374.53 1913.91,1376.26 1923.89,1377.6 1933.87,1378.53 1943.85,1379.1 1953.83,1379.45 1963.81,1379.76 1973.79,1380.19 1983.77,1380.81 1993.76,1381.57 2003.74,1382.37 2013.72,1383.05 2023.7,1383.56 2033.68,1383.87 2043.66,1384.07 2053.64,1384.23 2063.62,1384.45 2073.6,1384.74 2083.58,1385.1 2093.56,1385.48 2103.54,1385.81 2113.52,1386.05 2123.5,1386.19 2133.48,1386.24 2143.46,1386.21 2153.44,1386.13 2163.42,1386.03 2173.41,1385.94 2183.39,1385.9 2193.37,1385.93 2203.35,1386.01 2213.33,1386.11 2223.31,1386.21 2233.29,1386.29 2243.27,1386.35 2253.25,1386.37 2263.23,1386.39 2273.21,1386.39 2283.19,1386.4 2293.17,1386.4 "></polyline>
<polyline clip-path="url(#clip072)" style="stroke:#808080; stroke-linecap:round; stroke-linejoin:round; stroke-width:6; stroke-opacity:1; fill:none" stroke-dasharray="3, 6" points="989.587,2722.89 989.587,-1176.24 "></polyline>
<path clip-path="url(#clip070)" d="M1732.26 322.316 L2282.58 322.316 L2282.58 166.796 L1732.26 166.796  Z" fill="#ffffff" fill-rule="evenodd" fill-opacity="1"></path>
<polyline clip-path="url(#clip070)" style="stroke:#000000; stroke-linecap:round; stroke-linejoin:round; stroke-width:4; stroke-opacity:1; fill:none" points="1732.26,322.316 2282.58,322.316 2282.58,166.796 1732.26,166.796 1732.26,322.316 "></polyline>
<polyline clip-path="url(#clip070)" style="stroke:#009af9; stroke-linecap:round; stroke-linejoin:round; stroke-width:8; stroke-opacity:1; fill:none" points="1755.65,218.636 1896.01,218.636 "></polyline>
<path clip-path="url(#clip070)" d="M1924.07 219.411 L1924.07 232.073 L1931.57 232.073 Q1935.35 232.073 1937.15 230.522 Q1938.98 228.948 1938.98 225.731 Q1938.98 222.49 1937.15 220.962 Q1935.35 219.411 1931.57 219.411 L1924.07 219.411 M1924.07 205.198 L1924.07 215.615 L1930.99 215.615 Q1934.42 215.615 1936.09 214.342 Q1937.78 213.045 1937.78 210.407 Q1937.78 207.791 1936.09 206.495 Q1934.42 205.198 1930.99 205.198 L1924.07 205.198 M1919.4 201.356 L1931.34 201.356 Q1936.69 201.356 1939.58 203.578 Q1942.48 205.8 1942.48 209.897 Q1942.48 213.069 1940.99 214.944 Q1939.51 216.819 1936.64 217.282 Q1940.09 218.022 1941.99 220.383 Q1943.91 222.721 1943.91 226.24 Q1943.91 230.869 1940.76 233.393 Q1937.61 235.916 1931.8 235.916 L1919.4 235.916 L1919.4 201.356 Z" fill="#000000" fill-rule="nonzero" fill-opacity="1"></path><path clip-path="url(#clip070)" d="M1963.52 222.883 Q1958.36 222.883 1956.36 224.064 Q1954.37 225.244 1954.37 228.092 Q1954.37 230.36 1955.86 231.703 Q1957.36 233.022 1959.93 233.022 Q1963.47 233.022 1965.6 230.522 Q1967.75 227.999 1967.75 223.832 L1967.75 222.883 L1963.52 222.883 M1972.01 221.124 L1972.01 235.916 L1967.75 235.916 L1967.75 231.981 Q1966.3 234.342 1964.12 235.476 Q1961.94 236.587 1958.8 236.587 Q1954.81 236.587 1952.45 234.365 Q1950.11 232.119 1950.11 228.369 Q1950.11 223.994 1953.03 221.772 Q1955.97 219.55 1961.78 219.55 L1967.75 219.55 L1967.75 219.133 Q1967.75 216.194 1965.81 214.596 Q1963.89 212.976 1960.39 212.976 Q1958.17 212.976 1956.06 213.508 Q1953.96 214.041 1952.01 215.106 L1952.01 211.17 Q1954.35 210.268 1956.55 209.828 Q1958.75 209.365 1960.83 209.365 Q1966.46 209.365 1969.23 212.282 Q1972.01 215.198 1972.01 221.124 Z" fill="#000000" fill-rule="nonzero" fill-opacity="1"></path><path clip-path="url(#clip070)" d="M1991.57 238.323 Q1989.77 242.953 1988.05 244.365 Q1986.34 245.777 1983.47 245.777 L1980.07 245.777 L1980.07 242.212 L1982.57 242.212 Q1984.33 242.212 1985.3 241.379 Q1986.27 240.545 1987.45 237.443 L1988.22 235.499 L1977.73 209.99 L1982.24 209.99 L1990.35 230.268 L1998.45 209.99 L2002.96 209.99 L1991.57 238.323 Z" fill="#000000" fill-rule="nonzero" fill-opacity="1"></path><path clip-path="url(#clip070)" d="M2031.02 221.888 L2031.02 223.971 L2011.43 223.971 Q2011.71 228.369 2014.07 230.684 Q2016.46 232.976 2020.69 232.976 Q2023.15 232.976 2025.44 232.374 Q2027.75 231.772 2030.02 230.569 L2030.02 234.596 Q2027.73 235.568 2025.32 236.078 Q2022.92 236.587 2020.44 236.587 Q2014.23 236.587 2010.6 232.976 Q2006.99 229.365 2006.99 223.207 Q2006.99 216.842 2010.42 213.115 Q2013.86 209.365 2019.7 209.365 Q2024.93 209.365 2027.96 212.745 Q2031.02 216.101 2031.02 221.888 M2026.76 220.638 Q2026.71 217.143 2024.79 215.059 Q2022.89 212.976 2019.74 212.976 Q2016.18 212.976 2014.03 214.99 Q2011.9 217.004 2011.57 220.661 L2026.76 220.638 Z" fill="#000000" fill-rule="nonzero" fill-opacity="1"></path><path clip-path="url(#clip070)" d="M2054.54 210.754 L2054.54 214.782 Q2052.73 213.856 2050.79 213.393 Q2048.84 212.93 2046.76 212.93 Q2043.59 212.93 2041.99 213.902 Q2040.42 214.874 2040.42 216.819 Q2040.42 218.3 2041.55 219.157 Q2042.68 219.99 2046.11 220.754 L2047.57 221.078 Q2052.1 222.05 2054 223.832 Q2055.92 225.592 2055.92 228.763 Q2055.92 232.374 2053.05 234.481 Q2050.21 236.587 2045.21 236.587 Q2043.12 236.587 2040.85 236.17 Q2038.61 235.777 2036.11 234.967 L2036.11 230.569 Q2038.47 231.795 2040.76 232.42 Q2043.05 233.022 2045.3 233.022 Q2048.31 233.022 2049.93 232.004 Q2051.55 230.962 2051.55 229.087 Q2051.55 227.351 2050.37 226.425 Q2049.21 225.499 2045.25 224.643 L2043.77 224.295 Q2039.81 223.462 2038.05 221.749 Q2036.29 220.013 2036.29 217.004 Q2036.29 213.346 2038.89 211.356 Q2041.48 209.365 2046.25 209.365 Q2048.61 209.365 2050.69 209.712 Q2052.78 210.059 2054.54 210.754 Z" fill="#000000" fill-rule="nonzero" fill-opacity="1"></path><path clip-path="url(#clip070)" d="M2062.71 209.99 L2066.97 209.99 L2066.97 235.916 L2062.71 235.916 L2062.71 209.99 M2062.71 199.897 L2066.97 199.897 L2066.97 205.291 L2062.71 205.291 L2062.71 199.897 Z" fill="#000000" fill-rule="nonzero" fill-opacity="1"></path><path clip-path="url(#clip070)" d="M2087.66 222.883 Q2082.5 222.883 2080.51 224.064 Q2078.52 225.244 2078.52 228.092 Q2078.52 230.36 2080 231.703 Q2081.5 233.022 2084.07 233.022 Q2087.61 233.022 2089.74 230.522 Q2091.9 227.999 2091.9 223.832 L2091.9 222.883 L2087.66 222.883 M2096.16 221.124 L2096.16 235.916 L2091.9 235.916 L2091.9 231.981 Q2090.44 234.342 2088.26 235.476 Q2086.09 236.587 2082.94 236.587 Q2078.96 236.587 2076.6 234.365 Q2074.26 232.119 2074.26 228.369 Q2074.26 223.994 2077.17 221.772 Q2080.11 219.55 2085.92 219.55 L2091.9 219.55 L2091.9 219.133 Q2091.9 216.194 2089.95 214.596 Q2088.03 212.976 2084.54 212.976 Q2082.31 212.976 2080.21 213.508 Q2078.1 214.041 2076.16 215.106 L2076.16 211.17 Q2078.49 210.268 2080.69 209.828 Q2082.89 209.365 2084.98 209.365 Q2090.6 209.365 2093.38 212.282 Q2096.16 215.198 2096.16 221.124 Z" fill="#000000" fill-rule="nonzero" fill-opacity="1"></path><path clip-path="url(#clip070)" d="M2126.48 220.268 L2126.48 235.916 L2122.22 235.916 L2122.22 220.407 Q2122.22 216.726 2120.79 214.897 Q2119.35 213.069 2116.48 213.069 Q2113.03 213.069 2111.04 215.268 Q2109.05 217.467 2109.05 221.263 L2109.05 235.916 L2104.77 235.916 L2104.77 209.99 L2109.05 209.99 L2109.05 214.018 Q2110.58 211.68 2112.64 210.522 Q2114.72 209.365 2117.43 209.365 Q2121.9 209.365 2124.19 212.143 Q2126.48 214.897 2126.48 220.268 Z" fill="#000000" fill-rule="nonzero" fill-opacity="1"></path><path clip-path="url(#clip070)" d="M2150.23 201.356 L2170.09 201.356 L2170.09 205.291 L2154.91 205.291 L2154.91 215.476 L2168.61 215.476 L2168.61 219.411 L2154.91 219.411 L2154.91 235.916 L2150.23 235.916 L2150.23 201.356 Z" fill="#000000" fill-rule="nonzero" fill-opacity="1"></path><path clip-path="url(#clip070)" d="M2177.5 201.356 L2184.47 201.356 L2193.28 224.874 L2202.15 201.356 L2209.12 201.356 L2209.12 235.916 L2204.56 235.916 L2204.56 205.569 L2195.65 229.272 L2190.95 229.272 L2182.03 205.569 L2182.03 235.916 L2177.5 235.916 L2177.5 201.356 Z" fill="#000000" fill-rule="nonzero" fill-opacity="1"></path><polyline clip-path="url(#clip070)" style="stroke:#e26f46; stroke-linecap:round; stroke-linejoin:round; stroke-width:8; stroke-opacity:1; fill:none" points="1755.65,270.476 1896.01,270.476 "></polyline>
<path clip-path="url(#clip070)" d="M1919.4 253.196 L1939.26 253.196 L1939.26 257.131 L1924.07 257.131 L1924.07 267.316 L1937.78 267.316 L1937.78 271.251 L1924.07 271.251 L1924.07 287.756 L1919.4 287.756 L1919.4 253.196 Z" fill="#000000" fill-rule="nonzero" fill-opacity="1"></path><path clip-path="url(#clip070)" d="M1958.05 265.811 Q1957.34 265.395 1956.48 265.21 Q1955.65 265.001 1954.63 265.001 Q1951.02 265.001 1949.07 267.362 Q1947.15 269.7 1947.15 274.098 L1947.15 287.756 L1942.87 287.756 L1942.87 261.83 L1947.15 261.83 L1947.15 265.858 Q1948.49 263.497 1950.65 262.362 Q1952.8 261.205 1955.88 261.205 Q1956.32 261.205 1956.85 261.274 Q1957.38 261.321 1958.03 261.436 L1958.05 265.811 Z" fill="#000000" fill-rule="nonzero" fill-opacity="1"></path><path clip-path="url(#clip070)" d="M1983.66 273.728 L1983.66 275.811 L1964.07 275.811 Q1964.35 280.209 1966.71 282.524 Q1969.1 284.816 1973.33 284.816 Q1975.79 284.816 1978.08 284.214 Q1980.39 283.612 1982.66 282.409 L1982.66 286.436 Q1980.37 287.408 1977.96 287.918 Q1975.55 288.427 1973.08 288.427 Q1966.87 288.427 1963.24 284.816 Q1959.63 281.205 1959.63 275.047 Q1959.63 268.682 1963.05 264.955 Q1966.5 261.205 1972.34 261.205 Q1977.57 261.205 1980.6 264.585 Q1983.66 267.941 1983.66 273.728 M1979.4 272.478 Q1979.35 268.983 1977.43 266.899 Q1975.53 264.816 1972.38 264.816 Q1968.82 264.816 1966.67 266.83 Q1964.54 268.844 1964.21 272.501 L1979.4 272.478 Z" fill="#000000" fill-rule="nonzero" fill-opacity="1"></path><path clip-path="url(#clip070)" d="M1993.19 274.816 Q1993.19 279.515 1995.11 282.2 Q1997.06 284.862 2000.44 284.862 Q2003.82 284.862 2005.76 282.2 Q2007.71 279.515 2007.71 274.816 Q2007.71 270.117 2005.76 267.455 Q2003.82 264.77 2000.44 264.77 Q1997.06 264.77 1995.11 267.455 Q1993.19 270.117 1993.19 274.816 M2007.71 283.867 Q2006.36 286.182 2004.3 287.316 Q2002.27 288.427 1999.4 288.427 Q1994.7 288.427 1991.73 284.677 Q1988.8 280.927 1988.8 274.816 Q1988.8 268.705 1991.73 264.955 Q1994.7 261.205 1999.4 261.205 Q2002.27 261.205 2004.3 262.339 Q2006.36 263.45 2007.71 265.765 L2007.71 261.83 L2011.97 261.83 L2011.97 297.617 L2007.71 297.617 L2007.71 283.867 Z" fill="#000000" fill-rule="nonzero" fill-opacity="1"></path><path clip-path="url(#clip070)" d="M2020.3 277.524 L2020.3 261.83 L2024.56 261.83 L2024.56 277.362 Q2024.56 281.043 2025.99 282.895 Q2027.43 284.723 2030.3 284.723 Q2033.75 284.723 2035.74 282.524 Q2037.75 280.325 2037.75 276.529 L2037.75 261.83 L2042.01 261.83 L2042.01 287.756 L2037.75 287.756 L2037.75 283.774 Q2036.2 286.135 2034.14 287.293 Q2032.11 288.427 2029.4 288.427 Q2024.93 288.427 2022.61 285.649 Q2020.3 282.871 2020.3 277.524 M2031.02 261.205 L2031.02 261.205 Z" fill="#000000" fill-rule="nonzero" fill-opacity="1"></path><path clip-path="url(#clip070)" d="M2072.96 273.728 L2072.96 275.811 L2053.38 275.811 Q2053.66 280.209 2056.02 282.524 Q2058.4 284.816 2062.64 284.816 Q2065.09 284.816 2067.38 284.214 Q2069.7 283.612 2071.97 282.409 L2071.97 286.436 Q2069.67 287.408 2067.27 287.918 Q2064.86 288.427 2062.38 288.427 Q2056.18 288.427 2052.54 284.816 Q2048.93 281.205 2048.93 275.047 Q2048.93 268.682 2052.36 264.955 Q2055.81 261.205 2061.64 261.205 Q2066.87 261.205 2069.91 264.585 Q2072.96 267.941 2072.96 273.728 M2068.7 272.478 Q2068.66 268.983 2066.73 266.899 Q2064.84 264.816 2061.69 264.816 Q2058.12 264.816 2055.97 266.83 Q2053.84 268.844 2053.52 272.501 L2068.7 272.478 Z" fill="#000000" fill-rule="nonzero" fill-opacity="1"></path><path clip-path="url(#clip070)" d="M2101.5 272.108 L2101.5 287.756 L2097.24 287.756 L2097.24 272.247 Q2097.24 268.566 2095.81 266.737 Q2094.37 264.909 2091.5 264.909 Q2088.05 264.909 2086.06 267.108 Q2084.07 269.307 2084.07 273.103 L2084.07 287.756 L2079.79 287.756 L2079.79 261.83 L2084.07 261.83 L2084.07 265.858 Q2085.6 263.52 2087.66 262.362 Q2089.74 261.205 2092.45 261.205 Q2096.92 261.205 2099.21 263.983 Q2101.5 266.737 2101.5 272.108 Z" fill="#000000" fill-rule="nonzero" fill-opacity="1"></path><path clip-path="url(#clip070)" d="M2114.21 254.469 L2114.21 261.83 L2122.98 261.83 L2122.98 265.14 L2114.21 265.14 L2114.21 279.214 Q2114.21 282.385 2115.07 283.288 Q2115.95 284.191 2118.61 284.191 L2122.98 284.191 L2122.98 287.756 L2118.61 287.756 Q2113.68 287.756 2111.8 285.927 Q2109.93 284.075 2109.93 279.214 L2109.93 265.14 L2106.8 265.14 L2106.8 261.83 L2109.93 261.83 L2109.93 254.469 L2114.21 254.469 Z" fill="#000000" fill-rule="nonzero" fill-opacity="1"></path><path clip-path="url(#clip070)" d="M2128.59 261.83 L2132.85 261.83 L2132.85 287.756 L2128.59 287.756 L2128.59 261.83 M2128.59 251.737 L2132.85 251.737 L2132.85 257.131 L2128.59 257.131 L2128.59 251.737 Z" fill="#000000" fill-rule="nonzero" fill-opacity="1"></path><path clip-path="url(#clip070)" d="M2158.28 262.594 L2158.28 266.622 Q2156.48 265.696 2154.53 265.233 Q2152.59 264.77 2150.51 264.77 Q2147.34 264.77 2145.74 265.742 Q2144.16 266.714 2144.16 268.659 Q2144.16 270.14 2145.3 270.997 Q2146.43 271.83 2149.86 272.594 L2151.32 272.918 Q2155.85 273.89 2157.75 275.672 Q2159.67 277.432 2159.67 280.603 Q2159.67 284.214 2156.8 286.321 Q2153.96 288.427 2148.96 288.427 Q2146.87 288.427 2144.6 288.01 Q2142.36 287.617 2139.86 286.807 L2139.86 282.409 Q2142.22 283.635 2144.51 284.26 Q2146.8 284.862 2149.05 284.862 Q2152.06 284.862 2153.68 283.844 Q2155.3 282.802 2155.3 280.927 Q2155.3 279.191 2154.12 278.265 Q2152.96 277.339 2149 276.483 L2147.52 276.135 Q2143.56 275.302 2141.8 273.589 Q2140.04 271.853 2140.04 268.844 Q2140.04 265.186 2142.64 263.196 Q2145.23 261.205 2150 261.205 Q2152.36 261.205 2154.44 261.552 Q2156.53 261.899 2158.28 262.594 Z" fill="#000000" fill-rule="nonzero" fill-opacity="1"></path><path clip-path="url(#clip070)" d="M2170.67 254.469 L2170.67 261.83 L2179.44 261.83 L2179.44 265.14 L2170.67 265.14 L2170.67 279.214 Q2170.67 282.385 2171.53 283.288 Q2172.41 284.191 2175.07 284.191 L2179.44 284.191 L2179.44 287.756 L2175.07 287.756 Q2170.14 287.756 2168.26 285.927 Q2166.39 284.075 2166.39 279.214 L2166.39 265.14 L2163.26 265.14 L2163.26 261.83 L2166.39 261.83 L2166.39 254.469 L2170.67 254.469 Z" fill="#000000" fill-rule="nonzero" fill-opacity="1"></path><path clip-path="url(#clip070)" d="M2200.3 253.196 L2220.16 253.196 L2220.16 257.131 L2204.97 257.131 L2204.97 267.316 L2218.68 267.316 L2218.68 271.251 L2204.97 271.251 L2204.97 287.756 L2200.3 287.756 L2200.3 253.196 Z" fill="#000000" fill-rule="nonzero" fill-opacity="1"></path><path clip-path="url(#clip070)" d="M2227.57 253.196 L2234.53 253.196 L2243.35 276.714 L2252.22 253.196 L2259.19 253.196 L2259.19 287.756 L2254.63 287.756 L2254.63 257.409 L2245.71 281.112 L2241.02 281.112 L2232.1 257.409 L2232.1 287.756 L2227.57 287.756 L2227.57 253.196 Z" fill="#000000" fill-rule="nonzero" fill-opacity="1"></path></svg>