<svg xmlns="http://www.w3.org/2000/svg" xmlns:xlink="http://www.w3.org/1999/xlink" width="600" height="400" viewBox="0 0 2400 1600">
<defs>
  <clipPath id="clip270">
    <rect x="0" y="0" width="2400" height="1600"></rect>
  </clipPath>
</defs>
<path clip-path="url(#clip270)" d="M0 1600 L2400 1600 L2400 0 L0 0  Z" fill="#ffffff" fill-rule="evenodd" fill-opacity="1"></path>
<defs>
  <clipPath id="clip271">
    <rect x="480" y="0" width="1681" height="1600"></rect>
  </clipPath>
</defs>
<path clip-path="url(#clip270)" d="M249.542 1423.18 L2352.76 1423.18 L2352.76 123.472 L249.542 123.472  Z" fill="#ffffff" fill-rule="evenodd" fill-opacity="1"></path>
<defs>
  <clipPath id="clip272">
    <rect x="249" y="123" width="2104" height="1301"></rect>
  </clipPath>
</defs>
<polyline clip-path="url(#clip272)" style="stroke:#000000; stroke-linecap:round; stroke-linejoin:round; stroke-width:2; stroke-opacity:0.1; fill:none" points="722.011,1423.18 722.011,123.472 "></polyline>
<polyline clip-path="url(#clip272)" style="stroke:#000000; stroke-linecap:round; stroke-linejoin:round; stroke-width:2; stroke-opacity:0.1; fill:none" points="1230.12,1423.18 1230.12,123.472 "></polyline>
<polyline clip-path="url(#clip272)" style="stroke:#000000; stroke-linecap:round; stroke-linejoin:round; stroke-width:2; stroke-opacity:0.1; fill:none" points="1738.24,1423.18 1738.24,123.472 "></polyline>
<polyline clip-path="url(#clip272)" style="stroke:#000000; stroke-linecap:round; stroke-linejoin:round; stroke-width:2; stroke-opacity:0.1; fill:none" points="2246.35,1423.18 2246.35,123.472 "></polyline>
<polyline clip-path="url(#clip272)" style="stroke:#000000; stroke-linecap:round; stroke-linejoin:round; stroke-width:2; stroke-opacity:0.1; fill:none" points="249.542,1386.4 2352.76,1386.4 "></polyline>
<polyline clip-path="url(#clip272)" style="stroke:#000000; stroke-linecap:round; stroke-linejoin:round; stroke-width:2; stroke-opacity:0.1; fill:none" points="249.542,1101.16 2352.76,1101.16 "></polyline>
<polyline clip-path="url(#clip272)" style="stroke:#000000; stroke-linecap:round; stroke-linejoin:round; stroke-width:2; stroke-opacity:0.1; fill:none" points="249.542,815.916 2352.76,815.916 "></polyline>
<polyline clip-path="url(#clip272)" style="stroke:#000000; stroke-linecap:round; stroke-linejoin:round; stroke-width:2; stroke-opacity:0.1; fill:none" points="249.542,530.676 2352.76,530.676 "></polyline>
<polyline clip-path="url(#clip272)" style="stroke:#000000; stroke-linecap:round; stroke-linejoin:round; stroke-width:2; stroke-opacity:0.1; fill:none" points="249.542,245.436 2352.76,245.436 "></polyline>
<polyline clip-path="url(#clip270)" style="stroke:#000000; stroke-linecap:round; stroke-linejoin:round; stroke-width:4; stroke-opacity:1; fill:none" points="249.542,1423.18 2352.76,1423.18 "></polyline>
<polyline clip-path="url(#clip270)" style="stroke:#000000; stroke-linecap:round; stroke-linejoin:round; stroke-width:4; stroke-opacity:1; fill:none" points="722.011,1423.18 722.011,1404.28 "></polyline>
<polyline clip-path="url(#clip270)" style="stroke:#000000; stroke-linecap:round; stroke-linejoin:round; stroke-width:4; stroke-opacity:1; fill:none" points="1230.12,1423.18 1230.12,1404.28 "></polyline>
<polyline clip-path="url(#clip270)" style="stroke:#000000; stroke-linecap:round; stroke-linejoin:round; stroke-width:4; stroke-opacity:1; fill:none" points="1738.24,1423.18 1738.24,1404.28 "></polyline>
<polyline clip-path="url(#clip270)" style="stroke:#000000; stroke-linecap:round; stroke-linejoin:round; stroke-width:4; stroke-opacity:1; fill:none" points="2246.35,1423.18 2246.35,1404.28 "></polyline>
<path clip-path="url(#clip270)" d="M691.954 1468.75 L721.629 1468.75 L721.629 1472.69 L691.954 1472.69 L691.954 1468.75 Z" fill="#000000" fill-rule="nonzero" fill-opacity="1"></path><path clip-path="url(#clip270)" d="M735.75 1481.64 L752.069 1481.64 L752.069 1485.58 L730.125 1485.58 L730.125 1481.64 Q732.787 1478.89 737.37 1474.26 Q741.977 1469.61 743.157 1468.27 Q745.402 1465.74 746.282 1464.01 Q747.185 1462.25 747.185 1460.56 Q747.185 1457.8 745.24 1456.07 Q743.319 1454.33 740.217 1454.33 Q738.018 1454.33 735.565 1455.09 Q733.134 1455.86 730.356 1457.41 L730.356 1452.69 Q733.18 1451.55 735.634 1450.97 Q738.088 1450.39 740.125 1450.39 Q745.495 1450.39 748.69 1453.08 Q751.884 1455.77 751.884 1460.26 Q751.884 1462.39 751.074 1464.31 Q750.287 1466.2 748.18 1468.8 Q747.602 1469.47 744.5 1472.69 Q741.398 1475.88 735.75 1481.64 Z" fill="#000000" fill-rule="nonzero" fill-opacity="1"></path><path clip-path="url(#clip270)" d="M1230.12 1454.1 Q1226.51 1454.1 1224.69 1457.66 Q1222.88 1461.2 1222.88 1468.33 Q1222.88 1475.44 1224.69 1479.01 Q1226.51 1482.55 1230.12 1482.55 Q1233.76 1482.55 1235.56 1479.01 Q1237.39 1475.44 1237.39 1468.33 Q1237.39 1461.2 1235.56 1457.66 Q1233.76 1454.1 1230.12 1454.1 M1230.12 1450.39 Q1235.93 1450.39 1238.99 1455 Q1242.07 1459.58 1242.07 1468.33 Q1242.07 1477.06 1238.99 1481.67 Q1235.93 1486.25 1230.12 1486.25 Q1224.31 1486.25 1221.24 1481.67 Q1218.18 1477.06 1218.18 1468.33 Q1218.18 1459.58 1221.24 1455 Q1224.31 1450.39 1230.12 1450.39 Z" fill="#000000" fill-rule="nonzero" fill-opacity="1"></path><path clip-path="url(#clip270)" d="M1732.89 1481.64 L1749.21 1481.64 L1749.21 1485.58 L1727.27 1485.58 L1727.27 1481.64 Q1729.93 1478.89 1734.51 1474.26 Q1739.12 1469.61 1740.3 1468.27 Q1742.54 1465.74 1743.42 1464.01 Q1744.33 1462.25 1744.33 1460.56 Q1744.33 1457.8 1742.38 1456.07 Q1740.46 1454.33 1737.36 1454.33 Q1735.16 1454.33 1732.71 1455.09 Q1730.28 1455.86 1727.5 1457.41 L1727.5 1452.69 Q1730.32 1451.55 1732.78 1450.97 Q1735.23 1450.39 1737.27 1450.39 Q1742.64 1450.39 1745.83 1453.08 Q1749.03 1455.77 1749.03 1460.26 Q1749.03 1462.39 1748.21 1464.31 Q1747.43 1466.2 1745.32 1468.8 Q1744.74 1469.47 1741.64 1472.69 Q1738.54 1475.88 1732.89 1481.64 Z" fill="#000000" fill-rule="nonzero" fill-opacity="1"></path><path clip-path="url(#clip270)" d="M2249.36 1455.09 L2237.56 1473.54 L2249.36 1473.54 L2249.36 1455.09 M2248.13 1451.02 L2254.01 1451.02 L2254.01 1473.54 L2258.94 1473.54 L2258.94 1477.43 L2254.01 1477.43 L2254.01 1485.58 L2249.36 1485.58 L2249.36 1477.43 L2233.76 1477.43 L2233.76 1472.92 L2248.13 1451.02 Z" fill="#000000" fill-rule="nonzero" fill-opacity="1"></path><path clip-path="url(#clip270)" d="M977.214 1545.76 Q979.283 1546.46 981.224 1548.76 Q983.198 1551.05 985.171 1555.06 L991.696 1568.04 L984.789 1568.04 L978.71 1555.85 Q976.355 1551.08 974.127 1549.52 Q971.931 1547.96 968.111 1547.96 L961.109 1547.96 L961.109 1568.04 L954.679 1568.04 L954.679 1520.52 L969.193 1520.52 Q977.341 1520.52 981.352 1523.93 Q985.362 1527.34 985.362 1534.21 Q985.362 1538.7 983.261 1541.66 Q981.193 1544.62 977.214 1545.76 M961.109 1525.81 L961.109 1542.68 L969.193 1542.68 Q973.84 1542.68 976.196 1540.54 Q978.583 1538.38 978.583 1534.21 Q978.583 1530.04 976.196 1527.94 Q973.84 1525.81 969.193 1525.81 L961.109 1525.81 Z" fill="#000000" fill-rule="nonzero" fill-opacity="1"></path><path clip-path="url(#clip270)" d="M999.717 1532.4 L1005.57 1532.4 L1005.57 1568.04 L999.717 1568.04 L999.717 1532.4 M999.717 1518.52 L1005.57 1518.52 L1005.57 1525.93 L999.717 1525.93 L999.717 1518.52 Z" fill="#000000" fill-rule="nonzero" fill-opacity="1"></path><path clip-path="url(#clip270)" d="M1040.55 1533.45 L1040.55 1538.98 Q1038.07 1537.71 1035.4 1537.07 Q1032.72 1536.44 1029.86 1536.44 Q1025.5 1536.44 1023.3 1537.77 Q1021.14 1539.11 1021.14 1541.79 Q1021.14 1543.82 1022.7 1545 Q1024.26 1546.15 1028.97 1547.2 L1030.97 1547.64 Q1037.21 1548.98 1039.82 1551.43 Q1042.46 1553.85 1042.46 1558.21 Q1042.46 1563.17 1038.52 1566.07 Q1034.6 1568.97 1027.73 1568.97 Q1024.86 1568.97 1021.74 1568.39 Q1018.65 1567.85 1015.22 1566.74 L1015.22 1560.69 Q1018.46 1562.38 1021.61 1563.24 Q1024.77 1564.07 1027.85 1564.07 Q1031.99 1564.07 1034.22 1562.66 Q1036.45 1561.23 1036.45 1558.65 Q1036.45 1556.27 1034.82 1554.99 Q1033.23 1553.72 1027.79 1552.54 L1025.75 1552.07 Q1020.31 1550.92 1017.89 1548.56 Q1015.47 1546.18 1015.47 1542.04 Q1015.47 1537.01 1019.04 1534.27 Q1022.6 1531.54 1029.16 1531.54 Q1032.4 1531.54 1035.27 1532.01 Q1038.13 1532.49 1040.55 1533.45 Z" fill="#000000" fill-rule="nonzero" fill-opacity="1"></path><path clip-path="url(#clip270)" d="M1051.57 1518.52 L1057.45 1518.52 L1057.45 1547.77 L1074.93 1532.4 L1082.41 1532.4 L1063.5 1549.07 L1083.2 1568.04 L1075.56 1568.04 L1057.45 1550.63 L1057.45 1568.04 L1051.57 1568.04 L1051.57 1518.52 Z" fill="#000000" fill-rule="nonzero" fill-opacity="1"></path><path clip-path="url(#clip270)" d="M1115.92 1562.7 L1115.92 1581.6 L1110.03 1581.6 L1110.03 1532.4 L1115.92 1532.4 L1115.92 1537.81 Q1117.77 1534.62 1120.57 1533.1 Q1123.4 1531.54 1127.32 1531.54 Q1133.81 1531.54 1137.85 1536.69 Q1141.93 1541.85 1141.93 1550.25 Q1141.93 1558.65 1137.85 1563.81 Q1133.81 1568.97 1127.32 1568.97 Q1123.4 1568.97 1120.57 1567.44 Q1117.77 1565.88 1115.92 1562.7 M1135.85 1550.25 Q1135.85 1543.79 1133.17 1540.13 Q1130.53 1536.44 1125.89 1536.44 Q1121.24 1536.44 1118.56 1540.13 Q1115.92 1543.79 1115.92 1550.25 Q1115.92 1556.71 1118.56 1560.4 Q1121.24 1564.07 1125.89 1564.07 Q1130.53 1564.07 1133.17 1560.4 Q1135.85 1556.71 1135.85 1550.25 Z" fill="#000000" fill-rule="nonzero" fill-opacity="1"></path><path clip-path="url(#clip270)" d="M1172.29 1537.87 Q1171.3 1537.3 1170.13 1537.04 Q1168.98 1536.76 1167.58 1536.76 Q1162.62 1536.76 1159.94 1540 Q1157.3 1543.22 1157.3 1549.27 L1157.3 1568.04 L1151.41 1568.04 L1151.41 1532.4 L1157.3 1532.4 L1157.3 1537.93 Q1159.15 1534.69 1162.11 1533.13 Q1165.07 1531.54 1169.3 1531.54 Q1169.9 1531.54 1170.64 1531.63 Q1171.37 1531.7 1172.26 1531.85 L1172.29 1537.87 Z" fill="#000000" fill-rule="nonzero" fill-opacity="1"></path><path clip-path="url(#clip270)" d="M1178.43 1532.4 L1184.29 1532.4 L1184.29 1568.04 L1178.43 1568.04 L1178.43 1532.4 M1178.43 1518.52 L1184.29 1518.52 L1184.29 1525.93 L1178.43 1525.93 L1178.43 1518.52 Z" fill="#000000" fill-rule="nonzero" fill-opacity="1"></path><path clip-path="url(#clip270)" d="M1222.2 1533.76 L1222.2 1539.24 Q1219.72 1537.87 1217.2 1537.2 Q1214.72 1536.5 1212.17 1536.5 Q1206.47 1536.5 1203.32 1540.13 Q1200.17 1543.73 1200.17 1550.25 Q1200.17 1556.78 1203.32 1560.4 Q1206.47 1564 1212.17 1564 Q1214.72 1564 1217.2 1563.33 Q1219.72 1562.63 1222.2 1561.26 L1222.2 1566.68 Q1219.75 1567.82 1217.11 1568.39 Q1214.5 1568.97 1211.54 1568.97 Q1203.48 1568.97 1198.74 1563.91 Q1194 1558.85 1194 1550.25 Q1194 1541.53 1198.77 1536.53 Q1203.58 1531.54 1211.92 1531.54 Q1214.62 1531.54 1217.2 1532.11 Q1219.78 1532.65 1222.2 1533.76 Z" fill="#000000" fill-rule="nonzero" fill-opacity="1"></path><path clip-path="url(#clip270)" d="M1262.88 1548.76 L1262.88 1551.62 L1235.95 1551.62 Q1236.33 1557.67 1239.58 1560.85 Q1242.86 1564 1248.68 1564 Q1252.05 1564 1255.2 1563.17 Q1258.39 1562.35 1261.51 1560.69 L1261.51 1566.23 Q1258.36 1567.57 1255.05 1568.27 Q1251.74 1568.97 1248.33 1568.97 Q1239.8 1568.97 1234.8 1564 Q1229.84 1559.04 1229.84 1550.57 Q1229.84 1541.82 1234.55 1536.69 Q1239.29 1531.54 1247.31 1531.54 Q1254.5 1531.54 1258.67 1536.18 Q1262.88 1540.8 1262.88 1548.76 M1257.02 1547.04 Q1256.96 1542.23 1254.31 1539.37 Q1251.7 1536.5 1247.37 1536.5 Q1242.47 1536.5 1239.51 1539.27 Q1236.58 1542.04 1236.14 1547.07 L1257.02 1547.04 Z" fill="#000000" fill-rule="nonzero" fill-opacity="1"></path><path clip-path="url(#clip270)" d="M1307.28 1518.58 Q1303.01 1525.9 1300.94 1533.06 Q1298.87 1540.23 1298.87 1547.58 Q1298.87 1554.93 1300.94 1562.16 Q1303.04 1569.35 1307.28 1576.64 L1302.18 1576.64 Q1297.41 1569.16 1295.02 1561.93 Q1292.67 1554.71 1292.67 1547.58 Q1292.67 1540.48 1295.02 1533.29 Q1297.38 1526.09 1302.18 1518.58 L1307.28 1518.58 Z" fill="#000000" fill-rule="nonzero" fill-opacity="1"></path><path clip-path="url(#clip270)" d="M1332.68 1524.09 L1349.13 1568.04 L1342.92 1568.04 L1332.93 1541.69 L1320.64 1568.04 L1314.44 1568.04 L1330.07 1533.86 L1327.71 1527.56 Q1326.21 1523.55 1322.81 1523.55 L1319.75 1523.55 L1319.75 1518.52 L1323.48 1518.58 Q1330.67 1518.68 1332.68 1524.09 Z" fill="#000000" fill-rule="nonzero" fill-opacity="1"></path><path clip-path="url(#clip270)" d="M1379.94 1533.45 L1379.94 1538.98 Q1377.46 1537.71 1374.78 1537.07 Q1372.11 1536.44 1369.25 1536.44 Q1364.89 1536.44 1362.69 1537.77 Q1360.53 1539.11 1360.53 1541.79 Q1360.53 1543.82 1362.08 1545 Q1363.64 1546.15 1368.35 1547.2 L1370.36 1547.64 Q1376.6 1548.98 1379.21 1551.43 Q1381.85 1553.85 1381.85 1558.21 Q1381.85 1563.17 1377.9 1566.07 Q1373.99 1568.97 1367.11 1568.97 Q1364.25 1568.97 1361.13 1568.39 Q1358.04 1567.85 1354.6 1566.74 L1354.6 1560.69 Q1357.85 1562.38 1361 1563.24 Q1364.15 1564.07 1367.24 1564.07 Q1371.38 1564.07 1373.61 1562.66 Q1375.83 1561.23 1375.83 1558.65 Q1375.83 1556.27 1374.21 1554.99 Q1372.62 1553.72 1367.18 1552.54 L1365.14 1552.07 Q1359.7 1550.92 1357.28 1548.56 Q1354.86 1546.18 1354.86 1542.04 Q1354.86 1537.01 1358.42 1534.27 Q1361.99 1531.54 1368.55 1531.54 Q1371.79 1531.54 1374.66 1532.01 Q1377.52 1532.49 1379.94 1533.45 Z" fill="#000000" fill-rule="nonzero" fill-opacity="1"></path><path clip-path="url(#clip270)" d="M1396.84 1562.7 L1396.84 1581.6 L1390.95 1581.6 L1390.95 1532.4 L1396.84 1532.4 L1396.84 1537.81 Q1398.69 1534.62 1401.49 1533.1 Q1404.32 1531.54 1408.24 1531.54 Q1414.73 1531.54 1418.77 1536.69 Q1422.85 1541.85 1422.85 1550.25 Q1422.85 1558.65 1418.77 1563.81 Q1414.73 1568.97 1408.24 1568.97 Q1404.32 1568.97 1401.49 1567.44 Q1398.69 1565.88 1396.84 1562.7 M1416.77 1550.25 Q1416.77 1543.79 1414.09 1540.13 Q1411.45 1536.44 1406.8 1536.44 Q1402.16 1536.44 1399.48 1540.13 Q1396.84 1543.79 1396.84 1550.25 Q1396.84 1556.71 1399.48 1560.4 Q1402.16 1564.07 1406.8 1564.07 Q1411.45 1564.07 1414.09 1560.4 Q1416.77 1556.71 1416.77 1550.25 Z" fill="#000000" fill-rule="nonzero" fill-opacity="1"></path><path clip-path="url(#clip270)" d="M1431.95 1553.98 L1431.95 1532.4 L1437.8 1532.4 L1437.8 1553.75 Q1437.8 1558.81 1439.78 1561.36 Q1441.75 1563.87 1445.7 1563.87 Q1450.44 1563.87 1453.18 1560.85 Q1455.95 1557.83 1455.95 1552.61 L1455.95 1532.4 L1461.8 1532.4 L1461.8 1568.04 L1455.95 1568.04 L1455.95 1562.57 Q1453.81 1565.82 1450.98 1567.41 Q1448.18 1568.97 1444.46 1568.97 Q1438.31 1568.97 1435.13 1565.15 Q1431.95 1561.33 1431.95 1553.98 M1446.68 1531.54 L1446.68 1531.54 Z" fill="#000000" fill-rule="nonzero" fill-opacity="1"></path><path clip-path="url(#clip270)" d="M1494.52 1537.87 Q1493.54 1537.3 1492.36 1537.04 Q1491.21 1536.76 1489.81 1536.76 Q1484.85 1536.76 1482.17 1540 Q1479.53 1543.22 1479.53 1549.27 L1479.53 1568.04 L1473.64 1568.04 L1473.64 1532.4 L1479.53 1532.4 L1479.53 1537.93 Q1481.38 1534.69 1484.34 1533.13 Q1487.3 1531.54 1491.53 1531.54 Q1492.14 1531.54 1492.87 1531.63 Q1493.6 1531.7 1494.49 1531.85 L1494.52 1537.87 Z" fill="#000000" fill-rule="nonzero" fill-opacity="1"></path><path clip-path="url(#clip270)" d="M1500.67 1532.4 L1506.52 1532.4 L1506.52 1568.04 L1500.67 1568.04 L1500.67 1532.4 M1500.67 1518.52 L1506.52 1518.52 L1506.52 1525.93 L1500.67 1525.93 L1500.67 1518.52 Z" fill="#000000" fill-rule="nonzero" fill-opacity="1"></path><path clip-path="url(#clip270)" d="M1532.59 1536.5 Q1527.88 1536.5 1525.14 1540.19 Q1522.41 1543.85 1522.41 1550.25 Q1522.41 1556.65 1525.11 1560.34 Q1527.85 1564 1532.59 1564 Q1537.27 1564 1540.01 1560.31 Q1542.74 1556.62 1542.74 1550.25 Q1542.74 1543.92 1540.01 1540.23 Q1537.27 1536.5 1532.59 1536.5 M1532.59 1531.54 Q1540.23 1531.54 1544.59 1536.5 Q1548.95 1541.47 1548.95 1550.25 Q1548.95 1559 1544.59 1564 Q1540.23 1568.97 1532.59 1568.97 Q1524.92 1568.97 1520.56 1564 Q1516.23 1559 1516.23 1550.25 Q1516.23 1541.47 1520.56 1536.5 Q1524.92 1531.54 1532.59 1531.54 Z" fill="#000000" fill-rule="nonzero" fill-opacity="1"></path><path clip-path="url(#clip270)" d="M1558.05 1553.98 L1558.05 1532.4 L1563.91 1532.4 L1563.91 1553.75 Q1563.91 1558.81 1565.88 1561.36 Q1567.86 1563.87 1571.8 1563.87 Q1576.55 1563.87 1579.28 1560.85 Q1582.05 1557.83 1582.05 1552.61 L1582.05 1532.4 L1587.91 1532.4 L1587.91 1568.04 L1582.05 1568.04 L1582.05 1562.57 Q1579.92 1565.82 1577.09 1567.41 Q1574.29 1568.97 1570.56 1568.97 Q1564.42 1568.97 1561.24 1565.15 Q1558.05 1561.33 1558.05 1553.98 M1572.79 1531.54 L1572.79 1531.54 Z" fill="#000000" fill-rule="nonzero" fill-opacity="1"></path><path clip-path="url(#clip270)" d="M1622.7 1533.45 L1622.7 1538.98 Q1620.21 1537.71 1617.54 1537.07 Q1614.87 1536.44 1612 1536.44 Q1607.64 1536.44 1605.45 1537.77 Q1603.28 1539.11 1603.28 1541.79 Q1603.28 1543.82 1604.84 1545 Q1606.4 1546.15 1611.11 1547.2 L1613.12 1547.64 Q1619.35 1548.98 1621.96 1551.43 Q1624.61 1553.85 1624.61 1558.21 Q1624.61 1563.17 1620.66 1566.07 Q1616.74 1568.97 1609.87 1568.97 Q1607.01 1568.97 1603.89 1568.39 Q1600.8 1567.85 1597.36 1566.74 L1597.36 1560.69 Q1600.61 1562.38 1603.76 1563.24 Q1606.91 1564.07 1610 1564.07 Q1614.13 1564.07 1616.36 1562.66 Q1618.59 1561.23 1618.59 1558.65 Q1618.59 1556.27 1616.97 1554.99 Q1615.38 1553.72 1609.93 1552.54 L1607.9 1552.07 Q1602.45 1550.92 1600.03 1548.56 Q1597.62 1546.18 1597.62 1542.04 Q1597.62 1537.01 1601.18 1534.27 Q1604.75 1531.54 1611.3 1531.54 Q1614.55 1531.54 1617.41 1532.01 Q1620.28 1532.49 1622.7 1533.45 Z" fill="#000000" fill-rule="nonzero" fill-opacity="1"></path><path clip-path="url(#clip270)" d="M1633.01 1518.58 L1638.1 1518.58 Q1642.88 1526.09 1645.23 1533.29 Q1647.62 1540.48 1647.62 1547.58 Q1647.62 1554.71 1645.23 1561.93 Q1642.88 1569.16 1638.1 1576.64 L1633.01 1576.64 Q1637.24 1569.35 1639.31 1562.16 Q1641.41 1554.93 1641.41 1547.58 Q1641.41 1540.23 1639.31 1533.06 Q1637.24 1525.9 1633.01 1518.58 Z" fill="#000000" fill-rule="nonzero" fill-opacity="1"></path><polyline clip-path="url(#clip270)" style="stroke:#000000; stroke-linecap:round; stroke-linejoin:round; stroke-width:4; stroke-opacity:1; fill:none" points="249.542,1423.18 249.542,123.472 "></polyline>
<polyline clip-path="url(#clip270)" style="stroke:#000000; stroke-linecap:round; stroke-linejoin:round; stroke-width:4; stroke-opacity:1; fill:none" points="249.542,1386.4 268.44,1386.4 "></polyline>
<polyline clip-path="url(#clip270)" style="stroke:#000000; stroke-linecap:round; stroke-linejoin:round; stroke-width:4; stroke-opacity:1; fill:none" points="249.542,1101.16 268.44,1101.16 "></polyline>
<polyline clip-path="url(#clip270)" style="stroke:#000000; stroke-linecap:round; stroke-linejoin:round; stroke-width:4; stroke-opacity:1; fill:none" points="249.542,815.916 268.44,815.916 "></polyline>
<polyline clip-path="url(#clip270)" style="stroke:#000000; stroke-linecap:round; stroke-linejoin:round; stroke-width:4; stroke-opacity:1; fill:none" points="249.542,530.676 268.44,530.676 "></polyline>
<polyline clip-path="url(#clip270)" style="stroke:#000000; stroke-linecap:round; stroke-linejoin:round; stroke-width:4; stroke-opacity:1; fill:none" points="249.542,245.436 268.44,245.436 "></polyline>
<path clip-path="url(#clip270)" d="M126.205 1372.2 Q122.593 1372.2 120.765 1375.76 Q118.959 1379.3 118.959 1386.43 Q118.959 1393.54 120.765 1397.1 Q122.593 1400.64 126.205 1400.64 Q129.839 1400.64 131.644 1397.1 Q133.473 1393.54 133.473 1386.43 Q133.473 1379.3 131.644 1375.76 Q129.839 1372.2 126.205 1372.2 M126.205 1368.49 Q132.015 1368.49 135.07 1373.1 Q138.149 1377.68 138.149 1386.43 Q138.149 1395.16 135.07 1399.76 Q132.015 1404.35 126.205 1404.35 Q120.394 1404.35 117.316 1399.76 Q114.26 1395.16 114.26 1386.43 Q114.26 1377.68 117.316 1373.1 Q120.394 1368.49 126.205 1368.49 Z" fill="#000000" fill-rule="nonzero" fill-opacity="1"></path><path clip-path="url(#clip270)" d="M146.366 1397.8 L151.251 1397.8 L151.251 1403.68 L146.366 1403.68 L146.366 1397.8 Z" fill="#000000" fill-rule="nonzero" fill-opacity="1"></path><path clip-path="url(#clip270)" d="M171.436 1372.2 Q167.825 1372.2 165.996 1375.76 Q164.19 1379.3 164.19 1386.43 Q164.19 1393.54 165.996 1397.1 Q167.825 1400.64 171.436 1400.64 Q175.07 1400.64 176.876 1397.1 Q178.704 1393.54 178.704 1386.43 Q178.704 1379.3 176.876 1375.76 Q175.07 1372.2 171.436 1372.2 M171.436 1368.49 Q177.246 1368.49 180.301 1373.1 Q183.38 1377.68 183.38 1386.43 Q183.38 1395.16 180.301 1399.76 Q177.246 1404.35 171.436 1404.35 Q165.626 1404.35 162.547 1399.76 Q159.491 1395.16 159.491 1386.43 Q159.491 1377.68 162.547 1373.1 Q165.626 1368.49 171.436 1368.49 Z" fill="#000000" fill-rule="nonzero" fill-opacity="1"></path><path clip-path="url(#clip270)" d="M201.598 1372.2 Q197.987 1372.2 196.158 1375.76 Q194.352 1379.3 194.352 1386.43 Q194.352 1393.54 196.158 1397.1 Q197.987 1400.64 201.598 1400.64 Q205.232 1400.64 207.037 1397.1 Q208.866 1393.54 208.866 1386.43 Q208.866 1379.3 207.037 1375.76 Q205.232 1372.2 201.598 1372.2 M201.598 1368.49 Q207.408 1368.49 210.463 1373.1 Q213.542 1377.68 213.542 1386.43 Q213.542 1395.16 210.463 1399.76 Q207.408 1404.35 201.598 1404.35 Q195.787 1404.35 192.709 1399.76 Q189.653 1395.16 189.653 1386.43 Q189.653 1377.68 192.709 1373.1 Q195.787 1368.49 201.598 1368.49 Z" fill="#000000" fill-rule="nonzero" fill-opacity="1"></path><path clip-path="url(#clip270)" d="M127.2 1086.96 Q123.589 1086.96 121.76 1090.52 Q119.955 1094.06 119.955 1101.19 Q119.955 1108.3 121.76 1111.86 Q123.589 1115.4 127.2 1115.4 Q130.834 1115.4 132.64 1111.86 Q134.468 1108.3 134.468 1101.19 Q134.468 1094.06 132.64 1090.52 Q130.834 1086.96 127.2 1086.96 M127.2 1083.25 Q133.01 1083.25 136.066 1087.86 Q139.144 1092.44 139.144 1101.19 Q139.144 1109.92 136.066 1114.52 Q133.01 1119.11 127.2 1119.11 Q121.39 1119.11 118.311 1114.52 Q115.256 1109.92 115.256 1101.19 Q115.256 1092.44 118.311 1087.86 Q121.39 1083.25 127.2 1083.25 Z" fill="#000000" fill-rule="nonzero" fill-opacity="1"></path><path clip-path="url(#clip270)" d="M147.362 1112.56 L152.246 1112.56 L152.246 1118.44 L147.362 1118.44 L147.362 1112.56 Z" fill="#000000" fill-rule="nonzero" fill-opacity="1"></path><path clip-path="url(#clip270)" d="M166.459 1114.5 L182.778 1114.5 L182.778 1118.44 L160.834 1118.44 L160.834 1114.5 Q163.496 1111.75 168.079 1107.12 Q172.686 1102.46 173.866 1101.12 Q176.112 1098.6 176.991 1096.86 Q177.894 1095.1 177.894 1093.41 Q177.894 1090.66 175.95 1088.92 Q174.028 1087.19 170.927 1087.19 Q168.727 1087.19 166.274 1087.95 Q163.843 1088.71 161.065 1090.27 L161.065 1085.54 Q163.89 1084.41 166.343 1083.83 Q168.797 1083.25 170.834 1083.25 Q176.204 1083.25 179.399 1085.94 Q182.593 1088.62 182.593 1093.11 Q182.593 1095.24 181.783 1097.16 Q180.996 1099.06 178.889 1101.65 Q178.311 1102.33 175.209 1105.54 Q172.107 1108.74 166.459 1114.5 Z" fill="#000000" fill-rule="nonzero" fill-opacity="1"></path><path clip-path="url(#clip270)" d="M192.639 1083.88 L210.996 1083.88 L210.996 1087.81 L196.922 1087.81 L196.922 1096.28 Q197.94 1095.94 198.959 1095.77 Q199.977 1095.59 200.996 1095.59 Q206.783 1095.59 210.162 1098.76 Q213.542 1101.93 213.542 1107.35 Q213.542 1112.93 210.07 1116.03 Q206.598 1119.11 200.278 1119.11 Q198.102 1119.11 195.834 1118.74 Q193.588 1118.37 191.181 1117.63 L191.181 1112.93 Q193.264 1114.06 195.487 1114.62 Q197.709 1115.17 200.186 1115.17 Q204.19 1115.17 206.528 1113.07 Q208.866 1110.96 208.866 1107.35 Q208.866 1103.74 206.528 1101.63 Q204.19 1099.52 200.186 1099.52 Q198.311 1099.52 196.436 1099.94 Q194.584 1100.36 192.639 1101.24 L192.639 1083.88 Z" fill="#000000" fill-rule="nonzero" fill-opacity="1"></path><path clip-path="url(#clip270)" d="M126.205 801.715 Q122.593 801.715 120.765 805.28 Q118.959 808.821 118.959 815.951 Q118.959 823.057 120.765 826.622 Q122.593 830.164 126.205 830.164 Q129.839 830.164 131.644 826.622 Q133.473 823.057 133.473 815.951 Q133.473 808.821 131.644 805.28 Q129.839 801.715 126.205 801.715 M126.205 798.011 Q132.015 798.011 135.07 802.618 Q138.149 807.201 138.149 815.951 Q138.149 824.678 135.07 829.284 Q132.015 833.867 126.205 833.867 Q120.394 833.867 117.316 829.284 Q114.26 824.678 114.26 815.951 Q114.26 807.201 117.316 802.618 Q120.394 798.011 126.205 798.011 Z" fill="#000000" fill-rule="nonzero" fill-opacity="1"></path><path clip-path="url(#clip270)" d="M146.366 827.317 L151.251 827.317 L151.251 833.196 L146.366 833.196 L146.366 827.317 Z" fill="#000000" fill-rule="nonzero" fill-opacity="1"></path><path clip-path="url(#clip270)" d="M161.482 798.636 L179.839 798.636 L179.839 802.571 L165.765 802.571 L165.765 811.043 Q166.783 810.696 167.802 810.534 Q168.82 810.349 169.839 810.349 Q175.626 810.349 179.005 813.52 Q182.385 816.692 182.385 822.108 Q182.385 827.687 178.913 830.789 Q175.44 833.867 169.121 833.867 Q166.945 833.867 164.677 833.497 Q162.431 833.127 160.024 832.386 L160.024 827.687 Q162.107 828.821 164.329 829.377 Q166.552 829.932 169.028 829.932 Q173.033 829.932 175.371 827.826 Q177.709 825.719 177.709 822.108 Q177.709 818.497 175.371 816.391 Q173.033 814.284 169.028 814.284 Q167.153 814.284 165.278 814.701 Q163.427 815.118 161.482 815.997 L161.482 798.636 Z" fill="#000000" fill-rule="nonzero" fill-opacity="1"></path><path clip-path="url(#clip270)" d="M201.598 801.715 Q197.987 801.715 196.158 805.28 Q194.352 808.821 194.352 815.951 Q194.352 823.057 196.158 826.622 Q197.987 830.164 201.598 830.164 Q205.232 830.164 207.037 826.622 Q208.866 823.057 208.866 815.951 Q208.866 808.821 207.037 805.28 Q205.232 801.715 201.598 801.715 M201.598 798.011 Q207.408 798.011 210.463 802.618 Q213.542 807.201 213.542 815.951 Q213.542 824.678 210.463 829.284 Q207.408 833.867 201.598 833.867 Q195.787 833.867 192.709 829.284 Q189.653 824.678 189.653 815.951 Q189.653 807.201 192.709 802.618 Q195.787 798.011 201.598 798.011 Z" fill="#000000" fill-rule="nonzero" fill-opacity="1"></path><path clip-path="url(#clip270)" d="M127.2 516.475 Q123.589 516.475 121.76 520.039 Q119.955 523.581 119.955 530.711 Q119.955 537.817 121.76 541.382 Q123.589 544.923 127.2 544.923 Q130.834 544.923 132.64 541.382 Q134.468 537.817 134.468 530.711 Q134.468 523.581 132.64 520.039 Q130.834 516.475 127.2 516.475 M127.2 512.771 Q133.01 512.771 136.066 517.377 Q139.144 521.961 139.144 530.711 Q139.144 539.437 136.066 544.044 Q133.01 548.627 127.2 548.627 Q121.39 548.627 118.311 544.044 Q115.256 539.437 115.256 530.711 Q115.256 521.961 118.311 517.377 Q121.39 512.771 127.2 512.771 Z" fill="#000000" fill-rule="nonzero" fill-opacity="1"></path><path clip-path="url(#clip270)" d="M147.362 542.076 L152.246 542.076 L152.246 547.956 L147.362 547.956 L147.362 542.076 Z" fill="#000000" fill-rule="nonzero" fill-opacity="1"></path><path clip-path="url(#clip270)" d="M161.251 513.396 L183.473 513.396 L183.473 515.387 L170.927 547.956 L166.042 547.956 L177.848 517.331 L161.251 517.331 L161.251 513.396 Z" fill="#000000" fill-rule="nonzero" fill-opacity="1"></path><path clip-path="url(#clip270)" d="M192.639 513.396 L210.996 513.396 L210.996 517.331 L196.922 517.331 L196.922 525.803 Q197.94 525.456 198.959 525.294 Q199.977 525.109 200.996 525.109 Q206.783 525.109 210.162 528.28 Q213.542 531.451 213.542 536.868 Q213.542 542.447 210.07 545.548 Q206.598 548.627 200.278 548.627 Q198.102 548.627 195.834 548.257 Q193.588 547.886 191.181 547.146 L191.181 542.447 Q193.264 543.581 195.487 544.136 Q197.709 544.692 200.186 544.692 Q204.19 544.692 206.528 542.586 Q208.866 540.479 208.866 536.868 Q208.866 533.257 206.528 531.15 Q204.19 529.044 200.186 529.044 Q198.311 529.044 196.436 529.461 Q194.584 529.877 192.639 530.757 L192.639 513.396 Z" fill="#000000" fill-rule="nonzero" fill-opacity="1"></path><path clip-path="url(#clip270)" d="M117.015 258.78 L124.654 258.78 L124.654 232.415 L116.343 234.081 L116.343 229.822 L124.607 228.156 L129.283 228.156 L129.283 258.78 L136.922 258.78 L136.922 262.716 L117.015 262.716 L117.015 258.78 Z" fill="#000000" fill-rule="nonzero" fill-opacity="1"></path><path clip-path="url(#clip270)" d="M146.366 256.836 L151.251 256.836 L151.251 262.716 L146.366 262.716 L146.366 256.836 Z" fill="#000000" fill-rule="nonzero" fill-opacity="1"></path><path clip-path="url(#clip270)" d="M171.436 231.234 Q167.825 231.234 165.996 234.799 Q164.19 238.341 164.19 245.47 Q164.19 252.577 165.996 256.142 Q167.825 259.683 171.436 259.683 Q175.07 259.683 176.876 256.142 Q178.704 252.577 178.704 245.47 Q178.704 238.341 176.876 234.799 Q175.07 231.234 171.436 231.234 M171.436 227.531 Q177.246 227.531 180.301 232.137 Q183.38 236.72 183.38 245.47 Q183.38 254.197 180.301 258.804 Q177.246 263.387 171.436 263.387 Q165.626 263.387 162.547 258.804 Q159.491 254.197 159.491 245.47 Q159.491 236.72 162.547 232.137 Q165.626 227.531 171.436 227.531 Z" fill="#000000" fill-rule="nonzero" fill-opacity="1"></path><path clip-path="url(#clip270)" d="M201.598 231.234 Q197.987 231.234 196.158 234.799 Q194.352 238.341 194.352 245.47 Q194.352 252.577 196.158 256.142 Q197.987 259.683 201.598 259.683 Q205.232 259.683 207.037 256.142 Q208.866 252.577 208.866 245.47 Q208.866 238.341 207.037 234.799 Q205.232 231.234 201.598 231.234 M201.598 227.531 Q207.408 227.531 210.463 232.137 Q213.542 236.72 213.542 245.47 Q213.542 254.197 210.463 258.804 Q207.408 263.387 201.598 263.387 Q195.787 263.387 192.709 258.804 Q189.653 254.197 189.653 245.47 Q189.653 236.72 192.709 232.137 Q195.787 227.531 201.598 227.531 Z" fill="#000000" fill-rule="nonzero" fill-opacity="1"></path><path clip-path="url(#clip270)" d="M21.7677 886.636 L58.7206 886.636 L58.7206 878.869 Q58.7206 869.034 54.2646 864.483 Q49.8086 859.9 40.1964 859.9 Q30.6479 859.9 26.2237 864.483 Q21.7677 869.034 21.7677 878.869 L21.7677 886.636 M16.4842 893.065 L16.4842 879.856 Q16.4842 866.043 22.2451 859.581 Q27.9743 853.12 40.1964 853.12 Q52.4822 853.12 58.2432 859.613 Q64.0042 866.106 64.0042 879.856 L64.0042 893.065 L16.4842 893.065 Z" fill="#000000" fill-rule="nonzero" fill-opacity="1"></path><path clip-path="url(#clip270)" d="M44.7161 812.634 L47.5806 812.634 L47.5806 839.561 Q53.6281 839.179 56.8109 835.933 Q59.9619 832.654 59.9619 826.83 Q59.9619 823.456 59.1344 820.305 Q58.3069 817.122 56.6518 814.003 L62.1899 814.003 Q63.5267 817.154 64.227 820.464 Q64.9272 823.774 64.9272 827.18 Q64.9272 835.71 59.9619 840.707 Q54.9967 845.672 46.5303 845.672 Q37.7774 845.672 32.6531 840.962 Q27.4968 836.219 27.4968 828.198 Q27.4968 821.005 32.1438 816.836 Q36.7589 812.634 44.7161 812.634 M42.9973 818.491 Q38.1912 818.554 35.3266 821.196 Q32.4621 823.806 32.4621 828.135 Q32.4621 833.036 35.2312 835.996 Q38.0002 838.925 43.0292 839.37 L42.9973 818.491 Z" fill="#000000" fill-rule="nonzero" fill-opacity="1"></path><path clip-path="url(#clip270)" d="M42.4881 773.39 L64.0042 773.39 L64.0042 779.246 L42.679 779.246 Q37.6183 779.246 35.1038 781.219 Q32.5894 783.193 32.5894 787.14 Q32.5894 791.882 35.6131 794.619 Q38.6368 797.357 43.8567 797.357 L64.0042 797.357 L64.0042 803.245 L28.3562 803.245 L28.3562 797.357 L33.8944 797.357 Q30.6797 795.256 29.0883 792.423 Q27.4968 789.559 27.4968 785.835 Q27.4968 779.692 31.3163 776.541 Q35.1038 773.39 42.4881 773.39 Z" fill="#000000" fill-rule="nonzero" fill-opacity="1"></path><path clip-path="url(#clip270)" d="M29.4065 738.983 L34.9447 738.983 Q33.6716 741.466 33.035 744.139 Q32.3984 746.813 32.3984 749.677 Q32.3984 754.038 33.7352 756.234 Q35.072 758.398 37.7456 758.398 Q39.7826 758.398 40.9603 756.839 Q42.1061 755.279 43.1565 750.569 L43.6021 748.563 Q44.9389 742.325 47.3897 739.715 Q49.8086 737.073 54.1691 737.073 Q59.1344 737.073 62.0308 741.02 Q64.9272 744.935 64.9272 751.81 Q64.9272 754.674 64.3543 757.794 Q63.8132 760.881 62.6992 764.319 L56.6518 764.319 Q58.3387 761.072 59.198 757.921 Q60.0256 754.77 60.0256 751.683 Q60.0256 747.545 58.6251 745.317 Q57.1929 743.089 54.6147 743.089 Q52.2276 743.089 50.9545 744.712 Q49.6813 746.304 48.5037 751.746 L48.0262 753.783 Q46.8804 759.226 44.5251 761.645 Q42.138 764.064 38.0002 764.064 Q32.9713 764.064 30.2341 760.499 Q27.4968 756.934 27.4968 750.378 Q27.4968 747.131 27.9743 744.267 Q28.4517 741.402 29.4065 738.983 Z" fill="#000000" fill-rule="nonzero" fill-opacity="1"></path><path clip-path="url(#clip270)" d="M28.3562 727.748 L28.3562 721.891 L64.0042 721.891 L64.0042 727.748 L28.3562 727.748 M14.479 727.748 L14.479 721.891 L21.895 721.891 L21.895 727.748 L14.479 727.748 Z" fill="#000000" fill-rule="nonzero" fill-opacity="1"></path><path clip-path="url(#clip270)" d="M18.2347 703.844 L28.3562 703.844 L28.3562 691.781 L32.9077 691.781 L32.9077 703.844 L52.2594 703.844 Q56.6199 703.844 57.8613 702.667 Q59.1026 701.457 59.1026 697.797 L59.1026 691.781 L64.0042 691.781 L64.0042 697.797 Q64.0042 704.576 61.4897 707.154 Q58.9434 709.733 52.2594 709.733 L32.9077 709.733 L32.9077 714.029 L28.3562 714.029 L28.3562 709.733 L18.2347 709.733 L18.2347 703.844 Z" fill="#000000" fill-rule="nonzero" fill-opacity="1"></path><path clip-path="url(#clip270)" d="M67.3143 669.247 Q73.68 671.729 75.6216 674.085 Q77.5631 676.44 77.5631 680.387 L77.5631 685.065 L72.6615 685.065 L72.6615 681.628 Q72.6615 679.209 71.5157 677.872 Q70.3699 676.535 66.1048 674.912 L63.4312 673.862 L28.3562 688.28 L28.3562 682.074 L56.238 670.934 L28.3562 659.794 L28.3562 653.587 L67.3143 669.247 Z" fill="#000000" fill-rule="nonzero" fill-opacity="1"></path><path clip-path="url(#clip270)" d="M1006.83 12.096 L1015.05 12.096 L1015.05 48.8377 Q1015.05 58.5599 1018.58 62.8538 Q1022.1 67.1073 1030 67.1073 Q1037.86 67.1073 1041.38 62.8538 Q1044.91 58.5599 1044.91 48.8377 L1044.91 12.096 L1053.13 12.096 L1053.13 49.8504 Q1053.13 61.6791 1047.26 67.7149 Q1041.43 73.7508 1030 73.7508 Q1018.54 73.7508 1012.66 67.7149 Q1006.83 61.6791 1006.83 49.8504 L1006.83 12.096 Z" fill="#000000" fill-rule="nonzero" fill-opacity="1"></path><path clip-path="url(#clip270)" d="M1097.08 28.5427 L1097.08 35.5912 Q1093.92 33.9709 1090.52 33.1607 Q1087.12 32.3505 1083.47 32.3505 Q1077.92 32.3505 1075.13 34.0519 Q1072.37 35.7533 1072.37 39.156 Q1072.37 41.7486 1074.36 43.2475 Q1076.34 44.7058 1082.34 46.0426 L1084.89 46.6097 Q1092.83 48.3111 1096.15 51.4303 Q1099.52 54.509 1099.52 60.0587 Q1099.52 66.3781 1094.49 70.0644 Q1089.51 73.7508 1080.76 73.7508 Q1077.11 73.7508 1073.14 73.0216 Q1069.21 72.3329 1064.84 70.9151 L1064.84 63.2184 Q1068.97 65.3654 1072.98 66.4591 Q1076.99 67.5124 1080.92 67.5124 Q1086.19 67.5124 1089.02 65.73 Q1091.86 63.9071 1091.86 60.6258 Q1091.86 57.5877 1089.79 55.9673 Q1087.77 54.3469 1080.84 52.8481 L1078.25 52.2405 Q1071.32 50.7821 1068.24 47.7845 Q1065.16 44.7463 1065.16 39.4801 Q1065.16 33.0797 1069.7 29.5959 Q1074.24 26.1121 1082.58 26.1121 Q1086.71 26.1121 1090.36 26.7198 Q1094.01 27.3274 1097.08 28.5427 Z" fill="#000000" fill-rule="nonzero" fill-opacity="1"></path><path clip-path="url(#clip270)" d="M1150.19 48.0275 L1150.19 51.6733 L1115.92 51.6733 Q1116.41 59.3701 1120.54 63.421 Q1124.71 67.4314 1132.12 67.4314 Q1136.42 67.4314 1140.43 66.3781 Q1144.48 65.3249 1148.45 63.2184 L1148.45 70.267 Q1144.44 71.9684 1140.23 72.8596 Q1136.01 73.7508 1131.68 73.7508 Q1120.82 73.7508 1114.46 67.4314 Q1108.14 61.1119 1108.14 50.3365 Q1108.14 39.1965 1114.14 32.6746 Q1120.17 26.1121 1130.38 26.1121 Q1139.54 26.1121 1144.84 32.0264 Q1150.19 37.9003 1150.19 48.0275 M1142.74 45.84 Q1142.66 39.7232 1139.3 36.0774 Q1135.97 32.4315 1130.46 32.4315 Q1124.23 32.4315 1120.46 35.9558 Q1116.73 39.4801 1116.16 45.8805 L1142.74 45.84 Z" fill="#000000" fill-rule="nonzero" fill-opacity="1"></path><path clip-path="url(#clip270)" d="M1162.43 9.54393 L1169.88 9.54393 L1169.88 72.576 L1162.43 72.576 L1162.43 9.54393 Z" fill="#000000" fill-rule="nonzero" fill-opacity="1"></path><path clip-path="url(#clip270)" d="M1224.28 48.0275 L1224.28 51.6733 L1190.01 51.6733 Q1190.5 59.3701 1194.63 63.421 Q1198.8 67.4314 1206.22 67.4314 Q1210.51 67.4314 1214.52 66.3781 Q1218.57 65.3249 1222.54 63.2184 L1222.54 70.267 Q1218.53 71.9684 1214.32 72.8596 Q1210.1 73.7508 1205.77 73.7508 Q1194.91 73.7508 1188.55 67.4314 Q1182.23 61.1119 1182.23 50.3365 Q1182.23 39.1965 1188.23 32.6746 Q1194.27 26.1121 1204.47 26.1121 Q1213.63 26.1121 1218.94 32.0264 Q1224.28 37.9003 1224.28 48.0275 M1216.83 45.84 Q1216.75 39.7232 1213.39 36.0774 Q1210.06 32.4315 1204.56 32.4315 Q1198.32 32.4315 1194.55 35.9558 Q1190.82 39.4801 1190.26 45.8805 L1216.83 45.84 Z" fill="#000000" fill-rule="nonzero" fill-opacity="1"></path><path clip-path="url(#clip270)" d="M1265.44 28.5427 L1265.44 35.5912 Q1262.28 33.9709 1258.88 33.1607 Q1255.48 32.3505 1251.83 32.3505 Q1246.28 32.3505 1243.48 34.0519 Q1240.73 35.7533 1240.73 39.156 Q1240.73 41.7486 1242.71 43.2475 Q1244.7 44.7058 1250.69 46.0426 L1253.25 46.6097 Q1261.19 48.3111 1264.51 51.4303 Q1267.87 54.509 1267.87 60.0587 Q1267.87 66.3781 1262.85 70.0644 Q1257.87 73.7508 1249.12 73.7508 Q1245.47 73.7508 1241.5 73.0216 Q1237.57 72.3329 1233.2 70.9151 L1233.2 63.2184 Q1237.33 65.3654 1241.34 66.4591 Q1245.35 67.5124 1249.28 67.5124 Q1254.54 67.5124 1257.38 65.73 Q1260.21 63.9071 1260.21 60.6258 Q1260.21 57.5877 1258.15 55.9673 Q1256.12 54.3469 1249.2 52.8481 L1246.6 52.2405 Q1239.68 50.7821 1236.6 47.7845 Q1233.52 44.7463 1233.52 39.4801 Q1233.52 33.0797 1238.06 29.5959 Q1242.59 26.1121 1250.94 26.1121 Q1255.07 26.1121 1258.72 26.7198 Q1262.36 27.3274 1265.44 28.5427 Z" fill="#000000" fill-rule="nonzero" fill-opacity="1"></path><path clip-path="url(#clip270)" d="M1308.66 28.5427 L1308.66 35.5912 Q1305.5 33.9709 1302.1 33.1607 Q1298.7 32.3505 1295.05 32.3505 Q1289.5 32.3505 1286.71 34.0519 Q1283.95 35.7533 1283.95 39.156 Q1283.95 41.7486 1285.94 43.2475 Q1287.92 44.7058 1293.92 46.0426 L1296.47 46.6097 Q1304.41 48.3111 1307.73 51.4303 Q1311.09 54.509 1311.09 60.0587 Q1311.09 66.3781 1306.07 70.0644 Q1301.09 73.7508 1292.34 73.7508 Q1288.69 73.7508 1284.72 73.0216 Q1280.79 72.3329 1276.42 70.9151 L1276.42 63.2184 Q1280.55 65.3654 1284.56 66.4591 Q1288.57 67.5124 1292.5 67.5124 Q1297.77 67.5124 1300.6 65.73 Q1303.44 63.9071 1303.44 60.6258 Q1303.44 57.5877 1301.37 55.9673 Q1299.35 54.3469 1292.42 52.8481 L1289.83 52.2405 Q1282.9 50.7821 1279.82 47.7845 Q1276.74 44.7463 1276.74 39.4801 Q1276.74 33.0797 1281.28 29.5959 Q1285.82 26.1121 1294.16 26.1121 Q1298.29 26.1121 1301.94 26.7198 Q1305.58 27.3274 1308.66 28.5427 Z" fill="#000000" fill-rule="nonzero" fill-opacity="1"></path><path clip-path="url(#clip270)" d="M1349.66 12.096 L1384.42 12.096 L1384.42 18.9825 L1357.84 18.9825 L1357.84 36.8065 L1381.82 36.8065 L1381.82 43.6931 L1357.84 43.6931 L1357.84 72.576 L1349.66 72.576 L1349.66 12.096 Z" fill="#000000" fill-rule="nonzero" fill-opacity="1"></path><path clip-path="url(#clip270)" d="M1410.06 49.7694 Q1401.02 49.7694 1397.54 51.8354 Q1394.06 53.9013 1394.06 58.8839 Q1394.06 62.8538 1396.65 65.2034 Q1399.28 67.5124 1403.78 67.5124 Q1409.98 67.5124 1413.7 63.1374 Q1417.47 58.7219 1417.47 51.4303 L1417.47 49.7694 L1410.06 49.7694 M1424.92 46.6907 L1424.92 72.576 L1417.47 72.576 L1417.47 65.6895 Q1414.92 69.8214 1411.11 71.8063 Q1407.3 73.7508 1401.79 73.7508 Q1394.83 73.7508 1390.69 69.8619 Q1386.6 65.9325 1386.6 59.3701 Q1386.6 51.7138 1391.71 47.825 Q1396.85 43.9361 1407.02 43.9361 L1417.47 43.9361 L1417.47 43.2069 Q1417.47 38.0623 1414.07 35.2672 Q1410.71 32.4315 1404.59 32.4315 Q1400.7 32.4315 1397.01 33.3632 Q1393.33 34.295 1389.92 36.1584 L1389.92 29.2718 Q1394.02 27.692 1397.86 26.9223 Q1401.71 26.1121 1405.36 26.1121 Q1415.2 26.1121 1420.06 31.2163 Q1424.92 36.3204 1424.92 46.6907 Z" fill="#000000" fill-rule="nonzero" fill-opacity="1"></path><path clip-path="url(#clip270)" d="M1472.93 28.9478 L1472.93 35.9153 Q1469.77 34.1734 1466.57 33.3227 Q1463.41 32.4315 1460.17 32.4315 Q1452.92 32.4315 1448.91 37.0496 Q1444.9 41.6271 1444.9 49.9314 Q1444.9 58.2358 1448.91 62.8538 Q1452.92 67.4314 1460.17 67.4314 Q1463.41 67.4314 1466.57 66.5807 Q1469.77 65.6895 1472.93 63.9476 L1472.93 70.8341 Q1469.81 72.2924 1466.45 73.0216 Q1463.12 73.7508 1459.36 73.7508 Q1449.11 73.7508 1443.07 67.3098 Q1437.04 60.8689 1437.04 49.9314 Q1437.04 38.832 1443.11 32.472 Q1449.23 26.1121 1459.84 26.1121 Q1463.29 26.1121 1466.57 26.8413 Q1469.85 27.5299 1472.93 28.9478 Z" fill="#000000" fill-rule="nonzero" fill-opacity="1"></path><path clip-path="url(#clip270)" d="M1493.26 14.324 L1493.26 27.2059 L1508.62 27.2059 L1508.62 32.9987 L1493.26 32.9987 L1493.26 57.6282 Q1493.26 63.1779 1494.76 64.7578 Q1496.3 66.3376 1500.96 66.3376 L1508.62 66.3376 L1508.62 72.576 L1500.96 72.576 Q1492.33 72.576 1489.05 69.3758 Q1485.77 66.1351 1485.77 57.6282 L1485.77 32.9987 L1480.3 32.9987 L1480.3 27.2059 L1485.77 27.2059 L1485.77 14.324 L1493.26 14.324 Z" fill="#000000" fill-rule="nonzero" fill-opacity="1"></path><path clip-path="url(#clip270)" d="M1536 32.4315 Q1530 32.4315 1526.52 37.1306 Q1523.04 41.7891 1523.04 49.9314 Q1523.04 58.0738 1526.48 62.7728 Q1529.96 67.4314 1536 67.4314 Q1541.95 67.4314 1545.44 62.7323 Q1548.92 58.0333 1548.92 49.9314 Q1548.92 41.8701 1545.44 37.1711 Q1541.95 32.4315 1536 32.4315 M1536 26.1121 Q1545.72 26.1121 1551.27 32.4315 Q1556.82 38.7509 1556.82 49.9314 Q1556.82 61.0714 1551.27 67.4314 Q1545.72 73.7508 1536 73.7508 Q1526.24 73.7508 1520.69 67.4314 Q1515.18 61.0714 1515.18 49.9314 Q1515.18 38.7509 1520.69 32.4315 Q1526.24 26.1121 1536 26.1121 Z" fill="#000000" fill-rule="nonzero" fill-opacity="1"></path><path clip-path="url(#clip270)" d="M1595.47 34.1734 Q1594.21 33.4443 1592.71 33.1202 Q1591.25 32.7556 1589.47 32.7556 Q1583.15 32.7556 1579.75 36.8875 Q1576.39 40.9789 1576.39 48.6757 L1576.39 72.576 L1568.89 72.576 L1568.89 27.2059 L1576.39 27.2059 L1576.39 34.2544 Q1578.74 30.1225 1582.5 28.1376 Q1586.27 26.1121 1591.66 26.1121 Q1592.43 26.1121 1593.36 26.2337 Q1594.29 26.3147 1595.43 26.5172 L1595.47 34.1734 Z" fill="#000000" fill-rule="nonzero" fill-opacity="1"></path><polyline clip-path="url(#clip272)" style="stroke:#009af9; stroke-linecap:round; stroke-linejoin:round; stroke-width:8; stroke-opacity:1; fill:none" points="309.067,1386.4 319.038,1386.4 329.008,1386.39 338.979,1386.39 348.95,1386.39 358.92,1386.38 368.891,1386.37 378.862,1386.35 388.832,1386.32 398.803,1386.28 408.774,1386.23 418.744,1386.15 428.715,1386.05 438.686,1385.91 448.656,1385.75 458.627,1385.55 468.598,1385.33 478.568,1385.08 488.539,1384.81 498.51,1384.52 508.48,1384.22 518.451,1383.91 528.422,1383.58 538.392,1383.23 548.363,1382.83 558.334,1382.38 568.304,1381.85 578.275,1381.21 588.246,1380.45 598.216,1379.56 608.187,1378.52 618.158,1377.36 628.129,1376.06 638.099,1374.63 648.07,1373.09 658.041,1371.43 668.011,1369.65 677.982,1367.71 687.953,1365.6 697.923,1363.26 707.894,1360.64 717.865,1357.66 727.835,1354.25 737.806,1350.33 747.777,1345.85 757.747,1340.74 767.718,1334.99 777.689,1328.6 787.659,1321.6 797.63,1314.07 807.601,1306.11 817.571,1297.84 827.542,1289.42 837.513,1280.97 847.483,1272.61 857.454,1264.44 867.425,1256.53 877.395,1248.89 887.366,1241.52 897.337,1234.36 907.307,1227.34 917.278,1220.37 927.249,1213.36 937.219,1206.26 947.19,1199 957.161,1191.57 967.131,1183.98 977.102,1176.27 987.073,1168.53 997.043,1160.81 1007.01,1153.22 1016.98,1145.83 1026.96,1138.69 1036.93,1131.84 1046.9,1125.29 1056.87,1119.03 1066.84,1113.01 1076.81,1107.19 1086.78,1101.52 1096.75,1095.94 1106.72,1090.4 1116.69,1084.85 1126.66,1079.26 1136.63,1073.59 1146.6,1067.83 1156.57,1061.97 1166.54,1056.04 1176.52,1050.07 1186.49,1044.11 1196.46,1038.26 1206.43,1032.59 1216.4,1027.18 1226.37,1022.1 1236.34,1017.36 1246.31,1012.95 1256.28,1008.79 1266.25,1004.76 1276.22,1000.74 1286.19,996.612 1296.16,992.272 1306.13,987.686 1316.1,982.891 1326.08,977.996 1336.05,973.177 1346.02,968.657 1355.99,964.677 1365.96,961.471 1375.93,959.233 1385.9,958.101 1395.87,958.139 1405.84,959.34 1415.81,961.624 1425.78,964.862 1435.75,968.881 1445.72,973.495 1455.69,978.515 1465.67,983.773 1475.64,989.134 1485.61,994.507 1495.58,999.858 1505.55,1005.21 1515.52,1010.65 1525.49,1016.29 1535.46,1022.3 1545.43,1028.87 1555.4,1036.14 1565.37,1044.26 1575.34,1053.32 1585.31,1063.34 1595.28,1074.31 1605.25,1086.14 1615.23,1098.72 1625.2,1111.93 1635.17,1125.63 1645.14,1139.68 1655.11,1153.96 1665.08,1168.36 1675.05,1182.75 1685.02,1197.05 1694.99,1211.15 1704.96,1224.95 1714.93,1238.36 1724.9,1251.31 1734.87,1263.73 1744.84,1275.54 1754.81,1286.7 1764.79,1297.17 1774.76,1306.9 1784.73,1315.89 1794.7,1324.1 1804.67,1331.55 1814.64,1338.24 1824.61,1344.21 1834.58,1349.49 1844.55,1354.13 1854.52,1358.18 1864.49,1361.69 1874.46,1364.69 1884.43,1367.23 1894.4,1369.35 1904.37,1371.09 1914.35,1372.5 1924.32,1373.63 1934.29,1374.53 1944.26,1375.28 1954.23,1375.91 1964.2,1376.5 1974.17,1377.06 1984.14,1377.64 1994.11,1378.24 2004.08,1378.86 2014.05,1379.5 2024.02,1380.14 2033.99,1380.76 2043.96,1381.36 2053.93,1381.93 2063.91,1382.46 2073.88,1382.96 2083.85,1383.43 2093.82,1383.86 2103.79,1384.26 2113.76,1384.63 2123.73,1384.96 2133.7,1385.25 2143.67,1385.51 2153.64,1385.72 2163.61,1385.9 2173.58,1386.04 2183.55,1386.14 2193.52,1386.22 2203.49,1386.28 2213.47,1386.32 2223.44,1386.35 2233.41,1386.37 2243.38,1386.38 2253.35,1386.39 2263.32,1386.39 2273.29,1386.39 2283.26,1386.4 2293.23,1386.4 "></polyline>
<polyline clip-path="url(#clip272)" style="stroke:#e26f46; stroke-linecap:round; stroke-linejoin:round; stroke-width:8; stroke-opacity:1; fill:none" points="1068.91,1386.4 1072.83,1386.39 1076.75,1386.39 1080.67,1386.39 1084.59,1386.38 1088.52,1386.35 1092.44,1386.31 1096.36,1386.24 1100.28,1386.12 1104.2,1385.94 1108.12,1385.71 1112.05,1385.4 1115.97,1385.03 1119.89,1384.63 1123.81,1384.21 1127.73,1383.81 1131.66,1383.42 1135.58,1383.04 1139.5,1382.64 1143.42,1382.15 1147.34,1381.52 1151.27,1380.68 1155.19,1379.62 1159.11,1378.35 1163.03,1376.95 1166.95,1375.51 1170.87,1374.13 1174.8,1372.91 1178.72,1371.92 1182.64,1371.18 1186.56,1370.69 1190.48,1370.44 1194.41,1370.39 1198.33,1370.48 1202.25,1370.6 1206.17,1370.62 1210.09,1370.34 1214.02,1369.54 1217.94,1368.01 1221.86,1365.56 1225.78,1362.08 1229.7,1357.54 1233.63,1351.94 1237.55,1345.37 1241.47,1337.94 1245.39,1329.77 1249.31,1321.01 1253.23,1311.85 1257.16,1302.47 1261.08,1293.05 1265,1283.73 1268.92,1274.55 1272.84,1265.47 1276.77,1256.33 1280.69,1246.9 1284.61,1236.82 1288.53,1225.74 1292.45,1213.3 1296.38,1199.26 1300.3,1183.52 1304.22,1166.13 1308.14,1147.28 1312.06,1127.16 1315.98,1105.88 1319.91,1083.43 1323.83,1059.64 1327.75,1034.3 1331.67,1007.25 1335.59,978.575 1339.52,948.587 1343.44,917.817 1347.36,886.894 1351.28,856.397 1355.2,826.727 1359.13,798.035 1363.05,770.21 1366.97,742.926 1370.89,715.728 1374.81,688.138 1378.74,659.763 1382.66,630.358 1386.58,599.85 1390.5,568.303 1394.42,535.857 1398.34,502.682 1402.27,468.963 1406.19,434.925 1410.11,400.876 1414.03,367.229 1417.95,334.504 1421.88,303.283 1425.8,274.174 1429.72,247.762 1433.64,224.578 1437.56,205.069 1441.49,189.54 1445.41,178.069 1449.33,170.426 1453.25,166.029 1457.17,163.999 1461.09,163.317 1465.02,163.054 1468.94,162.588 1472.86,161.739 1476.78,160.763 1480.7,160.256 1484.63,160.994 1488.55,163.782 1492.47,169.335 1496.39,178.176 1500.31,190.549 1504.24,206.377 1508.16,225.29 1512.08,246.77 1516,270.351 1519.92,295.778 1523.84,323.026 1527.77,352.125 1531.69,382.888 1535.61,414.693 1539.53,446.489 1543.45,477.061 1547.38,505.474 1551.3,531.458 1555.22,555.559 1559.14,578.966 1563.06,603.076 1566.99,629.029 1570.91,657.369 1574.83,687.963 1578.75,720.145 1582.67,752.962 1586.6,785.439 1590.52,816.762 1594.44,846.407 1598.36,874.187 1602.28,900.246 1606.2,924.972 1610.13,948.846 1614.05,972.272 1617.97,995.454 1621.89,1018.36 1625.81,1040.82 1629.74,1062.6 1633.66,1083.56 1637.58,1103.67 1641.5,1123 1645.42,1141.63 1649.35,1159.61 1653.27,1176.93 1657.19,1193.51 1661.11,1209.24 1665.03,1224.02 1668.95,1237.78 1672.88,1250.49 1676.8,1262.18 1680.72,1272.91 1684.64,1282.79 1688.56,1291.9 1692.49,1300.36 1696.41,1308.28 1700.33,1315.78 1704.25,1322.96 1708.17,1329.9 1712.1,1336.63 1716.02,1343.11 1719.94,1349.26 1723.86,1354.94 1727.78,1360.02 1731.7,1364.42 1735.63,1368.11 1739.55,1371.13 1743.47,1373.58 1747.39,1375.55 1751.31,1377.09 1755.24,1378.24 1759.16,1379.03 1763.08,1379.47 1767,1379.62 1770.92,1379.58 1774.85,1379.47 1778.77,1379.43 1782.69,1379.57 1786.61,1379.94 1790.53,1380.56 1794.46,1381.37 1798.38,1382.29 1802.3,1383.23 1806.22,1384.09 1810.14,1384.81 1814.06,1385.37 1817.99,1385.77 1821.91,1386.04 1825.83,1386.21 1829.75,1386.3 1833.67,1386.35 1837.6,1386.38 1841.52,1386.39 1845.44,1386.39 1849.36,1386.4 "></polyline>
<polyline clip-path="url(#clip272)" style="stroke:#808080; stroke-linecap:round; stroke-linejoin:round; stroke-width:6; stroke-opacity:1; fill:none" stroke-dasharray="3, 6" points="1230.12,2722.89 1230.12,-1176.24 "></polyline>
<path clip-path="url(#clip270)" d="M1841.82 322.316 L2282.65 322.316 L2282.65 166.796 L1841.82 166.796  Z" fill="#ffffff" fill-rule="evenodd" fill-opacity="1"></path>
<polyline clip-path="url(#clip270)" style="stroke:#000000; stroke-linecap:round; stroke-linejoin:round; stroke-width:4; stroke-opacity:1; fill:none" points="1841.82,322.316 2282.65,322.316 2282.65,166.796 1841.82,166.796 1841.82,322.316 "></polyline>
<polyline clip-path="url(#clip270)" style="stroke:#009af9; stroke-linecap:round; stroke-linejoin:round; stroke-width:8; stroke-opacity:1; fill:none" points="1865.19,218.636 2005.4,218.636 "></polyline>
<path clip-path="url(#clip270)" d="M2033.45 219.411 L2033.45 232.073 L2040.95 232.073 Q2044.72 232.073 2046.53 230.522 Q2048.35 228.948 2048.35 225.731 Q2048.35 222.49 2046.53 220.962 Q2044.72 219.411 2040.95 219.411 L2033.45 219.411 M2033.45 205.198 L2033.45 215.615 L2040.37 215.615 Q2043.79 215.615 2045.46 214.342 Q2047.15 213.045 2047.15 210.407 Q2047.15 207.791 2045.46 206.495 Q2043.79 205.198 2040.37 205.198 L2033.45 205.198 M2028.77 201.356 L2040.72 201.356 Q2046.06 201.356 2048.96 203.578 Q2051.85 205.8 2051.85 209.897 Q2051.85 213.069 2050.37 214.944 Q2048.89 216.819 2046.02 217.282 Q2049.47 218.022 2051.36 220.383 Q2053.29 222.721 2053.29 226.24 Q2053.29 230.869 2050.14 233.393 Q2046.99 235.916 2041.18 235.916 L2028.77 235.916 L2028.77 201.356 Z" fill="#000000" fill-rule="nonzero" fill-opacity="1"></path><path clip-path="url(#clip270)" d="M2081.18 202.49 L2081.18 207.05 Q2078.52 205.777 2076.16 205.152 Q2073.79 204.527 2071.6 204.527 Q2067.78 204.527 2065.69 206.008 Q2063.63 207.49 2063.63 210.221 Q2063.63 212.513 2065 213.694 Q2066.39 214.851 2070.23 215.569 L2073.05 216.147 Q2078.29 217.143 2080.76 219.666 Q2083.26 222.166 2083.26 226.379 Q2083.26 231.402 2079.88 233.994 Q2076.53 236.587 2070.02 236.587 Q2067.57 236.587 2064.79 236.031 Q2062.04 235.476 2059.07 234.388 L2059.07 229.573 Q2061.92 231.17 2064.65 231.981 Q2067.38 232.791 2070.02 232.791 Q2074.03 232.791 2076.2 231.217 Q2078.38 229.643 2078.38 226.726 Q2078.38 224.18 2076.8 222.744 Q2075.25 221.309 2071.69 220.592 L2068.84 220.036 Q2063.61 218.995 2061.27 216.772 Q2058.93 214.55 2058.93 210.592 Q2058.93 206.008 2062.15 203.37 Q2065.39 200.731 2071.06 200.731 Q2073.49 200.731 2076.02 201.171 Q2078.54 201.61 2081.18 202.49 Z" fill="#000000" fill-rule="nonzero" fill-opacity="1"></path><path clip-path="url(#clip270)" d="M2095.23 205.198 L2095.23 232.073 L2100.88 232.073 Q2108.03 232.073 2111.34 228.832 Q2114.67 225.592 2114.67 218.601 Q2114.67 211.657 2111.34 208.439 Q2108.03 205.198 2100.88 205.198 L2095.23 205.198 M2090.55 201.356 L2100.16 201.356 Q2110.21 201.356 2114.91 205.546 Q2119.6 209.712 2119.6 218.601 Q2119.6 227.536 2114.88 231.726 Q2110.16 235.916 2100.16 235.916 L2090.55 235.916 L2090.55 201.356 Z" fill="#000000" fill-rule="nonzero" fill-opacity="1"></path><path clip-path="url(#clip270)" d="M2127.06 201.356 L2146.92 201.356 L2146.92 205.291 L2131.73 205.291 L2131.73 215.476 L2145.44 215.476 L2145.44 219.411 L2131.73 219.411 L2131.73 235.916 L2127.06 235.916 L2127.06 201.356 Z" fill="#000000" fill-rule="nonzero" fill-opacity="1"></path><path clip-path="url(#clip270)" d="M2151.99 221.032 L2164.47 221.032 L2164.47 224.828 L2151.99 224.828 L2151.99 221.032 Z" fill="#000000" fill-rule="nonzero" fill-opacity="1"></path><path clip-path="url(#clip270)" d="M2186.78 204.527 Q2181.69 204.527 2178.68 208.323 Q2175.69 212.12 2175.69 218.67 Q2175.69 225.198 2178.68 228.994 Q2181.69 232.791 2186.78 232.791 Q2191.87 232.791 2194.84 228.994 Q2197.82 225.198 2197.82 218.67 Q2197.82 212.12 2194.84 208.323 Q2191.87 204.527 2186.78 204.527 M2186.78 200.731 Q2194.05 200.731 2198.4 205.615 Q2202.75 210.476 2202.75 218.67 Q2202.75 226.842 2198.4 231.726 Q2194.05 236.587 2186.78 236.587 Q2179.49 236.587 2175.11 231.726 Q2170.76 226.865 2170.76 218.67 Q2170.76 210.476 2175.11 205.615 Q2179.49 200.731 2186.78 200.731 Z" fill="#000000" fill-rule="nonzero" fill-opacity="1"></path><path clip-path="url(#clip270)" d="M2210.07 201.356 L2214.74 201.356 L2214.74 231.981 L2231.57 231.981 L2231.57 235.916 L2210.07 235.916 L2210.07 201.356 Z" fill="#000000" fill-rule="nonzero" fill-opacity="1"></path><path clip-path="url(#clip270)" d="M2257.2 202.49 L2257.2 207.05 Q2254.53 205.777 2252.17 205.152 Q2249.81 204.527 2247.61 204.527 Q2243.79 204.527 2241.71 206.008 Q2239.65 207.49 2239.65 210.221 Q2239.65 212.513 2241.02 213.694 Q2242.4 214.851 2246.25 215.569 L2249.07 216.147 Q2254.3 217.143 2256.78 219.666 Q2259.28 222.166 2259.28 226.379 Q2259.28 231.402 2255.9 233.994 Q2252.54 236.587 2246.04 236.587 Q2243.59 236.587 2240.81 236.031 Q2238.05 235.476 2235.09 234.388 L2235.09 229.573 Q2237.94 231.17 2240.67 231.981 Q2243.4 232.791 2246.04 232.791 Q2250.04 232.791 2252.22 231.217 Q2254.4 229.643 2254.4 226.726 Q2254.4 224.18 2252.82 222.744 Q2251.27 221.309 2247.71 220.592 L2244.86 220.036 Q2239.63 218.995 2237.29 216.772 Q2234.95 214.55 2234.95 210.592 Q2234.95 206.008 2238.17 203.37 Q2241.41 200.731 2247.08 200.731 Q2249.51 200.731 2252.03 201.171 Q2254.56 201.61 2257.2 202.49 Z" fill="#000000" fill-rule="nonzero" fill-opacity="1"></path><polyline clip-path="url(#clip270)" style="stroke:#e26f46; stroke-linecap:round; stroke-linejoin:round; stroke-width:8; stroke-opacity:1; fill:none" points="1865.19,270.476 2005.4,270.476 "></polyline>
<path clip-path="url(#clip270)" d="M2054.33 282.825 L2054.33 273.543 L2046.69 273.543 L2046.69 269.7 L2058.96 269.7 L2058.96 284.538 Q2056.25 286.459 2052.98 287.455 Q2049.72 288.427 2046.02 288.427 Q2037.92 288.427 2033.33 283.705 Q2028.77 278.959 2028.77 270.51 Q2028.77 262.038 2033.33 257.316 Q2037.92 252.571 2046.02 252.571 Q2049.4 252.571 2052.43 253.404 Q2055.48 254.237 2058.05 255.858 L2058.05 260.835 Q2055.46 258.636 2052.54 257.524 Q2049.63 256.413 2046.41 256.413 Q2040.07 256.413 2036.87 259.955 Q2033.7 263.497 2033.7 270.51 Q2033.7 277.501 2036.87 281.043 Q2040.07 284.584 2046.41 284.584 Q2048.89 284.584 2050.83 284.168 Q2052.78 283.728 2054.33 282.825 Z" fill="#000000" fill-rule="nonzero" fill-opacity="1"></path><path clip-path="url(#clip270)" d="M2067.5 253.196 L2074.47 253.196 L2083.29 276.714 L2092.15 253.196 L2099.12 253.196 L2099.12 287.756 L2094.56 287.756 L2094.56 257.409 L2085.65 281.112 L2080.95 281.112 L2072.04 257.409 L2072.04 287.756 L2067.5 287.756 L2067.5 253.196 Z" fill="#000000" fill-rule="nonzero" fill-opacity="1"></path><path clip-path="url(#clip270)" d="M2108.4 253.196 L2115.37 253.196 L2124.19 276.714 L2133.05 253.196 L2140.02 253.196 L2140.02 287.756 L2135.46 287.756 L2135.46 257.409 L2126.55 281.112 L2121.85 281.112 L2112.94 257.409 L2112.94 287.756 L2108.4 287.756 L2108.4 253.196 Z" fill="#000000" fill-rule="nonzero" fill-opacity="1"></path><path clip-path="url(#clip270)" d="M2146.97 272.872 L2159.44 272.872 L2159.44 276.668 L2146.97 276.668 L2146.97 272.872 Z" fill="#000000" fill-rule="nonzero" fill-opacity="1"></path><path clip-path="url(#clip270)" d="M2181.76 256.367 Q2176.66 256.367 2173.66 260.163 Q2170.67 263.96 2170.67 270.51 Q2170.67 277.038 2173.66 280.834 Q2176.66 284.631 2181.76 284.631 Q2186.85 284.631 2189.81 280.834 Q2192.8 277.038 2192.8 270.51 Q2192.8 263.96 2189.81 260.163 Q2186.85 256.367 2181.76 256.367 M2181.76 252.571 Q2189.03 252.571 2193.38 257.455 Q2197.73 262.316 2197.73 270.51 Q2197.73 278.682 2193.38 283.566 Q2189.03 288.427 2181.76 288.427 Q2174.47 288.427 2170.09 283.566 Q2165.74 278.705 2165.74 270.51 Q2165.74 262.316 2170.09 257.455 Q2174.47 252.571 2181.76 252.571 Z" fill="#000000" fill-rule="nonzero" fill-opacity="1"></path><path clip-path="url(#clip270)" d="M2205.04 253.196 L2209.72 253.196 L2209.72 283.821 L2226.55 283.821 L2226.55 287.756 L2205.04 287.756 L2205.04 253.196 Z" fill="#000000" fill-rule="nonzero" fill-opacity="1"></path><path clip-path="url(#clip270)" d="M2252.17 254.33 L2252.17 258.89 Q2249.51 257.617 2247.15 256.992 Q2244.79 256.367 2242.59 256.367 Q2238.77 256.367 2236.69 257.848 Q2234.63 259.33 2234.63 262.061 Q2234.63 264.353 2235.99 265.534 Q2237.38 266.691 2241.22 267.409 L2244.05 267.987 Q2249.28 268.983 2251.76 271.506 Q2254.26 274.006 2254.26 278.219 Q2254.26 283.242 2250.88 285.834 Q2247.52 288.427 2241.02 288.427 Q2238.56 288.427 2235.78 287.871 Q2233.03 287.316 2230.07 286.228 L2230.07 281.413 Q2232.91 283.01 2235.65 283.821 Q2238.38 284.631 2241.02 284.631 Q2245.02 284.631 2247.2 283.057 Q2249.37 281.483 2249.37 278.566 Q2249.37 276.02 2247.8 274.584 Q2246.25 273.149 2242.68 272.432 L2239.84 271.876 Q2234.6 270.835 2232.27 268.612 Q2229.93 266.39 2229.93 262.432 Q2229.93 257.848 2233.15 255.21 Q2236.39 252.571 2242.06 252.571 Q2244.49 252.571 2247.01 253.011 Q2249.53 253.45 2252.17 254.33 Z" fill="#000000" fill-rule="nonzero" fill-opacity="1"></path></svg>