<svg xmlns="http://www.w3.org/2000/svg" xmlns:xlink="http://www.w3.org/1999/xlink" width="1200" height="400" viewBox="0 0 4800 1600">
<defs>
  <clipPath id="clip950">
    <rect x="0" y="0" width="4800" height="1600"></rect>
  </clipPath>
</defs>
<path clip-path="url(#clip950)" d="M0 1600 L4800 1600 L4800 0 L0 0  Z" fill="#ffffff" fill-rule="evenodd" fill-opacity="1"></path>
<defs>
  <clipPath id="clip951">
    <rect x="960" y="0" width="3361" height="1600"></rect>
  </clipPath>
</defs>
<path clip-path="url(#clip950)" d="M220.106 1401.23 L2352.76 1401.23 L2352.76 93.2321 L220.106 93.2321  Z" fill="#ffffff" fill-rule="evenodd" fill-opacity="1"></path>
<defs>
  <clipPath id="clip952">
    <rect x="220" y="93" width="2134" height="1309"></rect>
  </clipPath>
</defs>
<polyline clip-path="url(#clip952)" style="stroke:#000000; stroke-linecap:round; stroke-linejoin:round; stroke-width:2; stroke-opacity:0.1; fill:none" points="759.195,1401.23 759.195,93.2321 "></polyline>
<polyline clip-path="url(#clip952)" style="stroke:#000000; stroke-linecap:round; stroke-linejoin:round; stroke-width:2; stroke-opacity:0.1; fill:none" points="1813.67,1401.23 1813.67,93.2321 "></polyline>
<polyline clip-path="url(#clip952)" style="stroke:#000000; stroke-linecap:round; stroke-linejoin:round; stroke-width:2; stroke-opacity:0.1; fill:none" points="220.106,1401.23 2352.76,1401.23 "></polyline>
<polyline clip-path="url(#clip952)" style="stroke:#000000; stroke-linecap:round; stroke-linejoin:round; stroke-width:2; stroke-opacity:0.1; fill:none" points="220.106,1119.64 2352.76,1119.64 "></polyline>
<polyline clip-path="url(#clip952)" style="stroke:#000000; stroke-linecap:round; stroke-linejoin:round; stroke-width:2; stroke-opacity:0.1; fill:none" points="220.106,838.043 2352.76,838.043 "></polyline>
<polyline clip-path="url(#clip952)" style="stroke:#000000; stroke-linecap:round; stroke-linejoin:round; stroke-width:2; stroke-opacity:0.1; fill:none" points="220.106,556.451 2352.76,556.451 "></polyline>
<polyline clip-path="url(#clip952)" style="stroke:#000000; stroke-linecap:round; stroke-linejoin:round; stroke-width:2; stroke-opacity:0.1; fill:none" points="220.106,274.859 2352.76,274.859 "></polyline>
<polyline clip-path="url(#clip950)" style="stroke:#000000; stroke-linecap:round; stroke-linejoin:round; stroke-width:4; stroke-opacity:1; fill:none" points="220.106,1401.23 2352.76,1401.23 "></polyline>
<polyline clip-path="url(#clip950)" style="stroke:#000000; stroke-linecap:round; stroke-linejoin:round; stroke-width:4; stroke-opacity:1; fill:none" points="759.195,1401.23 759.195,1382.33 "></polyline>
<polyline clip-path="url(#clip950)" style="stroke:#000000; stroke-linecap:round; stroke-linejoin:round; stroke-width:4; stroke-opacity:1; fill:none" points="1813.67,1401.23 1813.67,1382.33 "></polyline>
<path clip-path="url(#clip950)" d="M707.019 1449.4 L707.019 1453.96 Q704.357 1452.69 701.996 1452.06 Q699.635 1451.44 697.436 1451.44 Q693.616 1451.44 691.533 1452.92 Q689.473 1454.4 689.473 1457.13 Q689.473 1459.43 690.839 1460.61 Q692.228 1461.76 696.07 1462.48 L698.894 1463.06 Q704.126 1464.05 706.603 1466.58 Q709.102 1469.08 709.102 1473.29 Q709.102 1478.31 705.723 1480.91 Q702.366 1483.5 695.862 1483.5 Q693.408 1483.5 690.63 1482.94 Q687.876 1482.39 684.913 1481.3 L684.913 1476.49 Q687.76 1478.08 690.491 1478.89 Q693.223 1479.7 695.862 1479.7 Q699.866 1479.7 702.042 1478.13 Q704.218 1476.55 704.218 1473.64 Q704.218 1471.09 702.644 1469.66 Q701.093 1468.22 697.528 1467.5 L694.681 1466.95 Q689.45 1465.91 687.112 1463.68 Q684.774 1461.46 684.774 1457.5 Q684.774 1452.92 687.991 1450.28 Q691.232 1447.64 696.903 1447.64 Q699.334 1447.64 701.857 1448.08 Q704.38 1448.52 707.019 1449.4 Z" fill="#000000" fill-rule="nonzero" fill-opacity="1"></path><path clip-path="url(#clip950)" d="M720.422 1449.54 L720.422 1456.9 L729.195 1456.9 L729.195 1460.21 L720.422 1460.21 L720.422 1474.29 Q720.422 1477.46 721.278 1478.36 Q722.158 1479.26 724.82 1479.26 L729.195 1479.26 L729.195 1482.83 L724.82 1482.83 Q719.889 1482.83 718.014 1481 Q716.139 1479.15 716.139 1474.29 L716.139 1460.21 L713.015 1460.21 L713.015 1456.9 L716.139 1456.9 L716.139 1449.54 L720.422 1449.54 Z" fill="#000000" fill-rule="nonzero" fill-opacity="1"></path><path clip-path="url(#clip950)" d="M749.82 1460.88 Q749.102 1460.47 748.246 1460.28 Q747.412 1460.07 746.394 1460.07 Q742.783 1460.07 740.838 1462.43 Q738.917 1464.77 738.917 1469.17 L738.917 1482.83 L734.635 1482.83 L734.635 1456.9 L738.917 1456.9 L738.917 1460.93 Q740.26 1458.57 742.412 1457.43 Q744.565 1456.28 747.644 1456.28 Q748.084 1456.28 748.616 1456.35 Q749.149 1456.39 749.797 1456.51 L749.82 1460.88 Z" fill="#000000" fill-rule="nonzero" fill-opacity="1"></path><path clip-path="url(#clip950)" d="M763.292 1459.89 Q759.866 1459.89 757.875 1462.57 Q755.885 1465.24 755.885 1469.89 Q755.885 1474.54 757.852 1477.23 Q759.843 1479.89 763.292 1479.89 Q766.695 1479.89 768.686 1477.2 Q770.676 1474.52 770.676 1469.89 Q770.676 1465.28 768.686 1462.6 Q766.695 1459.89 763.292 1459.89 M763.292 1456.28 Q768.848 1456.28 772.019 1459.89 Q775.19 1463.5 775.19 1469.89 Q775.19 1476.25 772.019 1479.89 Q768.848 1483.5 763.292 1483.5 Q757.713 1483.5 754.542 1479.89 Q751.394 1476.25 751.394 1469.89 Q751.394 1463.5 754.542 1459.89 Q757.713 1456.28 763.292 1456.28 Z" fill="#000000" fill-rule="nonzero" fill-opacity="1"></path><path clip-path="url(#clip950)" d="M803.801 1467.18 L803.801 1482.83 L799.542 1482.83 L799.542 1467.32 Q799.542 1463.64 798.107 1461.81 Q796.671 1459.98 793.801 1459.98 Q790.352 1459.98 788.361 1462.18 Q786.371 1464.38 786.371 1468.18 L786.371 1482.83 L782.088 1482.83 L782.088 1456.9 L786.371 1456.9 L786.371 1460.93 Q787.898 1458.59 789.959 1457.43 Q792.042 1456.28 794.75 1456.28 Q799.218 1456.28 801.509 1459.05 Q803.801 1461.81 803.801 1467.18 Z" fill="#000000" fill-rule="nonzero" fill-opacity="1"></path><path clip-path="url(#clip950)" d="M829.356 1469.56 Q829.356 1464.93 827.435 1462.39 Q825.537 1459.84 822.088 1459.84 Q818.662 1459.84 816.741 1462.39 Q814.843 1464.93 814.843 1469.56 Q814.843 1474.17 816.741 1476.72 Q818.662 1479.26 822.088 1479.26 Q825.537 1479.26 827.435 1476.72 Q829.356 1474.17 829.356 1469.56 M833.616 1479.61 Q833.616 1486.23 830.676 1489.45 Q827.736 1492.69 821.671 1492.69 Q819.426 1492.69 817.435 1492.34 Q815.445 1492.02 813.57 1491.32 L813.57 1487.18 Q815.445 1488.2 817.273 1488.68 Q819.102 1489.17 821 1489.17 Q825.19 1489.17 827.273 1486.97 Q829.356 1484.8 829.356 1480.37 L829.356 1478.27 Q828.037 1480.56 825.977 1481.69 Q823.917 1482.83 821.046 1482.83 Q816.278 1482.83 813.361 1479.19 Q810.445 1475.56 810.445 1469.56 Q810.445 1463.55 813.361 1459.91 Q816.278 1456.28 821.046 1456.28 Q823.917 1456.28 825.977 1457.41 Q828.037 1458.55 829.356 1460.84 L829.356 1456.9 L833.616 1456.9 L833.616 1479.61 Z" fill="#000000" fill-rule="nonzero" fill-opacity="1"></path><path clip-path="url(#clip950)" d="M1726.73 1448.27 L1731.43 1448.27 L1731.43 1469.26 Q1731.43 1474.82 1733.45 1477.27 Q1735.46 1479.7 1739.98 1479.7 Q1744.47 1479.7 1746.48 1477.27 Q1748.49 1474.82 1748.49 1469.26 L1748.49 1448.27 L1753.19 1448.27 L1753.19 1469.84 Q1753.19 1476.6 1749.84 1480.05 Q1746.5 1483.5 1739.98 1483.5 Q1733.42 1483.5 1730.07 1480.05 Q1726.73 1476.6 1726.73 1469.84 L1726.73 1448.27 Z" fill="#000000" fill-rule="nonzero" fill-opacity="1"></path><path clip-path="url(#clip950)" d="M1778.31 1457.67 L1778.31 1461.69 Q1776.5 1460.77 1774.56 1460.3 Q1772.61 1459.84 1770.53 1459.84 Q1767.36 1459.84 1765.76 1460.81 Q1764.19 1461.79 1764.19 1463.73 Q1764.19 1465.21 1765.32 1466.07 Q1766.46 1466.9 1769.88 1467.67 L1771.34 1467.99 Q1775.88 1468.96 1777.78 1470.74 Q1779.7 1472.5 1779.7 1475.67 Q1779.7 1479.29 1776.83 1481.39 Q1773.98 1483.5 1768.98 1483.5 Q1766.9 1483.5 1764.63 1483.08 Q1762.38 1482.69 1759.88 1481.88 L1759.88 1477.48 Q1762.24 1478.71 1764.54 1479.33 Q1766.83 1479.93 1769.07 1479.93 Q1772.08 1479.93 1773.7 1478.92 Q1775.32 1477.87 1775.32 1476 Q1775.32 1474.26 1774.14 1473.34 Q1772.98 1472.41 1769.03 1471.55 L1767.54 1471.21 Q1763.59 1470.37 1761.83 1468.66 Q1760.07 1466.93 1760.07 1463.92 Q1760.07 1460.26 1762.66 1458.27 Q1765.25 1456.28 1770.02 1456.28 Q1772.38 1456.28 1774.47 1456.62 Q1776.55 1456.97 1778.31 1457.67 Z" fill="#000000" fill-rule="nonzero" fill-opacity="1"></path><path clip-path="url(#clip950)" d="M1808.66 1468.8 L1808.66 1470.88 L1789.07 1470.88 Q1789.35 1475.28 1791.71 1477.6 Q1794.1 1479.89 1798.33 1479.89 Q1800.79 1479.89 1803.08 1479.29 Q1805.39 1478.68 1807.66 1477.48 L1807.66 1481.51 Q1805.37 1482.48 1802.96 1482.99 Q1800.55 1483.5 1798.08 1483.5 Q1791.87 1483.5 1788.24 1479.89 Q1784.63 1476.28 1784.63 1470.12 Q1784.63 1463.75 1788.05 1460.03 Q1791.5 1456.28 1797.34 1456.28 Q1802.57 1456.28 1805.6 1459.66 Q1808.66 1463.01 1808.66 1468.8 M1804.4 1467.55 Q1804.35 1464.05 1802.43 1461.97 Q1800.53 1459.89 1797.38 1459.89 Q1793.82 1459.89 1791.67 1461.9 Q1789.54 1463.92 1789.21 1467.57 L1804.4 1467.55 Z" fill="#000000" fill-rule="nonzero" fill-opacity="1"></path><path clip-path="url(#clip950)" d="M1815.65 1446.81 L1819.91 1446.81 L1819.91 1482.83 L1815.65 1482.83 L1815.65 1446.81 Z" fill="#000000" fill-rule="nonzero" fill-opacity="1"></path><path clip-path="url(#clip950)" d="M1850.99 1468.8 L1850.99 1470.88 L1831.41 1470.88 Q1831.69 1475.28 1834.05 1477.6 Q1836.43 1479.89 1840.67 1479.89 Q1843.12 1479.89 1845.41 1479.29 Q1847.73 1478.68 1850 1477.48 L1850 1481.51 Q1847.71 1482.48 1845.3 1482.99 Q1842.89 1483.5 1840.41 1483.5 Q1834.21 1483.5 1830.58 1479.89 Q1826.97 1476.28 1826.97 1470.12 Q1826.97 1463.75 1830.39 1460.03 Q1833.84 1456.28 1839.67 1456.28 Q1844.91 1456.28 1847.94 1459.66 Q1850.99 1463.01 1850.99 1468.8 M1846.73 1467.55 Q1846.69 1464.05 1844.77 1461.97 Q1842.87 1459.89 1839.72 1459.89 Q1836.16 1459.89 1834 1461.9 Q1831.87 1463.92 1831.55 1467.57 L1846.73 1467.55 Z" fill="#000000" fill-rule="nonzero" fill-opacity="1"></path><path clip-path="url(#clip950)" d="M1874.51 1457.67 L1874.51 1461.69 Q1872.71 1460.77 1870.76 1460.3 Q1868.82 1459.84 1866.73 1459.84 Q1863.56 1459.84 1861.97 1460.81 Q1860.39 1461.79 1860.39 1463.73 Q1860.39 1465.21 1861.53 1466.07 Q1862.66 1466.9 1866.09 1467.67 L1867.54 1467.99 Q1872.08 1468.96 1873.98 1470.74 Q1875.9 1472.5 1875.9 1475.67 Q1875.9 1479.29 1873.03 1481.39 Q1870.18 1483.5 1865.18 1483.5 Q1863.1 1483.5 1860.83 1483.08 Q1858.59 1482.69 1856.09 1481.88 L1856.09 1477.48 Q1858.45 1478.71 1860.74 1479.33 Q1863.03 1479.93 1865.28 1479.93 Q1868.29 1479.93 1869.91 1478.92 Q1871.53 1477.87 1871.53 1476 Q1871.53 1474.26 1870.35 1473.34 Q1869.19 1472.41 1865.23 1471.55 L1863.75 1471.21 Q1859.79 1470.37 1858.03 1468.66 Q1856.27 1466.93 1856.27 1463.92 Q1856.27 1460.26 1858.86 1458.27 Q1861.46 1456.28 1866.22 1456.28 Q1868.59 1456.28 1870.67 1456.62 Q1872.75 1456.97 1874.51 1457.67 Z" fill="#000000" fill-rule="nonzero" fill-opacity="1"></path><path clip-path="url(#clip950)" d="M1899.21 1457.67 L1899.21 1461.69 Q1897.41 1460.77 1895.46 1460.3 Q1893.52 1459.84 1891.43 1459.84 Q1888.26 1459.84 1886.66 1460.81 Q1885.09 1461.79 1885.09 1463.73 Q1885.09 1465.21 1886.22 1466.07 Q1887.36 1466.9 1890.79 1467.67 L1892.24 1467.99 Q1896.78 1468.96 1898.68 1470.74 Q1900.6 1472.5 1900.6 1475.67 Q1900.6 1479.29 1897.73 1481.39 Q1894.88 1483.5 1889.88 1483.5 Q1887.8 1483.5 1885.53 1483.08 Q1883.29 1482.69 1880.79 1481.88 L1880.79 1477.48 Q1883.15 1478.71 1885.44 1479.33 Q1887.73 1479.93 1889.97 1479.93 Q1892.98 1479.93 1894.6 1478.92 Q1896.22 1477.87 1896.22 1476 Q1896.22 1474.26 1895.04 1473.34 Q1893.89 1472.41 1889.93 1471.55 L1888.45 1471.21 Q1884.49 1470.37 1882.73 1468.66 Q1880.97 1466.93 1880.97 1463.92 Q1880.97 1460.26 1883.56 1458.27 Q1886.16 1456.28 1890.92 1456.28 Q1893.28 1456.28 1895.37 1456.62 Q1897.45 1456.97 1899.21 1457.67 Z" fill="#000000" fill-rule="nonzero" fill-opacity="1"></path><path clip-path="url(#clip950)" d="M1189.86 1534.57 L1217.17 1534.57 L1217.17 1539.98 L1196.29 1539.98 L1196.29 1553.99 L1215.14 1553.99 L1215.14 1559.4 L1196.29 1559.4 L1196.29 1582.09 L1189.86 1582.09 L1189.86 1534.57 Z" fill="#000000" fill-rule="nonzero" fill-opacity="1"></path><path clip-path="url(#clip950)" d="M1237.32 1564.17 Q1230.22 1564.17 1227.48 1565.8 Q1224.75 1567.42 1224.75 1571.33 Q1224.75 1574.45 1226.78 1576.3 Q1228.85 1578.11 1232.39 1578.11 Q1237.26 1578.11 1240.18 1574.68 Q1243.14 1571.21 1243.14 1565.48 L1243.14 1564.17 L1237.32 1564.17 M1249 1561.75 L1249 1582.09 L1243.14 1582.09 L1243.14 1576.68 Q1241.14 1579.93 1238.15 1581.49 Q1235.16 1583.01 1230.83 1583.01 Q1225.35 1583.01 1222.11 1579.96 Q1218.89 1576.87 1218.89 1571.72 Q1218.89 1565.7 1222.9 1562.64 Q1226.94 1559.59 1234.93 1559.59 L1243.14 1559.59 L1243.14 1559.02 Q1243.14 1554.97 1240.47 1552.78 Q1237.83 1550.55 1233.02 1550.55 Q1229.97 1550.55 1227.07 1551.28 Q1224.17 1552.01 1221.5 1553.48 L1221.5 1548.07 Q1224.72 1546.83 1227.74 1546.22 Q1230.76 1545.58 1233.63 1545.58 Q1241.36 1545.58 1245.18 1549.59 Q1249 1553.61 1249 1561.75 Z" fill="#000000" fill-rule="nonzero" fill-opacity="1"></path><path clip-path="url(#clip950)" d="M1286.72 1547.81 L1286.72 1553.29 Q1284.23 1551.92 1281.72 1551.25 Q1279.24 1550.55 1276.69 1550.55 Q1270.99 1550.55 1267.84 1554.18 Q1264.69 1557.77 1264.69 1564.3 Q1264.69 1570.82 1267.84 1574.45 Q1270.99 1578.05 1276.69 1578.05 Q1279.24 1578.05 1281.72 1577.38 Q1284.23 1576.68 1286.72 1575.31 L1286.72 1580.72 Q1284.27 1581.87 1281.62 1582.44 Q1279.02 1583.01 1276.05 1583.01 Q1268 1583.01 1263.26 1577.95 Q1258.52 1572.89 1258.52 1564.3 Q1258.52 1555.58 1263.29 1550.58 Q1268.1 1545.58 1276.44 1545.58 Q1279.14 1545.58 1281.72 1546.16 Q1284.3 1546.7 1286.72 1547.81 Z" fill="#000000" fill-rule="nonzero" fill-opacity="1"></path><path clip-path="url(#clip950)" d="M1302.7 1536.32 L1302.7 1546.44 L1314.76 1546.44 L1314.76 1551 L1302.7 1551 L1302.7 1570.35 Q1302.7 1574.71 1303.87 1575.95 Q1305.08 1577.19 1308.74 1577.19 L1314.76 1577.19 L1314.76 1582.09 L1308.74 1582.09 Q1301.96 1582.09 1299.39 1579.58 Q1296.81 1577.03 1296.81 1570.35 L1296.81 1551 L1292.51 1551 L1292.51 1546.44 L1296.81 1546.44 L1296.81 1536.32 L1302.7 1536.32 Z" fill="#000000" fill-rule="nonzero" fill-opacity="1"></path><path clip-path="url(#clip950)" d="M1336.27 1550.55 Q1331.56 1550.55 1328.83 1554.24 Q1326.09 1557.9 1326.09 1564.3 Q1326.09 1570.7 1328.79 1574.39 Q1331.53 1578.05 1336.27 1578.05 Q1340.95 1578.05 1343.69 1574.36 Q1346.43 1570.67 1346.43 1564.3 Q1346.43 1557.97 1343.69 1554.27 Q1340.95 1550.55 1336.27 1550.55 M1336.27 1545.58 Q1343.91 1545.58 1348.27 1550.55 Q1352.63 1555.51 1352.63 1564.3 Q1352.63 1573.05 1348.27 1578.05 Q1343.91 1583.01 1336.27 1583.01 Q1328.6 1583.01 1324.24 1578.05 Q1319.91 1573.05 1319.91 1564.3 Q1319.91 1555.51 1324.24 1550.55 Q1328.6 1545.58 1336.27 1545.58 Z" fill="#000000" fill-rule="nonzero" fill-opacity="1"></path><path clip-path="url(#clip950)" d="M1383 1551.92 Q1382.01 1551.35 1380.83 1551.09 Q1379.69 1550.8 1378.29 1550.8 Q1373.32 1550.8 1370.65 1554.05 Q1368.01 1557.27 1368.01 1563.31 L1368.01 1582.09 L1362.12 1582.09 L1362.12 1546.44 L1368.01 1546.44 L1368.01 1551.98 Q1369.85 1548.74 1372.81 1547.18 Q1375.77 1545.58 1380.01 1545.58 Q1380.61 1545.58 1381.34 1545.68 Q1382.08 1545.74 1382.97 1545.9 L1383 1551.92 Z" fill="#000000" fill-rule="nonzero" fill-opacity="1"></path><polyline clip-path="url(#clip950)" style="stroke:#000000; stroke-linecap:round; stroke-linejoin:round; stroke-width:4; stroke-opacity:1; fill:none" points="220.106,1401.23 220.106,93.2321 "></polyline>
<polyline clip-path="url(#clip950)" style="stroke:#000000; stroke-linecap:round; stroke-linejoin:round; stroke-width:4; stroke-opacity:1; fill:none" points="220.106,1401.23 239.004,1401.23 "></polyline>
<polyline clip-path="url(#clip950)" style="stroke:#000000; stroke-linecap:round; stroke-linejoin:round; stroke-width:4; stroke-opacity:1; fill:none" points="220.106,1119.64 239.004,1119.64 "></polyline>
<polyline clip-path="url(#clip950)" style="stroke:#000000; stroke-linecap:round; stroke-linejoin:round; stroke-width:4; stroke-opacity:1; fill:none" points="220.106,838.043 239.004,838.043 "></polyline>
<polyline clip-path="url(#clip950)" style="stroke:#000000; stroke-linecap:round; stroke-linejoin:round; stroke-width:4; stroke-opacity:1; fill:none" points="220.106,556.451 239.004,556.451 "></polyline>
<polyline clip-path="url(#clip950)" style="stroke:#000000; stroke-linecap:round; stroke-linejoin:round; stroke-width:4; stroke-opacity:1; fill:none" points="220.106,274.859 239.004,274.859 "></polyline>
<path clip-path="url(#clip950)" d="M90.9306 1387.03 Q87.3196 1387.03 85.4909 1390.59 Q83.6853 1394.13 83.6853 1401.26 Q83.6853 1408.37 85.4909 1411.93 Q87.3196 1415.48 90.9306 1415.48 Q94.5649 1415.48 96.3704 1411.93 Q98.1991 1408.37 98.1991 1401.26 Q98.1991 1394.13 96.3704 1390.59 Q94.5649 1387.03 90.9306 1387.03 M90.9306 1383.32 Q96.7408 1383.32 99.7963 1387.93 Q102.875 1392.51 102.875 1401.26 Q102.875 1409.99 99.7963 1414.6 Q96.7408 1419.18 90.9306 1419.18 Q85.1205 1419.18 82.0418 1414.6 Q78.9863 1409.99 78.9863 1401.26 Q78.9863 1392.51 82.0418 1387.93 Q85.1205 1383.32 90.9306 1383.32 Z" fill="#000000" fill-rule="nonzero" fill-opacity="1"></path><path clip-path="url(#clip950)" d="M111.093 1412.63 L115.977 1412.63 L115.977 1418.51 L111.093 1418.51 L111.093 1412.63 Z" fill="#000000" fill-rule="nonzero" fill-opacity="1"></path><path clip-path="url(#clip950)" d="M136.162 1387.03 Q132.551 1387.03 130.722 1390.59 Q128.917 1394.13 128.917 1401.26 Q128.917 1408.37 130.722 1411.93 Q132.551 1415.48 136.162 1415.48 Q139.796 1415.48 141.602 1411.93 Q143.43 1408.37 143.43 1401.26 Q143.43 1394.13 141.602 1390.59 Q139.796 1387.03 136.162 1387.03 M136.162 1383.32 Q141.972 1383.32 145.028 1387.93 Q148.106 1392.51 148.106 1401.26 Q148.106 1409.99 145.028 1414.6 Q141.972 1419.18 136.162 1419.18 Q130.352 1419.18 127.273 1414.6 Q124.218 1409.99 124.218 1401.26 Q124.218 1392.51 127.273 1387.93 Q130.352 1383.32 136.162 1383.32 Z" fill="#000000" fill-rule="nonzero" fill-opacity="1"></path><path clip-path="url(#clip950)" d="M92.5279 1105.43 Q88.9168 1105.43 87.0881 1109 Q85.2825 1112.54 85.2825 1119.67 Q85.2825 1126.78 87.0881 1130.34 Q88.9168 1133.88 92.5279 1133.88 Q96.1621 1133.88 97.9676 1130.34 Q99.7963 1126.78 99.7963 1119.67 Q99.7963 1112.54 97.9676 1109 Q96.1621 1105.43 92.5279 1105.43 M92.5279 1101.73 Q98.338 1101.73 101.394 1106.34 Q104.472 1110.92 104.472 1119.67 Q104.472 1128.4 101.394 1133 Q98.338 1137.59 92.5279 1137.59 Q86.7177 1137.59 83.639 1133 Q80.5835 1128.4 80.5835 1119.67 Q80.5835 1110.92 83.639 1106.34 Q86.7177 1101.73 92.5279 1101.73 Z" fill="#000000" fill-rule="nonzero" fill-opacity="1"></path><path clip-path="url(#clip950)" d="M112.69 1131.04 L117.574 1131.04 L117.574 1136.92 L112.69 1136.92 L112.69 1131.04 Z" fill="#000000" fill-rule="nonzero" fill-opacity="1"></path><path clip-path="url(#clip950)" d="M131.787 1132.98 L148.106 1132.98 L148.106 1136.92 L126.162 1136.92 L126.162 1132.98 Q128.824 1130.23 133.407 1125.6 Q138.014 1120.94 139.194 1119.6 Q141.44 1117.08 142.319 1115.34 Q143.222 1113.58 143.222 1111.89 Q143.222 1109.14 141.278 1107.4 Q139.356 1105.67 136.254 1105.67 Q134.055 1105.67 131.602 1106.43 Q129.171 1107.19 126.393 1108.74 L126.393 1104.02 Q129.217 1102.89 131.671 1102.31 Q134.125 1101.73 136.162 1101.73 Q141.532 1101.73 144.727 1104.42 Q147.921 1107.1 147.921 1111.59 Q147.921 1113.72 147.111 1115.64 Q146.324 1117.54 144.217 1120.13 Q143.639 1120.8 140.537 1124.02 Q137.435 1127.22 131.787 1132.98 Z" fill="#000000" fill-rule="nonzero" fill-opacity="1"></path><path clip-path="url(#clip950)" d="M90.4445 823.842 Q86.8334 823.842 85.0048 827.407 Q83.1992 830.949 83.1992 838.078 Q83.1992 845.185 85.0048 848.749 Q86.8334 852.291 90.4445 852.291 Q94.0788 852.291 95.8843 848.749 Q97.713 845.185 97.713 838.078 Q97.713 830.949 95.8843 827.407 Q94.0788 823.842 90.4445 823.842 M90.4445 820.138 Q96.2547 820.138 99.3102 824.745 Q102.389 829.328 102.389 838.078 Q102.389 846.805 99.3102 851.411 Q96.2547 855.995 90.4445 855.995 Q84.6344 855.995 81.5557 851.411 Q78.5002 846.805 78.5002 838.078 Q78.5002 829.328 81.5557 824.745 Q84.6344 820.138 90.4445 820.138 Z" fill="#000000" fill-rule="nonzero" fill-opacity="1"></path><path clip-path="url(#clip950)" d="M110.606 849.444 L115.491 849.444 L115.491 855.323 L110.606 855.323 L110.606 849.444 Z" fill="#000000" fill-rule="nonzero" fill-opacity="1"></path><path clip-path="url(#clip950)" d="M138.523 824.837 L126.717 843.286 L138.523 843.286 L138.523 824.837 M137.296 820.763 L143.176 820.763 L143.176 843.286 L148.106 843.286 L148.106 847.175 L143.176 847.175 L143.176 855.323 L138.523 855.323 L138.523 847.175 L122.921 847.175 L122.921 842.661 L137.296 820.763 Z" fill="#000000" fill-rule="nonzero" fill-opacity="1"></path><path clip-path="url(#clip950)" d="M90.7686 542.25 Q87.1575 542.25 85.3288 545.815 Q83.5233 549.356 83.5233 556.486 Q83.5233 563.592 85.3288 567.157 Q87.1575 570.699 90.7686 570.699 Q94.4029 570.699 96.2084 567.157 Q98.0371 563.592 98.0371 556.486 Q98.0371 549.356 96.2084 545.815 Q94.4029 542.25 90.7686 542.25 M90.7686 538.546 Q96.5788 538.546 99.6343 543.153 Q102.713 547.736 102.713 556.486 Q102.713 565.213 99.6343 569.819 Q96.5788 574.403 90.7686 574.403 Q84.9585 574.403 81.8798 569.819 Q78.8242 565.213 78.8242 556.486 Q78.8242 547.736 81.8798 543.153 Q84.9585 538.546 90.7686 538.546 Z" fill="#000000" fill-rule="nonzero" fill-opacity="1"></path><path clip-path="url(#clip950)" d="M110.931 567.852 L115.815 567.852 L115.815 573.731 L110.931 573.731 L110.931 567.852 Z" fill="#000000" fill-rule="nonzero" fill-opacity="1"></path><path clip-path="url(#clip950)" d="M136.579 554.588 Q133.43 554.588 131.579 556.741 Q129.75 558.893 129.75 562.643 Q129.75 566.37 131.579 568.546 Q133.43 570.699 136.579 570.699 Q139.727 570.699 141.555 568.546 Q143.407 566.37 143.407 562.643 Q143.407 558.893 141.555 556.741 Q139.727 554.588 136.579 554.588 M145.861 539.935 L145.861 544.194 Q144.102 543.361 142.296 542.921 Q140.514 542.481 138.754 542.481 Q134.125 542.481 131.671 545.606 Q129.241 548.731 128.893 555.051 Q130.259 553.037 132.319 551.972 Q134.379 550.884 136.856 550.884 Q142.065 550.884 145.074 554.055 Q148.106 557.204 148.106 562.643 Q148.106 567.967 144.958 571.185 Q141.81 574.403 136.579 574.403 Q130.583 574.403 127.412 569.819 Q124.241 565.213 124.241 556.486 Q124.241 548.292 128.13 543.43 Q132.018 538.546 138.569 538.546 Q140.329 538.546 142.111 538.893 Q143.916 539.241 145.861 539.935 Z" fill="#000000" fill-rule="nonzero" fill-opacity="1"></path><path clip-path="url(#clip950)" d="M91.0232 260.658 Q87.4121 260.658 85.5835 264.223 Q83.7779 267.764 83.7779 274.894 Q83.7779 282 85.5835 285.565 Q87.4121 289.107 91.0232 289.107 Q94.6575 289.107 96.463 285.565 Q98.2917 282 98.2917 274.894 Q98.2917 267.764 96.463 264.223 Q94.6575 260.658 91.0232 260.658 M91.0232 256.954 Q96.8334 256.954 99.8889 261.561 Q102.968 266.144 102.968 274.894 Q102.968 283.621 99.8889 288.227 Q96.8334 292.81 91.0232 292.81 Q85.2131 292.81 82.1344 288.227 Q79.0789 283.621 79.0789 274.894 Q79.0789 266.144 82.1344 261.561 Q85.2131 256.954 91.0232 256.954 Z" fill="#000000" fill-rule="nonzero" fill-opacity="1"></path><path clip-path="url(#clip950)" d="M111.185 286.259 L116.069 286.259 L116.069 292.139 L111.185 292.139 L111.185 286.259 Z" fill="#000000" fill-rule="nonzero" fill-opacity="1"></path><path clip-path="url(#clip950)" d="M136.254 275.727 Q132.921 275.727 131 277.51 Q129.102 279.292 129.102 282.417 Q129.102 285.542 131 287.324 Q132.921 289.107 136.254 289.107 Q139.588 289.107 141.509 287.324 Q143.43 285.519 143.43 282.417 Q143.43 279.292 141.509 277.51 Q139.611 275.727 136.254 275.727 M131.579 273.736 Q128.569 272.996 126.88 270.935 Q125.213 268.875 125.213 265.912 Q125.213 261.769 128.153 259.361 Q131.116 256.954 136.254 256.954 Q141.416 256.954 144.356 259.361 Q147.296 261.769 147.296 265.912 Q147.296 268.875 145.606 270.935 Q143.94 272.996 140.954 273.736 Q144.333 274.523 146.208 276.815 Q148.106 279.107 148.106 282.417 Q148.106 287.44 145.028 290.125 Q141.972 292.81 136.254 292.81 Q130.537 292.81 127.458 290.125 Q124.403 287.44 124.403 282.417 Q124.403 279.107 126.301 276.815 Q128.199 274.523 131.579 273.736 M129.866 266.352 Q129.866 269.037 131.532 270.542 Q133.222 272.047 136.254 272.047 Q139.264 272.047 140.954 270.542 Q142.666 269.037 142.666 266.352 Q142.666 263.667 140.954 262.162 Q139.264 260.658 136.254 260.658 Q133.222 260.658 131.532 262.162 Q129.866 263.667 129.866 266.352 Z" fill="#000000" fill-rule="nonzero" fill-opacity="1"></path><path clip-path="url(#clip950)" d="M-49.9923 908.919 L-32.1365 908.919 L-32.1365 900.834 Q-32.1365 896.347 -34.46 893.896 Q-36.7835 891.445 -41.0803 891.445 Q-45.3453 891.445 -47.6688 893.896 Q-49.9923 896.347 -49.9923 900.834 L-49.9923 908.919 M-55.2758 915.348 L-55.2758 900.834 Q-55.2758 892.845 -51.6474 888.771 Q-48.0508 884.666 -41.0803 884.666 Q-34.0462 884.666 -30.4496 888.771 Q-26.853 892.845 -26.853 900.834 L-26.853 908.919 L-7.75584 908.919 L-7.75584 915.348 L-55.2758 915.348 Z" fill="#000000" fill-rule="nonzero" fill-opacity="1"></path><path clip-path="url(#clip950)" d="M-37.9293 856.784 Q-38.5022 857.77 -38.7568 858.948 Q-39.0433 860.094 -39.0433 861.494 Q-39.0433 866.46 -35.7968 869.133 Q-32.5821 871.775 -26.5347 871.775 L-7.75584 871.775 L-7.75584 877.663 L-43.4038 877.663 L-43.4038 871.775 L-37.8656 871.775 Q-41.1121 869.929 -42.6717 866.969 Q-44.2632 864.009 -44.2632 859.776 Q-44.2632 859.171 -44.1677 858.439 Q-44.104 857.707 -43.9449 856.816 L-37.9293 856.784 Z" fill="#000000" fill-rule="nonzero" fill-opacity="1"></path><path clip-path="url(#clip950)" d="M-39.2979 838.26 Q-39.2979 842.97 -35.6058 845.707 Q-31.9455 848.445 -25.548 848.445 Q-19.1505 848.445 -15.4583 845.739 Q-11.7981 843.002 -11.7981 838.26 Q-11.7981 833.581 -15.4902 830.843 Q-19.1823 828.106 -25.548 828.106 Q-31.8819 828.106 -35.574 830.843 Q-39.2979 833.581 -39.2979 838.26 M-44.2632 838.26 Q-44.2632 830.621 -39.2979 826.26 Q-34.3327 821.9 -25.548 821.9 Q-16.7951 821.9 -11.7981 826.26 Q-6.83282 830.621 -6.83282 838.26 Q-6.83282 845.93 -11.7981 850.291 Q-16.7951 854.619 -25.548 854.619 Q-34.3327 854.619 -39.2979 850.291 Q-44.2632 845.93 -44.2632 838.26 Z" fill="#000000" fill-rule="nonzero" fill-opacity="1"></path><path clip-path="url(#clip950)" d="M-25.548 786.602 Q-32.0092 786.602 -35.6695 789.275 Q-39.3616 791.917 -39.3616 796.564 Q-39.3616 801.211 -35.6695 803.885 Q-32.0092 806.526 -25.548 806.526 Q-19.0868 806.526 -15.3947 803.885 Q-11.7344 801.211 -11.7344 796.564 Q-11.7344 791.917 -15.3947 789.275 Q-19.0868 786.602 -25.548 786.602 M-37.9929 806.526 Q-41.1758 804.68 -42.7036 801.88 Q-44.2632 799.047 -44.2632 795.132 Q-44.2632 788.639 -39.1069 784.597 Q-33.9507 780.523 -25.548 780.523 Q-17.1453 780.523 -11.989 784.597 Q-6.83282 788.639 -6.83282 795.132 Q-6.83282 799.047 -8.36058 801.88 Q-9.92018 804.68 -13.103 806.526 L-7.75584 806.526 L-7.75584 812.415 L-57.281 812.415 L-57.281 806.526 L-37.9929 806.526 Z" fill="#000000" fill-rule="nonzero" fill-opacity="1"></path><path clip-path="url(#clip950)" d="M-25.6753 754.614 Q-25.6753 761.712 -24.0521 764.449 Q-22.4288 767.186 -18.5139 767.186 Q-15.3947 767.186 -13.5486 765.149 Q-11.7344 763.081 -11.7344 759.548 Q-11.7344 754.678 -15.1719 751.75 Q-18.6412 748.79 -24.3703 748.79 L-25.6753 748.79 L-25.6753 754.614 M-28.0943 742.933 L-7.75584 742.933 L-7.75584 748.79 L-13.1667 748.79 Q-9.92018 750.795 -8.36058 753.787 Q-6.83282 756.778 -6.83282 761.107 Q-6.83282 766.582 -9.88835 769.828 Q-12.9757 773.043 -18.1319 773.043 Q-24.1475 773.043 -27.2031 769.032 Q-30.2586 764.99 -30.2586 757.001 L-30.2586 748.79 L-30.8315 748.79 Q-34.8738 748.79 -37.0699 751.463 Q-39.2979 754.105 -39.2979 758.911 Q-39.2979 761.967 -38.5659 764.863 Q-37.8338 767.759 -36.3697 770.433 L-41.7805 770.433 Q-43.0219 767.218 -43.6266 764.195 Q-44.2632 761.171 -44.2632 758.306 Q-44.2632 750.572 -40.2528 746.752 Q-36.2424 742.933 -28.0943 742.933 Z" fill="#000000" fill-rule="nonzero" fill-opacity="1"></path><path clip-path="url(#clip950)" d="M-25.548 705.28 Q-32.0092 705.28 -35.6695 707.954 Q-39.3616 710.595 -39.3616 715.242 Q-39.3616 719.889 -35.6695 722.563 Q-32.0092 725.205 -25.548 725.205 Q-19.0868 725.205 -15.3947 722.563 Q-11.7344 719.889 -11.7344 715.242 Q-11.7344 710.595 -15.3947 707.954 Q-19.0868 705.28 -25.548 705.28 M-37.9929 725.205 Q-41.1758 723.359 -42.7036 720.558 Q-44.2632 717.725 -44.2632 713.81 Q-44.2632 707.317 -39.1069 703.275 Q-33.9507 699.201 -25.548 699.201 Q-17.1453 699.201 -11.989 703.275 Q-6.83282 707.317 -6.83282 713.81 Q-6.83282 717.725 -8.36058 720.558 Q-9.92018 723.359 -13.103 725.205 L-7.75584 725.205 L-7.75584 731.093 L-57.281 731.093 L-57.281 725.205 L-37.9929 725.205 Z" fill="#000000" fill-rule="nonzero" fill-opacity="1"></path><path clip-path="url(#clip950)" d="M-43.4038 689.493 L-43.4038 683.637 L-7.75584 683.637 L-7.75584 689.493 L-43.4038 689.493 M-57.281 689.493 L-57.281 683.637 L-49.865 683.637 L-49.865 689.493 L-57.281 689.493 Z" fill="#000000" fill-rule="nonzero" fill-opacity="1"></path><path clip-path="url(#clip950)" d="M-57.281 671.383 L-57.281 665.526 L-7.75584 665.526 L-7.75584 671.383 L-57.281 671.383 Z" fill="#000000" fill-rule="nonzero" fill-opacity="1"></path><path clip-path="url(#clip950)" d="M-43.4038 653.272 L-43.4038 647.416 L-7.75584 647.416 L-7.75584 653.272 L-43.4038 653.272 M-57.281 653.272 L-57.281 647.416 L-49.865 647.416 L-49.865 653.272 L-57.281 653.272 Z" fill="#000000" fill-rule="nonzero" fill-opacity="1"></path><path clip-path="url(#clip950)" d="M-53.5253 629.369 L-43.4038 629.369 L-43.4038 617.306 L-38.8523 617.306 L-38.8523 629.369 L-19.5006 629.369 Q-15.1401 629.369 -13.8987 628.191 Q-12.6574 626.982 -12.6574 623.321 L-12.6574 617.306 L-7.75584 617.306 L-7.75584 623.321 Q-7.75584 630.101 -10.2703 632.679 Q-12.8166 635.257 -19.5006 635.257 L-38.8523 635.257 L-38.8523 639.554 L-43.4038 639.554 L-43.4038 635.257 L-53.5253 635.257 L-53.5253 629.369 Z" fill="#000000" fill-rule="nonzero" fill-opacity="1"></path><path clip-path="url(#clip950)" d="M-4.44568 594.771 Q1.92003 597.254 3.86157 599.609 Q5.80311 601.964 5.80311 605.911 L5.80311 610.59 L0.901518 610.59 L0.901518 607.153 Q0.901518 604.734 -0.244309 603.397 Q-1.39014 602.06 -5.65516 600.437 L-8.32876 599.386 L-43.4038 613.805 L-43.4038 607.598 L-15.522 596.458 L-43.4038 585.318 L-43.4038 579.112 L-4.44568 594.771 Z" fill="#000000" fill-rule="nonzero" fill-opacity="1"></path><path clip-path="url(#clip950)" d="M701.845 12.096 L736.602 12.096 L736.602 18.9825 L710.028 18.9825 L710.028 36.8065 L734.009 36.8065 L734.009 43.6931 L710.028 43.6931 L710.028 72.576 L701.845 72.576 L701.845 12.096 Z" fill="#000000" fill-rule="nonzero" fill-opacity="1"></path><path clip-path="url(#clip950)" d="M762.244 49.7694 Q753.211 49.7694 749.727 51.8354 Q746.243 53.9013 746.243 58.8839 Q746.243 62.8538 748.836 65.2034 Q751.469 67.5124 755.965 67.5124 Q762.163 67.5124 765.89 63.1374 Q769.657 58.7219 769.657 51.4303 L769.657 49.7694 L762.244 49.7694 M777.111 46.6907 L777.111 72.576 L769.657 72.576 L769.657 65.6895 Q767.105 69.8214 763.297 71.8063 Q759.489 73.7508 753.98 73.7508 Q747.013 73.7508 742.881 69.8619 Q738.789 65.9325 738.789 59.3701 Q738.789 51.7138 743.893 47.825 Q749.038 43.9361 759.206 43.9361 L769.657 43.9361 L769.657 43.2069 Q769.657 38.0623 766.254 35.2672 Q762.892 32.4315 756.775 32.4315 Q752.886 32.4315 749.2 33.3632 Q745.514 34.295 742.111 36.1584 L742.111 29.2718 Q746.202 27.692 750.051 26.9223 Q753.899 26.1121 757.545 26.1121 Q767.389 26.1121 772.25 31.2163 Q777.111 36.3204 777.111 46.6907 Z" fill="#000000" fill-rule="nonzero" fill-opacity="1"></path><path clip-path="url(#clip950)" d="M825.114 28.9478 L825.114 35.9153 Q821.954 34.1734 818.754 33.3227 Q815.594 32.4315 812.354 32.4315 Q805.103 32.4315 801.092 37.0496 Q797.082 41.6271 797.082 49.9314 Q797.082 58.2358 801.092 62.8538 Q805.103 67.4314 812.354 67.4314 Q815.594 67.4314 818.754 66.5807 Q821.954 65.6895 825.114 63.9476 L825.114 70.8341 Q821.995 72.2924 818.633 73.0216 Q815.311 73.7508 811.544 73.7508 Q801.295 73.7508 795.259 67.3098 Q789.223 60.8689 789.223 49.9314 Q789.223 38.832 795.299 32.472 Q801.416 26.1121 812.03 26.1121 Q815.473 26.1121 818.754 26.8413 Q822.035 27.5299 825.114 28.9478 Z" fill="#000000" fill-rule="nonzero" fill-opacity="1"></path><path clip-path="url(#clip950)" d="M845.45 14.324 L845.45 27.2059 L860.803 27.2059 L860.803 32.9987 L845.45 32.9987 L845.45 57.6282 Q845.45 63.1779 846.948 64.7578 Q848.488 66.3376 853.146 66.3376 L860.803 66.3376 L860.803 72.576 L853.146 72.576 Q844.518 72.576 841.237 69.3758 Q837.955 66.1351 837.955 57.6282 L837.955 32.9987 L832.487 32.9987 L832.487 27.2059 L837.955 27.2059 L837.955 14.324 L845.45 14.324 Z" fill="#000000" fill-rule="nonzero" fill-opacity="1"></path><path clip-path="url(#clip950)" d="M888.187 32.4315 Q882.191 32.4315 878.708 37.1306 Q875.224 41.7891 875.224 49.9314 Q875.224 58.0738 878.667 62.7728 Q882.151 67.4314 888.187 67.4314 Q894.142 67.4314 897.625 62.7323 Q901.109 58.0333 901.109 49.9314 Q901.109 41.8701 897.625 37.1711 Q894.142 32.4315 888.187 32.4315 M888.187 26.1121 Q897.909 26.1121 903.459 32.4315 Q909.008 38.7509 909.008 49.9314 Q909.008 61.0714 903.459 67.4314 Q897.909 73.7508 888.187 73.7508 Q878.424 73.7508 872.874 67.4314 Q867.365 61.0714 867.365 49.9314 Q867.365 38.7509 872.874 32.4315 Q878.424 26.1121 888.187 26.1121 Z" fill="#000000" fill-rule="nonzero" fill-opacity="1"></path><path clip-path="url(#clip950)" d="M947.654 34.1734 Q946.398 33.4443 944.899 33.1202 Q943.441 32.7556 941.659 32.7556 Q935.339 32.7556 931.936 36.8875 Q928.574 40.9789 928.574 48.6757 L928.574 72.576 L921.08 72.576 L921.08 27.2059 L928.574 27.2059 L928.574 34.2544 Q930.924 30.1225 934.691 28.1376 Q938.458 26.1121 943.846 26.1121 Q944.616 26.1121 945.547 26.2337 Q946.479 26.3147 947.613 26.5172 L947.654 34.1734 Z" fill="#000000" fill-rule="nonzero" fill-opacity="1"></path><path clip-path="url(#clip950)" d="M982.168 12.096 L990.35 12.096 L990.35 72.576 L982.168 72.576 L982.168 12.096 Z" fill="#000000" fill-rule="nonzero" fill-opacity="1"></path><path clip-path="url(#clip950)" d="M1044.02 45.1919 L1044.02 72.576 L1036.57 72.576 L1036.57 45.4349 Q1036.57 38.994 1034.06 35.7938 Q1031.55 32.5936 1026.53 32.5936 Q1020.49 32.5936 1017.01 36.4419 Q1013.52 40.2903 1013.52 46.9338 L1013.52 72.576 L1006.03 72.576 L1006.03 27.2059 L1013.52 27.2059 L1013.52 34.2544 Q1016.2 30.163 1019.8 28.1376 Q1023.45 26.1121 1028.19 26.1121 Q1036 26.1121 1040.01 30.9732 Q1044.02 35.7938 1044.02 45.1919 Z" fill="#000000" fill-rule="nonzero" fill-opacity="1"></path><path clip-path="url(#clip950)" d="M1091.54 28.9478 L1091.54 35.9153 Q1088.38 34.1734 1085.18 33.3227 Q1082.02 32.4315 1078.78 32.4315 Q1071.53 32.4315 1067.52 37.0496 Q1063.51 41.6271 1063.51 49.9314 Q1063.51 58.2358 1067.52 62.8538 Q1071.53 67.4314 1078.78 67.4314 Q1082.02 67.4314 1085.18 66.5807 Q1088.38 65.6895 1091.54 63.9476 L1091.54 70.8341 Q1088.42 72.2924 1085.06 73.0216 Q1081.74 73.7508 1077.97 73.7508 Q1067.72 73.7508 1061.69 67.3098 Q1055.65 60.8689 1055.65 49.9314 Q1055.65 38.832 1061.73 32.472 Q1067.84 26.1121 1078.46 26.1121 Q1081.9 26.1121 1085.18 26.8413 Q1088.46 27.5299 1091.54 28.9478 Z" fill="#000000" fill-rule="nonzero" fill-opacity="1"></path><path clip-path="url(#clip950)" d="M1104.5 9.54393 L1111.96 9.54393 L1111.96 72.576 L1104.5 72.576 L1104.5 9.54393 Z" fill="#000000" fill-rule="nonzero" fill-opacity="1"></path><path clip-path="url(#clip950)" d="M1126.78 54.671 L1126.78 27.2059 L1134.24 27.2059 L1134.24 54.3874 Q1134.24 60.8284 1136.75 64.0691 Q1139.26 67.2693 1144.28 67.2693 Q1150.32 67.2693 1153.8 63.421 Q1157.33 59.5726 1157.33 52.9291 L1157.33 27.2059 L1164.78 27.2059 L1164.78 72.576 L1157.33 72.576 L1157.33 65.6084 Q1154.61 69.7404 1151.01 71.7658 Q1147.44 73.7508 1142.71 73.7508 Q1134.89 73.7508 1130.84 68.8897 Q1126.78 64.0286 1126.78 54.671 M1145.54 26.1121 L1145.54 26.1121 Z" fill="#000000" fill-rule="nonzero" fill-opacity="1"></path><path clip-path="url(#clip950)" d="M1209.06 28.5427 L1209.06 35.5912 Q1205.9 33.9709 1202.5 33.1607 Q1199.09 32.3505 1195.45 32.3505 Q1189.9 32.3505 1187.1 34.0519 Q1184.35 35.7533 1184.35 39.156 Q1184.35 41.7486 1186.33 43.2475 Q1188.32 44.7058 1194.31 46.0426 L1196.87 46.6097 Q1204.81 48.3111 1208.13 51.4303 Q1211.49 54.509 1211.49 60.0587 Q1211.49 66.3781 1206.47 70.0644 Q1201.48 73.7508 1192.73 73.7508 Q1189.09 73.7508 1185.12 73.0216 Q1181.19 72.3329 1176.81 70.9151 L1176.81 63.2184 Q1180.95 65.3654 1184.96 66.4591 Q1188.97 67.5124 1192.9 67.5124 Q1198.16 67.5124 1201 65.73 Q1203.83 63.9071 1203.83 60.6258 Q1203.83 57.5877 1201.77 55.9673 Q1199.74 54.3469 1192.81 52.8481 L1190.22 52.2405 Q1183.3 50.7821 1180.22 47.7845 Q1177.14 44.7463 1177.14 39.4801 Q1177.14 33.0797 1181.67 29.5959 Q1186.21 26.1121 1194.56 26.1121 Q1198.69 26.1121 1202.33 26.7198 Q1205.98 27.3274 1209.06 28.5427 Z" fill="#000000" fill-rule="nonzero" fill-opacity="1"></path><path clip-path="url(#clip950)" d="M1223.36 27.2059 L1230.81 27.2059 L1230.81 72.576 L1223.36 72.576 L1223.36 27.2059 M1223.36 9.54393 L1230.81 9.54393 L1230.81 18.9825 L1223.36 18.9825 L1223.36 9.54393 Z" fill="#000000" fill-rule="nonzero" fill-opacity="1"></path><path clip-path="url(#clip950)" d="M1263.99 32.4315 Q1257.99 32.4315 1254.51 37.1306 Q1251.03 41.7891 1251.03 49.9314 Q1251.03 58.0738 1254.47 62.7728 Q1257.95 67.4314 1263.99 67.4314 Q1269.94 67.4314 1273.43 62.7323 Q1276.91 58.0333 1276.91 49.9314 Q1276.91 41.8701 1273.43 37.1711 Q1269.94 32.4315 1263.99 32.4315 M1263.99 26.1121 Q1273.71 26.1121 1279.26 32.4315 Q1284.81 38.7509 1284.81 49.9314 Q1284.81 61.0714 1279.26 67.4314 Q1273.71 73.7508 1263.99 73.7508 Q1254.23 73.7508 1248.68 67.4314 Q1243.17 61.0714 1243.17 49.9314 Q1243.17 38.7509 1248.68 32.4315 Q1254.23 26.1121 1263.99 26.1121 Z" fill="#000000" fill-rule="nonzero" fill-opacity="1"></path><path clip-path="url(#clip950)" d="M1334.88 45.1919 L1334.88 72.576 L1327.43 72.576 L1327.43 45.4349 Q1327.43 38.994 1324.91 35.7938 Q1322.4 32.5936 1317.38 32.5936 Q1311.34 32.5936 1307.86 36.4419 Q1304.38 40.2903 1304.38 46.9338 L1304.38 72.576 L1296.88 72.576 L1296.88 27.2059 L1304.38 27.2059 L1304.38 34.2544 Q1307.05 30.163 1310.66 28.1376 Q1314.3 26.1121 1319.04 26.1121 Q1326.86 26.1121 1330.87 30.9732 Q1334.88 35.7938 1334.88 45.1919 Z" fill="#000000" fill-rule="nonzero" fill-opacity="1"></path><path clip-path="url(#clip950)" d="M1384.63 18.8205 L1384.63 41.5461 L1394.91 41.5461 Q1400.63 41.5461 1403.75 38.5889 Q1406.86 35.6318 1406.86 30.163 Q1406.86 24.7348 1403.75 21.7777 Q1400.63 18.8205 1394.91 18.8205 L1384.63 18.8205 M1376.44 12.096 L1394.91 12.096 Q1405.08 12.096 1410.27 16.714 Q1415.49 21.2916 1415.49 30.163 Q1415.49 39.1155 1410.27 43.6931 Q1405.08 48.2706 1394.91 48.2706 L1384.63 48.2706 L1384.63 72.576 L1376.44 72.576 L1376.44 12.096 Z" fill="#000000" fill-rule="nonzero" fill-opacity="1"></path><path clip-path="url(#clip950)" d="M1450.98 34.1734 Q1449.72 33.4443 1448.22 33.1202 Q1446.77 32.7556 1444.98 32.7556 Q1438.66 32.7556 1435.26 36.8875 Q1431.9 40.9789 1431.9 48.6757 L1431.9 72.576 L1424.4 72.576 L1424.4 27.2059 L1431.9 27.2059 L1431.9 34.2544 Q1434.25 30.1225 1438.02 28.1376 Q1441.78 26.1121 1447.17 26.1121 Q1447.94 26.1121 1448.87 26.2337 Q1449.8 26.3147 1450.94 26.5172 L1450.98 34.1734 Z" fill="#000000" fill-rule="nonzero" fill-opacity="1"></path><path clip-path="url(#clip950)" d="M1474.56 32.4315 Q1468.56 32.4315 1465.08 37.1306 Q1461.59 41.7891 1461.59 49.9314 Q1461.59 58.0738 1465.04 62.7728 Q1468.52 67.4314 1474.56 67.4314 Q1480.51 67.4314 1483.99 62.7323 Q1487.48 58.0333 1487.48 49.9314 Q1487.48 41.8701 1483.99 37.1711 Q1480.51 32.4315 1474.56 32.4315 M1474.56 26.1121 Q1484.28 26.1121 1489.83 32.4315 Q1495.38 38.7509 1495.38 49.9314 Q1495.38 61.0714 1489.83 67.4314 Q1484.28 73.7508 1474.56 73.7508 Q1464.79 73.7508 1459.24 67.4314 Q1453.73 61.0714 1453.73 49.9314 Q1453.73 38.7509 1459.24 32.4315 Q1464.79 26.1121 1474.56 26.1121 Z" fill="#000000" fill-rule="nonzero" fill-opacity="1"></path><path clip-path="url(#clip950)" d="M1540.3 49.9314 Q1540.3 41.7081 1536.9 37.0496 Q1533.54 32.3505 1527.62 32.3505 Q1521.71 32.3505 1518.3 37.0496 Q1514.94 41.7081 1514.94 49.9314 Q1514.94 58.1548 1518.3 62.8538 Q1521.71 67.5124 1527.62 67.5124 Q1533.54 67.5124 1536.9 62.8538 Q1540.3 58.1548 1540.3 49.9314 M1514.94 34.0924 Q1517.29 30.0415 1520.86 28.0971 Q1524.46 26.1121 1529.44 26.1121 Q1537.71 26.1121 1542.85 32.6746 Q1548.04 39.2371 1548.04 49.9314 Q1548.04 60.6258 1542.85 67.1883 Q1537.71 73.7508 1529.44 73.7508 Q1524.46 73.7508 1520.86 71.8063 Q1517.29 69.8214 1514.94 65.7705 L1514.94 72.576 L1507.45 72.576 L1507.45 9.54393 L1514.94 9.54393 L1514.94 34.0924 Z" fill="#000000" fill-rule="nonzero" fill-opacity="1"></path><path clip-path="url(#clip950)" d="M1581.01 49.7694 Q1571.98 49.7694 1568.5 51.8354 Q1565.01 53.9013 1565.01 58.8839 Q1565.01 62.8538 1567.6 65.2034 Q1570.24 67.5124 1574.73 67.5124 Q1580.93 67.5124 1584.66 63.1374 Q1588.43 58.7219 1588.43 51.4303 L1588.43 49.7694 L1581.01 49.7694 M1595.88 46.6907 L1595.88 72.576 L1588.43 72.576 L1588.43 65.6895 Q1585.87 69.8214 1582.07 71.8063 Q1578.26 73.7508 1572.75 73.7508 Q1565.78 73.7508 1561.65 69.8619 Q1557.56 65.9325 1557.56 59.3701 Q1557.56 51.7138 1562.66 47.825 Q1567.81 43.9361 1577.97 43.9361 L1588.43 43.9361 L1588.43 43.2069 Q1588.43 38.0623 1585.02 35.2672 Q1581.66 32.4315 1575.54 32.4315 Q1571.66 32.4315 1567.97 33.3632 Q1564.28 34.295 1560.88 36.1584 L1560.88 29.2718 Q1564.97 27.692 1568.82 26.9223 Q1572.67 26.1121 1576.31 26.1121 Q1586.16 26.1121 1591.02 31.2163 Q1595.88 36.3204 1595.88 46.6907 Z" fill="#000000" fill-rule="nonzero" fill-opacity="1"></path><path clip-path="url(#clip950)" d="M1643.8 49.9314 Q1643.8 41.7081 1640.4 37.0496 Q1637.04 32.3505 1631.12 32.3505 Q1625.21 32.3505 1621.81 37.0496 Q1618.44 41.7081 1618.44 49.9314 Q1618.44 58.1548 1621.81 62.8538 Q1625.21 67.5124 1631.12 67.5124 Q1637.04 67.5124 1640.4 62.8538 Q1643.8 58.1548 1643.8 49.9314 M1618.44 34.0924 Q1620.79 30.0415 1624.36 28.0971 Q1627.96 26.1121 1632.95 26.1121 Q1641.21 26.1121 1646.35 32.6746 Q1651.54 39.2371 1651.54 49.9314 Q1651.54 60.6258 1646.35 67.1883 Q1641.21 73.7508 1632.95 73.7508 Q1627.96 73.7508 1624.36 71.8063 Q1620.79 69.8214 1618.44 65.7705 L1618.44 72.576 L1610.95 72.576 L1610.95 9.54393 L1618.44 9.54393 L1618.44 34.0924 Z" fill="#000000" fill-rule="nonzero" fill-opacity="1"></path><path clip-path="url(#clip950)" d="M1663.89 27.2059 L1671.35 27.2059 L1671.35 72.576 L1663.89 72.576 L1663.89 27.2059 M1663.89 9.54393 L1671.35 9.54393 L1671.35 18.9825 L1663.89 18.9825 L1663.89 9.54393 Z" fill="#000000" fill-rule="nonzero" fill-opacity="1"></path><path clip-path="url(#clip950)" d="M1686.94 9.54393 L1694.4 9.54393 L1694.4 72.576 L1686.94 72.576 L1686.94 9.54393 Z" fill="#000000" fill-rule="nonzero" fill-opacity="1"></path><path clip-path="url(#clip950)" d="M1709.99 27.2059 L1717.45 27.2059 L1717.45 72.576 L1709.99 72.576 L1709.99 27.2059 M1709.99 9.54393 L1717.45 9.54393 L1717.45 18.9825 L1709.99 18.9825 L1709.99 9.54393 Z" fill="#000000" fill-rule="nonzero" fill-opacity="1"></path><path clip-path="url(#clip950)" d="M1740.42 14.324 L1740.42 27.2059 L1755.77 27.2059 L1755.77 32.9987 L1740.42 32.9987 L1740.42 57.6282 Q1740.42 63.1779 1741.91 64.7578 Q1743.45 66.3376 1748.11 66.3376 L1755.77 66.3376 L1755.77 72.576 L1748.11 72.576 Q1739.48 72.576 1736.2 69.3758 Q1732.92 66.1351 1732.92 57.6282 L1732.92 32.9987 L1727.45 32.9987 L1727.45 27.2059 L1732.92 27.2059 L1732.92 14.324 L1740.42 14.324 Z" fill="#000000" fill-rule="nonzero" fill-opacity="1"></path><path clip-path="url(#clip950)" d="M1765.57 27.2059 L1773.03 27.2059 L1773.03 72.576 L1765.57 72.576 L1765.57 27.2059 M1765.57 9.54393 L1773.03 9.54393 L1773.03 18.9825 L1765.57 18.9825 L1765.57 9.54393 Z" fill="#000000" fill-rule="nonzero" fill-opacity="1"></path><path clip-path="url(#clip950)" d="M1827.43 48.0275 L1827.43 51.6733 L1793.16 51.6733 Q1793.64 59.3701 1797.78 63.421 Q1801.95 67.4314 1809.36 67.4314 Q1813.66 67.4314 1817.67 66.3781 Q1821.72 65.3249 1825.69 63.2184 L1825.69 70.267 Q1821.68 71.9684 1817.46 72.8596 Q1813.25 73.7508 1808.92 73.7508 Q1798.06 73.7508 1791.7 67.4314 Q1785.38 61.1119 1785.38 50.3365 Q1785.38 39.1965 1791.38 32.6746 Q1797.41 26.1121 1807.62 26.1121 Q1816.78 26.1121 1822.08 32.0264 Q1827.43 37.9003 1827.43 48.0275 M1819.98 45.84 Q1819.89 39.7232 1816.53 36.0774 Q1813.21 32.4315 1807.7 32.4315 Q1801.46 32.4315 1797.7 35.9558 Q1793.97 39.4801 1793.4 45.8805 L1819.98 45.84 Z" fill="#000000" fill-rule="nonzero" fill-opacity="1"></path><path clip-path="url(#clip950)" d="M1868.59 28.5427 L1868.59 35.5912 Q1865.43 33.9709 1862.02 33.1607 Q1858.62 32.3505 1854.98 32.3505 Q1849.43 32.3505 1846.63 34.0519 Q1843.88 35.7533 1843.88 39.156 Q1843.88 41.7486 1845.86 43.2475 Q1847.85 44.7058 1853.84 46.0426 L1856.39 46.6097 Q1864.33 48.3111 1867.65 51.4303 Q1871.02 54.509 1871.02 60.0587 Q1871.02 66.3781 1865.99 70.0644 Q1861.01 73.7508 1852.26 73.7508 Q1848.62 73.7508 1844.65 73.0216 Q1840.72 72.3329 1836.34 70.9151 L1836.34 63.2184 Q1840.47 65.3654 1844.48 66.4591 Q1848.49 67.5124 1852.42 67.5124 Q1857.69 67.5124 1860.53 65.73 Q1863.36 63.9071 1863.36 60.6258 Q1863.36 57.5877 1861.29 55.9673 Q1859.27 54.3469 1852.34 52.8481 L1849.75 52.2405 Q1842.82 50.7821 1839.74 47.7845 Q1836.67 44.7463 1836.67 39.4801 Q1836.67 33.0797 1841.2 29.5959 Q1845.74 26.1121 1854.08 26.1121 Q1858.22 26.1121 1861.86 26.7198 Q1865.51 27.3274 1868.59 28.5427 Z" fill="#000000" fill-rule="nonzero" fill-opacity="1"></path><path clip-path="url(#clip952)" d="M337.406 93.2321 L337.406 1401.23 L1180.98 1401.23 L1180.98 93.2321 L337.406 93.2321 L337.406 93.2321  Z" fill="#009af9" fill-rule="evenodd" fill-opacity="1"></path>
<polyline clip-path="url(#clip952)" style="stroke:#000000; stroke-linecap:round; stroke-linejoin:round; stroke-width:4; stroke-opacity:1; fill:none" points="337.406,93.2321 337.406,1401.23 1180.98,1401.23 1180.98,93.2321 337.406,93.2321 "></polyline>
<path clip-path="url(#clip952)" d="M1391.88 1353.36 L1391.88 1401.23 L2235.46 1401.23 L2235.46 1353.36 L1391.88 1353.36 L1391.88 1353.36  Z" fill="#009af9" fill-rule="evenodd" fill-opacity="1"></path>
<polyline clip-path="url(#clip952)" style="stroke:#000000; stroke-linecap:round; stroke-linejoin:round; stroke-width:4; stroke-opacity:1; fill:none" points="1391.88,1353.36 1391.88,1401.23 2235.46,1401.23 2235.46,1353.36 1391.88,1353.36 "></polyline>
<circle clip-path="url(#clip952)" style="fill:#009af9; stroke:none; fill-opacity:0" cx="759.195" cy="93.2321" r="2"></circle>
<circle clip-path="url(#clip952)" style="fill:#009af9; stroke:none; fill-opacity:0" cx="1813.67" cy="1353.36" r="2"></circle>
<path clip-path="url(#clip950)" d="M2620.11 1401.23 L4752.76 1401.23 L4752.76 93.2321 L2620.11 93.2321  Z" fill="#ffffff" fill-rule="evenodd" fill-opacity="1"></path>
<defs>
  <clipPath id="clip953">
    <rect x="2620" y="93" width="2134" height="1309"></rect>
  </clipPath>
</defs>
<polyline clip-path="url(#clip953)" style="stroke:#000000; stroke-linecap:round; stroke-linejoin:round; stroke-width:2; stroke-opacity:0.1; fill:none" points="2669.62,1401.23 2669.62,93.2321 "></polyline>
<polyline clip-path="url(#clip953)" style="stroke:#000000; stroke-linecap:round; stroke-linejoin:round; stroke-width:2; stroke-opacity:0.1; fill:none" points="3008.56,1401.23 3008.56,93.2321 "></polyline>
<polyline clip-path="url(#clip953)" style="stroke:#000000; stroke-linecap:round; stroke-linejoin:round; stroke-width:2; stroke-opacity:0.1; fill:none" points="3347.49,1401.23 3347.49,93.2321 "></polyline>
<polyline clip-path="url(#clip953)" style="stroke:#000000; stroke-linecap:round; stroke-linejoin:round; stroke-width:2; stroke-opacity:0.1; fill:none" points="3686.43,1401.23 3686.43,93.2321 "></polyline>
<polyline clip-path="url(#clip953)" style="stroke:#000000; stroke-linecap:round; stroke-linejoin:round; stroke-width:2; stroke-opacity:0.1; fill:none" points="4025.37,1401.23 4025.37,93.2321 "></polyline>
<polyline clip-path="url(#clip953)" style="stroke:#000000; stroke-linecap:round; stroke-linejoin:round; stroke-width:2; stroke-opacity:0.1; fill:none" points="4364.31,1401.23 4364.31,93.2321 "></polyline>
<polyline clip-path="url(#clip953)" style="stroke:#000000; stroke-linecap:round; stroke-linejoin:round; stroke-width:2; stroke-opacity:0.1; fill:none" points="4703.24,1401.23 4703.24,93.2321 "></polyline>
<polyline clip-path="url(#clip953)" style="stroke:#000000; stroke-linecap:round; stroke-linejoin:round; stroke-width:2; stroke-opacity:0.1; fill:none" points="2620.11,1401.23 4752.76,1401.23 "></polyline>
<polyline clip-path="url(#clip953)" style="stroke:#000000; stroke-linecap:round; stroke-linejoin:round; stroke-width:2; stroke-opacity:0.1; fill:none" points="2620.11,1119.64 4752.76,1119.64 "></polyline>
<polyline clip-path="url(#clip953)" style="stroke:#000000; stroke-linecap:round; stroke-linejoin:round; stroke-width:2; stroke-opacity:0.1; fill:none" points="2620.11,838.043 4752.76,838.043 "></polyline>
<polyline clip-path="url(#clip953)" style="stroke:#000000; stroke-linecap:round; stroke-linejoin:round; stroke-width:2; stroke-opacity:0.1; fill:none" points="2620.11,556.451 4752.76,556.451 "></polyline>
<polyline clip-path="url(#clip953)" style="stroke:#000000; stroke-linecap:round; stroke-linejoin:round; stroke-width:2; stroke-opacity:0.1; fill:none" points="2620.11,274.859 4752.76,274.859 "></polyline>
<polyline clip-path="url(#clip950)" style="stroke:#000000; stroke-linecap:round; stroke-linejoin:round; stroke-width:4; stroke-opacity:1; fill:none" points="2620.11,1401.23 4752.76,1401.23 "></polyline>
<polyline clip-path="url(#clip950)" style="stroke:#000000; stroke-linecap:round; stroke-linejoin:round; stroke-width:4; stroke-opacity:1; fill:none" points="2669.62,1401.23 2669.62,1382.33 "></polyline>
<polyline clip-path="url(#clip950)" style="stroke:#000000; stroke-linecap:round; stroke-linejoin:round; stroke-width:4; stroke-opacity:1; fill:none" points="3008.56,1401.23 3008.56,1382.33 "></polyline>
<polyline clip-path="url(#clip950)" style="stroke:#000000; stroke-linecap:round; stroke-linejoin:round; stroke-width:4; stroke-opacity:1; fill:none" points="3347.49,1401.23 3347.49,1382.33 "></polyline>
<polyline clip-path="url(#clip950)" style="stroke:#000000; stroke-linecap:round; stroke-linejoin:round; stroke-width:4; stroke-opacity:1; fill:none" points="3686.43,1401.23 3686.43,1382.33 "></polyline>
<polyline clip-path="url(#clip950)" style="stroke:#000000; stroke-linecap:round; stroke-linejoin:round; stroke-width:4; stroke-opacity:1; fill:none" points="4025.37,1401.23 4025.37,1382.33 "></polyline>
<polyline clip-path="url(#clip950)" style="stroke:#000000; stroke-linecap:round; stroke-linejoin:round; stroke-width:4; stroke-opacity:1; fill:none" points="4364.31,1401.23 4364.31,1382.33 "></polyline>
<polyline clip-path="url(#clip950)" style="stroke:#000000; stroke-linecap:round; stroke-linejoin:round; stroke-width:4; stroke-opacity:1; fill:none" points="4703.24,1401.23 4703.24,1382.33 "></polyline>
<path clip-path="url(#clip950)" d="M2647.5 1451.35 Q2643.89 1451.35 2642.06 1454.91 Q2640.26 1458.45 2640.26 1465.58 Q2640.26 1472.69 2642.06 1476.25 Q2643.89 1479.8 2647.5 1479.8 Q2651.13 1479.8 2652.94 1476.25 Q2654.77 1472.69 2654.77 1465.58 Q2654.77 1458.45 2652.94 1454.91 Q2651.13 1451.35 2647.5 1451.35 M2647.5 1447.64 Q2653.31 1447.64 2656.37 1452.25 Q2659.44 1456.83 2659.44 1465.58 Q2659.44 1474.31 2656.37 1478.92 Q2653.31 1483.5 2647.5 1483.5 Q2641.69 1483.5 2638.61 1478.92 Q2635.56 1474.31 2635.56 1465.58 Q2635.56 1456.83 2638.61 1452.25 Q2641.69 1447.64 2647.5 1447.64 Z" fill="#000000" fill-rule="nonzero" fill-opacity="1"></path><path clip-path="url(#clip950)" d="M2667.66 1476.95 L2672.55 1476.95 L2672.55 1482.83 L2667.66 1482.83 L2667.66 1476.95 Z" fill="#000000" fill-rule="nonzero" fill-opacity="1"></path><path clip-path="url(#clip950)" d="M2682.78 1448.27 L2701.13 1448.27 L2701.13 1452.2 L2687.06 1452.2 L2687.06 1460.68 Q2688.08 1460.33 2689.1 1460.17 Q2690.12 1459.98 2691.13 1459.98 Q2696.92 1459.98 2700.3 1463.15 Q2703.68 1466.32 2703.68 1471.74 Q2703.68 1477.32 2700.21 1480.42 Q2696.74 1483.5 2690.42 1483.5 Q2688.24 1483.5 2685.97 1483.13 Q2683.73 1482.76 2681.32 1482.02 L2681.32 1477.32 Q2683.4 1478.45 2685.63 1479.01 Q2687.85 1479.56 2690.32 1479.56 Q2694.33 1479.56 2696.67 1477.46 Q2699 1475.35 2699 1471.74 Q2699 1468.13 2696.67 1466.02 Q2694.33 1463.92 2690.32 1463.92 Q2688.45 1463.92 2686.57 1464.33 Q2684.72 1464.75 2682.78 1465.63 L2682.78 1448.27 Z" fill="#000000" fill-rule="nonzero" fill-opacity="1"></path><path clip-path="url(#clip950)" d="M2975.71 1478.89 L2983.35 1478.89 L2983.35 1452.53 L2975.04 1454.19 L2975.04 1449.93 L2983.3 1448.27 L2987.98 1448.27 L2987.98 1478.89 L2995.62 1478.89 L2995.62 1482.83 L2975.71 1482.83 L2975.71 1478.89 Z" fill="#000000" fill-rule="nonzero" fill-opacity="1"></path><path clip-path="url(#clip950)" d="M3005.06 1476.95 L3009.94 1476.95 L3009.94 1482.83 L3005.06 1482.83 L3005.06 1476.95 Z" fill="#000000" fill-rule="nonzero" fill-opacity="1"></path><path clip-path="url(#clip950)" d="M3030.13 1451.35 Q3026.52 1451.35 3024.69 1454.91 Q3022.88 1458.45 3022.88 1465.58 Q3022.88 1472.69 3024.69 1476.25 Q3026.52 1479.8 3030.13 1479.8 Q3033.76 1479.8 3035.57 1476.25 Q3037.4 1472.69 3037.4 1465.58 Q3037.4 1458.45 3035.57 1454.91 Q3033.76 1451.35 3030.13 1451.35 M3030.13 1447.64 Q3035.94 1447.64 3039 1452.25 Q3042.07 1456.83 3042.07 1465.58 Q3042.07 1474.31 3039 1478.92 Q3035.94 1483.5 3030.13 1483.5 Q3024.32 1483.5 3021.24 1478.92 Q3018.19 1474.31 3018.19 1465.58 Q3018.19 1456.83 3021.24 1452.25 Q3024.32 1447.64 3030.13 1447.64 Z" fill="#000000" fill-rule="nonzero" fill-opacity="1"></path><path clip-path="url(#clip950)" d="M3315.14 1478.89 L3322.78 1478.89 L3322.78 1452.53 L3314.47 1454.19 L3314.47 1449.93 L3322.74 1448.27 L3327.41 1448.27 L3327.41 1478.89 L3335.05 1478.89 L3335.05 1482.83 L3315.14 1482.83 L3315.14 1478.89 Z" fill="#000000" fill-rule="nonzero" fill-opacity="1"></path><path clip-path="url(#clip950)" d="M3344.5 1476.95 L3349.38 1476.95 L3349.38 1482.83 L3344.5 1482.83 L3344.5 1476.95 Z" fill="#000000" fill-rule="nonzero" fill-opacity="1"></path><path clip-path="url(#clip950)" d="M3359.61 1448.27 L3377.97 1448.27 L3377.97 1452.2 L3363.89 1452.2 L3363.89 1460.68 Q3364.91 1460.33 3365.93 1460.17 Q3366.95 1459.98 3367.97 1459.98 Q3373.75 1459.98 3377.13 1463.15 Q3380.51 1466.32 3380.51 1471.74 Q3380.51 1477.32 3377.04 1480.42 Q3373.57 1483.5 3367.25 1483.5 Q3365.07 1483.5 3362.81 1483.13 Q3360.56 1482.76 3358.15 1482.02 L3358.15 1477.32 Q3360.24 1478.45 3362.46 1479.01 Q3364.68 1479.56 3367.16 1479.56 Q3371.16 1479.56 3373.5 1477.46 Q3375.84 1475.35 3375.84 1471.74 Q3375.84 1468.13 3373.5 1466.02 Q3371.16 1463.92 3367.16 1463.92 Q3365.28 1463.92 3363.41 1464.33 Q3361.56 1464.75 3359.61 1465.63 L3359.61 1448.27 Z" fill="#000000" fill-rule="nonzero" fill-opacity="1"></path><path clip-path="url(#clip950)" d="M3657.67 1478.89 L3673.99 1478.89 L3673.99 1482.83 L3652.04 1482.83 L3652.04 1478.89 Q3654.71 1476.14 3659.29 1471.51 Q3663.9 1466.86 3665.08 1465.51 Q3667.32 1462.99 3668.2 1461.25 Q3669.1 1459.49 3669.1 1457.8 Q3669.1 1455.05 3667.16 1453.31 Q3665.24 1451.58 3662.14 1451.58 Q3659.94 1451.58 3657.48 1452.34 Q3655.05 1453.11 3652.28 1454.66 L3652.28 1449.93 Q3655.1 1448.8 3657.55 1448.22 Q3660.01 1447.64 3662.04 1447.64 Q3667.41 1447.64 3670.61 1450.33 Q3673.8 1453.01 3673.8 1457.5 Q3673.8 1459.63 3672.99 1461.55 Q3672.21 1463.45 3670.1 1466.05 Q3669.52 1466.72 3666.42 1469.93 Q3663.32 1473.13 3657.67 1478.89 Z" fill="#000000" fill-rule="nonzero" fill-opacity="1"></path><path clip-path="url(#clip950)" d="M3683.8 1476.95 L3688.69 1476.95 L3688.69 1482.83 L3683.8 1482.83 L3683.8 1476.95 Z" fill="#000000" fill-rule="nonzero" fill-opacity="1"></path><path clip-path="url(#clip950)" d="M3708.87 1451.35 Q3705.26 1451.35 3703.43 1454.91 Q3701.63 1458.45 3701.63 1465.58 Q3701.63 1472.69 3703.43 1476.25 Q3705.26 1479.8 3708.87 1479.8 Q3712.51 1479.8 3714.31 1476.25 Q3716.14 1472.69 3716.14 1465.58 Q3716.14 1458.45 3714.31 1454.91 Q3712.51 1451.35 3708.87 1451.35 M3708.87 1447.64 Q3714.68 1447.64 3717.74 1452.25 Q3720.82 1456.83 3720.82 1465.58 Q3720.82 1474.31 3717.74 1478.92 Q3714.68 1483.5 3708.87 1483.5 Q3703.06 1483.5 3699.98 1478.92 Q3696.93 1474.31 3696.93 1465.58 Q3696.93 1456.83 3699.98 1452.25 Q3703.06 1447.64 3708.87 1447.64 Z" fill="#000000" fill-rule="nonzero" fill-opacity="1"></path><path clip-path="url(#clip950)" d="M3997.1 1478.89 L4013.42 1478.89 L4013.42 1482.83 L3991.48 1482.83 L3991.48 1478.89 Q3994.14 1476.14 3998.73 1471.51 Q4003.33 1466.86 4004.51 1465.51 Q4006.76 1462.99 4007.64 1461.25 Q4008.54 1459.49 4008.54 1457.8 Q4008.54 1455.05 4006.6 1453.31 Q4004.67 1451.58 4001.57 1451.58 Q3999.37 1451.58 3996.92 1452.34 Q3994.49 1453.11 3991.71 1454.66 L3991.71 1449.93 Q3994.54 1448.8 3996.99 1448.22 Q3999.44 1447.64 4001.48 1447.64 Q4006.85 1447.64 4010.04 1450.33 Q4013.24 1453.01 4013.24 1457.5 Q4013.24 1459.63 4012.43 1461.55 Q4011.64 1463.45 4009.54 1466.05 Q4008.96 1466.72 4005.85 1469.93 Q4002.75 1473.13 3997.1 1478.89 Z" fill="#000000" fill-rule="nonzero" fill-opacity="1"></path><path clip-path="url(#clip950)" d="M4023.24 1476.95 L4028.12 1476.95 L4028.12 1482.83 L4023.24 1482.83 L4023.24 1476.95 Z" fill="#000000" fill-rule="nonzero" fill-opacity="1"></path><path clip-path="url(#clip950)" d="M4038.35 1448.27 L4056.71 1448.27 L4056.71 1452.2 L4042.64 1452.2 L4042.64 1460.68 Q4043.66 1460.33 4044.67 1460.17 Q4045.69 1459.98 4046.71 1459.98 Q4052.5 1459.98 4055.88 1463.15 Q4059.26 1466.32 4059.26 1471.74 Q4059.26 1477.32 4055.79 1480.42 Q4052.31 1483.5 4045.99 1483.5 Q4043.82 1483.5 4041.55 1483.13 Q4039.3 1482.76 4036.9 1482.02 L4036.9 1477.32 Q4038.98 1478.45 4041.2 1479.01 Q4043.42 1479.56 4045.9 1479.56 Q4049.91 1479.56 4052.24 1477.46 Q4054.58 1475.35 4054.58 1471.74 Q4054.58 1468.13 4052.24 1466.02 Q4049.91 1463.92 4045.9 1463.92 Q4044.03 1463.92 4042.15 1464.33 Q4040.3 1464.75 4038.35 1465.63 L4038.35 1448.27 Z" fill="#000000" fill-rule="nonzero" fill-opacity="1"></path><path clip-path="url(#clip950)" d="M4345.61 1464.19 Q4348.97 1464.91 4350.85 1467.18 Q4352.74 1469.45 4352.74 1472.78 Q4352.74 1477.9 4349.23 1480.7 Q4345.71 1483.5 4339.23 1483.5 Q4337.05 1483.5 4334.73 1483.06 Q4332.44 1482.64 4329.99 1481.79 L4329.99 1477.27 Q4331.93 1478.41 4334.25 1478.99 Q4336.56 1479.56 4339.09 1479.56 Q4343.48 1479.56 4345.78 1477.83 Q4348.09 1476.09 4348.09 1472.78 Q4348.09 1469.73 4345.94 1468.01 Q4343.81 1466.28 4339.99 1466.28 L4335.96 1466.28 L4335.96 1462.43 L4340.17 1462.43 Q4343.62 1462.43 4345.45 1461.07 Q4347.28 1459.68 4347.28 1457.09 Q4347.28 1454.43 4345.38 1453.01 Q4343.51 1451.58 4339.99 1451.58 Q4338.07 1451.58 4335.87 1451.99 Q4333.67 1452.41 4331.03 1453.29 L4331.03 1449.12 Q4333.69 1448.38 4336.01 1448.01 Q4338.35 1447.64 4340.41 1447.64 Q4345.73 1447.64 4348.83 1450.07 Q4351.93 1452.48 4351.93 1456.6 Q4351.93 1459.47 4350.29 1461.46 Q4348.65 1463.43 4345.61 1464.19 Z" fill="#000000" fill-rule="nonzero" fill-opacity="1"></path><path clip-path="url(#clip950)" d="M4361.61 1476.95 L4366.49 1476.95 L4366.49 1482.83 L4361.61 1482.83 L4361.61 1476.95 Z" fill="#000000" fill-rule="nonzero" fill-opacity="1"></path><path clip-path="url(#clip950)" d="M4386.68 1451.35 Q4383.07 1451.35 4381.24 1454.91 Q4379.43 1458.45 4379.43 1465.58 Q4379.43 1472.69 4381.24 1476.25 Q4383.07 1479.8 4386.68 1479.8 Q4390.31 1479.8 4392.12 1476.25 Q4393.95 1472.69 4393.95 1465.58 Q4393.95 1458.45 4392.12 1454.91 Q4390.31 1451.35 4386.68 1451.35 M4386.68 1447.64 Q4392.49 1447.64 4395.54 1452.25 Q4398.62 1456.83 4398.62 1465.58 Q4398.62 1474.31 4395.54 1478.92 Q4392.49 1483.5 4386.68 1483.5 Q4380.87 1483.5 4377.79 1478.92 Q4374.73 1474.31 4374.73 1465.58 Q4374.73 1456.83 4377.79 1452.25 Q4380.87 1447.64 4386.68 1447.64 Z" fill="#000000" fill-rule="nonzero" fill-opacity="1"></path><path clip-path="url(#clip950)" d="M4685.05 1464.19 Q4688.41 1464.91 4690.28 1467.18 Q4692.18 1469.45 4692.18 1472.78 Q4692.18 1477.9 4688.66 1480.7 Q4685.14 1483.5 4678.66 1483.5 Q4676.48 1483.5 4674.17 1483.06 Q4671.88 1482.64 4669.42 1481.79 L4669.42 1477.27 Q4671.37 1478.41 4673.68 1478.99 Q4676 1479.56 4678.52 1479.56 Q4682.92 1479.56 4685.21 1477.83 Q4687.53 1476.09 4687.53 1472.78 Q4687.53 1469.73 4685.37 1468.01 Q4683.24 1466.28 4679.42 1466.28 L4675.4 1466.28 L4675.4 1462.43 L4679.61 1462.43 Q4683.06 1462.43 4684.89 1461.07 Q4686.72 1459.68 4686.72 1457.09 Q4686.72 1454.43 4684.82 1453.01 Q4682.94 1451.58 4679.42 1451.58 Q4677.5 1451.58 4675.3 1451.99 Q4673.11 1452.41 4670.47 1453.29 L4670.47 1449.12 Q4673.13 1448.38 4675.44 1448.01 Q4677.78 1447.64 4679.84 1447.64 Q4685.17 1447.64 4688.27 1450.07 Q4691.37 1452.48 4691.37 1456.6 Q4691.37 1459.47 4689.73 1461.46 Q4688.08 1463.43 4685.05 1464.19 Z" fill="#000000" fill-rule="nonzero" fill-opacity="1"></path><path clip-path="url(#clip950)" d="M4701.04 1476.95 L4705.93 1476.95 L4705.93 1482.83 L4701.04 1482.83 L4701.04 1476.95 Z" fill="#000000" fill-rule="nonzero" fill-opacity="1"></path><path clip-path="url(#clip950)" d="M4716.16 1448.27 L4734.52 1448.27 L4734.52 1452.2 L4720.44 1452.2 L4720.44 1460.68 Q4721.46 1460.33 4722.48 1460.17 Q4723.5 1459.98 4724.52 1459.98 Q4730.3 1459.98 4733.68 1463.15 Q4737.06 1466.32 4737.06 1471.74 Q4737.06 1477.32 4733.59 1480.42 Q4730.12 1483.5 4723.8 1483.5 Q4721.62 1483.5 4719.35 1483.13 Q4717.11 1482.76 4714.7 1482.02 L4714.7 1477.32 Q4716.79 1478.45 4719.01 1479.01 Q4721.23 1479.56 4723.71 1479.56 Q4727.71 1479.56 4730.05 1477.46 Q4732.39 1475.35 4732.39 1471.74 Q4732.39 1468.13 4730.05 1466.02 Q4727.71 1463.92 4723.71 1463.92 Q4721.83 1463.92 4719.96 1464.33 Q4718.1 1464.75 4716.16 1465.63 L4716.16 1448.27 Z" fill="#000000" fill-rule="nonzero" fill-opacity="1"></path><path clip-path="url(#clip950)" d="M3492.75 1534.57 L3502.33 1534.57 L3514.46 1566.91 L3526.65 1534.57 L3536.23 1534.57 L3536.23 1582.09 L3529.96 1582.09 L3529.96 1540.36 L3517.71 1572.96 L3511.25 1572.96 L3498.99 1540.36 L3498.99 1582.09 L3492.75 1582.09 L3492.75 1534.57 Z" fill="#000000" fill-rule="nonzero" fill-opacity="1"></path><path clip-path="url(#clip950)" d="M3562.55 1550.55 Q3557.84 1550.55 3555.11 1554.24 Q3552.37 1557.9 3552.37 1564.3 Q3552.37 1570.7 3555.07 1574.39 Q3557.81 1578.05 3562.55 1578.05 Q3567.23 1578.05 3569.97 1574.36 Q3572.71 1570.67 3572.71 1564.3 Q3572.71 1557.97 3569.97 1554.27 Q3567.23 1550.55 3562.55 1550.55 M3562.55 1545.58 Q3570.19 1545.58 3574.55 1550.55 Q3578.91 1555.51 3578.91 1564.3 Q3578.91 1573.05 3574.55 1578.05 Q3570.19 1583.01 3562.55 1583.01 Q3554.88 1583.01 3550.52 1578.05 Q3546.19 1573.05 3546.19 1564.3 Q3546.19 1555.51 3550.52 1550.55 Q3554.88 1545.58 3562.55 1545.58 Z" fill="#000000" fill-rule="nonzero" fill-opacity="1"></path><path clip-path="url(#clip950)" d="M3612.08 1551.85 L3612.08 1532.57 L3617.94 1532.57 L3617.94 1582.09 L3612.08 1582.09 L3612.08 1576.74 Q3610.23 1579.93 3607.4 1581.49 Q3604.6 1583.01 3600.65 1583.01 Q3594.19 1583.01 3590.12 1577.86 Q3586.08 1572.7 3586.08 1564.3 Q3586.08 1555.9 3590.12 1550.74 Q3594.19 1545.58 3600.65 1545.58 Q3604.6 1545.58 3607.4 1547.14 Q3610.23 1548.67 3612.08 1551.85 M3592.12 1564.3 Q3592.12 1570.76 3594.76 1574.45 Q3597.44 1578.11 3602.09 1578.11 Q3606.73 1578.11 3609.41 1574.45 Q3612.08 1570.76 3612.08 1564.3 Q3612.08 1557.84 3609.41 1554.18 Q3606.73 1550.49 3602.09 1550.49 Q3597.44 1550.49 3594.76 1554.18 Q3592.12 1557.84 3592.12 1564.3 Z" fill="#000000" fill-rule="nonzero" fill-opacity="1"></path><path clip-path="url(#clip950)" d="M3660.49 1562.8 L3660.49 1565.67 L3633.56 1565.67 Q3633.95 1571.72 3637.19 1574.9 Q3640.47 1578.05 3646.3 1578.05 Q3649.67 1578.05 3652.82 1577.22 Q3656 1576.39 3659.12 1574.74 L3659.12 1580.28 Q3655.97 1581.61 3652.66 1582.31 Q3649.35 1583.01 3645.95 1583.01 Q3637.42 1583.01 3632.42 1578.05 Q3627.45 1573.08 3627.45 1564.62 Q3627.45 1555.87 3632.16 1550.74 Q3636.91 1545.58 3644.93 1545.58 Q3652.12 1545.58 3656.29 1550.23 Q3660.49 1554.85 3660.49 1562.8 M3654.63 1561.08 Q3654.57 1556.28 3651.93 1553.41 Q3649.32 1550.55 3644.99 1550.55 Q3640.09 1550.55 3637.13 1553.32 Q3634.2 1556.09 3633.75 1561.12 L3654.63 1561.08 Z" fill="#000000" fill-rule="nonzero" fill-opacity="1"></path><path clip-path="url(#clip950)" d="M3670.1 1532.57 L3675.96 1532.57 L3675.96 1582.09 L3670.1 1582.09 L3670.1 1532.57 Z" fill="#000000" fill-rule="nonzero" fill-opacity="1"></path><path clip-path="url(#clip950)" d="M3709.19 1534.57 L3715.62 1534.57 L3715.62 1582.09 L3709.19 1582.09 L3709.19 1534.57 Z" fill="#000000" fill-rule="nonzero" fill-opacity="1"></path><path clip-path="url(#clip950)" d="M3757.79 1560.58 L3757.79 1582.09 L3751.93 1582.09 L3751.93 1560.77 Q3751.93 1555.71 3749.96 1553.19 Q3747.99 1550.68 3744.04 1550.68 Q3739.3 1550.68 3736.56 1553.7 Q3733.82 1556.72 3733.82 1561.94 L3733.82 1582.09 L3727.94 1582.09 L3727.94 1546.44 L3733.82 1546.44 L3733.82 1551.98 Q3735.92 1548.77 3738.76 1547.18 Q3741.62 1545.58 3745.35 1545.58 Q3751.49 1545.58 3754.64 1549.4 Q3757.79 1553.19 3757.79 1560.58 Z" fill="#000000" fill-rule="nonzero" fill-opacity="1"></path><path clip-path="url(#clip950)" d="M3792.93 1551.85 L3792.93 1532.57 L3798.79 1532.57 L3798.79 1582.09 L3792.93 1582.09 L3792.93 1576.74 Q3791.08 1579.93 3788.25 1581.49 Q3785.45 1583.01 3781.5 1583.01 Q3775.04 1583.01 3770.97 1577.86 Q3766.93 1572.7 3766.93 1564.3 Q3766.93 1555.9 3770.97 1550.74 Q3775.04 1545.58 3781.5 1545.58 Q3785.45 1545.58 3788.25 1547.14 Q3791.08 1548.67 3792.93 1551.85 M3772.97 1564.3 Q3772.97 1570.76 3775.61 1574.45 Q3778.29 1578.11 3782.94 1578.11 Q3787.58 1578.11 3790.26 1574.45 Q3792.93 1570.76 3792.93 1564.3 Q3792.93 1557.84 3790.26 1554.18 Q3787.58 1550.49 3782.94 1550.49 Q3778.29 1550.49 3775.61 1554.18 Q3772.97 1557.84 3772.97 1564.3 Z" fill="#000000" fill-rule="nonzero" fill-opacity="1"></path><path clip-path="url(#clip950)" d="M3841.34 1562.8 L3841.34 1565.67 L3814.41 1565.67 Q3814.8 1571.72 3818.04 1574.9 Q3821.32 1578.05 3827.15 1578.05 Q3830.52 1578.05 3833.67 1577.22 Q3836.85 1576.39 3839.97 1574.74 L3839.97 1580.28 Q3836.82 1581.61 3833.51 1582.31 Q3830.2 1583.01 3826.79 1583.01 Q3818.26 1583.01 3813.27 1578.05 Q3808.3 1573.08 3808.3 1564.62 Q3808.3 1555.87 3813.01 1550.74 Q3817.76 1545.58 3825.78 1545.58 Q3832.97 1545.58 3837.14 1550.23 Q3841.34 1554.85 3841.34 1562.8 M3835.48 1561.08 Q3835.42 1556.28 3832.78 1553.41 Q3830.17 1550.55 3825.84 1550.55 Q3820.94 1550.55 3817.98 1553.32 Q3815.05 1556.09 3814.6 1561.12 L3835.48 1561.08 Z" fill="#000000" fill-rule="nonzero" fill-opacity="1"></path><path clip-path="url(#clip950)" d="M3879.44 1546.44 L3866.55 1563.79 L3880.11 1582.09 L3873.2 1582.09 L3862.82 1568.09 L3852.45 1582.09 L3845.54 1582.09 L3859.39 1563.44 L3846.72 1546.44 L3853.63 1546.44 L3863.08 1559.14 L3872.53 1546.44 L3879.44 1546.44 Z" fill="#000000" fill-rule="nonzero" fill-opacity="1"></path><polyline clip-path="url(#clip950)" style="stroke:#000000; stroke-linecap:round; stroke-linejoin:round; stroke-width:4; stroke-opacity:1; fill:none" points="2620.11,1401.23 2620.11,93.2321 "></polyline>
<polyline clip-path="url(#clip950)" style="stroke:#000000; stroke-linecap:round; stroke-linejoin:round; stroke-width:4; stroke-opacity:1; fill:none" points="2620.11,1401.23 2639,1401.23 "></polyline>
<polyline clip-path="url(#clip950)" style="stroke:#000000; stroke-linecap:round; stroke-linejoin:round; stroke-width:4; stroke-opacity:1; fill:none" points="2620.11,1119.64 2639,1119.64 "></polyline>
<polyline clip-path="url(#clip950)" style="stroke:#000000; stroke-linecap:round; stroke-linejoin:round; stroke-width:4; stroke-opacity:1; fill:none" points="2620.11,838.043 2639,838.043 "></polyline>
<polyline clip-path="url(#clip950)" style="stroke:#000000; stroke-linecap:round; stroke-linejoin:round; stroke-width:4; stroke-opacity:1; fill:none" points="2620.11,556.451 2639,556.451 "></polyline>
<polyline clip-path="url(#clip950)" style="stroke:#000000; stroke-linecap:round; stroke-linejoin:round; stroke-width:4; stroke-opacity:1; fill:none" points="2620.11,274.859 2639,274.859 "></polyline>
<path clip-path="url(#clip950)" d="M2490.93 1387.03 Q2487.32 1387.03 2485.49 1390.59 Q2483.69 1394.13 2483.69 1401.26 Q2483.69 1408.37 2485.49 1411.93 Q2487.32 1415.48 2490.93 1415.48 Q2494.56 1415.48 2496.37 1411.93 Q2498.2 1408.37 2498.2 1401.26 Q2498.2 1394.13 2496.37 1390.59 Q2494.56 1387.03 2490.93 1387.03 M2490.93 1383.32 Q2496.74 1383.32 2499.8 1387.93 Q2502.88 1392.51 2502.88 1401.26 Q2502.88 1409.99 2499.8 1414.6 Q2496.74 1419.18 2490.93 1419.18 Q2485.12 1419.18 2482.04 1414.6 Q2478.99 1409.99 2478.99 1401.26 Q2478.99 1392.51 2482.04 1387.93 Q2485.12 1383.32 2490.93 1383.32 Z" fill="#000000" fill-rule="nonzero" fill-opacity="1"></path><path clip-path="url(#clip950)" d="M2511.09 1412.63 L2515.98 1412.63 L2515.98 1418.51 L2511.09 1418.51 L2511.09 1412.63 Z" fill="#000000" fill-rule="nonzero" fill-opacity="1"></path><path clip-path="url(#clip950)" d="M2536.16 1387.03 Q2532.55 1387.03 2530.72 1390.59 Q2528.92 1394.13 2528.92 1401.26 Q2528.92 1408.37 2530.72 1411.93 Q2532.55 1415.48 2536.16 1415.48 Q2539.8 1415.48 2541.6 1411.93 Q2543.43 1408.37 2543.43 1401.26 Q2543.43 1394.13 2541.6 1390.59 Q2539.8 1387.03 2536.16 1387.03 M2536.16 1383.32 Q2541.97 1383.32 2545.03 1387.93 Q2548.11 1392.51 2548.11 1401.26 Q2548.11 1409.99 2545.03 1414.6 Q2541.97 1419.18 2536.16 1419.18 Q2530.35 1419.18 2527.27 1414.6 Q2524.22 1409.99 2524.22 1401.26 Q2524.22 1392.51 2527.27 1387.93 Q2530.35 1383.32 2536.16 1383.32 Z" fill="#000000" fill-rule="nonzero" fill-opacity="1"></path><path clip-path="url(#clip950)" d="M2492.53 1105.43 Q2488.92 1105.43 2487.09 1109 Q2485.28 1112.54 2485.28 1119.67 Q2485.28 1126.78 2487.09 1130.34 Q2488.92 1133.88 2492.53 1133.88 Q2496.16 1133.88 2497.97 1130.34 Q2499.8 1126.78 2499.8 1119.67 Q2499.8 1112.54 2497.97 1109 Q2496.16 1105.43 2492.53 1105.43 M2492.53 1101.73 Q2498.34 1101.73 2501.39 1106.34 Q2504.47 1110.92 2504.47 1119.67 Q2504.47 1128.4 2501.39 1133 Q2498.34 1137.59 2492.53 1137.59 Q2486.72 1137.59 2483.64 1133 Q2480.58 1128.4 2480.58 1119.67 Q2480.58 1110.92 2483.64 1106.34 Q2486.72 1101.73 2492.53 1101.73 Z" fill="#000000" fill-rule="nonzero" fill-opacity="1"></path><path clip-path="url(#clip950)" d="M2512.69 1131.04 L2517.57 1131.04 L2517.57 1136.92 L2512.69 1136.92 L2512.69 1131.04 Z" fill="#000000" fill-rule="nonzero" fill-opacity="1"></path><path clip-path="url(#clip950)" d="M2531.79 1132.98 L2548.11 1132.98 L2548.11 1136.92 L2526.16 1136.92 L2526.16 1132.98 Q2528.82 1130.23 2533.41 1125.6 Q2538.01 1120.94 2539.19 1119.6 Q2541.44 1117.08 2542.32 1115.34 Q2543.22 1113.58 2543.22 1111.89 Q2543.22 1109.14 2541.28 1107.4 Q2539.36 1105.67 2536.25 1105.67 Q2534.06 1105.67 2531.6 1106.43 Q2529.17 1107.19 2526.39 1108.74 L2526.39 1104.02 Q2529.22 1102.89 2531.67 1102.31 Q2534.12 1101.73 2536.16 1101.73 Q2541.53 1101.73 2544.73 1104.42 Q2547.92 1107.1 2547.92 1111.59 Q2547.92 1113.72 2547.11 1115.64 Q2546.32 1117.54 2544.22 1120.13 Q2543.64 1120.8 2540.54 1124.02 Q2537.44 1127.22 2531.79 1132.98 Z" fill="#000000" fill-rule="nonzero" fill-opacity="1"></path><path clip-path="url(#clip950)" d="M2490.44 823.842 Q2486.83 823.842 2485 827.407 Q2483.2 830.949 2483.2 838.078 Q2483.2 845.185 2485 848.749 Q2486.83 852.291 2490.44 852.291 Q2494.08 852.291 2495.88 848.749 Q2497.71 845.185 2497.71 838.078 Q2497.71 830.949 2495.88 827.407 Q2494.08 823.842 2490.44 823.842 M2490.44 820.138 Q2496.25 820.138 2499.31 824.745 Q2502.39 829.328 2502.39 838.078 Q2502.39 846.805 2499.31 851.411 Q2496.25 855.995 2490.44 855.995 Q2484.63 855.995 2481.56 851.411 Q2478.5 846.805 2478.5 838.078 Q2478.5 829.328 2481.56 824.745 Q2484.63 820.138 2490.44 820.138 Z" fill="#000000" fill-rule="nonzero" fill-opacity="1"></path><path clip-path="url(#clip950)" d="M2510.61 849.444 L2515.49 849.444 L2515.49 855.323 L2510.61 855.323 L2510.61 849.444 Z" fill="#000000" fill-rule="nonzero" fill-opacity="1"></path><path clip-path="url(#clip950)" d="M2538.52 824.837 L2526.72 843.286 L2538.52 843.286 L2538.52 824.837 M2537.3 820.763 L2543.18 820.763 L2543.18 843.286 L2548.11 843.286 L2548.11 847.175 L2543.18 847.175 L2543.18 855.323 L2538.52 855.323 L2538.52 847.175 L2522.92 847.175 L2522.92 842.661 L2537.3 820.763 Z" fill="#000000" fill-rule="nonzero" fill-opacity="1"></path><path clip-path="url(#clip950)" d="M2490.77 542.25 Q2487.16 542.25 2485.33 545.815 Q2483.52 549.356 2483.52 556.486 Q2483.52 563.592 2485.33 567.157 Q2487.16 570.699 2490.77 570.699 Q2494.4 570.699 2496.21 567.157 Q2498.04 563.592 2498.04 556.486 Q2498.04 549.356 2496.21 545.815 Q2494.4 542.25 2490.77 542.25 M2490.77 538.546 Q2496.58 538.546 2499.63 543.153 Q2502.71 547.736 2502.71 556.486 Q2502.71 565.213 2499.63 569.819 Q2496.58 574.403 2490.77 574.403 Q2484.96 574.403 2481.88 569.819 Q2478.82 565.213 2478.82 556.486 Q2478.82 547.736 2481.88 543.153 Q2484.96 538.546 2490.77 538.546 Z" fill="#000000" fill-rule="nonzero" fill-opacity="1"></path><path clip-path="url(#clip950)" d="M2510.93 567.852 L2515.81 567.852 L2515.81 573.731 L2510.93 573.731 L2510.93 567.852 Z" fill="#000000" fill-rule="nonzero" fill-opacity="1"></path><path clip-path="url(#clip950)" d="M2536.58 554.588 Q2533.43 554.588 2531.58 556.741 Q2529.75 558.893 2529.75 562.643 Q2529.75 566.37 2531.58 568.546 Q2533.43 570.699 2536.58 570.699 Q2539.73 570.699 2541.56 568.546 Q2543.41 566.37 2543.41 562.643 Q2543.41 558.893 2541.56 556.741 Q2539.73 554.588 2536.58 554.588 M2545.86 539.935 L2545.86 544.194 Q2544.1 543.361 2542.3 542.921 Q2540.51 542.481 2538.75 542.481 Q2534.12 542.481 2531.67 545.606 Q2529.24 548.731 2528.89 555.051 Q2530.26 553.037 2532.32 551.972 Q2534.38 550.884 2536.86 550.884 Q2542.06 550.884 2545.07 554.055 Q2548.11 557.204 2548.11 562.643 Q2548.11 567.967 2544.96 571.185 Q2541.81 574.403 2536.58 574.403 Q2530.58 574.403 2527.41 569.819 Q2524.24 565.213 2524.24 556.486 Q2524.24 548.292 2528.13 543.43 Q2532.02 538.546 2538.57 538.546 Q2540.33 538.546 2542.11 538.893 Q2543.92 539.241 2545.86 539.935 Z" fill="#000000" fill-rule="nonzero" fill-opacity="1"></path><path clip-path="url(#clip950)" d="M2491.02 260.658 Q2487.41 260.658 2485.58 264.223 Q2483.78 267.764 2483.78 274.894 Q2483.78 282 2485.58 285.565 Q2487.41 289.107 2491.02 289.107 Q2494.66 289.107 2496.46 285.565 Q2498.29 282 2498.29 274.894 Q2498.29 267.764 2496.46 264.223 Q2494.66 260.658 2491.02 260.658 M2491.02 256.954 Q2496.83 256.954 2499.89 261.561 Q2502.97 266.144 2502.97 274.894 Q2502.97 283.621 2499.89 288.227 Q2496.83 292.81 2491.02 292.81 Q2485.21 292.81 2482.13 288.227 Q2479.08 283.621 2479.08 274.894 Q2479.08 266.144 2482.13 261.561 Q2485.21 256.954 2491.02 256.954 Z" fill="#000000" fill-rule="nonzero" fill-opacity="1"></path><path clip-path="url(#clip950)" d="M2511.19 286.259 L2516.07 286.259 L2516.07 292.139 L2511.19 292.139 L2511.19 286.259 Z" fill="#000000" fill-rule="nonzero" fill-opacity="1"></path><path clip-path="url(#clip950)" d="M2536.25 275.727 Q2532.92 275.727 2531 277.51 Q2529.1 279.292 2529.1 282.417 Q2529.1 285.542 2531 287.324 Q2532.92 289.107 2536.25 289.107 Q2539.59 289.107 2541.51 287.324 Q2543.43 285.519 2543.43 282.417 Q2543.43 279.292 2541.51 277.51 Q2539.61 275.727 2536.25 275.727 M2531.58 273.736 Q2528.57 272.996 2526.88 270.935 Q2525.21 268.875 2525.21 265.912 Q2525.21 261.769 2528.15 259.361 Q2531.12 256.954 2536.25 256.954 Q2541.42 256.954 2544.36 259.361 Q2547.3 261.769 2547.3 265.912 Q2547.3 268.875 2545.61 270.935 Q2543.94 272.996 2540.95 273.736 Q2544.33 274.523 2546.21 276.815 Q2548.11 279.107 2548.11 282.417 Q2548.11 287.44 2545.03 290.125 Q2541.97 292.81 2536.25 292.81 Q2530.54 292.81 2527.46 290.125 Q2524.4 287.44 2524.4 282.417 Q2524.4 279.107 2526.3 276.815 Q2528.2 274.523 2531.58 273.736 M2529.87 266.352 Q2529.87 269.037 2531.53 270.542 Q2533.22 272.047 2536.25 272.047 Q2539.26 272.047 2540.95 270.542 Q2542.67 269.037 2542.67 266.352 Q2542.67 263.667 2540.95 262.162 Q2539.26 260.658 2536.25 260.658 Q2533.22 260.658 2531.53 262.162 Q2529.87 263.667 2529.87 266.352 Z" fill="#000000" fill-rule="nonzero" fill-opacity="1"></path><path clip-path="url(#clip950)" d="M2350.01 908.919 L2367.86 908.919 L2367.86 900.834 Q2367.86 896.347 2365.54 893.896 Q2363.22 891.445 2358.92 891.445 Q2354.65 891.445 2352.33 893.896 Q2350.01 896.347 2350.01 900.834 L2350.01 908.919 M2344.72 915.348 L2344.72 900.834 Q2344.72 892.845 2348.35 888.771 Q2351.95 884.666 2358.92 884.666 Q2365.95 884.666 2369.55 888.771 Q2373.15 892.845 2373.15 900.834 L2373.15 908.919 L2392.24 908.919 L2392.24 915.348 L2344.72 915.348 Z" fill="#000000" fill-rule="nonzero" fill-opacity="1"></path><path clip-path="url(#clip950)" d="M2362.07 856.784 Q2361.5 857.77 2361.24 858.948 Q2360.96 860.094 2360.96 861.494 Q2360.96 866.46 2364.2 869.133 Q2367.42 871.775 2373.47 871.775 L2392.24 871.775 L2392.24 877.663 L2356.6 877.663 L2356.6 871.775 L2362.13 871.775 Q2358.89 869.929 2357.33 866.969 Q2355.74 864.009 2355.74 859.776 Q2355.74 859.171 2355.83 858.439 Q2355.9 857.707 2356.06 856.816 L2362.07 856.784 Z" fill="#000000" fill-rule="nonzero" fill-opacity="1"></path><path clip-path="url(#clip950)" d="M2360.7 838.26 Q2360.7 842.97 2364.39 845.707 Q2368.05 848.445 2374.45 848.445 Q2380.85 848.445 2384.54 845.739 Q2388.2 843.002 2388.2 838.26 Q2388.2 833.581 2384.51 830.843 Q2380.82 828.106 2374.45 828.106 Q2368.12 828.106 2364.43 830.843 Q2360.7 833.581 2360.7 838.26 M2355.74 838.26 Q2355.74 830.621 2360.7 826.26 Q2365.67 821.9 2374.45 821.9 Q2383.2 821.9 2388.2 826.26 Q2393.17 830.621 2393.17 838.26 Q2393.17 845.93 2388.2 850.291 Q2383.2 854.619 2374.45 854.619 Q2365.67 854.619 2360.7 850.291 Q2355.74 845.93 2355.74 838.26 Z" fill="#000000" fill-rule="nonzero" fill-opacity="1"></path><path clip-path="url(#clip950)" d="M2374.45 786.602 Q2367.99 786.602 2364.33 789.275 Q2360.64 791.917 2360.64 796.564 Q2360.64 801.211 2364.33 803.885 Q2367.99 806.526 2374.45 806.526 Q2380.91 806.526 2384.61 803.885 Q2388.27 801.211 2388.27 796.564 Q2388.27 791.917 2384.61 789.275 Q2380.91 786.602 2374.45 786.602 M2362.01 806.526 Q2358.82 804.68 2357.3 801.88 Q2355.74 799.047 2355.74 795.132 Q2355.74 788.639 2360.89 784.597 Q2366.05 780.523 2374.45 780.523 Q2382.85 780.523 2388.01 784.597 Q2393.17 788.639 2393.17 795.132 Q2393.17 799.047 2391.64 801.88 Q2390.08 804.68 2386.9 806.526 L2392.24 806.526 L2392.24 812.415 L2342.72 812.415 L2342.72 806.526 L2362.01 806.526 Z" fill="#000000" fill-rule="nonzero" fill-opacity="1"></path><path clip-path="url(#clip950)" d="M2374.32 754.614 Q2374.32 761.712 2375.95 764.449 Q2377.57 767.186 2381.49 767.186 Q2384.61 767.186 2386.45 765.149 Q2388.27 763.081 2388.27 759.548 Q2388.27 754.678 2384.83 751.75 Q2381.36 748.79 2375.63 748.79 L2374.32 748.79 L2374.32 754.614 M2371.91 742.933 L2392.24 742.933 L2392.24 748.79 L2386.83 748.79 Q2390.08 750.795 2391.64 753.787 Q2393.17 756.778 2393.17 761.107 Q2393.17 766.582 2390.11 769.828 Q2387.02 773.043 2381.87 773.043 Q2375.85 773.043 2372.8 769.032 Q2369.74 764.99 2369.74 757.001 L2369.74 748.79 L2369.17 748.79 Q2365.13 748.79 2362.93 751.463 Q2360.7 754.105 2360.7 758.911 Q2360.7 761.967 2361.43 764.863 Q2362.17 767.759 2363.63 770.433 L2358.22 770.433 Q2356.98 767.218 2356.37 764.195 Q2355.74 761.171 2355.74 758.306 Q2355.74 750.572 2359.75 746.752 Q2363.76 742.933 2371.91 742.933 Z" fill="#000000" fill-rule="nonzero" fill-opacity="1"></path><path clip-path="url(#clip950)" d="M2374.45 705.28 Q2367.99 705.28 2364.33 707.954 Q2360.64 710.595 2360.64 715.242 Q2360.64 719.889 2364.33 722.563 Q2367.99 725.205 2374.45 725.205 Q2380.91 725.205 2384.61 722.563 Q2388.27 719.889 2388.27 715.242 Q2388.27 710.595 2384.61 707.954 Q2380.91 705.28 2374.45 705.28 M2362.01 725.205 Q2358.82 723.359 2357.3 720.558 Q2355.74 717.725 2355.74 713.81 Q2355.74 707.317 2360.89 703.275 Q2366.05 699.201 2374.45 699.201 Q2382.85 699.201 2388.01 703.275 Q2393.17 707.317 2393.17 713.81 Q2393.17 717.725 2391.64 720.558 Q2390.08 723.359 2386.9 725.205 L2392.24 725.205 L2392.24 731.093 L2342.72 731.093 L2342.72 725.205 L2362.01 725.205 Z" fill="#000000" fill-rule="nonzero" fill-opacity="1"></path><path clip-path="url(#clip950)" d="M2356.6 689.493 L2356.6 683.637 L2392.24 683.637 L2392.24 689.493 L2356.6 689.493 M2342.72 689.493 L2342.72 683.637 L2350.14 683.637 L2350.14 689.493 L2342.72 689.493 Z" fill="#000000" fill-rule="nonzero" fill-opacity="1"></path><path clip-path="url(#clip950)" d="M2342.72 671.383 L2342.72 665.526 L2392.24 665.526 L2392.24 671.383 L2342.72 671.383 Z" fill="#000000" fill-rule="nonzero" fill-opacity="1"></path><path clip-path="url(#clip950)" d="M2356.6 653.272 L2356.6 647.416 L2392.24 647.416 L2392.24 653.272 L2356.6 653.272 M2342.72 653.272 L2342.72 647.416 L2350.14 647.416 L2350.14 653.272 L2342.72 653.272 Z" fill="#000000" fill-rule="nonzero" fill-opacity="1"></path><path clip-path="url(#clip950)" d="M2346.47 629.369 L2356.6 629.369 L2356.6 617.306 L2361.15 617.306 L2361.15 629.369 L2380.5 629.369 Q2384.86 629.369 2386.1 628.191 Q2387.34 626.982 2387.34 623.321 L2387.34 617.306 L2392.24 617.306 L2392.24 623.321 Q2392.24 630.101 2389.73 632.679 Q2387.18 635.257 2380.5 635.257 L2361.15 635.257 L2361.15 639.554 L2356.6 639.554 L2356.6 635.257 L2346.47 635.257 L2346.47 629.369 Z" fill="#000000" fill-rule="nonzero" fill-opacity="1"></path><path clip-path="url(#clip950)" d="M2395.55 594.771 Q2401.92 597.254 2403.86 599.609 Q2405.8 601.964 2405.8 605.911 L2405.8 610.59 L2400.9 610.59 L2400.9 607.153 Q2400.9 604.734 2399.76 603.397 Q2398.61 602.06 2394.34 600.437 L2391.67 599.386 L2356.6 613.805 L2356.6 607.598 L2384.48 596.458 L2356.6 585.318 L2356.6 579.112 L2395.55 594.771 Z" fill="#000000" fill-rule="nonzero" fill-opacity="1"></path><path clip-path="url(#clip950)" d="M3104.9 12.096 L3117.1 12.096 L3132.53 53.2532 L3148.05 12.096 L3160.24 12.096 L3160.24 72.576 L3152.26 72.576 L3152.26 19.4686 L3136.66 60.9499 L3128.44 60.9499 L3112.84 19.4686 L3112.84 72.576 L3104.9 72.576 L3104.9 12.096 Z" fill="#000000" fill-rule="nonzero" fill-opacity="1"></path><path clip-path="url(#clip950)" d="M3193.74 32.4315 Q3187.74 32.4315 3184.26 37.1306 Q3180.78 41.7891 3180.78 49.9314 Q3180.78 58.0738 3184.22 62.7728 Q3187.7 67.4314 3193.74 67.4314 Q3199.69 67.4314 3203.18 62.7323 Q3206.66 58.0333 3206.66 49.9314 Q3206.66 41.8701 3203.18 37.1711 Q3199.69 32.4315 3193.74 32.4315 M3193.74 26.1121 Q3203.46 26.1121 3209.01 32.4315 Q3214.56 38.7509 3214.56 49.9314 Q3214.56 61.0714 3209.01 67.4314 Q3203.46 73.7508 3193.74 73.7508 Q3183.98 73.7508 3178.43 67.4314 Q3172.92 61.0714 3172.92 49.9314 Q3172.92 38.7509 3178.43 32.4315 Q3183.98 26.1121 3193.74 26.1121 Z" fill="#000000" fill-rule="nonzero" fill-opacity="1"></path><path clip-path="url(#clip950)" d="M3256.77 34.0924 L3256.77 9.54393 L3264.23 9.54393 L3264.23 72.576 L3256.77 72.576 L3256.77 65.7705 Q3254.42 69.8214 3250.82 71.8063 Q3247.25 73.7508 3242.23 73.7508 Q3234.01 73.7508 3228.82 67.1883 Q3223.68 60.6258 3223.68 49.9314 Q3223.68 39.2371 3228.82 32.6746 Q3234.01 26.1121 3242.23 26.1121 Q3247.25 26.1121 3250.82 28.0971 Q3254.42 30.0415 3256.77 34.0924 M3231.37 49.9314 Q3231.37 58.1548 3234.74 62.8538 Q3238.14 67.5124 3244.05 67.5124 Q3249.97 67.5124 3253.37 62.8538 Q3256.77 58.1548 3256.77 49.9314 Q3256.77 41.7081 3253.37 37.0496 Q3249.97 32.3505 3244.05 32.3505 Q3238.14 32.3505 3234.74 37.0496 Q3231.37 41.7081 3231.37 49.9314 Z" fill="#000000" fill-rule="nonzero" fill-opacity="1"></path><path clip-path="url(#clip950)" d="M3318.39 48.0275 L3318.39 51.6733 L3284.12 51.6733 Q3284.6 59.3701 3288.73 63.421 Q3292.91 67.4314 3300.32 67.4314 Q3304.61 67.4314 3308.62 66.3781 Q3312.67 65.3249 3316.64 63.2184 L3316.64 70.267 Q3312.63 71.9684 3308.42 72.8596 Q3304.21 73.7508 3299.87 73.7508 Q3289.02 73.7508 3282.66 67.4314 Q3276.34 61.1119 3276.34 50.3365 Q3276.34 39.1965 3282.33 32.6746 Q3288.37 26.1121 3298.58 26.1121 Q3307.73 26.1121 3313.04 32.0264 Q3318.39 37.9003 3318.39 48.0275 M3310.93 45.84 Q3310.85 39.7232 3307.49 36.0774 Q3304.17 32.4315 3298.66 32.4315 Q3292.42 32.4315 3288.65 35.9558 Q3284.93 39.4801 3284.36 45.8805 L3310.93 45.84 Z" fill="#000000" fill-rule="nonzero" fill-opacity="1"></path><path clip-path="url(#clip950)" d="M3330.62 9.54393 L3338.07 9.54393 L3338.07 72.576 L3330.62 72.576 L3330.62 9.54393 Z" fill="#000000" fill-rule="nonzero" fill-opacity="1"></path><path clip-path="url(#clip950)" d="M3388.55 18.8205 L3388.55 41.5461 L3398.84 41.5461 Q3404.55 41.5461 3407.67 38.5889 Q3410.79 35.6318 3410.79 30.163 Q3410.79 24.7348 3407.67 21.7777 Q3404.55 18.8205 3398.84 18.8205 L3388.55 18.8205 M3380.37 12.096 L3398.84 12.096 Q3409 12.096 3414.19 16.714 Q3419.42 21.2916 3419.42 30.163 Q3419.42 39.1155 3414.19 43.6931 Q3409 48.2706 3398.84 48.2706 L3388.55 48.2706 L3388.55 72.576 L3380.37 72.576 L3380.37 12.096 Z" fill="#000000" fill-rule="nonzero" fill-opacity="1"></path><path clip-path="url(#clip950)" d="M3444.69 32.4315 Q3438.7 32.4315 3435.21 37.1306 Q3431.73 41.7891 3431.73 49.9314 Q3431.73 58.0738 3435.17 62.7728 Q3438.66 67.4314 3444.69 67.4314 Q3450.65 67.4314 3454.13 62.7323 Q3457.62 58.0333 3457.62 49.9314 Q3457.62 41.8701 3454.13 37.1711 Q3450.65 32.4315 3444.69 32.4315 M3444.69 26.1121 Q3454.42 26.1121 3459.97 32.4315 Q3465.52 38.7509 3465.52 49.9314 Q3465.52 61.0714 3459.97 67.4314 Q3454.42 73.7508 3444.69 73.7508 Q3434.93 73.7508 3429.38 67.4314 Q3423.87 61.0714 3423.87 49.9314 Q3423.87 38.7509 3429.38 32.4315 Q3434.93 26.1121 3444.69 26.1121 Z" fill="#000000" fill-rule="nonzero" fill-opacity="1"></path><path clip-path="url(#clip950)" d="M3506.79 28.5427 L3506.79 35.5912 Q3503.63 33.9709 3500.23 33.1607 Q3496.83 32.3505 3493.18 32.3505 Q3487.63 32.3505 3484.84 34.0519 Q3482.08 35.7533 3482.08 39.156 Q3482.08 41.7486 3484.07 43.2475 Q3486.05 44.7058 3492.05 46.0426 L3494.6 46.6097 Q3502.54 48.3111 3505.86 51.4303 Q3509.22 54.509 3509.22 60.0587 Q3509.22 66.3781 3504.2 70.0644 Q3499.22 73.7508 3490.47 73.7508 Q3486.82 73.7508 3482.85 73.0216 Q3478.92 72.3329 3474.55 70.9151 L3474.55 63.2184 Q3478.68 65.3654 3482.69 66.4591 Q3486.7 67.5124 3490.63 67.5124 Q3495.9 67.5124 3498.73 65.73 Q3501.57 63.9071 3501.57 60.6258 Q3501.57 57.5877 3499.5 55.9673 Q3497.48 54.3469 3490.55 52.8481 L3487.96 52.2405 Q3481.03 50.7821 3477.95 47.7845 Q3474.87 44.7463 3474.87 39.4801 Q3474.87 33.0797 3479.41 29.5959 Q3483.95 26.1121 3492.29 26.1121 Q3496.42 26.1121 3500.07 26.7198 Q3503.72 27.3274 3506.79 28.5427 Z" fill="#000000" fill-rule="nonzero" fill-opacity="1"></path><path clip-path="url(#clip950)" d="M3528.47 14.324 L3528.47 27.2059 L3543.82 27.2059 L3543.82 32.9987 L3528.47 32.9987 L3528.47 57.6282 Q3528.47 63.1779 3529.96 64.7578 Q3531.5 66.3376 3536.16 66.3376 L3543.82 66.3376 L3543.82 72.576 L3536.16 72.576 Q3527.53 72.576 3524.25 69.3758 Q3520.97 66.1351 3520.97 57.6282 L3520.97 32.9987 L3515.5 32.9987 L3515.5 27.2059 L3520.97 27.2059 L3520.97 14.324 L3528.47 14.324 Z" fill="#000000" fill-rule="nonzero" fill-opacity="1"></path><path clip-path="url(#clip950)" d="M3592.43 48.0275 L3592.43 51.6733 L3558.16 51.6733 Q3558.65 59.3701 3562.78 63.421 Q3566.95 67.4314 3574.36 67.4314 Q3578.66 67.4314 3582.67 66.3781 Q3586.72 65.3249 3590.69 63.2184 L3590.69 70.267 Q3586.68 71.9684 3582.46 72.8596 Q3578.25 73.7508 3573.92 73.7508 Q3563.06 73.7508 3556.7 67.4314 Q3550.38 61.1119 3550.38 50.3365 Q3550.38 39.1965 3556.38 32.6746 Q3562.41 26.1121 3572.62 26.1121 Q3581.78 26.1121 3587.08 32.0264 Q3592.43 37.9003 3592.43 48.0275 M3584.98 45.84 Q3584.9 39.7232 3581.53 36.0774 Q3578.21 32.4315 3572.7 32.4315 Q3566.46 32.4315 3562.7 35.9558 Q3558.97 39.4801 3558.4 45.8805 L3584.98 45.84 Z" fill="#000000" fill-rule="nonzero" fill-opacity="1"></path><path clip-path="url(#clip950)" d="M3630.95 34.1734 Q3629.7 33.4443 3628.2 33.1202 Q3626.74 32.7556 3624.96 32.7556 Q3618.64 32.7556 3615.24 36.8875 Q3611.87 40.9789 3611.87 48.6757 L3611.87 72.576 L3604.38 72.576 L3604.38 27.2059 L3611.87 27.2059 L3611.87 34.2544 Q3614.22 30.1225 3617.99 28.1376 Q3621.76 26.1121 3627.15 26.1121 Q3627.92 26.1121 3628.85 26.2337 Q3629.78 26.3147 3630.91 26.5172 L3630.95 34.1734 Z" fill="#000000" fill-rule="nonzero" fill-opacity="1"></path><path clip-path="url(#clip950)" d="M3638.77 27.2059 L3646.23 27.2059 L3646.23 72.576 L3638.77 72.576 L3638.77 27.2059 M3638.77 9.54393 L3646.23 9.54393 L3646.23 18.9825 L3638.77 18.9825 L3638.77 9.54393 Z" fill="#000000" fill-rule="nonzero" fill-opacity="1"></path><path clip-path="url(#clip950)" d="M3679.4 32.4315 Q3673.41 32.4315 3669.92 37.1306 Q3666.44 41.7891 3666.44 49.9314 Q3666.44 58.0738 3669.88 62.7728 Q3673.37 67.4314 3679.4 67.4314 Q3685.36 67.4314 3688.84 62.7323 Q3692.33 58.0333 3692.33 49.9314 Q3692.33 41.8701 3688.84 37.1711 Q3685.36 32.4315 3679.4 32.4315 M3679.4 26.1121 Q3689.12 26.1121 3694.67 32.4315 Q3700.22 38.7509 3700.22 49.9314 Q3700.22 61.0714 3694.67 67.4314 Q3689.12 73.7508 3679.4 73.7508 Q3669.64 73.7508 3664.09 67.4314 Q3658.58 61.0714 3658.58 49.9314 Q3658.58 38.7509 3664.09 32.4315 Q3669.64 26.1121 3679.4 26.1121 Z" fill="#000000" fill-rule="nonzero" fill-opacity="1"></path><path clip-path="url(#clip950)" d="M3738.87 34.1734 Q3737.61 33.4443 3736.12 33.1202 Q3734.66 32.7556 3732.87 32.7556 Q3726.56 32.7556 3723.15 36.8875 Q3719.79 40.9789 3719.79 48.6757 L3719.79 72.576 L3712.3 72.576 L3712.3 27.2059 L3719.79 27.2059 L3719.79 34.2544 Q3722.14 30.1225 3725.91 28.1376 Q3729.67 26.1121 3735.06 26.1121 Q3735.83 26.1121 3736.76 26.2337 Q3737.7 26.3147 3738.83 26.5172 L3738.87 34.1734 Z" fill="#000000" fill-rule="nonzero" fill-opacity="1"></path><path clip-path="url(#clip950)" d="M3781.57 18.8205 L3781.57 41.5461 L3791.86 41.5461 Q3797.57 41.5461 3800.69 38.5889 Q3803.81 35.6318 3803.81 30.163 Q3803.81 24.7348 3800.69 21.7777 Q3797.57 18.8205 3791.86 18.8205 L3781.57 18.8205 M3773.38 12.096 L3791.86 12.096 Q3802.02 12.096 3807.21 16.714 Q3812.43 21.2916 3812.43 30.163 Q3812.43 39.1155 3807.21 43.6931 Q3802.02 48.2706 3791.86 48.2706 L3781.57 48.2706 L3781.57 72.576 L3773.38 72.576 L3773.38 12.096 Z" fill="#000000" fill-rule="nonzero" fill-opacity="1"></path><path clip-path="url(#clip950)" d="M3847.92 34.1734 Q3846.66 33.4443 3845.17 33.1202 Q3843.71 32.7556 3841.93 32.7556 Q3835.61 32.7556 3832.2 36.8875 Q3828.84 40.9789 3828.84 48.6757 L3828.84 72.576 L3821.35 72.576 L3821.35 27.2059 L3828.84 27.2059 L3828.84 34.2544 Q3831.19 30.1225 3834.96 28.1376 Q3838.72 26.1121 3844.11 26.1121 Q3844.88 26.1121 3845.81 26.2337 Q3846.75 26.3147 3847.88 26.5172 L3847.92 34.1734 Z" fill="#000000" fill-rule="nonzero" fill-opacity="1"></path><path clip-path="url(#clip950)" d="M3871.5 32.4315 Q3865.5 32.4315 3862.02 37.1306 Q3858.53 41.7891 3858.53 49.9314 Q3858.53 58.0738 3861.98 62.7728 Q3865.46 67.4314 3871.5 67.4314 Q3877.45 67.4314 3880.94 62.7323 Q3884.42 58.0333 3884.42 49.9314 Q3884.42 41.8701 3880.94 37.1711 Q3877.45 32.4315 3871.5 32.4315 M3871.5 26.1121 Q3881.22 26.1121 3886.77 32.4315 Q3892.32 38.7509 3892.32 49.9314 Q3892.32 61.0714 3886.77 67.4314 Q3881.22 73.7508 3871.5 73.7508 Q3861.73 73.7508 3856.18 67.4314 Q3850.67 61.0714 3850.67 49.9314 Q3850.67 38.7509 3856.18 32.4315 Q3861.73 26.1121 3871.5 26.1121 Z" fill="#000000" fill-rule="nonzero" fill-opacity="1"></path><path clip-path="url(#clip950)" d="M3937.24 49.9314 Q3937.24 41.7081 3933.84 37.0496 Q3930.48 32.3505 3924.56 32.3505 Q3918.65 32.3505 3915.25 37.0496 Q3911.88 41.7081 3911.88 49.9314 Q3911.88 58.1548 3915.25 62.8538 Q3918.65 67.5124 3924.56 67.5124 Q3930.48 67.5124 3933.84 62.8538 Q3937.24 58.1548 3937.24 49.9314 M3911.88 34.0924 Q3914.23 30.0415 3917.8 28.0971 Q3921.4 26.1121 3926.39 26.1121 Q3934.65 26.1121 3939.79 32.6746 Q3944.98 39.2371 3944.98 49.9314 Q3944.98 60.6258 3939.79 67.1883 Q3934.65 73.7508 3926.39 73.7508 Q3921.4 73.7508 3917.8 71.8063 Q3914.23 69.8214 3911.88 65.7705 L3911.88 72.576 L3904.39 72.576 L3904.39 9.54393 L3911.88 9.54393 L3911.88 34.0924 Z" fill="#000000" fill-rule="nonzero" fill-opacity="1"></path><path clip-path="url(#clip950)" d="M3977.95 49.7694 Q3968.92 49.7694 3965.44 51.8354 Q3961.95 53.9013 3961.95 58.8839 Q3961.95 62.8538 3964.55 65.2034 Q3967.18 67.5124 3971.68 67.5124 Q3977.87 67.5124 3981.6 63.1374 Q3985.37 58.7219 3985.37 51.4303 L3985.37 49.7694 L3977.95 49.7694 M3992.82 46.6907 L3992.82 72.576 L3985.37 72.576 L3985.37 65.6895 Q3982.82 69.8214 3979.01 71.8063 Q3975.2 73.7508 3969.69 73.7508 Q3962.72 73.7508 3958.59 69.8619 Q3954.5 65.9325 3954.5 59.3701 Q3954.5 51.7138 3959.6 47.825 Q3964.75 43.9361 3974.92 43.9361 L3985.37 43.9361 L3985.37 43.2069 Q3985.37 38.0623 3981.96 35.2672 Q3978.6 32.4315 3972.49 32.4315 Q3968.6 32.4315 3964.91 33.3632 Q3961.22 34.295 3957.82 36.1584 L3957.82 29.2718 Q3961.91 27.692 3965.76 26.9223 Q3969.61 26.1121 3973.26 26.1121 Q3983.1 26.1121 3987.96 31.2163 Q3992.82 36.3204 3992.82 46.6907 Z" fill="#000000" fill-rule="nonzero" fill-opacity="1"></path><path clip-path="url(#clip950)" d="M4040.74 49.9314 Q4040.74 41.7081 4037.34 37.0496 Q4033.98 32.3505 4028.06 32.3505 Q4022.15 32.3505 4018.75 37.0496 Q4015.38 41.7081 4015.38 49.9314 Q4015.38 58.1548 4018.75 62.8538 Q4022.15 67.5124 4028.06 67.5124 Q4033.98 67.5124 4037.34 62.8538 Q4040.74 58.1548 4040.74 49.9314 M4015.38 34.0924 Q4017.73 30.0415 4021.3 28.0971 Q4024.9 26.1121 4029.89 26.1121 Q4038.15 26.1121 4043.3 32.6746 Q4048.48 39.2371 4048.48 49.9314 Q4048.48 60.6258 4043.3 67.1883 Q4038.15 73.7508 4029.89 73.7508 Q4024.9 73.7508 4021.3 71.8063 Q4017.73 69.8214 4015.38 65.7705 L4015.38 72.576 L4007.89 72.576 L4007.89 9.54393 L4015.38 9.54393 L4015.38 34.0924 Z" fill="#000000" fill-rule="nonzero" fill-opacity="1"></path><path clip-path="url(#clip950)" d="M4060.84 27.2059 L4068.29 27.2059 L4068.29 72.576 L4060.84 72.576 L4060.84 27.2059 M4060.84 9.54393 L4068.29 9.54393 L4068.29 18.9825 L4060.84 18.9825 L4060.84 9.54393 Z" fill="#000000" fill-rule="nonzero" fill-opacity="1"></path><path clip-path="url(#clip950)" d="M4083.89 9.54393 L4091.34 9.54393 L4091.34 72.576 L4083.89 72.576 L4083.89 9.54393 Z" fill="#000000" fill-rule="nonzero" fill-opacity="1"></path><path clip-path="url(#clip950)" d="M4106.94 27.2059 L4114.39 27.2059 L4114.39 72.576 L4106.94 72.576 L4106.94 27.2059 M4106.94 9.54393 L4114.39 9.54393 L4114.39 18.9825 L4106.94 18.9825 L4106.94 9.54393 Z" fill="#000000" fill-rule="nonzero" fill-opacity="1"></path><path clip-path="url(#clip950)" d="M4137.36 14.324 L4137.36 27.2059 L4152.71 27.2059 L4152.71 32.9987 L4137.36 32.9987 L4137.36 57.6282 Q4137.36 63.1779 4138.86 64.7578 Q4140.4 66.3376 4145.05 66.3376 L4152.71 66.3376 L4152.71 72.576 L4145.05 72.576 Q4136.43 72.576 4133.14 69.3758 Q4129.86 66.1351 4129.86 57.6282 L4129.86 32.9987 L4124.39 32.9987 L4124.39 27.2059 L4129.86 27.2059 L4129.86 14.324 L4137.36 14.324 Z" fill="#000000" fill-rule="nonzero" fill-opacity="1"></path><path clip-path="url(#clip950)" d="M4162.51 27.2059 L4169.97 27.2059 L4169.97 72.576 L4162.51 72.576 L4162.51 27.2059 M4162.51 9.54393 L4169.97 9.54393 L4169.97 18.9825 L4162.51 18.9825 L4162.51 9.54393 Z" fill="#000000" fill-rule="nonzero" fill-opacity="1"></path><path clip-path="url(#clip950)" d="M4224.37 48.0275 L4224.37 51.6733 L4190.1 51.6733 Q4190.59 59.3701 4194.72 63.421 Q4198.89 67.4314 4206.3 67.4314 Q4210.6 67.4314 4214.61 66.3781 Q4218.66 65.3249 4222.63 63.2184 L4222.63 70.267 Q4218.62 71.9684 4214.41 72.8596 Q4210.19 73.7508 4205.86 73.7508 Q4195 73.7508 4188.64 67.4314 Q4182.32 61.1119 4182.32 50.3365 Q4182.32 39.1965 4188.32 32.6746 Q4194.35 26.1121 4204.56 26.1121 Q4213.72 26.1121 4219.02 32.0264 Q4224.37 37.9003 4224.37 48.0275 M4216.92 45.84 Q4216.84 39.7232 4213.47 36.0774 Q4210.15 32.4315 4204.64 32.4315 Q4198.4 32.4315 4194.64 35.9558 Q4190.91 39.4801 4190.34 45.8805 L4216.92 45.84 Z" fill="#000000" fill-rule="nonzero" fill-opacity="1"></path><path clip-path="url(#clip950)" d="M4265.53 28.5427 L4265.53 35.5912 Q4262.37 33.9709 4258.97 33.1607 Q4255.56 32.3505 4251.92 32.3505 Q4246.37 32.3505 4243.57 34.0519 Q4240.82 35.7533 4240.82 39.156 Q4240.82 41.7486 4242.8 43.2475 Q4244.79 44.7058 4250.78 46.0426 L4253.33 46.6097 Q4261.27 48.3111 4264.6 51.4303 Q4267.96 54.509 4267.96 60.0587 Q4267.96 66.3781 4262.94 70.0644 Q4257.95 73.7508 4249.2 73.7508 Q4245.56 73.7508 4241.59 73.0216 Q4237.66 72.3329 4233.28 70.9151 L4233.28 63.2184 Q4237.41 65.3654 4241.43 66.4591 Q4245.44 67.5124 4249.36 67.5124 Q4254.63 67.5124 4257.47 65.73 Q4260.3 63.9071 4260.3 60.6258 Q4260.3 57.5877 4258.24 55.9673 Q4256.21 54.3469 4249.28 52.8481 L4246.69 52.2405 Q4239.76 50.7821 4236.69 47.7845 Q4233.61 44.7463 4233.61 39.4801 Q4233.61 33.0797 4238.14 29.5959 Q4242.68 26.1121 4251.03 26.1121 Q4255.16 26.1121 4258.8 26.7198 Q4262.45 27.3274 4265.53 28.5427 Z" fill="#000000" fill-rule="nonzero" fill-opacity="1"></path><path clip-path="url(#clip953)" d="M2737.41 1349.13 L2737.41 1401.23 L3279.71 1401.23 L3279.71 1349.13 L2737.41 1349.13 L2737.41 1349.13  Z" fill="#009af9" fill-rule="evenodd" fill-opacity="1"></path>
<polyline clip-path="url(#clip953)" style="stroke:#000000; stroke-linecap:round; stroke-linejoin:round; stroke-width:4; stroke-opacity:1; fill:none" points="2737.41,1349.13 2737.41,1401.23 3279.71,1401.23 3279.71,1349.13 2737.41,1349.13 "></polyline>
<path clip-path="url(#clip953)" d="M3415.28 93.2321 L3415.28 1401.23 L3957.58 1401.23 L3957.58 93.2321 L3415.28 93.2321 L3415.28 93.2321  Z" fill="#009af9" fill-rule="evenodd" fill-opacity="1"></path>
<polyline clip-path="url(#clip953)" style="stroke:#000000; stroke-linecap:round; stroke-linejoin:round; stroke-width:4; stroke-opacity:1; fill:none" points="3415.28,93.2321 3415.28,1401.23 3957.58,1401.23 3957.58,93.2321 3415.28,93.2321 "></polyline>
<path clip-path="url(#clip953)" d="M4093.16 1353.36 L4093.16 1401.23 L4635.46 1401.23 L4635.46 1353.36 L4093.16 1353.36 L4093.16 1353.36  Z" fill="#009af9" fill-rule="evenodd" fill-opacity="1"></path>
<polyline clip-path="url(#clip953)" style="stroke:#000000; stroke-linecap:round; stroke-linejoin:round; stroke-width:4; stroke-opacity:1; fill:none" points="4093.16,1353.36 4093.16,1401.23 4635.46,1401.23 4635.46,1353.36 4093.16,1353.36 "></polyline>
<circle clip-path="url(#clip953)" style="fill:#009af9; stroke:none; fill-opacity:0" cx="3008.56" cy="1349.13" r="2"></circle>
<circle clip-path="url(#clip953)" style="fill:#009af9; stroke:none; fill-opacity:0" cx="3686.43" cy="93.2321" r="2"></circle>
<circle clip-path="url(#clip953)" style="fill:#009af9; stroke:none; fill-opacity:0" cx="4364.31" cy="1353.36" r="2"></circle>
</svg>