<svg xmlns="http://www.w3.org/2000/svg" xmlns:xlink="http://www.w3.org/1999/xlink" width="600" height="400" viewBox="0 0 2400 1600">
<defs>
  <clipPath id="clip670">
    <rect x="0" y="0" width="2400" height="1600"></rect>
  </clipPath>
</defs>
<path clip-path="url(#clip670)" d="M0 1600 L2400 1600 L2400 0 L0 0  Z" fill="#ffffff" fill-rule="evenodd" fill-opacity="1"></path>
<defs>
  <clipPath id="clip671">
    <rect x="480" y="0" width="1681" height="1600"></rect>
  </clipPath>
</defs>
<path clip-path="url(#clip670)" d="M156.02 1486.45 L2352.76 1486.45 L2352.76 123.472 L156.02 123.472  Z" fill="#ffffff" fill-rule="evenodd" fill-opacity="1"></path>
<defs>
  <clipPath id="clip672">
    <rect x="156" y="123" width="2198" height="1364"></rect>
  </clipPath>
</defs>
<polyline clip-path="url(#clip672)" style="stroke:#000000; stroke-linecap:round; stroke-linejoin:round; stroke-width:2; stroke-opacity:0.1; fill:none" points="216.117,1486.45 216.117,123.472 "></polyline>
<polyline clip-path="url(#clip672)" style="stroke:#000000; stroke-linecap:round; stroke-linejoin:round; stroke-width:2; stroke-opacity:0.1; fill:none" points="734.734,1486.45 734.734,123.472 "></polyline>
<polyline clip-path="url(#clip672)" style="stroke:#000000; stroke-linecap:round; stroke-linejoin:round; stroke-width:2; stroke-opacity:0.1; fill:none" points="1253.35,1486.45 1253.35,123.472 "></polyline>
<polyline clip-path="url(#clip672)" style="stroke:#000000; stroke-linecap:round; stroke-linejoin:round; stroke-width:2; stroke-opacity:0.1; fill:none" points="1771.97,1486.45 1771.97,123.472 "></polyline>
<polyline clip-path="url(#clip672)" style="stroke:#000000; stroke-linecap:round; stroke-linejoin:round; stroke-width:2; stroke-opacity:0.1; fill:none" points="2290.58,1486.45 2290.58,123.472 "></polyline>
<polyline clip-path="url(#clip672)" style="stroke:#000000; stroke-linecap:round; stroke-linejoin:round; stroke-width:2; stroke-opacity:0.1; fill:none" points="156.02,1450.42 2352.76,1450.42 "></polyline>
<polyline clip-path="url(#clip672)" style="stroke:#000000; stroke-linecap:round; stroke-linejoin:round; stroke-width:2; stroke-opacity:0.1; fill:none" points="156.02,1224.53 2352.76,1224.53 "></polyline>
<polyline clip-path="url(#clip672)" style="stroke:#000000; stroke-linecap:round; stroke-linejoin:round; stroke-width:2; stroke-opacity:0.1; fill:none" points="156.02,998.636 2352.76,998.636 "></polyline>
<polyline clip-path="url(#clip672)" style="stroke:#000000; stroke-linecap:round; stroke-linejoin:round; stroke-width:2; stroke-opacity:0.1; fill:none" points="156.02,772.742 2352.76,772.742 "></polyline>
<polyline clip-path="url(#clip672)" style="stroke:#000000; stroke-linecap:round; stroke-linejoin:round; stroke-width:2; stroke-opacity:0.1; fill:none" points="156.02,546.847 2352.76,546.847 "></polyline>
<polyline clip-path="url(#clip672)" style="stroke:#000000; stroke-linecap:round; stroke-linejoin:round; stroke-width:2; stroke-opacity:0.1; fill:none" points="156.02,320.953 2352.76,320.953 "></polyline>
<polyline clip-path="url(#clip670)" style="stroke:#000000; stroke-linecap:round; stroke-linejoin:round; stroke-width:4; stroke-opacity:1; fill:none" points="156.02,1486.45 2352.76,1486.45 "></polyline>
<polyline clip-path="url(#clip670)" style="stroke:#000000; stroke-linecap:round; stroke-linejoin:round; stroke-width:4; stroke-opacity:1; fill:none" points="216.117,1486.45 216.117,1467.55 "></polyline>
<polyline clip-path="url(#clip670)" style="stroke:#000000; stroke-linecap:round; stroke-linejoin:round; stroke-width:4; stroke-opacity:1; fill:none" points="734.734,1486.45 734.734,1467.55 "></polyline>
<polyline clip-path="url(#clip670)" style="stroke:#000000; stroke-linecap:round; stroke-linejoin:round; stroke-width:4; stroke-opacity:1; fill:none" points="1253.35,1486.45 1253.35,1467.55 "></polyline>
<polyline clip-path="url(#clip670)" style="stroke:#000000; stroke-linecap:round; stroke-linejoin:round; stroke-width:4; stroke-opacity:1; fill:none" points="1771.97,1486.45 1771.97,1467.55 "></polyline>
<polyline clip-path="url(#clip670)" style="stroke:#000000; stroke-linecap:round; stroke-linejoin:round; stroke-width:4; stroke-opacity:1; fill:none" points="2290.58,1486.45 2290.58,1467.55 "></polyline>
<path clip-path="url(#clip670)" d="M216.117 1517.37 Q212.506 1517.37 210.677 1520.93 Q208.872 1524.47 208.872 1531.6 Q208.872 1538.71 210.677 1542.27 Q212.506 1545.82 216.117 1545.82 Q219.751 1545.82 221.557 1542.27 Q223.385 1538.71 223.385 1531.6 Q223.385 1524.47 221.557 1520.93 Q219.751 1517.37 216.117 1517.37 M216.117 1513.66 Q221.927 1513.66 224.983 1518.27 Q228.061 1522.85 228.061 1531.6 Q228.061 1540.33 224.983 1544.94 Q221.927 1549.52 216.117 1549.52 Q210.307 1549.52 207.228 1544.94 Q204.172 1540.33 204.172 1531.6 Q204.172 1522.85 207.228 1518.27 Q210.307 1513.66 216.117 1513.66 Z" fill="#000000" fill-rule="nonzero" fill-opacity="1"></path><path clip-path="url(#clip670)" d="M698.426 1544.91 L714.745 1544.91 L714.745 1548.85 L692.801 1548.85 L692.801 1544.91 Q695.463 1542.16 700.046 1537.53 Q704.653 1532.88 705.833 1531.53 Q708.079 1529.01 708.958 1527.27 Q709.861 1525.51 709.861 1523.82 Q709.861 1521.07 707.917 1519.33 Q705.995 1517.6 702.894 1517.6 Q700.694 1517.6 698.241 1518.36 Q695.81 1519.13 693.033 1520.68 L693.033 1515.95 Q695.857 1514.82 698.31 1514.24 Q700.764 1513.66 702.801 1513.66 Q708.171 1513.66 711.366 1516.35 Q714.56 1519.03 714.56 1523.52 Q714.56 1525.65 713.75 1527.57 Q712.963 1529.47 710.856 1532.07 Q710.278 1532.74 707.176 1535.95 Q704.074 1539.15 698.426 1544.91 Z" fill="#000000" fill-rule="nonzero" fill-opacity="1"></path><path clip-path="url(#clip670)" d="M724.606 1514.29 L742.963 1514.29 L742.963 1518.22 L728.889 1518.22 L728.889 1526.7 Q729.907 1526.35 730.926 1526.19 Q731.944 1526 732.963 1526 Q738.75 1526 742.129 1529.17 Q745.509 1532.34 745.509 1537.76 Q745.509 1543.34 742.037 1546.44 Q738.565 1549.52 732.245 1549.52 Q730.069 1549.52 727.801 1549.15 Q725.555 1548.78 723.148 1548.04 L723.148 1543.34 Q725.231 1544.47 727.454 1545.03 Q729.676 1545.58 732.153 1545.58 Q736.157 1545.58 738.495 1543.48 Q740.833 1541.37 740.833 1537.76 Q740.833 1534.15 738.495 1532.04 Q736.157 1529.94 732.153 1529.94 Q730.278 1529.94 728.403 1530.35 Q726.551 1530.77 724.606 1531.65 L724.606 1514.29 Z" fill="#000000" fill-rule="nonzero" fill-opacity="1"></path><path clip-path="url(#clip670)" d="M764.722 1517.37 Q761.111 1517.37 759.282 1520.93 Q757.477 1524.47 757.477 1531.6 Q757.477 1538.71 759.282 1542.27 Q761.111 1545.82 764.722 1545.82 Q768.356 1545.82 770.162 1542.27 Q771.99 1538.71 771.99 1531.6 Q771.99 1524.47 770.162 1520.93 Q768.356 1517.37 764.722 1517.37 M764.722 1513.66 Q770.532 1513.66 773.588 1518.27 Q776.666 1522.85 776.666 1531.6 Q776.666 1540.33 773.588 1544.94 Q770.532 1549.52 764.722 1549.52 Q758.912 1549.52 755.833 1544.94 Q752.778 1540.33 752.778 1531.6 Q752.778 1522.85 755.833 1518.27 Q758.912 1513.66 764.722 1513.66 Z" fill="#000000" fill-rule="nonzero" fill-opacity="1"></path><path clip-path="url(#clip670)" d="M1212.97 1514.29 L1231.33 1514.29 L1231.33 1518.22 L1217.25 1518.22 L1217.25 1526.7 Q1218.27 1526.35 1219.29 1526.19 Q1220.31 1526 1221.33 1526 Q1227.11 1526 1230.49 1529.17 Q1233.87 1532.34 1233.87 1537.76 Q1233.87 1543.34 1230.4 1546.44 Q1226.93 1549.52 1220.61 1549.52 Q1218.43 1549.52 1216.16 1549.15 Q1213.92 1548.78 1211.51 1548.04 L1211.51 1543.34 Q1213.59 1544.47 1215.82 1545.03 Q1218.04 1545.58 1220.52 1545.58 Q1224.52 1545.58 1226.86 1543.48 Q1229.2 1541.37 1229.2 1537.76 Q1229.2 1534.15 1226.86 1532.04 Q1224.52 1529.94 1220.52 1529.94 Q1218.64 1529.94 1216.77 1530.35 Q1214.91 1530.77 1212.97 1531.65 L1212.97 1514.29 Z" fill="#000000" fill-rule="nonzero" fill-opacity="1"></path><path clip-path="url(#clip670)" d="M1253.08 1517.37 Q1249.47 1517.37 1247.64 1520.93 Q1245.84 1524.47 1245.84 1531.6 Q1245.84 1538.71 1247.64 1542.27 Q1249.47 1545.82 1253.08 1545.82 Q1256.72 1545.82 1258.52 1542.27 Q1260.35 1538.71 1260.35 1531.6 Q1260.35 1524.47 1258.52 1520.93 Q1256.72 1517.37 1253.08 1517.37 M1253.08 1513.66 Q1258.89 1513.66 1261.95 1518.27 Q1265.03 1522.85 1265.03 1531.6 Q1265.03 1540.33 1261.95 1544.94 Q1258.89 1549.52 1253.08 1549.52 Q1247.27 1549.52 1244.2 1544.94 Q1241.14 1540.33 1241.14 1531.6 Q1241.14 1522.85 1244.2 1518.27 Q1247.27 1513.66 1253.08 1513.66 Z" fill="#000000" fill-rule="nonzero" fill-opacity="1"></path><path clip-path="url(#clip670)" d="M1283.25 1517.37 Q1279.64 1517.37 1277.81 1520.93 Q1276 1524.47 1276 1531.6 Q1276 1538.71 1277.81 1542.27 Q1279.64 1545.82 1283.25 1545.82 Q1286.88 1545.82 1288.69 1542.27 Q1290.51 1538.71 1290.51 1531.6 Q1290.51 1524.47 1288.69 1520.93 Q1286.88 1517.37 1283.25 1517.37 M1283.25 1513.66 Q1289.06 1513.66 1292.11 1518.27 Q1295.19 1522.85 1295.19 1531.6 Q1295.19 1540.33 1292.11 1544.94 Q1289.06 1549.52 1283.25 1549.52 Q1277.44 1549.52 1274.36 1544.94 Q1271.3 1540.33 1271.3 1531.6 Q1271.3 1522.85 1274.36 1518.27 Q1277.44 1513.66 1283.25 1513.66 Z" fill="#000000" fill-rule="nonzero" fill-opacity="1"></path><path clip-path="url(#clip670)" d="M1730.24 1514.29 L1752.47 1514.29 L1752.47 1516.28 L1739.92 1548.85 L1735.03 1548.85 L1746.84 1518.22 L1730.24 1518.22 L1730.24 1514.29 Z" fill="#000000" fill-rule="nonzero" fill-opacity="1"></path><path clip-path="url(#clip670)" d="M1761.63 1514.29 L1779.99 1514.29 L1779.99 1518.22 L1765.91 1518.22 L1765.91 1526.7 Q1766.93 1526.35 1767.95 1526.19 Q1768.97 1526 1769.99 1526 Q1775.78 1526 1779.15 1529.17 Q1782.53 1532.34 1782.53 1537.76 Q1782.53 1543.34 1779.06 1546.44 Q1775.59 1549.52 1769.27 1549.52 Q1767.09 1549.52 1764.83 1549.15 Q1762.58 1548.78 1760.17 1548.04 L1760.17 1543.34 Q1762.26 1544.47 1764.48 1545.03 Q1766.7 1545.58 1769.18 1545.58 Q1773.18 1545.58 1775.52 1543.48 Q1777.86 1541.37 1777.86 1537.76 Q1777.86 1534.15 1775.52 1532.04 Q1773.18 1529.94 1769.18 1529.94 Q1767.3 1529.94 1765.43 1530.35 Q1763.58 1530.77 1761.63 1531.65 L1761.63 1514.29 Z" fill="#000000" fill-rule="nonzero" fill-opacity="1"></path><path clip-path="url(#clip670)" d="M1801.75 1517.37 Q1798.14 1517.37 1796.31 1520.93 Q1794.5 1524.47 1794.5 1531.6 Q1794.5 1538.71 1796.31 1542.27 Q1798.14 1545.82 1801.75 1545.82 Q1805.38 1545.82 1807.19 1542.27 Q1809.02 1538.71 1809.02 1531.6 Q1809.02 1524.47 1807.19 1520.93 Q1805.38 1517.37 1801.75 1517.37 M1801.75 1513.66 Q1807.56 1513.66 1810.61 1518.27 Q1813.69 1522.85 1813.69 1531.6 Q1813.69 1540.33 1810.61 1544.94 Q1807.56 1549.52 1801.75 1549.52 Q1795.94 1549.52 1792.86 1544.94 Q1789.8 1540.33 1789.8 1531.6 Q1789.8 1522.85 1792.86 1518.27 Q1795.94 1513.66 1801.75 1513.66 Z" fill="#000000" fill-rule="nonzero" fill-opacity="1"></path><path clip-path="url(#clip670)" d="M2235.11 1544.91 L2242.75 1544.91 L2242.75 1518.55 L2234.44 1520.21 L2234.44 1515.95 L2242.7 1514.29 L2247.38 1514.29 L2247.38 1544.91 L2255.02 1544.91 L2255.02 1548.85 L2235.11 1548.85 L2235.11 1544.91 Z" fill="#000000" fill-rule="nonzero" fill-opacity="1"></path><path clip-path="url(#clip670)" d="M2274.46 1517.37 Q2270.85 1517.37 2269.02 1520.93 Q2267.22 1524.47 2267.22 1531.6 Q2267.22 1538.71 2269.02 1542.27 Q2270.85 1545.82 2274.46 1545.82 Q2278.1 1545.82 2279.9 1542.27 Q2281.73 1538.71 2281.73 1531.6 Q2281.73 1524.47 2279.9 1520.93 Q2278.1 1517.37 2274.46 1517.37 M2274.46 1513.66 Q2280.27 1513.66 2283.33 1518.27 Q2286.41 1522.85 2286.41 1531.6 Q2286.41 1540.33 2283.33 1544.94 Q2280.27 1549.52 2274.46 1549.52 Q2268.65 1549.52 2265.57 1544.94 Q2262.52 1540.33 2262.52 1531.6 Q2262.52 1522.85 2265.57 1518.27 Q2268.65 1513.66 2274.46 1513.66 Z" fill="#000000" fill-rule="nonzero" fill-opacity="1"></path><path clip-path="url(#clip670)" d="M2304.62 1517.37 Q2301.01 1517.37 2299.18 1520.93 Q2297.38 1524.47 2297.38 1531.6 Q2297.38 1538.71 2299.18 1542.27 Q2301.01 1545.82 2304.62 1545.82 Q2308.26 1545.82 2310.06 1542.27 Q2311.89 1538.71 2311.89 1531.6 Q2311.89 1524.47 2310.06 1520.93 Q2308.26 1517.37 2304.62 1517.37 M2304.62 1513.66 Q2310.43 1513.66 2313.49 1518.27 Q2316.57 1522.85 2316.57 1531.6 Q2316.57 1540.33 2313.49 1544.94 Q2310.43 1549.52 2304.62 1549.52 Q2298.81 1549.52 2295.73 1544.94 Q2292.68 1540.33 2292.68 1531.6 Q2292.68 1522.85 2295.73 1518.27 Q2298.81 1513.66 2304.62 1513.66 Z" fill="#000000" fill-rule="nonzero" fill-opacity="1"></path><path clip-path="url(#clip670)" d="M2334.79 1517.37 Q2331.17 1517.37 2329.35 1520.93 Q2327.54 1524.47 2327.54 1531.6 Q2327.54 1538.71 2329.35 1542.27 Q2331.17 1545.82 2334.79 1545.82 Q2338.42 1545.82 2340.23 1542.27 Q2342.05 1538.71 2342.05 1531.6 Q2342.05 1524.47 2340.23 1520.93 Q2338.42 1517.37 2334.79 1517.37 M2334.79 1513.66 Q2340.6 1513.66 2343.65 1518.27 Q2346.73 1522.85 2346.73 1531.6 Q2346.73 1540.33 2343.65 1544.94 Q2340.6 1549.52 2334.79 1549.52 Q2328.98 1549.52 2325.9 1544.94 Q2322.84 1540.33 2322.84 1531.6 Q2322.84 1522.85 2325.9 1518.27 Q2328.98 1513.66 2334.79 1513.66 Z" fill="#000000" fill-rule="nonzero" fill-opacity="1"></path><polyline clip-path="url(#clip670)" style="stroke:#000000; stroke-linecap:round; stroke-linejoin:round; stroke-width:4; stroke-opacity:1; fill:none" points="156.02,1486.45 156.02,123.472 "></polyline>
<polyline clip-path="url(#clip670)" style="stroke:#000000; stroke-linecap:round; stroke-linejoin:round; stroke-width:4; stroke-opacity:1; fill:none" points="156.02,1450.42 174.917,1450.42 "></polyline>
<polyline clip-path="url(#clip670)" style="stroke:#000000; stroke-linecap:round; stroke-linejoin:round; stroke-width:4; stroke-opacity:1; fill:none" points="156.02,1224.53 174.917,1224.53 "></polyline>
<polyline clip-path="url(#clip670)" style="stroke:#000000; stroke-linecap:round; stroke-linejoin:round; stroke-width:4; stroke-opacity:1; fill:none" points="156.02,998.636 174.917,998.636 "></polyline>
<polyline clip-path="url(#clip670)" style="stroke:#000000; stroke-linecap:round; stroke-linejoin:round; stroke-width:4; stroke-opacity:1; fill:none" points="156.02,772.742 174.917,772.742 "></polyline>
<polyline clip-path="url(#clip670)" style="stroke:#000000; stroke-linecap:round; stroke-linejoin:round; stroke-width:4; stroke-opacity:1; fill:none" points="156.02,546.847 174.917,546.847 "></polyline>
<polyline clip-path="url(#clip670)" style="stroke:#000000; stroke-linecap:round; stroke-linejoin:round; stroke-width:4; stroke-opacity:1; fill:none" points="156.02,320.953 174.917,320.953 "></polyline>
<path clip-path="url(#clip670)" d="M63.7467 1436.22 Q60.1356 1436.22 58.3069 1439.79 Q56.5014 1443.33 56.5014 1450.46 Q56.5014 1457.57 58.3069 1461.13 Q60.1356 1464.67 63.7467 1464.67 Q67.3809 1464.67 69.1865 1461.13 Q71.0152 1457.57 71.0152 1450.46 Q71.0152 1443.33 69.1865 1439.79 Q67.3809 1436.22 63.7467 1436.22 M63.7467 1432.52 Q69.5568 1432.52 72.6124 1437.13 Q75.6911 1441.71 75.6911 1450.46 Q75.6911 1459.19 72.6124 1463.79 Q69.5568 1468.38 63.7467 1468.38 Q57.9365 1468.38 54.8578 1463.79 Q51.8023 1459.19 51.8023 1450.46 Q51.8023 1441.71 54.8578 1437.13 Q57.9365 1432.52 63.7467 1432.52 Z" fill="#000000" fill-rule="nonzero" fill-opacity="1"></path><path clip-path="url(#clip670)" d="M83.9086 1461.83 L88.7928 1461.83 L88.7928 1467.7 L83.9086 1467.7 L83.9086 1461.83 Z" fill="#000000" fill-rule="nonzero" fill-opacity="1"></path><path clip-path="url(#clip670)" d="M97.7974 1433.14 L120.02 1433.14 L120.02 1435.14 L107.473 1467.7 L102.589 1467.7 L114.395 1437.08 L97.7974 1437.08 L97.7974 1433.14 Z" fill="#000000" fill-rule="nonzero" fill-opacity="1"></path><path clip-path="url(#clip670)" d="M62.9365 1210.33 Q59.3254 1210.33 57.4967 1213.89 Q55.6912 1217.44 55.6912 1224.57 Q55.6912 1231.67 57.4967 1235.24 Q59.3254 1238.78 62.9365 1238.78 Q66.5707 1238.78 68.3763 1235.24 Q70.205 1231.67 70.205 1224.57 Q70.205 1217.44 68.3763 1213.89 Q66.5707 1210.33 62.9365 1210.33 M62.9365 1206.63 Q68.7467 1206.63 71.8022 1211.23 Q74.8809 1215.82 74.8809 1224.57 Q74.8809 1233.29 71.8022 1237.9 Q68.7467 1242.48 62.9365 1242.48 Q57.1264 1242.48 54.0477 1237.9 Q50.9921 1233.29 50.9921 1224.57 Q50.9921 1215.82 54.0477 1211.23 Q57.1264 1206.63 62.9365 1206.63 Z" fill="#000000" fill-rule="nonzero" fill-opacity="1"></path><path clip-path="url(#clip670)" d="M83.0984 1235.93 L87.9827 1235.93 L87.9827 1241.81 L83.0984 1241.81 L83.0984 1235.93 Z" fill="#000000" fill-rule="nonzero" fill-opacity="1"></path><path clip-path="url(#clip670)" d="M108.168 1225.4 Q104.834 1225.4 102.913 1227.18 Q101.015 1228.96 101.015 1232.09 Q101.015 1235.21 102.913 1237 Q104.834 1238.78 108.168 1238.78 Q111.501 1238.78 113.422 1237 Q115.344 1235.19 115.344 1232.09 Q115.344 1228.96 113.422 1227.18 Q111.524 1225.4 108.168 1225.4 M103.492 1223.41 Q100.483 1222.67 98.7928 1220.61 Q97.1261 1218.55 97.1261 1215.58 Q97.1261 1211.44 100.066 1209.03 Q103.029 1206.63 108.168 1206.63 Q113.33 1206.63 116.27 1209.03 Q119.209 1211.44 119.209 1215.58 Q119.209 1218.55 117.52 1220.61 Q115.853 1222.67 112.867 1223.41 Q116.246 1224.19 118.121 1226.49 Q120.02 1228.78 120.02 1232.09 Q120.02 1237.11 116.941 1239.8 Q113.885 1242.48 108.168 1242.48 Q102.45 1242.48 99.3715 1239.8 Q96.316 1237.11 96.316 1232.09 Q96.316 1228.78 98.2141 1226.49 Q100.112 1224.19 103.492 1223.41 M101.779 1216.02 Q101.779 1218.71 103.446 1220.21 Q105.135 1221.72 108.168 1221.72 Q111.177 1221.72 112.867 1220.21 Q114.58 1218.71 114.58 1216.02 Q114.58 1213.34 112.867 1211.83 Q111.177 1210.33 108.168 1210.33 Q105.135 1210.33 103.446 1211.83 Q101.779 1213.34 101.779 1216.02 Z" fill="#000000" fill-rule="nonzero" fill-opacity="1"></path><path clip-path="url(#clip670)" d="M63.0291 984.435 Q59.418 984.435 57.5893 987.999 Q55.7838 991.541 55.7838 998.671 Q55.7838 1005.78 57.5893 1009.34 Q59.418 1012.88 63.0291 1012.88 Q66.6633 1012.88 68.4689 1009.34 Q70.2976 1005.78 70.2976 998.671 Q70.2976 991.541 68.4689 987.999 Q66.6633 984.435 63.0291 984.435 M63.0291 980.731 Q68.8393 980.731 71.8948 985.337 Q74.9735 989.921 74.9735 998.671 Q74.9735 1007.4 71.8948 1012 Q68.8393 1016.59 63.0291 1016.59 Q57.2189 1016.59 54.1403 1012 Q51.0847 1007.4 51.0847 998.671 Q51.0847 989.921 54.1403 985.337 Q57.2189 980.731 63.0291 980.731 Z" fill="#000000" fill-rule="nonzero" fill-opacity="1"></path><path clip-path="url(#clip670)" d="M83.191 1010.04 L88.0753 1010.04 L88.0753 1015.92 L83.191 1015.92 L83.191 1010.04 Z" fill="#000000" fill-rule="nonzero" fill-opacity="1"></path><path clip-path="url(#clip670)" d="M98.3993 1015.2 L98.3993 1010.94 Q100.159 1011.77 101.964 1012.21 Q103.77 1012.65 105.506 1012.65 Q110.135 1012.65 112.566 1009.55 Q115.02 1006.43 115.367 1000.08 Q114.024 1002.07 111.964 1003.14 Q109.904 1004.2 107.404 1004.2 Q102.219 1004.2 99.1863 1001.08 Q96.1771 997.93 96.1771 992.49 Q96.1771 987.166 99.3252 983.948 Q102.473 980.731 107.705 980.731 Q113.7 980.731 116.848 985.337 Q120.02 989.921 120.02 998.671 Q120.02 1006.84 116.131 1011.73 Q112.265 1016.59 105.714 1016.59 Q103.955 1016.59 102.149 1016.24 Q100.344 1015.89 98.3993 1015.2 M107.705 1000.55 Q110.853 1000.55 112.682 998.393 Q114.533 996.24 114.533 992.49 Q114.533 988.763 112.682 986.611 Q110.853 984.435 107.705 984.435 Q104.557 984.435 102.705 986.611 Q100.876 988.763 100.876 992.49 Q100.876 996.24 102.705 998.393 Q104.557 1000.55 107.705 1000.55 Z" fill="#000000" fill-rule="nonzero" fill-opacity="1"></path><path clip-path="url(#clip670)" d="M53.6541 786.086 L61.293 786.086 L61.293 759.721 L52.9829 761.387 L52.9829 757.128 L61.2467 755.462 L65.9226 755.462 L65.9226 786.086 L73.5614 786.086 L73.5614 790.022 L53.6541 790.022 L53.6541 786.086 Z" fill="#000000" fill-rule="nonzero" fill-opacity="1"></path><path clip-path="url(#clip670)" d="M83.0058 784.142 L87.8901 784.142 L87.8901 790.022 L83.0058 790.022 L83.0058 784.142 Z" fill="#000000" fill-rule="nonzero" fill-opacity="1"></path><path clip-path="url(#clip670)" d="M108.075 758.54 Q104.464 758.54 102.635 762.105 Q100.83 765.647 100.83 772.776 Q100.83 779.883 102.635 783.447 Q104.464 786.989 108.075 786.989 Q111.709 786.989 113.515 783.447 Q115.344 779.883 115.344 772.776 Q115.344 765.647 113.515 762.105 Q111.709 758.54 108.075 758.54 M108.075 754.837 Q113.885 754.837 116.941 759.443 Q120.02 764.026 120.02 772.776 Q120.02 781.503 116.941 786.109 Q113.885 790.693 108.075 790.693 Q102.265 790.693 99.1863 786.109 Q96.1308 781.503 96.1308 772.776 Q96.1308 764.026 99.1863 759.443 Q102.265 754.837 108.075 754.837 Z" fill="#000000" fill-rule="nonzero" fill-opacity="1"></path><path clip-path="url(#clip670)" d="M54.881 560.192 L62.5198 560.192 L62.5198 533.826 L54.2097 535.493 L54.2097 531.234 L62.4735 529.567 L67.1494 529.567 L67.1494 560.192 L74.7883 560.192 L74.7883 564.127 L54.881 564.127 L54.881 560.192 Z" fill="#000000" fill-rule="nonzero" fill-opacity="1"></path><path clip-path="url(#clip670)" d="M84.2327 558.248 L89.1169 558.248 L89.1169 564.127 L84.2327 564.127 L84.2327 558.248 Z" fill="#000000" fill-rule="nonzero" fill-opacity="1"></path><path clip-path="url(#clip670)" d="M100.112 560.192 L107.751 560.192 L107.751 533.826 L99.4409 535.493 L99.4409 531.234 L107.705 529.567 L112.381 529.567 L112.381 560.192 L120.02 560.192 L120.02 564.127 L100.112 564.127 L100.112 560.192 Z" fill="#000000" fill-rule="nonzero" fill-opacity="1"></path><path clip-path="url(#clip670)" d="M55.2514 334.298 L62.8902 334.298 L62.8902 307.932 L54.5801 309.599 L54.5801 305.339 L62.8439 303.673 L67.5198 303.673 L67.5198 334.298 L75.1587 334.298 L75.1587 338.233 L55.2514 338.233 L55.2514 334.298 Z" fill="#000000" fill-rule="nonzero" fill-opacity="1"></path><path clip-path="url(#clip670)" d="M84.6031 332.353 L89.4873 332.353 L89.4873 338.233 L84.6031 338.233 L84.6031 332.353 Z" fill="#000000" fill-rule="nonzero" fill-opacity="1"></path><path clip-path="url(#clip670)" d="M103.7 334.298 L120.02 334.298 L120.02 338.233 L98.0752 338.233 L98.0752 334.298 Q100.737 331.543 105.321 326.913 Q109.927 322.261 111.108 320.918 Q113.353 318.395 114.233 316.659 Q115.135 314.9 115.135 313.21 Q115.135 310.455 113.191 308.719 Q111.27 306.983 108.168 306.983 Q105.969 306.983 103.515 307.747 Q101.084 308.511 98.3067 310.062 L98.3067 305.339 Q101.131 304.205 103.584 303.626 Q106.038 303.048 108.075 303.048 Q113.445 303.048 116.64 305.733 Q119.834 308.418 119.834 312.909 Q119.834 315.038 119.024 316.96 Q118.237 318.858 116.131 321.45 Q115.552 322.122 112.45 325.339 Q109.348 328.534 103.7 334.298 Z" fill="#000000" fill-rule="nonzero" fill-opacity="1"></path><path clip-path="url(#clip670)" d="M797.182 14.0809 L797.182 22.0612 Q792.524 19.8332 788.392 18.7395 Q784.26 17.6457 780.412 17.6457 Q773.728 17.6457 770.082 20.2383 Q766.477 22.8309 766.477 27.611 Q766.477 31.6214 768.867 33.6873 Q771.297 35.7128 778.022 36.9686 L782.964 37.9813 Q792.119 39.7232 796.453 44.1387 Q800.828 48.5136 800.828 55.8863 Q800.828 64.6767 794.914 69.2137 Q789.04 73.7508 777.657 73.7508 Q773.363 73.7508 768.502 72.7785 Q763.681 71.8063 758.496 69.9024 L758.496 61.4765 Q763.479 64.2716 768.259 65.6895 Q773.039 67.1073 777.657 67.1073 Q784.665 67.1073 788.473 64.3527 Q792.281 61.598 792.281 56.4939 Q792.281 52.0379 789.526 49.5264 Q786.812 47.0148 780.574 45.759 L775.591 44.7868 Q766.436 42.9639 762.345 39.075 Q758.253 35.1862 758.253 28.2591 Q758.253 20.2383 763.884 15.6203 Q769.555 11.0023 779.48 11.0023 Q783.733 11.0023 788.149 11.7719 Q792.564 12.5416 797.182 14.0809 Z" fill="#000000" fill-rule="nonzero" fill-opacity="1"></path><path clip-path="url(#clip670)" d="M821.771 18.8205 L821.771 65.8515 L831.656 65.8515 Q844.173 65.8515 849.966 60.1802 Q855.799 54.509 855.799 42.2752 Q855.799 30.1225 849.966 24.4918 Q844.173 18.8205 831.656 18.8205 L821.771 18.8205 M813.589 12.096 L830.4 12.096 Q847.981 12.096 856.204 19.4281 Q864.427 26.7198 864.427 42.2752 Q864.427 57.9117 856.164 65.2439 Q847.9 72.576 830.4 72.576 L813.589 72.576 L813.589 12.096 Z" fill="#000000" fill-rule="nonzero" fill-opacity="1"></path><path clip-path="url(#clip670)" d="M877.471 12.096 L912.228 12.096 L912.228 18.9825 L885.654 18.9825 L885.654 36.8065 L909.636 36.8065 L909.636 43.6931 L885.654 43.6931 L885.654 72.576 L877.471 72.576 L877.471 12.096 Z" fill="#000000" fill-rule="nonzero" fill-opacity="1"></path><path clip-path="url(#clip670)" d="M959.745 18.8205 L959.745 41.5461 L970.034 41.5461 Q975.746 41.5461 978.865 38.5889 Q981.985 35.6318 981.985 30.163 Q981.985 24.7348 978.865 21.7777 Q975.746 18.8205 970.034 18.8205 L959.745 18.8205 M951.562 12.096 L970.034 12.096 Q980.202 12.096 985.387 16.714 Q990.613 21.2916 990.613 30.163 Q990.613 39.1155 985.387 43.6931 Q980.202 48.2706 970.034 48.2706 L959.745 48.2706 L959.745 72.576 L951.562 72.576 L951.562 12.096 Z" fill="#000000" fill-rule="nonzero" fill-opacity="1"></path><path clip-path="url(#clip670)" d="M1018.16 49.7694 Q1009.13 49.7694 1005.64 51.8354 Q1002.16 53.9013 1002.16 58.8839 Q1002.16 62.8538 1004.75 65.2034 Q1007.38 67.5124 1011.88 67.5124 Q1018.08 67.5124 1021.81 63.1374 Q1025.57 58.7219 1025.57 51.4303 L1025.57 49.7694 L1018.16 49.7694 M1033.03 46.6907 L1033.03 72.576 L1025.57 72.576 L1025.57 65.6895 Q1023.02 69.8214 1019.21 71.8063 Q1015.4 73.7508 1009.9 73.7508 Q1002.93 73.7508 998.796 69.8619 Q994.705 65.9325 994.705 59.3701 Q994.705 51.7138 999.809 47.825 Q1004.95 43.9361 1015.12 43.9361 L1025.57 43.9361 L1025.57 43.2069 Q1025.57 38.0623 1022.17 35.2672 Q1018.81 32.4315 1012.69 32.4315 Q1008.8 32.4315 1005.12 33.3632 Q1001.43 34.295 998.026 36.1584 L998.026 29.2718 Q1002.12 27.692 1005.97 26.9223 Q1009.81 26.1121 1013.46 26.1121 Q1023.3 26.1121 1028.16 31.2163 Q1033.03 36.3204 1033.03 46.6907 Z" fill="#000000" fill-rule="nonzero" fill-opacity="1"></path><path clip-path="url(#clip670)" d="M1055.75 14.324 L1055.75 27.2059 L1071.1 27.2059 L1071.1 32.9987 L1055.75 32.9987 L1055.75 57.6282 Q1055.75 63.1779 1057.25 64.7578 Q1058.79 66.3376 1063.45 66.3376 L1071.1 66.3376 L1071.1 72.576 L1063.45 72.576 Q1054.82 72.576 1051.54 69.3758 Q1048.26 66.1351 1048.26 57.6282 L1048.26 32.9987 L1042.79 32.9987 L1042.79 27.2059 L1048.26 27.2059 L1048.26 14.324 L1055.75 14.324 Z" fill="#000000" fill-rule="nonzero" fill-opacity="1"></path><path clip-path="url(#clip670)" d="M1118.62 45.1919 L1118.62 72.576 L1111.17 72.576 L1111.17 45.4349 Q1111.17 38.994 1108.66 35.7938 Q1106.14 32.5936 1101.12 32.5936 Q1095.09 32.5936 1091.6 36.4419 Q1088.12 40.2903 1088.12 46.9338 L1088.12 72.576 L1080.62 72.576 L1080.62 9.54393 L1088.12 9.54393 L1088.12 34.2544 Q1090.79 30.163 1094.4 28.1376 Q1098.04 26.1121 1102.78 26.1121 Q1110.6 26.1121 1114.61 30.9732 Q1118.62 35.7938 1118.62 45.1919 Z" fill="#000000" fill-rule="nonzero" fill-opacity="1"></path><path clip-path="url(#clip670)" d="M1162.41 28.5427 L1162.41 35.5912 Q1159.25 33.9709 1155.85 33.1607 Q1152.45 32.3505 1148.8 32.3505 Q1143.25 32.3505 1140.46 34.0519 Q1137.7 35.7533 1137.7 39.156 Q1137.7 41.7486 1139.69 43.2475 Q1141.67 44.7058 1147.67 46.0426 L1150.22 46.6097 Q1158.16 48.3111 1161.48 51.4303 Q1164.84 54.509 1164.84 60.0587 Q1164.84 66.3781 1159.82 70.0644 Q1154.84 73.7508 1146.09 73.7508 Q1142.44 73.7508 1138.47 73.0216 Q1134.54 72.3329 1130.17 70.9151 L1130.17 63.2184 Q1134.3 65.3654 1138.31 66.4591 Q1142.32 67.5124 1146.25 67.5124 Q1151.52 67.5124 1154.35 65.73 Q1157.19 63.9071 1157.19 60.6258 Q1157.19 57.5877 1155.12 55.9673 Q1153.09 54.3469 1146.17 52.8481 L1143.58 52.2405 Q1136.65 50.7821 1133.57 47.7845 Q1130.49 44.7463 1130.49 39.4801 Q1130.49 33.0797 1135.03 29.5959 Q1139.56 26.1121 1147.91 26.1121 Q1152.04 26.1121 1155.69 26.7198 Q1159.33 27.3274 1162.41 28.5427 Z" fill="#000000" fill-rule="nonzero" fill-opacity="1"></path><path clip-path="url(#clip670)" d="M1223.7 49.7694 Q1214.67 49.7694 1211.18 51.8354 Q1207.7 53.9013 1207.7 58.8839 Q1207.7 62.8538 1210.29 65.2034 Q1212.93 67.5124 1217.42 67.5124 Q1223.62 67.5124 1227.35 63.1374 Q1231.12 58.7219 1231.12 51.4303 L1231.12 49.7694 L1223.7 49.7694 M1238.57 46.6907 L1238.57 72.576 L1231.12 72.576 L1231.12 65.6895 Q1228.56 69.8214 1224.76 71.8063 Q1220.95 73.7508 1215.44 73.7508 Q1208.47 73.7508 1204.34 69.8619 Q1200.25 65.9325 1200.25 59.3701 Q1200.25 51.7138 1205.35 47.825 Q1210.5 43.9361 1220.66 43.9361 L1231.12 43.9361 L1231.12 43.2069 Q1231.12 38.0623 1227.71 35.2672 Q1224.35 32.4315 1218.23 32.4315 Q1214.34 32.4315 1210.66 33.3632 Q1206.97 34.295 1203.57 36.1584 L1203.57 29.2718 Q1207.66 27.692 1211.51 26.9223 Q1215.36 26.1121 1219 26.1121 Q1228.85 26.1121 1233.71 31.2163 Q1238.57 36.3204 1238.57 46.6907 Z" fill="#000000" fill-rule="nonzero" fill-opacity="1"></path><path clip-path="url(#clip670)" d="M1291.64 45.1919 L1291.64 72.576 L1284.18 72.576 L1284.18 45.4349 Q1284.18 38.994 1281.67 35.7938 Q1279.16 32.5936 1274.14 32.5936 Q1268.1 32.5936 1264.62 36.4419 Q1261.13 40.2903 1261.13 46.9338 L1261.13 72.576 L1253.64 72.576 L1253.64 27.2059 L1261.13 27.2059 L1261.13 34.2544 Q1263.81 30.163 1267.41 28.1376 Q1271.06 26.1121 1275.8 26.1121 Q1283.61 26.1121 1287.63 30.9732 Q1291.64 35.7938 1291.64 45.1919 Z" fill="#000000" fill-rule="nonzero" fill-opacity="1"></path><path clip-path="url(#clip670)" d="M1336.36 34.0924 L1336.36 9.54393 L1343.81 9.54393 L1343.81 72.576 L1336.36 72.576 L1336.36 65.7705 Q1334.01 69.8214 1330.4 71.8063 Q1326.84 73.7508 1321.82 73.7508 Q1313.59 73.7508 1308.41 67.1883 Q1303.26 60.6258 1303.26 49.9314 Q1303.26 39.2371 1308.41 32.6746 Q1313.59 26.1121 1321.82 26.1121 Q1326.84 26.1121 1330.4 28.0971 Q1334.01 30.0415 1336.36 34.0924 M1310.96 49.9314 Q1310.96 58.1548 1314.32 62.8538 Q1317.72 67.5124 1323.64 67.5124 Q1329.55 67.5124 1332.96 62.8538 Q1336.36 58.1548 1336.36 49.9314 Q1336.36 41.7081 1332.96 37.0496 Q1329.55 32.3505 1323.64 32.3505 Q1317.72 32.3505 1314.32 37.0496 Q1310.96 41.7081 1310.96 49.9314 Z" fill="#000000" fill-rule="nonzero" fill-opacity="1"></path><path clip-path="url(#clip670)" d="M1394.04 43.6931 L1394.04 65.8515 L1407.17 65.8515 Q1413.77 65.8515 1416.93 63.1374 Q1420.13 60.3828 1420.13 54.752 Q1420.13 49.0808 1416.93 46.4072 Q1413.77 43.6931 1407.17 43.6931 L1394.04 43.6931 M1394.04 18.8205 L1394.04 37.0496 L1406.15 37.0496 Q1412.15 37.0496 1415.07 34.8216 Q1418.02 32.5531 1418.02 27.935 Q1418.02 23.3575 1415.07 21.089 Q1412.15 18.8205 1406.15 18.8205 L1394.04 18.8205 M1385.86 12.096 L1406.76 12.096 Q1416.12 12.096 1421.18 15.9849 Q1426.25 19.8737 1426.25 27.0438 Q1426.25 32.5936 1423.65 35.8748 Q1421.06 39.156 1416.04 39.9662 Q1422.07 41.2625 1425.4 45.3944 Q1428.76 49.4858 1428.76 55.6432 Q1428.76 63.745 1423.25 68.1605 Q1417.74 72.576 1407.57 72.576 L1385.86 72.576 L1385.86 12.096 Z" fill="#000000" fill-rule="nonzero" fill-opacity="1"></path><path clip-path="url(#clip670)" d="M1442.78 12.096 L1454.97 12.096 L1470.4 53.2532 L1485.92 12.096 L1498.11 12.096 L1498.11 72.576 L1490.13 72.576 L1490.13 19.4686 L1474.53 60.9499 L1466.31 60.9499 L1450.71 19.4686 L1450.71 72.576 L1442.78 72.576 L1442.78 12.096 Z" fill="#000000" fill-rule="nonzero" fill-opacity="1"></path><path clip-path="url(#clip670)" d="M1534.57 20.1573 L1523.47 50.2555 L1545.71 50.2555 L1534.57 20.1573 M1529.95 12.096 L1539.23 12.096 L1562.28 72.576 L1553.77 72.576 L1548.26 57.061 L1521 57.061 L1515.49 72.576 L1506.86 72.576 L1529.95 12.096 Z" fill="#000000" fill-rule="nonzero" fill-opacity="1"></path><path clip-path="url(#clip670)" d="M1565.19 46.5287 L1587.03 46.5287 L1587.03 53.1722 L1565.19 53.1722 L1565.19 46.5287 Z" fill="#000000" fill-rule="nonzero" fill-opacity="1"></path><path clip-path="url(#clip670)" d="M1635.48 14.0809 L1635.48 22.0612 Q1630.82 19.8332 1626.69 18.7395 Q1622.55 17.6457 1618.71 17.6457 Q1612.02 17.6457 1608.38 20.2383 Q1604.77 22.8309 1604.77 27.611 Q1604.77 31.6214 1607.16 33.6873 Q1609.59 35.7128 1616.32 36.9686 L1621.26 37.9813 Q1630.41 39.7232 1634.75 44.1387 Q1639.12 48.5136 1639.12 55.8863 Q1639.12 64.6767 1633.21 69.2137 Q1627.33 73.7508 1615.95 73.7508 Q1611.66 73.7508 1606.8 72.7785 Q1601.98 71.8063 1596.79 69.9024 L1596.79 61.4765 Q1601.77 64.2716 1606.55 65.6895 Q1611.33 67.1073 1615.95 67.1073 Q1622.96 67.1073 1626.77 64.3527 Q1630.57 61.598 1630.57 56.4939 Q1630.57 52.0379 1627.82 49.5264 Q1625.11 47.0148 1618.87 45.759 L1613.89 44.7868 Q1604.73 42.9639 1600.64 39.075 Q1596.55 35.1862 1596.55 28.2591 Q1596.55 20.2383 1602.18 15.6203 Q1607.85 11.0023 1617.77 11.0023 Q1622.03 11.0023 1626.44 11.7719 Q1630.86 12.5416 1635.48 14.0809 Z" fill="#000000" fill-rule="nonzero" fill-opacity="1"></path><path clip-path="url(#clip670)" d="M1660.07 18.8205 L1660.07 65.8515 L1669.95 65.8515 Q1682.47 65.8515 1688.26 60.1802 Q1694.09 54.509 1694.09 42.2752 Q1694.09 30.1225 1688.26 24.4918 Q1682.47 18.8205 1669.95 18.8205 L1660.07 18.8205 M1651.88 12.096 L1668.69 12.096 Q1686.27 12.096 1694.5 19.4281 Q1702.72 26.7198 1702.72 42.2752 Q1702.72 57.9117 1694.46 65.2439 Q1686.19 72.576 1668.69 72.576 L1651.88 72.576 L1651.88 12.096 Z" fill="#000000" fill-rule="nonzero" fill-opacity="1"></path><path clip-path="url(#clip670)" d="M1715.77 12.096 L1750.52 12.096 L1750.52 18.9825 L1723.95 18.9825 L1723.95 36.8065 L1747.93 36.8065 L1747.93 43.6931 L1723.95 43.6931 L1723.95 72.576 L1715.77 72.576 L1715.77 12.096 Z" fill="#000000" fill-rule="nonzero" fill-opacity="1"></path><polyline clip-path="url(#clip672)" style="stroke:#000000; stroke-linecap:round; stroke-linejoin:round; stroke-width:8; stroke-opacity:1; fill:none" points="218.191,824.225 220.266,827.626 222.34,987.082 224.415,510.031 226.489,1062.77 228.564,944.742 230.638,735.933 232.713,860.733 234.787,1069.36 236.862,771.428 238.936,470.381 241.01,517.397 243.085,840.455 245.159,806.918 247.234,1120.99 249.308,950.001 251.383,624.215 253.457,980.091 255.532,732.633 257.606,786.048 259.681,590.97 261.755,1168.14 263.83,609.917 265.904,729.844 267.979,474.118 270.053,578.577 272.127,684.731 274.202,734.638 276.276,1045.8 278.351,816.243 280.425,753.666 282.5,898.862 284.574,781.572 286.649,802.168 288.723,588.377 290.798,680.428 292.872,974.119 294.947,1158.45 297.021,1247.88 299.096,677.746 301.17,704.424 303.244,784.655 305.319,863.16 307.393,1026.11 309.468,969.038 311.542,760.508 313.617,572.655 315.691,550.22 317.766,732.372 319.84,1048.8 321.915,599.129 323.989,1111.79 326.064,758.279 328.138,748.422 330.213,613.359 332.287,491.684 334.361,827.778 336.436,1005.49 338.51,420.443 340.585,816.981 342.659,743.308 344.734,870.998 346.808,721.555 348.883,753.915 350.957,490.108 353.032,512.374 355.106,765.815 357.181,456.016 359.255,848.624 361.33,636.858 363.404,1009.1 365.478,564.713 367.553,326.246 369.627,975.107 371.702,549.351 373.776,810.574 375.851,869.197 377.925,979.816 380,834.655 382.074,864.164 384.149,547.482 386.223,712.493 388.298,591.968 390.372,977.66 392.447,586.418 394.521,608.142 396.596,595.558 398.67,939.98 400.744,1014.12 402.819,757.831 404.893,1188.2 406.968,541.875 409.042,353.647 411.117,675.006 413.191,755.005 415.266,541.128 417.34,398.353 419.415,583.981 421.489,376.369 423.564,833.591 425.638,558.402 427.713,697.201 429.787,575.347 431.861,1127.84 433.936,576.477 436.01,1072.45 438.085,956.502 440.159,537.442 442.234,1133.52 444.308,695.249 446.383,1106.88 448.457,516.816 450.532,1180.1 452.606,917.655 454.681,331.117 456.755,819.836 458.83,815.284 460.904,565.458 462.978,636.712 465.053,663.168 467.127,162.047 469.202,936.219 471.276,802.799 473.351,547.933 475.425,736.488 477.5,974.54 479.574,524.469 481.649,904.973 483.723,743.115 485.798,621.502 487.872,1036.85 489.947,558.664 492.021,652.906 494.095,718.542 496.17,899.694 498.244,658.34 500.319,711.985 502.393,609.44 504.468,844.314 506.542,863.033 508.617,1042.43 510.691,743.161 512.766,787.356 514.84,751.715 516.915,1084.67 518.989,1016.75 521.064,768.797 523.138,1071.11 525.212,982.451 527.287,626.942 529.361,926.741 531.436,939.13 533.51,521.541 535.585,793.358 537.659,439.374 539.734,948.494 541.808,673.86 543.883,540.524 545.957,1011 548.032,882.372 550.106,969.145 552.181,874.968 554.255,765.866 556.329,918.906 558.404,860.342 560.478,685.966 562.553,670.05 564.627,1010.84 566.702,806.993 568.776,1035.17 570.851,646.891 572.925,536.155 575,526.72 577.074,994.844 579.149,446.688 581.223,1110.55 583.298,729.038 585.372,636.487 587.446,907.671 589.521,680.093 591.595,849.76 593.67,634.809 595.744,766.338 597.819,437.203 599.893,627.109 601.968,894.119 604.042,653.999 606.117,424.894 608.191,651.536 610.266,746.306 612.34,899.524 614.415,1013.46 616.489,608.974 618.564,339.301 620.638,699.719 622.712,1086.23 624.787,678.471 626.861,1065.62 628.936,851.505 631.01,621.99 633.085,1314.14 635.159,597.732 637.234,244.75 639.308,653.788 641.383,506.718 643.457,505.003 645.532,956.994 647.606,438.271 649.681,1039.29 651.755,171.903 653.829,855.629 655.904,808.589 657.978,821.281 660.053,943.343 662.127,627.061 664.202,735.081 666.276,759.902 668.351,754.378 670.425,899.041 672.5,965.107 674.574,580.076 676.649,756.922 678.723,835.532 680.798,596.146 682.872,687.386 684.946,410.533 687.021,818.092 689.095,775.188 691.17,578.323 693.244,391.221 695.319,926.724 697.393,1107.53 699.468,859.557 701.542,630.616 703.617,824.005 705.691,702.92 707.766,729.865 709.84,630.881 711.915,698.68 713.989,982.165 716.063,354.519 718.138,542.145 720.212,991.88 722.287,940.311 724.361,684.514 726.436,529.131 728.51,787.93 730.585,921.544 732.659,529.055 734.734,890.37 736.808,753.168 738.883,392.968 740.957,773.475 743.032,876.018 745.106,691.035 747.18,437.16 749.255,804.071 751.329,883.488 753.404,1141.31 755.478,681.698 757.553,620.728 759.627,738.322 761.702,540.777 763.776,900.531 765.851,385.35 767.925,985.905 770,1033.18 772.074,704.778 774.149,767.97 776.223,597.631 778.297,942.947 780.372,728.35 782.446,726.955 784.521,1044.86 786.595,917.271 788.67,941.538 790.744,638.005 792.819,1171.84 794.893,1064.78 796.968,733.412 799.042,987.568 801.117,642.315 803.191,630.399 805.266,885.357 807.34,927.106 809.414,674.787 811.489,988.282 813.563,1054.98 815.638,1056.2 817.712,1052.52 819.787,782.619 821.861,1217.99 823.936,1121.88 826.01,905.777 828.085,708.19 830.159,704.93 832.234,388.685 834.308,1097.99 836.383,820.125 838.457,617.765 840.531,948.171 842.606,614.668 844.68,753.054 846.755,592.013 848.829,827.118 850.904,995.847 852.978,846.838 855.053,854.305 857.127,1028.98 859.202,1139.04 861.276,664.949 863.351,1124.52 865.425,757.61 867.5,662.418 869.574,454.186 871.649,510.18 873.723,653.662 875.797,854.958 877.872,731.89 879.946,720.574 882.021,822.05 884.095,633.87 886.17,389.592 888.244,1009.49 890.319,822.053 892.393,1017.66 894.468,1383.91 896.542,1447.87 898.617,758.484 900.691,1122.91 902.766,810.021 904.84,787.654 906.914,863.995 908.989,464.886 911.063,831.722 913.138,822.516 915.212,786.261 917.287,1327.85 919.361,1103.72 921.436,314.845 923.51,847.189 925.585,889.247 927.659,811.88 929.734,979.818 931.808,1246.56 933.883,1252.22 935.957,686.348 938.031,416.346 940.106,795.855 942.18,646.569 944.255,1073.38 946.329,609.447 948.404,436.393 950.478,719.003 952.553,793.734 954.627,560.8 956.702,1226.12 958.776,733.331 960.851,725.846 962.925,857.648 965,683.892 967.074,629.912 969.148,917.434 971.223,515.773 973.297,482.93 975.372,1055.81 977.446,734.668 979.521,597.588 981.595,561.37 983.67,738.341 985.744,399.459 987.819,492.627 989.893,760.658 991.968,919.028 994.042,642.53 996.117,875.663 998.191,854.023 1000.27,376.46 1002.34,728.859 1004.41,923.081 1006.49,858.608 1008.56,762.08 1010.64,759.306 1012.71,636.766 1014.79,536.752 1016.86,724.066 1018.94,868.614 1021.01,585.957 1023.08,460.269 1025.16,638.059 1027.23,790.696 1029.31,816.007 1031.38,528.834 1033.46,844.031 1035.53,692.871 1037.61,824.455 1039.68,753.491 1041.75,1091.04 1043.83,814.098 1045.9,942.982 1047.98,516.462 1050.05,769.977 1052.13,243.341 1054.2,656.618 1056.28,1093.11 1058.35,646.053 1060.43,649.369 1062.5,1115.03 1064.57,833.941 1066.65,671.666 1068.72,985.003 1070.8,759.585 1072.87,588.842 1074.95,804.856 1077.02,918.387 1079.1,582.266 1081.17,1023.48 1083.24,591.399 1085.32,801.326 1087.39,1066.98 1089.47,777.154 1091.54,956.519 1093.62,805.594 1095.69,548.324 1097.77,780.13 1099.84,783.194 1101.91,609.876 1103.99,179.327 1106.06,820.947 1108.14,1055.32 1110.21,858.205 1112.29,810.573 1114.36,853.606 1116.44,879.145 1118.51,841.577 1120.58,803.922 1122.66,972.248 1124.73,958.344 1126.81,1162.69 1128.88,882.044 1130.96,978.917 1133.03,1012.56 1135.11,1043.6 1137.18,832.691 1139.25,880.784 1141.33,624.851 1143.4,994.831 1145.48,661.266 1147.55,459.759 1149.63,874.778 1151.7,339.008 1153.78,493.32 1155.85,467.29 1157.92,825.218 1160,1204.51 1162.07,1297.94 1164.15,562.962 1166.22,1006.61 1168.3,559.037 1170.37,728.88 1172.45,895.233 1174.52,830.805 1176.6,474.289 1178.67,703.632 1180.74,688.524 1182.82,899.906 1184.89,797.42 1186.97,573.63 1189.04,853.215 1191.12,635.679 1193.19,627.519 1195.27,1099.26 1197.34,771.343 1199.41,346.345 1201.49,526.42 1203.56,942.849 1205.64,752.802 1207.71,861.517 1209.79,756.352 1211.86,664.657 1213.94,968.411 1216.01,736.188 1218.08,428.379 1220.16,814.034 1222.23,586.95 1224.31,858.238 1226.38,413.151 1228.46,415.074 1230.53,700.019 1232.61,888.905 1234.68,631.819 1236.75,736.138 1238.83,650.238 1240.9,762.638 1242.98,783.769 1245.05,906.38 1247.13,694.89 1249.2,1046.23 1251.28,1157.92 1253.35,665.672 1255.42,594.277 1257.5,628.932 1259.57,849.775 1261.65,702.074 1263.72,522.038 1265.8,905.741 1267.87,802.419 1269.95,564.114 1272.02,674.088 1274.1,1011.72 1276.17,656.652 1278.24,672.254 1280.32,975.446 1282.39,631.563 1284.47,613.543 1286.54,655.076 1288.62,432.578 1290.69,404.522 1292.77,502.195 1294.84,979.427 1296.91,1028.89 1298.99,642.732 1301.06,882.016 1303.14,862.072 1305.21,576.045 1307.29,539.893 1309.36,832.282 1311.44,747.534 1313.51,449.148 1315.58,776.384 1317.66,781.367 1319.73,871.07 1321.81,980.893 1323.88,834.696 1325.96,708.38 1328.03,590.489 1330.11,1131.64 1332.18,327.132 1334.25,355.166 1336.33,846.649 1338.4,906.375 1340.48,769.763 1342.55,824.461 1344.63,673.871 1346.7,1043.5 1348.78,669.01 1350.85,697.91 1352.92,653.111 1355,223.577 1357.07,455.761 1359.15,929.854 1361.22,830.921 1363.3,859.131 1365.37,581.107 1367.45,821.851 1369.52,491.079 1371.6,680.274 1373.67,558.898 1375.74,970.19 1377.82,638.72 1379.89,728.318 1381.97,928.099 1384.04,710.566 1386.12,944.462 1388.19,748.291 1390.27,707.416 1392.34,674.922 1394.41,416.073 1396.49,694.355 1398.56,713.267 1400.64,362.991 1402.71,448.213 1404.79,1047.91 1406.86,974.034 1408.94,886.75 1411.01,780.325 1413.08,809.02 1415.16,1004.05 1417.23,720.675 1419.31,525.95 1421.38,846.261 1423.46,597.04 1425.53,1166.8 1427.61,478.61 1429.68,1098.65 1431.75,809.054 1433.83,919.882 1435.9,532.35 1437.98,581.385 1440.05,654.71 1442.13,837.192 1444.2,860.051 1446.28,485.353 1448.35,1072.48 1450.42,802.746 1452.5,1087.38 1454.57,594.769 1456.65,1008.75 1458.72,922.444 1460.8,1110.06 1462.87,526.311 1464.95,491.568 1467.02,1049.03 1469.1,817.382 1471.17,800.32 1473.24,840.611 1475.32,541.282 1477.39,802.589 1479.47,1009.52 1481.54,1258.22 1483.62,819.512 1485.69,884.599 1487.77,906.394 1489.84,655.178 1491.91,763.284 1493.99,1115.14 1496.06,592.693 1498.14,518.643 1500.21,732.53 1502.29,839.638 1504.36,870.06 1506.44,593.849 1508.51,795.992 1510.58,729.913 1512.66,725.678 1514.73,616.737 1516.81,517.918 1518.88,739.89 1520.96,693.37 1523.03,744.71 1525.11,1056.49 1527.18,687.215 1529.25,705.997 1531.33,703.797 1533.4,1267.57 1535.48,967.098 1537.55,719.25 1539.63,549.966 1541.7,548.226 1543.78,959.709 1545.85,807.489 1547.92,895.784 1550,883.789 1552.07,950.731 1554.15,643.789 1556.22,930.181 1558.3,934.299 1560.37,558.108 1562.45,826.12 1564.52,648.807 1566.6,971.93 1568.67,556.091 1570.74,731.175 1572.82,784.787 1574.89,789.96 1576.97,1348.98 1579.04,1017.82 1581.12,836.563 1583.19,927.419 1585.27,664.029 1587.34,892.144 1589.41,666.84 1591.49,877.455 1593.56,695.686 1595.64,349.044 1597.71,593.293 1599.79,701.698 1601.86,688.089 1603.94,936.415 1606.01,902.149 1608.08,989.795 1610.16,1193.07 1612.23,632.781 1614.31,822.278 1616.38,717.983 1618.46,638.285 1620.53,648.399 1622.61,763.581 1624.68,992.668 1626.75,1012.5 1628.83,619.397 1630.9,494.139 1632.98,960.603 1635.05,839.297 1637.13,966.268 1639.2,835.549 1641.28,768.913 1643.35,842.36 1645.42,1087.02 1647.5,930.642 1649.57,797.082 1651.65,1078.46 1653.72,917.914 1655.8,906.047 1657.87,924.098 1659.95,782.562 1662.02,868.726 1664.1,788.408 1666.17,667.099 1668.24,580.359 1670.32,530.626 1672.39,925.348 1674.47,993.243 1676.54,694.926 1678.62,651.092 1680.69,641.434 1682.77,739.198 1684.84,1120.95 1686.91,674.339 1688.99,750.489 1691.06,1114.72 1693.14,826.467 1695.21,499.782 1697.29,659.147 1699.36,1020.98 1701.44,877.09 1703.51,886.03 1705.58,460.139 1707.66,640.218 1709.73,997.4 1711.81,1009.7 1713.88,751.449 1715.96,856.011 1718.03,960.285 1720.11,645.168 1722.18,1099.55 1724.25,452.082 1726.33,810.087 1728.4,615.008 1730.48,664.82 1732.55,933.817 1734.63,810.516 1736.7,939.179 1738.78,601.545 1740.85,752.624 1742.92,631.198 1745,771.981 1747.07,253.964 1749.15,458.627 1751.22,661.004 1753.3,582.383 1755.37,675.511 1757.45,585.992 1759.52,931.447 1761.59,597.586 1763.67,597.578 1765.74,820.815 1767.82,613.61 1769.89,655.004 1771.97,679.932 1774.04,617.691 1776.12,846.615 1778.19,828.755 1780.27,676.676 1782.34,523.944 1784.41,749.036 1786.49,1175.13 1788.56,891.581 1790.64,943.94 1792.71,952.558 1794.79,711.448 1796.86,584.031 1798.94,565.491 1801.01,853.834 1803.08,769.154 1805.16,276.616 1807.23,871.023 1809.31,701.139 1811.38,1156.38 1813.46,903.662 1815.53,847.049 1817.61,744.872 1819.68,935.839 1821.75,887.746 1823.83,1077.98 1825.9,626.543 1827.98,876.741 1830.05,569.142 1832.13,913.013 1834.2,744.581 1836.28,794.372 1838.35,586.255 1840.42,797.387 1842.5,1007.22 1844.57,928.544 1846.65,772.359 1848.72,644.119 1850.8,822.181 1852.87,946.737 1854.95,355.497 1857.02,798.818 1859.09,737.103 1861.17,443.779 1863.24,686.293 1865.32,839.7 1867.39,1015.94 1869.47,1136.88 1871.54,653.081 1873.62,1015.89 1875.69,444.644 1877.77,980.732 1879.84,1126.56 1881.91,1045.95 1883.99,657.776 1886.06,970.444 1888.14,582.95 1890.21,933.843 1892.29,728.161 1894.36,1014.35 1896.44,1203.46 1898.51,955.26 1900.58,682.233 1902.66,679.977 1904.73,796.265 1906.81,1123.54 1908.88,792.489 1910.96,400.15 1913.03,771.153 1915.11,728.92 1917.18,990.196 1919.25,706.31 1921.33,1315.03 1923.4,706.145 1925.48,681.256 1927.55,632.309 1929.63,656.24 1931.7,804.155 1933.78,539.011 1935.85,821.659 1937.92,674.446 1940,819.029 1942.07,829.402 1944.15,703.267 1946.22,631.793 1948.3,512.947 1950.37,970.665 1952.45,1032.06 1954.52,802.166 1956.59,823.794 1958.67,1218.11 1960.74,642.276 1962.82,805.978 1964.89,474.384 1966.97,935.104 1969.04,828.765 1971.12,946.611 1973.19,474.759 1975.27,856.88 1977.34,772.114 1979.41,816.391 1981.49,600.112 1983.56,866.306 1985.64,493.801 1987.71,484.676 1989.79,1016.86 1991.86,990.823 1993.94,712.384 1996.01,616.177 1998.08,1029.69 2000.16,401.636 2002.23,535.481 2004.31,568.647 2006.38,783.559 2008.46,771.134 2010.53,835.762 2012.61,831.793 2014.68,595.849 2016.75,545.459 2018.83,940.739 2020.9,877.911 2022.98,582.463 2025.05,784.829 2027.13,472.053 2029.2,907.645 2031.28,917.756 2033.35,1037.55 2035.42,894.535 2037.5,729.073 2039.57,650.672 2041.65,794.481 2043.72,1041.59 2045.8,895.133 2047.87,815.219 2049.95,703.999 2052.02,1024.13 2054.09,708.121 2056.17,590.72 2058.24,489.473 2060.32,458.947 2062.39,834.749 2064.47,620.922 2066.54,774.834 2068.62,812.728 2070.69,759.254 2072.77,893.078 2074.84,632.649 2076.91,1062.07 2078.99,502.104 2081.06,911.279 2083.14,681.772 2085.21,722.04 2087.29,962.338 2089.36,652.376 2091.44,682.178 2093.51,543.129 2095.58,854.926 2097.66,456.62 2099.73,1096.26 2101.81,645.946 2103.88,702.188 2105.96,1016.8 2108.03,545.424 2110.11,1069.83 2112.18,1122 2114.25,1198.96 2116.33,1066.31 2118.4,728.374 2120.48,522.986 2122.55,948.771 2124.63,809.386 2126.7,697.624 2128.78,541.736 2130.85,1229.25 2132.92,714.188 2135,846.819 2137.07,1128.07 2139.15,921.022 2141.22,716.565 2143.3,729.983 2145.37,963.045 2147.45,971.56 2149.52,780.258 2151.59,475.876 2153.67,1048.41 2155.74,1216.08 2157.82,718.376 2159.89,904.589 2161.97,917.762 2164.04,754.315 2166.12,546.444 2168.19,852.248 2170.27,708.609 2172.34,1030.84 2174.41,1033.02 2176.49,554.304 2178.56,558.666 2180.64,684.008 2182.71,577.97 2184.79,703.312 2186.86,802.862 2188.94,472.316 2191.01,399.369 2193.08,395.118 2195.16,611.525 2197.23,700.516 2199.31,615.722 2201.38,646.363 2203.46,618.905 2205.53,612.698 2207.61,732.53 2209.68,437.561 2211.75,1234.64 2213.83,1116.3 2215.9,1086.41 2217.98,630.217 2220.05,953.742 2222.13,993.46 2224.2,771.865 2226.28,534.281 2228.35,501.584 2230.42,592.737 2232.5,861.019 2234.57,872.57 2236.65,852.061 2238.72,746.009 2240.8,984.326 2242.87,832.119 2244.95,757.308 2247.02,679.514 2249.09,813.882 2251.17,669.817 2253.24,475.541 2255.32,715.817 2257.39,612.968 2259.47,820.471 2261.54,704.667 2263.62,829.662 2265.69,655.532 2267.76,827.257 2269.84,1153.24 2271.91,680.172 2273.99,855.563 2276.06,563.826 2278.14,585.098 2280.21,1098.18 2282.29,954.861 2284.36,857.186 2286.44,688.909 2288.51,939.481 2290.58,1017.19 "></polyline>
<path clip-path="url(#clip670)" d="M229.244 1441.02 L657.296 1441.02 L657.296 1337.34 L229.244 1337.34  Z" fill="#ffffff" fill-rule="evenodd" fill-opacity="1"></path>
<polyline clip-path="url(#clip670)" style="stroke:#000000; stroke-linecap:round; stroke-linejoin:round; stroke-width:4; stroke-opacity:1; fill:none" points="229.244,1441.02 657.296,1441.02 657.296,1337.34 229.244,1337.34 229.244,1441.02 "></polyline>
<polyline clip-path="url(#clip670)" style="stroke:#000000; stroke-linecap:round; stroke-linejoin:round; stroke-width:8; stroke-opacity:1; fill:none" points="253.652,1389.18 400.101,1389.18 "></polyline>
<path clip-path="url(#clip670)" d="M429.185 1389.95 L429.185 1402.61 L436.685 1402.61 Q440.459 1402.61 442.264 1401.06 Q444.093 1399.49 444.093 1396.27 Q444.093 1393.03 442.264 1391.5 Q440.459 1389.95 436.685 1389.95 L429.185 1389.95 M429.185 1375.74 L429.185 1386.15 L436.107 1386.15 Q439.533 1386.15 441.199 1384.88 Q442.889 1383.59 442.889 1380.95 Q442.889 1378.33 441.199 1377.03 Q439.533 1375.74 436.107 1375.74 L429.185 1375.74 M424.51 1371.9 L436.454 1371.9 Q441.801 1371.9 444.695 1374.12 Q447.588 1376.34 447.588 1380.44 Q447.588 1383.61 446.107 1385.48 Q444.625 1387.36 441.755 1387.82 Q445.204 1388.56 447.102 1390.92 Q449.023 1393.26 449.023 1396.78 Q449.023 1401.41 445.875 1403.93 Q442.727 1406.46 436.917 1406.46 L424.51 1406.46 L424.51 1371.9 Z" fill="#000000" fill-rule="nonzero" fill-opacity="1"></path><path clip-path="url(#clip670)" d="M457.033 1371.9 L464 1371.9 L472.819 1395.41 L481.685 1371.9 L488.653 1371.9 L488.653 1406.46 L484.093 1406.46 L484.093 1376.11 L475.181 1399.81 L470.482 1399.81 L461.57 1376.11 L461.57 1406.46 L457.033 1406.46 L457.033 1371.9 Z" fill="#000000" fill-rule="nonzero" fill-opacity="1"></path><path clip-path="url(#clip670)" d="M509.486 1376.5 L503.143 1393.7 L515.852 1393.7 L509.486 1376.5 M506.847 1371.9 L512.148 1371.9 L525.319 1406.46 L520.458 1406.46 L517.31 1397.59 L501.731 1397.59 L498.583 1406.46 L493.653 1406.46 L506.847 1371.9 Z" fill="#000000" fill-rule="nonzero" fill-opacity="1"></path><path clip-path="url(#clip670)" d="M526.986 1391.57 L539.463 1391.57 L539.463 1395.37 L526.986 1395.37 L526.986 1391.57 Z" fill="#000000" fill-rule="nonzero" fill-opacity="1"></path><path clip-path="url(#clip670)" d="M567.148 1373.03 L567.148 1377.59 Q564.486 1376.32 562.125 1375.69 Q559.763 1375.07 557.564 1375.07 Q553.745 1375.07 551.662 1376.55 Q549.601 1378.03 549.601 1380.76 Q549.601 1383.05 550.967 1384.23 Q552.356 1385.39 556.199 1386.11 L559.023 1386.69 Q564.254 1387.68 566.731 1390.21 Q569.231 1392.71 569.231 1396.92 Q569.231 1401.94 565.851 1404.53 Q562.495 1407.13 555.99 1407.13 Q553.537 1407.13 550.759 1406.57 Q548.004 1406.02 545.041 1404.93 L545.041 1400.11 Q547.889 1401.71 550.62 1402.52 Q553.351 1403.33 555.99 1403.33 Q559.995 1403.33 562.171 1401.76 Q564.347 1400.18 564.347 1397.27 Q564.347 1394.72 562.773 1393.28 Q561.222 1391.85 557.657 1391.13 L554.81 1390.58 Q549.578 1389.53 547.24 1387.31 Q544.902 1385.09 544.902 1381.13 Q544.902 1376.55 548.12 1373.91 Q551.361 1371.27 557.032 1371.27 Q559.463 1371.27 561.986 1371.71 Q564.509 1372.15 567.148 1373.03 Z" fill="#000000" fill-rule="nonzero" fill-opacity="1"></path><path clip-path="url(#clip670)" d="M581.199 1375.74 L581.199 1402.61 L586.847 1402.61 Q593.999 1402.61 597.31 1399.37 Q600.643 1396.13 600.643 1389.14 Q600.643 1382.2 597.31 1378.98 Q593.999 1375.74 586.847 1375.74 L581.199 1375.74 M576.523 1371.9 L586.129 1371.9 Q596.175 1371.9 600.874 1376.09 Q605.573 1380.25 605.573 1389.14 Q605.573 1398.08 600.851 1402.27 Q596.129 1406.46 586.129 1406.46 L576.523 1406.46 L576.523 1371.9 Z" fill="#000000" fill-rule="nonzero" fill-opacity="1"></path><path clip-path="url(#clip670)" d="M613.027 1371.9 L632.888 1371.9 L632.888 1375.83 L617.703 1375.83 L617.703 1386.02 L631.407 1386.02 L631.407 1389.95 L617.703 1389.95 L617.703 1406.46 L613.027 1406.46 L613.027 1371.9 Z" fill="#000000" fill-rule="nonzero" fill-opacity="1"></path></svg>