<svg xmlns="http://www.w3.org/2000/svg" xmlns:xlink="http://www.w3.org/1999/xlink" width="600" height="400" viewBox="0 0 2400 1600">
<defs>
  <clipPath id="clip110">
    <rect x="0" y="0" width="2400" height="1600"></rect>
  </clipPath>
</defs>
<path clip-path="url(#clip110)" d="M0 1600 L2400 1600 L2400 0 L0 0  Z" fill="#ffffff" fill-rule="evenodd" fill-opacity="1"></path>
<defs>
  <clipPath id="clip111">
    <rect x="480" y="0" width="1681" height="1600"></rect>
  </clipPath>
</defs>
<path clip-path="url(#clip110)" d="M249.542 1423.18 L2352.76 1423.18 L2352.76 123.472 L249.542 123.472  Z" fill="#ffffff" fill-rule="evenodd" fill-opacity="1"></path>
<defs>
  <clipPath id="clip112">
    <rect x="249" y="123" width="2104" height="1301"></rect>
  </clipPath>
</defs>
<polyline clip-path="url(#clip112)" style="stroke:#000000; stroke-linecap:round; stroke-linejoin:round; stroke-width:2; stroke-opacity:0.1; fill:none" points="739.787,1423.18 739.787,123.472 "></polyline>
<polyline clip-path="url(#clip112)" style="stroke:#000000; stroke-linecap:round; stroke-linejoin:round; stroke-width:2; stroke-opacity:0.1; fill:none" points="1246.53,1423.18 1246.53,123.472 "></polyline>
<polyline clip-path="url(#clip112)" style="stroke:#000000; stroke-linecap:round; stroke-linejoin:round; stroke-width:2; stroke-opacity:0.1; fill:none" points="1753.27,1423.18 1753.27,123.472 "></polyline>
<polyline clip-path="url(#clip112)" style="stroke:#000000; stroke-linecap:round; stroke-linejoin:round; stroke-width:2; stroke-opacity:0.1; fill:none" points="2260.01,1423.18 2260.01,123.472 "></polyline>
<polyline clip-path="url(#clip112)" style="stroke:#000000; stroke-linecap:round; stroke-linejoin:round; stroke-width:2; stroke-opacity:0.1; fill:none" points="249.542,1386.4 2352.76,1386.4 "></polyline>
<polyline clip-path="url(#clip112)" style="stroke:#000000; stroke-linecap:round; stroke-linejoin:round; stroke-width:2; stroke-opacity:0.1; fill:none" points="249.542,1113.5 2352.76,1113.5 "></polyline>
<polyline clip-path="url(#clip112)" style="stroke:#000000; stroke-linecap:round; stroke-linejoin:round; stroke-width:2; stroke-opacity:0.1; fill:none" points="249.542,840.603 2352.76,840.603 "></polyline>
<polyline clip-path="url(#clip112)" style="stroke:#000000; stroke-linecap:round; stroke-linejoin:round; stroke-width:2; stroke-opacity:0.1; fill:none" points="249.542,567.706 2352.76,567.706 "></polyline>
<polyline clip-path="url(#clip112)" style="stroke:#000000; stroke-linecap:round; stroke-linejoin:round; stroke-width:2; stroke-opacity:0.1; fill:none" points="249.542,294.81 2352.76,294.81 "></polyline>
<polyline clip-path="url(#clip110)" style="stroke:#000000; stroke-linecap:round; stroke-linejoin:round; stroke-width:4; stroke-opacity:1; fill:none" points="249.542,1423.18 2352.76,1423.18 "></polyline>
<polyline clip-path="url(#clip110)" style="stroke:#000000; stroke-linecap:round; stroke-linejoin:round; stroke-width:4; stroke-opacity:1; fill:none" points="739.787,1423.18 739.787,1404.28 "></polyline>
<polyline clip-path="url(#clip110)" style="stroke:#000000; stroke-linecap:round; stroke-linejoin:round; stroke-width:4; stroke-opacity:1; fill:none" points="1246.53,1423.18 1246.53,1404.28 "></polyline>
<polyline clip-path="url(#clip110)" style="stroke:#000000; stroke-linecap:round; stroke-linejoin:round; stroke-width:4; stroke-opacity:1; fill:none" points="1753.27,1423.18 1753.27,1404.28 "></polyline>
<polyline clip-path="url(#clip110)" style="stroke:#000000; stroke-linecap:round; stroke-linejoin:round; stroke-width:4; stroke-opacity:1; fill:none" points="2260.01,1423.18 2260.01,1404.28 "></polyline>
<path clip-path="url(#clip110)" d="M709.73 1468.75 L739.406 1468.75 L739.406 1472.69 L709.73 1472.69 L709.73 1468.75 Z" fill="#000000" fill-rule="nonzero" fill-opacity="1"></path><path clip-path="url(#clip110)" d="M753.526 1481.64 L769.845 1481.64 L769.845 1485.58 L747.901 1485.58 L747.901 1481.64 Q750.563 1478.89 755.146 1474.26 Q759.753 1469.61 760.933 1468.27 Q763.179 1465.74 764.058 1464.01 Q764.961 1462.25 764.961 1460.56 Q764.961 1457.8 763.017 1456.07 Q761.095 1454.33 757.993 1454.33 Q755.794 1454.33 753.341 1455.09 Q750.91 1455.86 748.132 1457.41 L748.132 1452.69 Q750.956 1451.55 753.41 1450.97 Q755.864 1450.39 757.901 1450.39 Q763.271 1450.39 766.466 1453.08 Q769.66 1455.77 769.66 1460.26 Q769.66 1462.39 768.85 1464.31 Q768.063 1466.2 765.956 1468.8 Q765.378 1469.47 762.276 1472.69 Q759.174 1475.88 753.526 1481.64 Z" fill="#000000" fill-rule="nonzero" fill-opacity="1"></path><path clip-path="url(#clip110)" d="M1246.53 1454.1 Q1242.92 1454.1 1241.09 1457.66 Q1239.28 1461.2 1239.28 1468.33 Q1239.28 1475.44 1241.09 1479.01 Q1242.92 1482.55 1246.53 1482.55 Q1250.16 1482.55 1251.97 1479.01 Q1253.8 1475.44 1253.8 1468.33 Q1253.8 1461.2 1251.97 1457.66 Q1250.16 1454.1 1246.53 1454.1 M1246.53 1450.39 Q1252.34 1450.39 1255.39 1455 Q1258.47 1459.58 1258.47 1468.33 Q1258.47 1477.06 1255.39 1481.67 Q1252.34 1486.25 1246.53 1486.25 Q1240.72 1486.25 1237.64 1481.67 Q1234.58 1477.06 1234.58 1468.33 Q1234.58 1459.58 1237.64 1455 Q1240.72 1450.39 1246.53 1450.39 Z" fill="#000000" fill-rule="nonzero" fill-opacity="1"></path><path clip-path="url(#clip110)" d="M1747.92 1481.64 L1764.24 1481.64 L1764.24 1485.58 L1742.3 1485.58 L1742.3 1481.64 Q1744.96 1478.89 1749.54 1474.26 Q1754.15 1469.61 1755.33 1468.27 Q1757.57 1465.74 1758.45 1464.01 Q1759.36 1462.25 1759.36 1460.56 Q1759.36 1457.8 1757.41 1456.07 Q1755.49 1454.33 1752.39 1454.33 Q1750.19 1454.33 1747.73 1455.09 Q1745.3 1455.86 1742.53 1457.41 L1742.53 1452.69 Q1745.35 1451.55 1747.8 1450.97 Q1750.26 1450.39 1752.3 1450.39 Q1757.67 1450.39 1760.86 1453.08 Q1764.05 1455.77 1764.05 1460.26 Q1764.05 1462.39 1763.24 1464.31 Q1762.46 1466.2 1760.35 1468.8 Q1759.77 1469.47 1756.67 1472.69 Q1753.57 1475.88 1747.92 1481.64 Z" fill="#000000" fill-rule="nonzero" fill-opacity="1"></path><path clip-path="url(#clip110)" d="M2263.02 1455.09 L2251.21 1473.54 L2263.02 1473.54 L2263.02 1455.09 M2261.79 1451.02 L2267.67 1451.02 L2267.67 1473.54 L2272.6 1473.54 L2272.6 1477.43 L2267.67 1477.43 L2267.67 1485.58 L2263.02 1485.58 L2263.02 1477.43 L2247.41 1477.43 L2247.41 1472.92 L2261.79 1451.02 Z" fill="#000000" fill-rule="nonzero" fill-opacity="1"></path><path clip-path="url(#clip110)" d="M911.695 1545.76 Q913.764 1546.46 915.705 1548.76 Q917.679 1551.05 919.652 1555.06 L926.177 1568.04 L919.27 1568.04 L913.191 1555.85 Q910.836 1551.08 908.608 1549.52 Q906.412 1547.96 902.592 1547.96 L895.59 1547.96 L895.59 1568.04 L889.16 1568.04 L889.16 1520.52 L903.674 1520.52 Q911.822 1520.52 915.833 1523.93 Q919.843 1527.34 919.843 1534.21 Q919.843 1538.7 917.742 1541.66 Q915.674 1544.62 911.695 1545.76 M895.59 1525.81 L895.59 1542.68 L903.674 1542.68 Q908.321 1542.68 910.677 1540.54 Q913.064 1538.38 913.064 1534.21 Q913.064 1530.04 910.677 1527.94 Q908.321 1525.81 903.674 1525.81 L895.59 1525.81 Z" fill="#000000" fill-rule="nonzero" fill-opacity="1"></path><path clip-path="url(#clip110)" d="M934.198 1532.4 L940.054 1532.4 L940.054 1568.04 L934.198 1568.04 L934.198 1532.4 M934.198 1518.52 L940.054 1518.52 L940.054 1525.93 L934.198 1525.93 L934.198 1518.52 Z" fill="#000000" fill-rule="nonzero" fill-opacity="1"></path><path clip-path="url(#clip110)" d="M975.034 1533.45 L975.034 1538.98 Q972.551 1537.71 969.878 1537.07 Q967.204 1536.44 964.339 1536.44 Q959.979 1536.44 957.783 1537.77 Q955.618 1539.11 955.618 1541.79 Q955.618 1543.82 957.178 1545 Q958.738 1546.15 963.448 1547.2 L965.453 1547.64 Q971.692 1548.98 974.302 1551.43 Q976.944 1553.85 976.944 1558.21 Q976.944 1563.17 972.997 1566.07 Q969.082 1568.97 962.207 1568.97 Q959.342 1568.97 956.223 1568.39 Q953.136 1567.85 949.698 1566.74 L949.698 1560.69 Q952.945 1562.38 956.096 1563.24 Q959.247 1564.07 962.334 1564.07 Q966.472 1564.07 968.7 1562.66 Q970.928 1561.23 970.928 1558.65 Q970.928 1556.27 969.305 1554.99 Q967.713 1553.72 962.271 1552.54 L960.234 1552.07 Q954.791 1550.92 952.372 1548.56 Q949.953 1546.18 949.953 1542.04 Q949.953 1537.01 953.518 1534.27 Q957.083 1531.54 963.639 1531.54 Q966.886 1531.54 969.75 1532.01 Q972.615 1532.49 975.034 1533.45 Z" fill="#000000" fill-rule="nonzero" fill-opacity="1"></path><path clip-path="url(#clip110)" d="M986.046 1518.52 L991.935 1518.52 L991.935 1547.77 L1009.41 1532.4 L1016.89 1532.4 L997.982 1549.07 L1017.68 1568.04 L1010.05 1568.04 L991.935 1550.63 L991.935 1568.04 L986.046 1568.04 L986.046 1518.52 Z" fill="#000000" fill-rule="nonzero" fill-opacity="1"></path><path clip-path="url(#clip110)" d="M1050.4 1562.7 L1050.4 1581.6 L1044.52 1581.6 L1044.52 1532.4 L1050.4 1532.4 L1050.4 1537.81 Q1052.25 1534.62 1055.05 1533.1 Q1057.88 1531.54 1061.8 1531.54 Q1068.29 1531.54 1072.33 1536.69 Q1076.41 1541.85 1076.41 1550.25 Q1076.41 1558.65 1072.33 1563.81 Q1068.29 1568.97 1061.8 1568.97 Q1057.88 1568.97 1055.05 1567.44 Q1052.25 1565.88 1050.4 1562.7 M1070.33 1550.25 Q1070.33 1543.79 1067.65 1540.13 Q1065.01 1536.44 1060.37 1536.44 Q1055.72 1536.44 1053.05 1540.13 Q1050.4 1543.79 1050.4 1550.25 Q1050.4 1556.71 1053.05 1560.4 Q1055.72 1564.07 1060.37 1564.07 Q1065.01 1564.07 1067.65 1560.4 Q1070.33 1556.71 1070.33 1550.25 Z" fill="#000000" fill-rule="nonzero" fill-opacity="1"></path><path clip-path="url(#clip110)" d="M1106.77 1537.87 Q1105.79 1537.3 1104.61 1537.04 Q1103.46 1536.76 1102.06 1536.76 Q1097.1 1536.76 1094.42 1540 Q1091.78 1543.22 1091.78 1549.27 L1091.78 1568.04 L1085.89 1568.04 L1085.89 1532.4 L1091.78 1532.4 L1091.78 1537.93 Q1093.63 1534.69 1096.59 1533.13 Q1099.55 1531.54 1103.78 1531.54 Q1104.38 1531.54 1105.12 1531.63 Q1105.85 1531.7 1106.74 1531.85 L1106.77 1537.87 Z" fill="#000000" fill-rule="nonzero" fill-opacity="1"></path><path clip-path="url(#clip110)" d="M1141.97 1548.76 L1141.97 1551.62 L1115.05 1551.62 Q1115.43 1557.67 1118.68 1560.85 Q1121.95 1564 1127.78 1564 Q1131.15 1564 1134.3 1563.17 Q1137.49 1562.35 1140.61 1560.69 L1140.61 1566.23 Q1137.45 1567.57 1134.14 1568.27 Q1130.83 1568.97 1127.43 1568.97 Q1118.9 1568.97 1113.9 1564 Q1108.94 1559.04 1108.94 1550.57 Q1108.94 1541.82 1113.65 1536.69 Q1118.39 1531.54 1126.41 1531.54 Q1133.6 1531.54 1137.77 1536.18 Q1141.97 1540.8 1141.97 1548.76 M1136.12 1547.04 Q1136.05 1542.23 1133.41 1539.37 Q1130.8 1536.5 1126.47 1536.5 Q1121.57 1536.5 1118.61 1539.27 Q1115.68 1542.04 1115.24 1547.07 L1136.12 1547.04 Z" fill="#000000" fill-rule="nonzero" fill-opacity="1"></path><path clip-path="url(#clip110)" d="M1179.34 1539.24 Q1181.54 1535.29 1184.59 1533.41 Q1187.65 1531.54 1191.79 1531.54 Q1197.36 1531.54 1200.38 1535.45 Q1203.4 1539.33 1203.4 1546.53 L1203.4 1568.04 L1197.52 1568.04 L1197.52 1546.72 Q1197.52 1541.59 1195.7 1539.11 Q1193.89 1536.63 1190.16 1536.63 Q1185.61 1536.63 1182.97 1539.65 Q1180.33 1542.68 1180.33 1547.9 L1180.33 1568.04 L1174.44 1568.04 L1174.44 1546.72 Q1174.44 1541.56 1172.63 1539.11 Q1170.81 1536.63 1167.02 1536.63 Q1162.54 1536.63 1159.89 1539.68 Q1157.25 1542.71 1157.25 1547.9 L1157.25 1568.04 L1151.36 1568.04 L1151.36 1532.4 L1157.25 1532.4 L1157.25 1537.93 Q1159.26 1534.66 1162.06 1533.1 Q1164.86 1531.54 1168.71 1531.54 Q1172.59 1531.54 1175.3 1533.51 Q1178.04 1535.48 1179.34 1539.24 Z" fill="#000000" fill-rule="nonzero" fill-opacity="1"></path><path clip-path="url(#clip110)" d="M1215.08 1532.4 L1220.94 1532.4 L1220.94 1568.04 L1215.08 1568.04 L1215.08 1532.4 M1215.08 1518.52 L1220.94 1518.52 L1220.94 1525.93 L1215.08 1525.93 L1215.08 1518.52 Z" fill="#000000" fill-rule="nonzero" fill-opacity="1"></path><path clip-path="url(#clip110)" d="M1232.59 1553.98 L1232.59 1532.4 L1238.45 1532.4 L1238.45 1553.75 Q1238.45 1558.81 1240.42 1561.36 Q1242.39 1563.87 1246.34 1563.87 Q1251.08 1563.87 1253.82 1560.85 Q1256.59 1557.83 1256.59 1552.61 L1256.59 1532.4 L1262.45 1532.4 L1262.45 1568.04 L1256.59 1568.04 L1256.59 1562.57 Q1254.46 1565.82 1251.62 1567.41 Q1248.82 1568.97 1245.1 1568.97 Q1238.96 1568.97 1235.77 1565.15 Q1232.59 1561.33 1232.59 1553.98 M1247.33 1531.54 L1247.33 1531.54 Z" fill="#000000" fill-rule="nonzero" fill-opacity="1"></path><path clip-path="url(#clip110)" d="M1302.26 1539.24 Q1304.46 1535.29 1307.51 1533.41 Q1310.57 1531.54 1314.71 1531.54 Q1320.28 1531.54 1323.3 1535.45 Q1326.33 1539.33 1326.33 1546.53 L1326.33 1568.04 L1320.44 1568.04 L1320.44 1546.72 Q1320.44 1541.59 1318.62 1539.11 Q1316.81 1536.63 1313.08 1536.63 Q1308.53 1536.63 1305.89 1539.65 Q1303.25 1542.68 1303.25 1547.9 L1303.25 1568.04 L1297.36 1568.04 L1297.36 1546.72 Q1297.36 1541.56 1295.55 1539.11 Q1293.73 1536.63 1289.95 1536.63 Q1285.46 1536.63 1282.82 1539.68 Q1280.17 1542.71 1280.17 1547.9 L1280.17 1568.04 L1274.29 1568.04 L1274.29 1532.4 L1280.17 1532.4 L1280.17 1537.93 Q1282.18 1534.66 1284.98 1533.1 Q1287.78 1531.54 1291.63 1531.54 Q1295.52 1531.54 1298.22 1533.51 Q1300.96 1535.48 1302.26 1539.24 Z" fill="#000000" fill-rule="nonzero" fill-opacity="1"></path><path clip-path="url(#clip110)" d="M1372.79 1518.58 Q1368.53 1525.9 1366.46 1533.06 Q1364.39 1540.23 1364.39 1547.58 Q1364.39 1554.93 1366.46 1562.16 Q1368.56 1569.35 1372.79 1576.64 L1367.7 1576.64 Q1362.93 1569.16 1360.54 1561.93 Q1358.19 1554.71 1358.19 1547.58 Q1358.19 1540.48 1360.54 1533.29 Q1362.9 1526.09 1367.7 1518.58 L1372.79 1518.58 Z" fill="#000000" fill-rule="nonzero" fill-opacity="1"></path><path clip-path="url(#clip110)" d="M1398.19 1524.09 L1414.65 1568.04 L1408.44 1568.04 L1398.45 1541.69 L1386.16 1568.04 L1379.96 1568.04 L1395.58 1533.86 L1393.23 1527.56 Q1391.73 1523.55 1388.33 1523.55 L1385.27 1523.55 L1385.27 1518.52 L1389 1518.58 Q1396.19 1518.68 1398.19 1524.09 Z" fill="#000000" fill-rule="nonzero" fill-opacity="1"></path><path clip-path="url(#clip110)" d="M1445.46 1533.45 L1445.46 1538.98 Q1442.98 1537.71 1440.3 1537.07 Q1437.63 1536.44 1434.77 1536.44 Q1430.4 1536.44 1428.21 1537.77 Q1426.04 1539.11 1426.04 1541.79 Q1426.04 1543.82 1427.6 1545 Q1429.16 1546.15 1433.87 1547.2 L1435.88 1547.64 Q1442.12 1548.98 1444.73 1551.43 Q1447.37 1553.85 1447.37 1558.21 Q1447.37 1563.17 1443.42 1566.07 Q1439.51 1568.97 1432.63 1568.97 Q1429.77 1568.97 1426.65 1568.39 Q1423.56 1567.85 1420.12 1566.74 L1420.12 1560.69 Q1423.37 1562.38 1426.52 1563.24 Q1429.67 1564.07 1432.76 1564.07 Q1436.9 1564.07 1439.13 1562.66 Q1441.35 1561.23 1441.35 1558.65 Q1441.35 1556.27 1439.73 1554.99 Q1438.14 1553.72 1432.7 1552.54 L1430.66 1552.07 Q1425.22 1550.92 1422.8 1548.56 Q1420.38 1546.18 1420.38 1542.04 Q1420.38 1537.01 1423.94 1534.27 Q1427.51 1531.54 1434.06 1531.54 Q1437.31 1531.54 1440.18 1532.01 Q1443.04 1532.49 1445.46 1533.45 Z" fill="#000000" fill-rule="nonzero" fill-opacity="1"></path><path clip-path="url(#clip110)" d="M1462.36 1562.7 L1462.36 1581.6 L1456.47 1581.6 L1456.47 1532.4 L1462.36 1532.4 L1462.36 1537.81 Q1464.21 1534.62 1467.01 1533.1 Q1469.84 1531.54 1473.76 1531.54 Q1480.25 1531.54 1484.29 1536.69 Q1488.36 1541.85 1488.36 1550.25 Q1488.36 1558.65 1484.29 1563.81 Q1480.25 1568.97 1473.76 1568.97 Q1469.84 1568.97 1467.01 1567.44 Q1464.21 1565.88 1462.36 1562.7 M1482.29 1550.25 Q1482.29 1543.79 1479.61 1540.13 Q1476.97 1536.44 1472.32 1536.44 Q1467.68 1536.44 1465 1540.13 Q1462.36 1543.79 1462.36 1550.25 Q1462.36 1556.71 1465 1560.4 Q1467.68 1564.07 1472.32 1564.07 Q1476.97 1564.07 1479.61 1560.4 Q1482.29 1556.71 1482.29 1550.25 Z" fill="#000000" fill-rule="nonzero" fill-opacity="1"></path><path clip-path="url(#clip110)" d="M1497.47 1553.98 L1497.47 1532.4 L1503.32 1532.4 L1503.32 1553.75 Q1503.32 1558.81 1505.3 1561.36 Q1507.27 1563.87 1511.22 1563.87 Q1515.96 1563.87 1518.7 1560.85 Q1521.47 1557.83 1521.47 1552.61 L1521.47 1532.4 L1527.32 1532.4 L1527.32 1568.04 L1521.47 1568.04 L1521.47 1562.57 Q1519.33 1565.82 1516.5 1567.41 Q1513.7 1568.97 1509.98 1568.97 Q1503.83 1568.97 1500.65 1565.15 Q1497.47 1561.33 1497.47 1553.98 M1512.2 1531.54 L1512.2 1531.54 Z" fill="#000000" fill-rule="nonzero" fill-opacity="1"></path><path clip-path="url(#clip110)" d="M1560.04 1537.87 Q1559.06 1537.3 1557.88 1537.04 Q1556.73 1536.76 1555.33 1536.76 Q1550.37 1536.76 1547.69 1540 Q1545.05 1543.22 1545.05 1549.27 L1545.05 1568.04 L1539.16 1568.04 L1539.16 1532.4 L1545.05 1532.4 L1545.05 1537.93 Q1546.9 1534.69 1549.86 1533.13 Q1552.82 1531.54 1557.05 1531.54 Q1557.66 1531.54 1558.39 1531.63 Q1559.12 1531.7 1560.01 1531.85 L1560.04 1537.87 Z" fill="#000000" fill-rule="nonzero" fill-opacity="1"></path><path clip-path="url(#clip110)" d="M1566.19 1532.4 L1572.04 1532.4 L1572.04 1568.04 L1566.19 1568.04 L1566.19 1532.4 M1566.19 1518.52 L1572.04 1518.52 L1572.04 1525.93 L1566.19 1525.93 L1566.19 1518.52 Z" fill="#000000" fill-rule="nonzero" fill-opacity="1"></path><path clip-path="url(#clip110)" d="M1598.11 1536.5 Q1593.4 1536.5 1590.66 1540.19 Q1587.92 1543.85 1587.92 1550.25 Q1587.92 1556.65 1590.63 1560.34 Q1593.37 1564 1598.11 1564 Q1602.79 1564 1605.53 1560.31 Q1608.26 1556.62 1608.26 1550.25 Q1608.26 1543.92 1605.53 1540.23 Q1602.79 1536.5 1598.11 1536.5 M1598.11 1531.54 Q1605.75 1531.54 1610.11 1536.5 Q1614.47 1541.47 1614.47 1550.25 Q1614.47 1559 1610.11 1564 Q1605.75 1568.97 1598.11 1568.97 Q1590.44 1568.97 1586.08 1564 Q1581.75 1559 1581.75 1550.25 Q1581.75 1541.47 1586.08 1536.5 Q1590.44 1531.54 1598.11 1531.54 Z" fill="#000000" fill-rule="nonzero" fill-opacity="1"></path><path clip-path="url(#clip110)" d="M1623.57 1553.98 L1623.57 1532.4 L1629.43 1532.4 L1629.43 1553.75 Q1629.43 1558.81 1631.4 1561.36 Q1633.38 1563.87 1637.32 1563.87 Q1642.06 1563.87 1644.8 1560.85 Q1647.57 1557.83 1647.57 1552.61 L1647.57 1532.4 L1653.43 1532.4 L1653.43 1568.04 L1647.57 1568.04 L1647.57 1562.57 Q1645.44 1565.82 1642.61 1567.41 Q1639.8 1568.97 1636.08 1568.97 Q1629.94 1568.97 1626.75 1565.15 Q1623.57 1561.33 1623.57 1553.98 M1638.31 1531.54 L1638.31 1531.54 Z" fill="#000000" fill-rule="nonzero" fill-opacity="1"></path><path clip-path="url(#clip110)" d="M1688.22 1533.45 L1688.22 1538.98 Q1685.73 1537.71 1683.06 1537.07 Q1680.39 1536.44 1677.52 1536.44 Q1673.16 1536.44 1670.96 1537.77 Q1668.8 1539.11 1668.8 1541.79 Q1668.8 1543.82 1670.36 1545 Q1671.92 1546.15 1676.63 1547.2 L1678.64 1547.64 Q1684.87 1548.98 1687.48 1551.43 Q1690.13 1553.85 1690.13 1558.21 Q1690.13 1563.17 1686.18 1566.07 Q1682.26 1568.97 1675.39 1568.97 Q1672.52 1568.97 1669.41 1568.39 Q1666.32 1567.85 1662.88 1566.74 L1662.88 1560.69 Q1666.13 1562.38 1669.28 1563.24 Q1672.43 1564.07 1675.52 1564.07 Q1679.65 1564.07 1681.88 1562.66 Q1684.11 1561.23 1684.11 1558.65 Q1684.11 1556.27 1682.49 1554.99 Q1680.9 1553.72 1675.45 1552.54 L1673.42 1552.07 Q1667.97 1550.92 1665.55 1548.56 Q1663.13 1546.18 1663.13 1542.04 Q1663.13 1537.01 1666.7 1534.27 Q1670.26 1531.54 1676.82 1531.54 Q1680.07 1531.54 1682.93 1532.01 Q1685.8 1532.49 1688.22 1533.45 Z" fill="#000000" fill-rule="nonzero" fill-opacity="1"></path><path clip-path="url(#clip110)" d="M1698.53 1518.58 L1703.62 1518.58 Q1708.4 1526.09 1710.75 1533.29 Q1713.14 1540.48 1713.14 1547.58 Q1713.14 1554.71 1710.75 1561.93 Q1708.4 1569.16 1703.62 1576.64 L1698.53 1576.64 Q1702.76 1569.35 1704.83 1562.16 Q1706.93 1554.93 1706.93 1547.58 Q1706.93 1540.23 1704.83 1533.06 Q1702.76 1525.9 1698.53 1518.58 Z" fill="#000000" fill-rule="nonzero" fill-opacity="1"></path><polyline clip-path="url(#clip110)" style="stroke:#000000; stroke-linecap:round; stroke-linejoin:round; stroke-width:4; stroke-opacity:1; fill:none" points="249.542,1423.18 249.542,123.472 "></polyline>
<polyline clip-path="url(#clip110)" style="stroke:#000000; stroke-linecap:round; stroke-linejoin:round; stroke-width:4; stroke-opacity:1; fill:none" points="249.542,1386.4 268.44,1386.4 "></polyline>
<polyline clip-path="url(#clip110)" style="stroke:#000000; stroke-linecap:round; stroke-linejoin:round; stroke-width:4; stroke-opacity:1; fill:none" points="249.542,1113.5 268.44,1113.5 "></polyline>
<polyline clip-path="url(#clip110)" style="stroke:#000000; stroke-linecap:round; stroke-linejoin:round; stroke-width:4; stroke-opacity:1; fill:none" points="249.542,840.603 268.44,840.603 "></polyline>
<polyline clip-path="url(#clip110)" style="stroke:#000000; stroke-linecap:round; stroke-linejoin:round; stroke-width:4; stroke-opacity:1; fill:none" points="249.542,567.706 268.44,567.706 "></polyline>
<polyline clip-path="url(#clip110)" style="stroke:#000000; stroke-linecap:round; stroke-linejoin:round; stroke-width:4; stroke-opacity:1; fill:none" points="249.542,294.81 268.44,294.81 "></polyline>
<path clip-path="url(#clip110)" d="M126.205 1372.19 Q122.593 1372.19 120.765 1375.76 Q118.959 1379.3 118.959 1386.43 Q118.959 1393.54 120.765 1397.1 Q122.593 1400.64 126.205 1400.64 Q129.839 1400.64 131.644 1397.1 Q133.473 1393.54 133.473 1386.43 Q133.473 1379.3 131.644 1375.76 Q129.839 1372.19 126.205 1372.19 M126.205 1368.49 Q132.015 1368.49 135.07 1373.1 Q138.149 1377.68 138.149 1386.43 Q138.149 1395.16 135.07 1399.76 Q132.015 1404.35 126.205 1404.35 Q120.394 1404.35 117.316 1399.76 Q114.26 1395.16 114.26 1386.43 Q114.26 1377.68 117.316 1373.1 Q120.394 1368.49 126.205 1368.49 Z" fill="#000000" fill-rule="nonzero" fill-opacity="1"></path><path clip-path="url(#clip110)" d="M146.366 1397.8 L151.251 1397.8 L151.251 1403.68 L146.366 1403.68 L146.366 1397.8 Z" fill="#000000" fill-rule="nonzero" fill-opacity="1"></path><path clip-path="url(#clip110)" d="M171.436 1372.19 Q167.825 1372.19 165.996 1375.76 Q164.19 1379.3 164.19 1386.43 Q164.19 1393.54 165.996 1397.1 Q167.825 1400.64 171.436 1400.64 Q175.07 1400.64 176.876 1397.1 Q178.704 1393.54 178.704 1386.43 Q178.704 1379.3 176.876 1375.76 Q175.07 1372.19 171.436 1372.19 M171.436 1368.49 Q177.246 1368.49 180.301 1373.1 Q183.38 1377.68 183.38 1386.43 Q183.38 1395.16 180.301 1399.76 Q177.246 1404.35 171.436 1404.35 Q165.626 1404.35 162.547 1399.76 Q159.491 1395.16 159.491 1386.43 Q159.491 1377.68 162.547 1373.1 Q165.626 1368.49 171.436 1368.49 Z" fill="#000000" fill-rule="nonzero" fill-opacity="1"></path><path clip-path="url(#clip110)" d="M201.598 1372.19 Q197.987 1372.19 196.158 1375.76 Q194.352 1379.3 194.352 1386.43 Q194.352 1393.54 196.158 1397.1 Q197.987 1400.64 201.598 1400.64 Q205.232 1400.64 207.037 1397.1 Q208.866 1393.54 208.866 1386.43 Q208.866 1379.3 207.037 1375.76 Q205.232 1372.19 201.598 1372.19 M201.598 1368.49 Q207.408 1368.49 210.463 1373.1 Q213.542 1377.68 213.542 1386.43 Q213.542 1395.16 210.463 1399.76 Q207.408 1404.35 201.598 1404.35 Q195.787 1404.35 192.709 1399.76 Q189.653 1395.16 189.653 1386.43 Q189.653 1377.68 192.709 1373.1 Q195.787 1368.49 201.598 1368.49 Z" fill="#000000" fill-rule="nonzero" fill-opacity="1"></path><path clip-path="url(#clip110)" d="M127.2 1099.3 Q123.589 1099.3 121.76 1102.86 Q119.955 1106.4 119.955 1113.53 Q119.955 1120.64 121.76 1124.21 Q123.589 1127.75 127.2 1127.75 Q130.834 1127.75 132.64 1124.21 Q134.468 1120.64 134.468 1113.53 Q134.468 1106.4 132.64 1102.86 Q130.834 1099.3 127.2 1099.3 M127.2 1095.59 Q133.01 1095.59 136.066 1100.2 Q139.144 1104.78 139.144 1113.53 Q139.144 1122.26 136.066 1126.87 Q133.01 1131.45 127.2 1131.45 Q121.39 1131.45 118.311 1126.87 Q115.256 1122.26 115.256 1113.53 Q115.256 1104.78 118.311 1100.2 Q121.39 1095.59 127.2 1095.59 Z" fill="#000000" fill-rule="nonzero" fill-opacity="1"></path><path clip-path="url(#clip110)" d="M147.362 1124.9 L152.246 1124.9 L152.246 1130.78 L147.362 1130.78 L147.362 1124.9 Z" fill="#000000" fill-rule="nonzero" fill-opacity="1"></path><path clip-path="url(#clip110)" d="M166.459 1126.84 L182.778 1126.84 L182.778 1130.78 L160.834 1130.78 L160.834 1126.84 Q163.496 1124.09 168.079 1119.46 Q172.686 1114.81 173.866 1113.46 Q176.112 1110.94 176.991 1109.21 Q177.894 1107.45 177.894 1105.76 Q177.894 1103 175.95 1101.27 Q174.028 1099.53 170.927 1099.53 Q168.727 1099.53 166.274 1100.29 Q163.843 1101.06 161.065 1102.61 L161.065 1097.89 Q163.89 1096.75 166.343 1096.17 Q168.797 1095.59 170.834 1095.59 Q176.204 1095.59 179.399 1098.28 Q182.593 1100.96 182.593 1105.46 Q182.593 1107.59 181.783 1109.51 Q180.996 1111.4 178.889 1114 Q178.311 1114.67 175.209 1117.89 Q172.107 1121.08 166.459 1126.84 Z" fill="#000000" fill-rule="nonzero" fill-opacity="1"></path><path clip-path="url(#clip110)" d="M192.639 1096.22 L210.996 1096.22 L210.996 1100.15 L196.922 1100.15 L196.922 1108.63 Q197.94 1108.28 198.959 1108.12 Q199.977 1107.93 200.996 1107.93 Q206.783 1107.93 210.162 1111.1 Q213.542 1114.27 213.542 1119.69 Q213.542 1125.27 210.07 1128.37 Q206.598 1131.45 200.278 1131.45 Q198.102 1131.45 195.834 1131.08 Q193.588 1130.71 191.181 1129.97 L191.181 1125.27 Q193.264 1126.4 195.487 1126.96 Q197.709 1127.52 200.186 1127.52 Q204.19 1127.52 206.528 1125.41 Q208.866 1123.3 208.866 1119.69 Q208.866 1116.08 206.528 1113.97 Q204.19 1111.87 200.186 1111.87 Q198.311 1111.87 196.436 1112.28 Q194.584 1112.7 192.639 1113.58 L192.639 1096.22 Z" fill="#000000" fill-rule="nonzero" fill-opacity="1"></path><path clip-path="url(#clip110)" d="M126.205 826.401 Q122.593 826.401 120.765 829.966 Q118.959 833.508 118.959 840.637 Q118.959 847.744 120.765 851.309 Q122.593 854.85 126.205 854.85 Q129.839 854.85 131.644 851.309 Q133.473 847.744 133.473 840.637 Q133.473 833.508 131.644 829.966 Q129.839 826.401 126.205 826.401 M126.205 822.698 Q132.015 822.698 135.07 827.304 Q138.149 831.888 138.149 840.637 Q138.149 849.364 135.07 853.971 Q132.015 858.554 126.205 858.554 Q120.394 858.554 117.316 853.971 Q114.26 849.364 114.26 840.637 Q114.26 831.888 117.316 827.304 Q120.394 822.698 126.205 822.698 Z" fill="#000000" fill-rule="nonzero" fill-opacity="1"></path><path clip-path="url(#clip110)" d="M146.366 852.003 L151.251 852.003 L151.251 857.883 L146.366 857.883 L146.366 852.003 Z" fill="#000000" fill-rule="nonzero" fill-opacity="1"></path><path clip-path="url(#clip110)" d="M161.482 823.323 L179.839 823.323 L179.839 827.258 L165.765 827.258 L165.765 835.73 Q166.783 835.383 167.802 835.221 Q168.82 835.036 169.839 835.036 Q175.626 835.036 179.005 838.207 Q182.385 841.378 182.385 846.795 Q182.385 852.374 178.913 855.475 Q175.44 858.554 169.121 858.554 Q166.945 858.554 164.677 858.184 Q162.431 857.813 160.024 857.073 L160.024 852.374 Q162.107 853.508 164.329 854.063 Q166.552 854.619 169.028 854.619 Q173.033 854.619 175.371 852.512 Q177.709 850.406 177.709 846.795 Q177.709 843.184 175.371 841.077 Q173.033 838.971 169.028 838.971 Q167.153 838.971 165.278 839.387 Q163.427 839.804 161.482 840.684 L161.482 823.323 Z" fill="#000000" fill-rule="nonzero" fill-opacity="1"></path><path clip-path="url(#clip110)" d="M201.598 826.401 Q197.987 826.401 196.158 829.966 Q194.352 833.508 194.352 840.637 Q194.352 847.744 196.158 851.309 Q197.987 854.85 201.598 854.85 Q205.232 854.85 207.037 851.309 Q208.866 847.744 208.866 840.637 Q208.866 833.508 207.037 829.966 Q205.232 826.401 201.598 826.401 M201.598 822.698 Q207.408 822.698 210.463 827.304 Q213.542 831.888 213.542 840.637 Q213.542 849.364 210.463 853.971 Q207.408 858.554 201.598 858.554 Q195.787 858.554 192.709 853.971 Q189.653 849.364 189.653 840.637 Q189.653 831.888 192.709 827.304 Q195.787 822.698 201.598 822.698 Z" fill="#000000" fill-rule="nonzero" fill-opacity="1"></path><path clip-path="url(#clip110)" d="M127.2 553.505 Q123.589 553.505 121.76 557.07 Q119.955 560.611 119.955 567.741 Q119.955 574.847 121.76 578.412 Q123.589 581.954 127.2 581.954 Q130.834 581.954 132.64 578.412 Q134.468 574.847 134.468 567.741 Q134.468 560.611 132.64 557.07 Q130.834 553.505 127.2 553.505 M127.2 549.801 Q133.01 549.801 136.066 554.408 Q139.144 558.991 139.144 567.741 Q139.144 576.468 136.066 581.074 Q133.01 585.657 127.2 585.657 Q121.39 585.657 118.311 581.074 Q115.256 576.468 115.256 567.741 Q115.256 558.991 118.311 554.408 Q121.39 549.801 127.2 549.801 Z" fill="#000000" fill-rule="nonzero" fill-opacity="1"></path><path clip-path="url(#clip110)" d="M147.362 579.107 L152.246 579.107 L152.246 584.986 L147.362 584.986 L147.362 579.107 Z" fill="#000000" fill-rule="nonzero" fill-opacity="1"></path><path clip-path="url(#clip110)" d="M161.251 550.426 L183.473 550.426 L183.473 552.417 L170.927 584.986 L166.042 584.986 L177.848 554.361 L161.251 554.361 L161.251 550.426 Z" fill="#000000" fill-rule="nonzero" fill-opacity="1"></path><path clip-path="url(#clip110)" d="M192.639 550.426 L210.996 550.426 L210.996 554.361 L196.922 554.361 L196.922 562.834 Q197.94 562.486 198.959 562.324 Q199.977 562.139 200.996 562.139 Q206.783 562.139 210.162 565.31 Q213.542 568.482 213.542 573.898 Q213.542 579.477 210.07 582.579 Q206.598 585.657 200.278 585.657 Q198.102 585.657 195.834 585.287 Q193.588 584.917 191.181 584.176 L191.181 579.477 Q193.264 580.611 195.487 581.167 Q197.709 581.722 200.186 581.722 Q204.19 581.722 206.528 579.616 Q208.866 577.509 208.866 573.898 Q208.866 570.287 206.528 568.181 Q204.19 566.074 200.186 566.074 Q198.311 566.074 196.436 566.491 Q194.584 566.908 192.639 567.787 L192.639 550.426 Z" fill="#000000" fill-rule="nonzero" fill-opacity="1"></path><path clip-path="url(#clip110)" d="M117.015 308.154 L124.654 308.154 L124.654 281.789 L116.343 283.455 L116.343 279.196 L124.607 277.53 L129.283 277.53 L129.283 308.154 L136.922 308.154 L136.922 312.09 L117.015 312.09 L117.015 308.154 Z" fill="#000000" fill-rule="nonzero" fill-opacity="1"></path><path clip-path="url(#clip110)" d="M146.366 306.21 L151.251 306.21 L151.251 312.09 L146.366 312.09 L146.366 306.21 Z" fill="#000000" fill-rule="nonzero" fill-opacity="1"></path><path clip-path="url(#clip110)" d="M171.436 280.608 Q167.825 280.608 165.996 284.173 Q164.19 287.715 164.19 294.844 Q164.19 301.951 165.996 305.516 Q167.825 309.057 171.436 309.057 Q175.07 309.057 176.876 305.516 Q178.704 301.951 178.704 294.844 Q178.704 287.715 176.876 284.173 Q175.07 280.608 171.436 280.608 M171.436 276.905 Q177.246 276.905 180.301 281.511 Q183.38 286.094 183.38 294.844 Q183.38 303.571 180.301 308.178 Q177.246 312.761 171.436 312.761 Q165.626 312.761 162.547 308.178 Q159.491 303.571 159.491 294.844 Q159.491 286.094 162.547 281.511 Q165.626 276.905 171.436 276.905 Z" fill="#000000" fill-rule="nonzero" fill-opacity="1"></path><path clip-path="url(#clip110)" d="M201.598 280.608 Q197.987 280.608 196.158 284.173 Q194.352 287.715 194.352 294.844 Q194.352 301.951 196.158 305.516 Q197.987 309.057 201.598 309.057 Q205.232 309.057 207.037 305.516 Q208.866 301.951 208.866 294.844 Q208.866 287.715 207.037 284.173 Q205.232 280.608 201.598 280.608 M201.598 276.905 Q207.408 276.905 210.463 281.511 Q213.542 286.094 213.542 294.844 Q213.542 303.571 210.463 308.178 Q207.408 312.761 201.598 312.761 Q195.787 312.761 192.709 308.178 Q189.653 303.571 189.653 294.844 Q189.653 286.094 192.709 281.511 Q195.787 276.905 201.598 276.905 Z" fill="#000000" fill-rule="nonzero" fill-opacity="1"></path><path clip-path="url(#clip110)" d="M21.7677 886.636 L58.7206 886.636 L58.7206 878.869 Q58.7206 869.034 54.2646 864.483 Q49.8086 859.9 40.1964 859.9 Q30.6479 859.9 26.2237 864.483 Q21.7677 869.034 21.7677 878.869 L21.7677 886.636 M16.4842 893.065 L16.4842 879.856 Q16.4842 866.043 22.2451 859.581 Q27.9743 853.12 40.1964 853.12 Q52.4822 853.12 58.2432 859.613 Q64.0042 866.106 64.0042 879.856 L64.0042 893.065 L16.4842 893.065 Z" fill="#000000" fill-rule="nonzero" fill-opacity="1"></path><path clip-path="url(#clip110)" d="M44.7161 812.634 L47.5806 812.634 L47.5806 839.561 Q53.6281 839.179 56.8109 835.933 Q59.9619 832.654 59.9619 826.83 Q59.9619 823.456 59.1344 820.305 Q58.3069 817.122 56.6518 814.003 L62.1899 814.003 Q63.5267 817.154 64.227 820.464 Q64.9272 823.774 64.9272 827.18 Q64.9272 835.71 59.9619 840.707 Q54.9967 845.672 46.5303 845.672 Q37.7774 845.672 32.6531 840.962 Q27.4968 836.219 27.4968 828.198 Q27.4968 821.005 32.1438 816.836 Q36.7589 812.634 44.7161 812.634 M42.9973 818.491 Q38.1912 818.554 35.3266 821.196 Q32.4621 823.806 32.4621 828.135 Q32.4621 833.036 35.2312 835.996 Q38.0002 838.925 43.0292 839.37 L42.9973 818.491 Z" fill="#000000" fill-rule="nonzero" fill-opacity="1"></path><path clip-path="url(#clip110)" d="M42.4881 773.39 L64.0042 773.39 L64.0042 779.246 L42.679 779.246 Q37.6183 779.246 35.1038 781.219 Q32.5894 783.193 32.5894 787.14 Q32.5894 791.882 35.6131 794.619 Q38.6368 797.357 43.8567 797.357 L64.0042 797.357 L64.0042 803.245 L28.3562 803.245 L28.3562 797.357 L33.8944 797.357 Q30.6797 795.256 29.0883 792.423 Q27.4968 789.559 27.4968 785.835 Q27.4968 779.692 31.3163 776.541 Q35.1038 773.39 42.4881 773.39 Z" fill="#000000" fill-rule="nonzero" fill-opacity="1"></path><path clip-path="url(#clip110)" d="M29.4065 738.983 L34.9447 738.983 Q33.6716 741.466 33.035 744.139 Q32.3984 746.813 32.3984 749.677 Q32.3984 754.038 33.7352 756.234 Q35.072 758.398 37.7456 758.398 Q39.7826 758.398 40.9603 756.839 Q42.1061 755.279 43.1565 750.569 L43.6021 748.563 Q44.9389 742.325 47.3897 739.715 Q49.8086 737.073 54.1691 737.073 Q59.1344 737.073 62.0308 741.02 Q64.9272 744.935 64.9272 751.81 Q64.9272 754.674 64.3543 757.794 Q63.8132 760.881 62.6992 764.319 L56.6518 764.319 Q58.3387 761.072 59.198 757.921 Q60.0256 754.77 60.0256 751.683 Q60.0256 747.545 58.6251 745.317 Q57.1929 743.089 54.6147 743.089 Q52.2276 743.089 50.9545 744.712 Q49.6813 746.304 48.5037 751.746 L48.0262 753.783 Q46.8804 759.226 44.5251 761.645 Q42.138 764.064 38.0002 764.064 Q32.9713 764.064 30.2341 760.499 Q27.4968 756.934 27.4968 750.378 Q27.4968 747.131 27.9743 744.267 Q28.4517 741.402 29.4065 738.983 Z" fill="#000000" fill-rule="nonzero" fill-opacity="1"></path><path clip-path="url(#clip110)" d="M28.3562 727.748 L28.3562 721.891 L64.0042 721.891 L64.0042 727.748 L28.3562 727.748 M14.479 727.748 L14.479 721.891 L21.895 721.891 L21.895 727.748 L14.479 727.748 Z" fill="#000000" fill-rule="nonzero" fill-opacity="1"></path><path clip-path="url(#clip110)" d="M18.2347 703.844 L28.3562 703.844 L28.3562 691.781 L32.9077 691.781 L32.9077 703.844 L52.2594 703.844 Q56.6199 703.844 57.8613 702.667 Q59.1026 701.457 59.1026 697.797 L59.1026 691.781 L64.0042 691.781 L64.0042 697.797 Q64.0042 704.576 61.4897 707.154 Q58.9434 709.733 52.2594 709.733 L32.9077 709.733 L32.9077 714.029 L28.3562 714.029 L28.3562 709.733 L18.2347 709.733 L18.2347 703.844 Z" fill="#000000" fill-rule="nonzero" fill-opacity="1"></path><path clip-path="url(#clip110)" d="M67.3143 669.247 Q73.68 671.729 75.6216 674.085 Q77.5631 676.44 77.5631 680.387 L77.5631 685.065 L72.6615 685.065 L72.6615 681.628 Q72.6615 679.209 71.5157 677.872 Q70.3699 676.535 66.1048 674.912 L63.4312 673.862 L28.3562 688.28 L28.3562 682.074 L56.238 670.934 L28.3562 659.794 L28.3562 653.587 L67.3143 669.247 Z" fill="#000000" fill-rule="nonzero" fill-opacity="1"></path><path clip-path="url(#clip110)" d="M1006.83 12.096 L1015.05 12.096 L1015.05 48.8377 Q1015.05 58.5599 1018.58 62.8538 Q1022.1 67.1073 1030 67.1073 Q1037.86 67.1073 1041.38 62.8538 Q1044.91 58.5599 1044.91 48.8377 L1044.91 12.096 L1053.13 12.096 L1053.13 49.8504 Q1053.13 61.6791 1047.26 67.7149 Q1041.43 73.7508 1030 73.7508 Q1018.54 73.7508 1012.66 67.7149 Q1006.83 61.6791 1006.83 49.8504 L1006.83 12.096 Z" fill="#000000" fill-rule="nonzero" fill-opacity="1"></path><path clip-path="url(#clip110)" d="M1097.08 28.5427 L1097.08 35.5912 Q1093.92 33.9709 1090.52 33.1607 Q1087.12 32.3505 1083.47 32.3505 Q1077.92 32.3505 1075.13 34.0519 Q1072.37 35.7533 1072.37 39.156 Q1072.37 41.7486 1074.36 43.2475 Q1076.34 44.7058 1082.34 46.0426 L1084.89 46.6097 Q1092.83 48.3111 1096.15 51.4303 Q1099.52 54.509 1099.52 60.0587 Q1099.52 66.3781 1094.49 70.0644 Q1089.51 73.7508 1080.76 73.7508 Q1077.11 73.7508 1073.14 73.0216 Q1069.21 72.3329 1064.84 70.9151 L1064.84 63.2184 Q1068.97 65.3654 1072.98 66.4591 Q1076.99 67.5124 1080.92 67.5124 Q1086.19 67.5124 1089.02 65.73 Q1091.86 63.9071 1091.86 60.6258 Q1091.86 57.5877 1089.79 55.9673 Q1087.77 54.3469 1080.84 52.8481 L1078.25 52.2405 Q1071.32 50.7821 1068.24 47.7845 Q1065.16 44.7463 1065.16 39.4801 Q1065.16 33.0797 1069.7 29.5959 Q1074.24 26.1121 1082.58 26.1121 Q1086.71 26.1121 1090.36 26.7198 Q1094.01 27.3274 1097.08 28.5427 Z" fill="#000000" fill-rule="nonzero" fill-opacity="1"></path><path clip-path="url(#clip110)" d="M1150.19 48.0275 L1150.19 51.6733 L1115.92 51.6733 Q1116.41 59.3701 1120.54 63.421 Q1124.71 67.4314 1132.12 67.4314 Q1136.42 67.4314 1140.43 66.3781 Q1144.48 65.3249 1148.45 63.2184 L1148.45 70.267 Q1144.44 71.9684 1140.23 72.8596 Q1136.01 73.7508 1131.68 73.7508 Q1120.82 73.7508 1114.46 67.4314 Q1108.14 61.1119 1108.14 50.3365 Q1108.14 39.1965 1114.14 32.6746 Q1120.17 26.1121 1130.38 26.1121 Q1139.54 26.1121 1144.84 32.0264 Q1150.19 37.9003 1150.19 48.0275 M1142.74 45.84 Q1142.66 39.7232 1139.3 36.0774 Q1135.97 32.4315 1130.46 32.4315 Q1124.23 32.4315 1120.46 35.9558 Q1116.73 39.4801 1116.16 45.8805 L1142.74 45.84 Z" fill="#000000" fill-rule="nonzero" fill-opacity="1"></path><path clip-path="url(#clip110)" d="M1162.43 9.54393 L1169.88 9.54393 L1169.88 72.576 L1162.43 72.576 L1162.43 9.54393 Z" fill="#000000" fill-rule="nonzero" fill-opacity="1"></path><path clip-path="url(#clip110)" d="M1224.28 48.0275 L1224.28 51.6733 L1190.01 51.6733 Q1190.5 59.3701 1194.63 63.421 Q1198.8 67.4314 1206.22 67.4314 Q1210.51 67.4314 1214.52 66.3781 Q1218.57 65.3249 1222.54 63.2184 L1222.54 70.267 Q1218.53 71.9684 1214.32 72.8596 Q1210.1 73.7508 1205.77 73.7508 Q1194.91 73.7508 1188.55 67.4314 Q1182.23 61.1119 1182.23 50.3365 Q1182.23 39.1965 1188.23 32.6746 Q1194.27 26.1121 1204.47 26.1121 Q1213.63 26.1121 1218.94 32.0264 Q1224.28 37.9003 1224.28 48.0275 M1216.83 45.84 Q1216.75 39.7232 1213.39 36.0774 Q1210.06 32.4315 1204.56 32.4315 Q1198.32 32.4315 1194.55 35.9558 Q1190.82 39.4801 1190.26 45.8805 L1216.83 45.84 Z" fill="#000000" fill-rule="nonzero" fill-opacity="1"></path><path clip-path="url(#clip110)" d="M1265.44 28.5427 L1265.44 35.5912 Q1262.28 33.9709 1258.88 33.1607 Q1255.48 32.3505 1251.83 32.3505 Q1246.28 32.3505 1243.48 34.0519 Q1240.73 35.7533 1240.73 39.156 Q1240.73 41.7486 1242.71 43.2475 Q1244.7 44.7058 1250.69 46.0426 L1253.25 46.6097 Q1261.19 48.3111 1264.51 51.4303 Q1267.87 54.509 1267.87 60.0587 Q1267.87 66.3781 1262.85 70.0644 Q1257.87 73.7508 1249.12 73.7508 Q1245.47 73.7508 1241.5 73.0216 Q1237.57 72.3329 1233.2 70.9151 L1233.2 63.2184 Q1237.33 65.3654 1241.34 66.4591 Q1245.35 67.5124 1249.28 67.5124 Q1254.54 67.5124 1257.38 65.73 Q1260.21 63.9071 1260.21 60.6258 Q1260.21 57.5877 1258.15 55.9673 Q1256.12 54.3469 1249.2 52.8481 L1246.6 52.2405 Q1239.68 50.7821 1236.6 47.7845 Q1233.52 44.7463 1233.52 39.4801 Q1233.52 33.0797 1238.06 29.5959 Q1242.59 26.1121 1250.94 26.1121 Q1255.07 26.1121 1258.72 26.7198 Q1262.36 27.3274 1265.44 28.5427 Z" fill="#000000" fill-rule="nonzero" fill-opacity="1"></path><path clip-path="url(#clip110)" d="M1308.66 28.5427 L1308.66 35.5912 Q1305.5 33.9709 1302.1 33.1607 Q1298.7 32.3505 1295.05 32.3505 Q1289.5 32.3505 1286.71 34.0519 Q1283.95 35.7533 1283.95 39.156 Q1283.95 41.7486 1285.94 43.2475 Q1287.92 44.7058 1293.92 46.0426 L1296.47 46.6097 Q1304.41 48.3111 1307.73 51.4303 Q1311.09 54.509 1311.09 60.0587 Q1311.09 66.3781 1306.07 70.0644 Q1301.09 73.7508 1292.34 73.7508 Q1288.69 73.7508 1284.72 73.0216 Q1280.79 72.3329 1276.42 70.9151 L1276.42 63.2184 Q1280.55 65.3654 1284.56 66.4591 Q1288.57 67.5124 1292.5 67.5124 Q1297.77 67.5124 1300.6 65.73 Q1303.44 63.9071 1303.44 60.6258 Q1303.44 57.5877 1301.37 55.9673 Q1299.35 54.3469 1292.42 52.8481 L1289.83 52.2405 Q1282.9 50.7821 1279.82 47.7845 Q1276.74 44.7463 1276.74 39.4801 Q1276.74 33.0797 1281.28 29.5959 Q1285.82 26.1121 1294.16 26.1121 Q1298.29 26.1121 1301.94 26.7198 Q1305.58 27.3274 1308.66 28.5427 Z" fill="#000000" fill-rule="nonzero" fill-opacity="1"></path><path clip-path="url(#clip110)" d="M1349.66 12.096 L1384.42 12.096 L1384.42 18.9825 L1357.84 18.9825 L1357.84 36.8065 L1381.82 36.8065 L1381.82 43.6931 L1357.84 43.6931 L1357.84 72.576 L1349.66 72.576 L1349.66 12.096 Z" fill="#000000" fill-rule="nonzero" fill-opacity="1"></path><path clip-path="url(#clip110)" d="M1410.06 49.7694 Q1401.02 49.7694 1397.54 51.8354 Q1394.06 53.9013 1394.06 58.8839 Q1394.06 62.8538 1396.65 65.2034 Q1399.28 67.5124 1403.78 67.5124 Q1409.98 67.5124 1413.7 63.1374 Q1417.47 58.7219 1417.47 51.4303 L1417.47 49.7694 L1410.06 49.7694 M1424.92 46.6907 L1424.92 72.576 L1417.47 72.576 L1417.47 65.6895 Q1414.92 69.8214 1411.11 71.8063 Q1407.3 73.7508 1401.79 73.7508 Q1394.83 73.7508 1390.69 69.8619 Q1386.6 65.9325 1386.6 59.3701 Q1386.6 51.7138 1391.71 47.825 Q1396.85 43.9361 1407.02 43.9361 L1417.47 43.9361 L1417.47 43.2069 Q1417.47 38.0623 1414.07 35.2672 Q1410.71 32.4315 1404.59 32.4315 Q1400.7 32.4315 1397.01 33.3632 Q1393.33 34.295 1389.92 36.1584 L1389.92 29.2718 Q1394.02 27.692 1397.86 26.9223 Q1401.71 26.1121 1405.36 26.1121 Q1415.2 26.1121 1420.06 31.2163 Q1424.92 36.3204 1424.92 46.6907 Z" fill="#000000" fill-rule="nonzero" fill-opacity="1"></path><path clip-path="url(#clip110)" d="M1472.93 28.9478 L1472.93 35.9153 Q1469.77 34.1734 1466.57 33.3227 Q1463.41 32.4315 1460.17 32.4315 Q1452.92 32.4315 1448.91 37.0496 Q1444.9 41.6271 1444.9 49.9314 Q1444.9 58.2358 1448.91 62.8538 Q1452.92 67.4314 1460.17 67.4314 Q1463.41 67.4314 1466.57 66.5807 Q1469.77 65.6895 1472.93 63.9476 L1472.93 70.8341 Q1469.81 72.2924 1466.45 73.0216 Q1463.12 73.7508 1459.36 73.7508 Q1449.11 73.7508 1443.07 67.3098 Q1437.04 60.8689 1437.04 49.9314 Q1437.04 38.832 1443.11 32.472 Q1449.23 26.1121 1459.84 26.1121 Q1463.29 26.1121 1466.57 26.8413 Q1469.85 27.5299 1472.93 28.9478 Z" fill="#000000" fill-rule="nonzero" fill-opacity="1"></path><path clip-path="url(#clip110)" d="M1493.26 14.324 L1493.26 27.2059 L1508.62 27.2059 L1508.62 32.9987 L1493.26 32.9987 L1493.26 57.6282 Q1493.26 63.1779 1494.76 64.7578 Q1496.3 66.3376 1500.96 66.3376 L1508.62 66.3376 L1508.62 72.576 L1500.96 72.576 Q1492.33 72.576 1489.05 69.3758 Q1485.77 66.1351 1485.77 57.6282 L1485.77 32.9987 L1480.3 32.9987 L1480.3 27.2059 L1485.77 27.2059 L1485.77 14.324 L1493.26 14.324 Z" fill="#000000" fill-rule="nonzero" fill-opacity="1"></path><path clip-path="url(#clip110)" d="M1536 32.4315 Q1530 32.4315 1526.52 37.1306 Q1523.04 41.7891 1523.04 49.9314 Q1523.04 58.0738 1526.48 62.7728 Q1529.96 67.4314 1536 67.4314 Q1541.95 67.4314 1545.44 62.7323 Q1548.92 58.0333 1548.92 49.9314 Q1548.92 41.8701 1545.44 37.1711 Q1541.95 32.4315 1536 32.4315 M1536 26.1121 Q1545.72 26.1121 1551.27 32.4315 Q1556.82 38.7509 1556.82 49.9314 Q1556.82 61.0714 1551.27 67.4314 Q1545.72 73.7508 1536 73.7508 Q1526.24 73.7508 1520.69 67.4314 Q1515.18 61.0714 1515.18 49.9314 Q1515.18 38.7509 1520.69 32.4315 Q1526.24 26.1121 1536 26.1121 Z" fill="#000000" fill-rule="nonzero" fill-opacity="1"></path><path clip-path="url(#clip110)" d="M1595.47 34.1734 Q1594.21 33.4443 1592.71 33.1202 Q1591.25 32.7556 1589.47 32.7556 Q1583.15 32.7556 1579.75 36.8875 Q1576.39 40.9789 1576.39 48.6757 L1576.39 72.576 L1568.89 72.576 L1568.89 27.2059 L1576.39 27.2059 L1576.39 34.2544 Q1578.74 30.1225 1582.5 28.1376 Q1586.27 26.1121 1591.66 26.1121 Q1592.43 26.1121 1593.36 26.2337 Q1594.29 26.3147 1595.43 26.5172 L1595.47 34.1734 Z" fill="#000000" fill-rule="nonzero" fill-opacity="1"></path><polyline clip-path="url(#clip112)" style="stroke:#009af9; stroke-linecap:round; stroke-linejoin:round; stroke-width:8; stroke-opacity:1; fill:none" points="309.067,1386.39 319.038,1386.39 329.008,1386.39 338.979,1386.39 348.95,1386.39 358.92,1386.38 368.891,1386.37 378.862,1386.36 388.832,1386.33 398.803,1386.3 408.774,1386.24 418.744,1386.17 428.715,1386.08 438.686,1385.96 448.656,1385.81 458.627,1385.63 468.598,1385.43 478.568,1385.2 488.539,1384.95 498.51,1384.7 508.48,1384.43 518.451,1384.17 528.422,1383.9 538.392,1383.63 548.363,1383.34 558.334,1383.03 568.304,1382.68 578.275,1382.27 588.246,1381.78 598.216,1381.2 608.187,1380.51 618.158,1379.7 628.129,1378.76 638.099,1377.7 648.07,1376.49 658.041,1375.12 668.011,1373.59 677.982,1371.86 687.953,1369.92 697.923,1367.72 707.894,1365.22 717.865,1362.37 727.835,1359.14 737.806,1355.46 747.777,1351.3 757.747,1346.63 767.718,1341.43 777.689,1335.69 787.659,1329.44 797.63,1322.75 807.601,1315.68 817.571,1308.36 827.542,1300.9 837.513,1293.43 847.483,1286.06 857.454,1278.89 867.425,1271.97 877.395,1265.31 887.366,1258.88 897.337,1252.59 907.307,1246.36 917.278,1240.07 927.249,1233.62 937.219,1226.93 947.19,1219.97 957.161,1212.75 967.131,1205.31 977.102,1197.76 987.073,1190.21 997.043,1182.8 1007.01,1175.63 1016.98,1168.8 1026.96,1162.36 1036.93,1156.31 1046.9,1150.6 1056.87,1145.16 1066.84,1139.86 1076.81,1134.59 1086.78,1129.22 1096.75,1123.66 1106.72,1117.86 1116.69,1111.78 1126.66,1105.44 1136.63,1098.92 1146.6,1092.28 1156.57,1085.62 1166.54,1079.04 1176.52,1072.64 1186.49,1066.49 1196.46,1060.67 1206.43,1055.22 1216.4,1050.2 1226.37,1045.62 1236.34,1041.48 1246.31,1037.75 1256.28,1034.36 1266.25,1031.22 1276.22,1028.18 1286.19,1025.09 1296.16,1021.8 1306.13,1018.19 1316.1,1014.19 1326.08,1009.81 1336.05,1005.15 1346.02,1000.4 1355.99,995.79 1365.96,991.612 1375.93,988.138 1385.9,985.601 1395.87,984.162 1405.84,983.891 1415.81,984.762 1425.78,986.667 1435.75,989.427 1445.72,992.831 1455.69,996.656 1465.67,1000.7 1475.64,1004.79 1485.61,1008.83 1495.58,1012.78 1505.55,1016.64 1515.52,1020.5 1525.49,1024.49 1535.46,1028.77 1545.43,1033.53 1555.4,1038.95 1565.37,1045.18 1575.34,1052.34 1585.31,1060.49 1595.28,1069.63 1605.25,1079.7 1615.23,1090.62 1625.2,1102.25 1635.17,1114.47 1645.14,1127.15 1655.11,1140.18 1665.08,1153.49 1675.05,1167 1685.02,1180.64 1694.99,1194.35 1704.96,1208.04 1714.93,1221.61 1724.9,1234.93 1734.87,1247.9 1744.84,1260.39 1754.81,1272.28 1764.79,1283.5 1774.76,1293.97 1784.73,1303.65 1794.7,1312.52 1804.67,1320.59 1814.64,1327.89 1824.61,1334.45 1834.58,1340.32 1844.55,1345.55 1854.52,1350.2 1864.49,1354.34 1874.46,1358.01 1884.43,1361.25 1894.4,1364.09 1904.37,1366.57 1914.35,1368.71 1924.32,1370.51 1934.29,1372.01 1944.26,1373.23 1954.23,1374.21 1964.2,1374.98 1974.17,1375.61 1984.14,1376.13 1994.11,1376.61 2004.08,1377.08 2014.05,1377.58 2024.02,1378.13 2033.99,1378.74 2043.96,1379.4 2053.93,1380.1 2063.91,1380.83 2073.88,1381.56 2083.85,1382.27 2093.82,1382.94 2103.79,1383.56 2113.76,1384.12 2123.73,1384.6 2133.7,1385.01 2143.67,1385.36 2153.64,1385.63 2163.61,1385.85 2173.58,1386.01 2183.55,1386.13 2193.52,1386.22 2203.49,1386.28 2213.47,1386.32 2223.44,1386.35 2233.41,1386.37 2243.38,1386.38 2253.35,1386.39 2263.32,1386.39 2273.29,1386.39 2283.26,1386.39 2293.23,1386.39 "></polyline>
<polyline clip-path="url(#clip112)" style="stroke:#e26f46; stroke-linecap:round; stroke-linejoin:round; stroke-width:8; stroke-opacity:1; fill:none" points="1082.99,1386.4 1087.2,1386.39 1091.4,1386.39 1095.6,1386.38 1099.8,1386.36 1104.01,1386.31 1108.21,1386.21 1112.41,1386.06 1116.62,1385.85 1120.82,1385.64 1125.02,1385.48 1129.23,1385.41 1133.43,1385.45 1137.63,1385.56 1141.83,1385.65 1146.04,1385.63 1150.24,1385.45 1154.44,1385.12 1158.65,1384.65 1162.85,1384.14 1167.05,1383.66 1171.25,1383.3 1175.46,1383.1 1179.66,1382.98 1183.86,1382.82 1188.07,1382.45 1192.27,1381.74 1196.47,1380.68 1200.67,1379.33 1204.88,1377.79 1209.08,1376.12 1213.28,1374.36 1217.49,1372.56 1221.69,1370.7 1225.89,1368.76 1230.09,1366.58 1234.3,1363.98 1238.5,1360.84 1242.7,1357.18 1246.91,1353.15 1251.11,1348.9 1255.31,1344.42 1259.51,1339.51 1263.72,1333.86 1267.92,1327.22 1272.12,1319.53 1276.33,1310.86 1280.53,1301.34 1284.73,1291.02 1288.93,1279.92 1293.14,1268.02 1297.34,1255.32 1301.54,1241.72 1305.75,1226.98 1309.95,1210.76 1314.15,1192.78 1318.36,1172.98 1322.56,1151.6 1326.76,1129.08 1330.96,1105.91 1335.17,1082.43 1339.37,1058.78 1343.57,1034.9 1347.78,1010.6 1351.98,985.559 1356.18,959.387 1360.38,931.685 1364.59,902.267 1368.79,871.396 1372.99,839.816 1377.2,808.442 1381.4,777.877 1385.6,748.092 1389.8,718.442 1394.01,687.935 1398.21,655.611 1402.41,620.976 1406.62,584.388 1410.82,547.185 1415.02,511.357 1419.22,478.847 1423.43,450.802 1427.63,427.056 1431.83,406.014 1436.04,385.094 1440.24,361.768 1444.44,334.894 1448.64,305.547 1452.85,276.616 1457.05,251.248 1461.25,231.124 1465.46,215.73 1469.66,203.048 1473.86,191.129 1478.07,179.455 1482.27,169.199 1486.47,162.317 1490.67,160.256 1494.88,163.258 1499.08,170.605 1503.28,181.298 1507.49,194.477 1511.69,209.432 1515.89,225.597 1520.09,242.756 1524.3,261.262 1528.5,281.916 1532.7,305.484 1536.91,332.225 1541.11,361.729 1545.31,393.074 1549.51,425.115 1553.72,456.789 1557.92,487.42 1562.12,516.941 1566.33,545.883 1570.53,575.111 1574.73,605.43 1578.93,637.25 1583.14,670.438 1587.34,704.409 1591.54,738.483 1595.75,772.332 1599.95,806.17 1604.15,840.482 1608.35,875.447 1612.56,910.515 1616.76,944.472 1620.96,975.943 1625.17,1004.01 1629.37,1028.61 1633.57,1050.55 1637.77,1071.19 1641.98,1091.8 1646.18,1113.05 1650.38,1134.73 1654.59,1155.99 1658.79,1175.82 1662.99,1193.55 1667.2,1209.1 1671.4,1222.98 1675.6,1235.94 1679.8,1248.63 1684.01,1261.29 1688.21,1273.68 1692.41,1285.3 1696.62,1295.79 1700.82,1305.07 1705.02,1313.31 1709.22,1320.74 1713.43,1327.48 1717.63,1333.52 1721.83,1338.87 1726.04,1343.6 1730.24,1347.92 1734.44,1352.04 1738.64,1356.08 1742.85,1359.99 1747.05,1363.58 1751.25,1366.58 1755.46,1368.84 1759.66,1370.34 1763.86,1371.29 1768.06,1372.01 1772.27,1372.85 1776.47,1374.07 1780.67,1375.71 1784.88,1377.62 1789.08,1379.49 1793.28,1381.04 1797.48,1382.12 1801.69,1382.79 1805.89,1383.2 1810.09,1383.52 1814.3,1383.85 1818.5,1384.21 1822.7,1384.54 1826.91,1384.84 1831.11,1385.09 1835.31,1385.32 1839.51,1385.56 1843.72,1385.78 1847.92,1385.97 1852.12,1386.09 1856.33,1386.14 1860.53,1386.11 1864.73,1386.04 1868.93,1385.96 1873.14,1385.91 1877.34,1385.93 1881.54,1386 1885.75,1386.1 1889.95,1386.21 1894.15,1386.29 1898.35,1386.34 1902.56,1386.37 1906.76,1386.39 1910.96,1386.39 1915.17,1386.4 1919.37,1386.4 "></polyline>
<polyline clip-path="url(#clip112)" style="stroke:#808080; stroke-linecap:round; stroke-linejoin:round; stroke-width:6; stroke-opacity:1; fill:none" stroke-dasharray="3, 6" points="1278.68,2722.89 1278.68,-1176.24 "></polyline>
<path clip-path="url(#clip110)" d="M1732.54 322.316 L2282.65 322.316 L2282.65 166.796 L1732.54 166.796  Z" fill="#ffffff" fill-rule="evenodd" fill-opacity="1"></path>
<polyline clip-path="url(#clip110)" style="stroke:#000000; stroke-linecap:round; stroke-linejoin:round; stroke-width:4; stroke-opacity:1; fill:none" points="1732.54,322.316 2282.65,322.316 2282.65,166.796 1732.54,166.796 1732.54,322.316 "></polyline>
<polyline clip-path="url(#clip110)" style="stroke:#009af9; stroke-linecap:round; stroke-linejoin:round; stroke-width:8; stroke-opacity:1; fill:none" points="1755.91,218.636 1896.12,218.636 "></polyline>
<path clip-path="url(#clip110)" d="M1924.17 219.411 L1924.17 232.073 L1931.67 232.073 Q1935.44 232.073 1937.24 230.522 Q1939.07 228.948 1939.07 225.731 Q1939.07 222.49 1937.24 220.962 Q1935.44 219.411 1931.67 219.411 L1924.17 219.411 M1924.17 205.198 L1924.17 215.615 L1931.09 215.615 Q1934.51 215.615 1936.18 214.342 Q1937.87 213.045 1937.87 210.407 Q1937.87 207.791 1936.18 206.495 Q1934.51 205.198 1931.09 205.198 L1924.17 205.198 M1919.49 201.356 L1931.43 201.356 Q1936.78 201.356 1939.67 203.578 Q1942.57 205.8 1942.57 209.897 Q1942.57 213.069 1941.09 214.944 Q1939.61 216.819 1936.74 217.282 Q1940.18 218.022 1942.08 220.383 Q1944 222.721 1944 226.24 Q1944 230.869 1940.86 233.393 Q1937.71 235.916 1931.9 235.916 L1919.49 235.916 L1919.49 201.356 Z" fill="#000000" fill-rule="nonzero" fill-opacity="1"></path><path clip-path="url(#clip110)" d="M1963.61 222.883 Q1958.45 222.883 1956.46 224.064 Q1954.47 225.244 1954.47 228.092 Q1954.47 230.36 1955.95 231.703 Q1957.45 233.022 1960.02 233.022 Q1963.56 233.022 1965.69 230.522 Q1967.85 227.999 1967.85 223.832 L1967.85 222.883 L1963.61 222.883 M1972.11 221.124 L1972.11 235.916 L1967.85 235.916 L1967.85 231.981 Q1966.39 234.342 1964.21 235.476 Q1962.04 236.587 1958.89 236.587 Q1954.91 236.587 1952.55 234.365 Q1950.21 232.119 1950.21 228.369 Q1950.21 223.994 1953.12 221.772 Q1956.06 219.55 1961.87 219.55 L1967.85 219.55 L1967.85 219.133 Q1967.85 216.194 1965.9 214.596 Q1963.98 212.976 1960.49 212.976 Q1958.26 212.976 1956.16 213.508 Q1954.05 214.041 1952.11 215.106 L1952.11 211.17 Q1954.44 210.268 1956.64 209.828 Q1958.84 209.365 1960.92 209.365 Q1966.55 209.365 1969.33 212.282 Q1972.11 215.198 1972.11 221.124 Z" fill="#000000" fill-rule="nonzero" fill-opacity="1"></path><path clip-path="url(#clip110)" d="M1991.67 238.323 Q1989.86 242.953 1988.15 244.365 Q1986.43 245.777 1983.56 245.777 L1980.16 245.777 L1980.16 242.212 L1982.66 242.212 Q1984.42 242.212 1985.39 241.379 Q1986.36 240.545 1987.55 237.443 L1988.31 235.499 L1977.82 209.99 L1982.34 209.99 L1990.44 230.268 L1998.54 209.99 L2003.05 209.99 L1991.67 238.323 Z" fill="#000000" fill-rule="nonzero" fill-opacity="1"></path><path clip-path="url(#clip110)" d="M2031.11 221.888 L2031.11 223.971 L2011.53 223.971 Q2011.8 228.369 2014.17 230.684 Q2016.55 232.976 2020.79 232.976 Q2023.24 232.976 2025.53 232.374 Q2027.85 231.772 2030.11 230.569 L2030.11 234.596 Q2027.82 235.568 2025.42 236.078 Q2023.01 236.587 2020.53 236.587 Q2014.33 236.587 2010.69 232.976 Q2007.08 229.365 2007.08 223.207 Q2007.08 216.842 2010.51 213.115 Q2013.96 209.365 2019.79 209.365 Q2025.02 209.365 2028.05 212.745 Q2031.11 216.101 2031.11 221.888 M2026.85 220.638 Q2026.8 217.143 2024.88 215.059 Q2022.98 212.976 2019.84 212.976 Q2016.27 212.976 2014.12 214.99 Q2011.99 217.004 2011.67 220.661 L2026.85 220.638 Z" fill="#000000" fill-rule="nonzero" fill-opacity="1"></path><path clip-path="url(#clip110)" d="M2054.63 210.754 L2054.63 214.782 Q2052.82 213.856 2050.88 213.393 Q2048.93 212.93 2046.85 212.93 Q2043.68 212.93 2042.08 213.902 Q2040.51 214.874 2040.51 216.819 Q2040.51 218.3 2041.64 219.157 Q2042.78 219.99 2046.2 220.754 L2047.66 221.078 Q2052.2 222.05 2054.1 223.832 Q2056.02 225.592 2056.02 228.763 Q2056.02 232.374 2053.15 234.481 Q2050.3 236.587 2045.3 236.587 Q2043.22 236.587 2040.95 236.17 Q2038.7 235.777 2036.2 234.967 L2036.2 230.569 Q2038.56 231.795 2040.85 232.42 Q2043.15 233.022 2045.39 233.022 Q2048.4 233.022 2050.02 232.004 Q2051.64 230.962 2051.64 229.087 Q2051.64 227.351 2050.46 226.425 Q2049.3 225.499 2045.35 224.643 L2043.86 224.295 Q2039.91 223.462 2038.15 221.749 Q2036.39 220.013 2036.39 217.004 Q2036.39 213.346 2038.98 211.356 Q2041.57 209.365 2046.34 209.365 Q2048.7 209.365 2050.79 209.712 Q2052.87 210.059 2054.63 210.754 Z" fill="#000000" fill-rule="nonzero" fill-opacity="1"></path><path clip-path="url(#clip110)" d="M2062.8 209.99 L2067.06 209.99 L2067.06 235.916 L2062.8 235.916 L2062.8 209.99 M2062.8 199.897 L2067.06 199.897 L2067.06 205.291 L2062.8 205.291 L2062.8 199.897 Z" fill="#000000" fill-rule="nonzero" fill-opacity="1"></path><path clip-path="url(#clip110)" d="M2087.75 222.883 Q2082.59 222.883 2080.6 224.064 Q2078.61 225.244 2078.61 228.092 Q2078.61 230.36 2080.09 231.703 Q2081.6 233.022 2084.16 233.022 Q2087.71 233.022 2089.84 230.522 Q2091.99 227.999 2091.99 223.832 L2091.99 222.883 L2087.75 222.883 M2096.25 221.124 L2096.25 235.916 L2091.99 235.916 L2091.99 231.981 Q2090.53 234.342 2088.35 235.476 Q2086.18 236.587 2083.03 236.587 Q2079.05 236.587 2076.69 234.365 Q2074.35 232.119 2074.35 228.369 Q2074.35 223.994 2077.27 221.772 Q2080.21 219.55 2086.02 219.55 L2091.99 219.55 L2091.99 219.133 Q2091.99 216.194 2090.04 214.596 Q2088.12 212.976 2084.63 212.976 Q2082.41 212.976 2080.3 213.508 Q2078.19 214.041 2076.25 215.106 L2076.25 211.17 Q2078.59 210.268 2080.79 209.828 Q2082.98 209.365 2085.07 209.365 Q2090.69 209.365 2093.47 212.282 Q2096.25 215.198 2096.25 221.124 Z" fill="#000000" fill-rule="nonzero" fill-opacity="1"></path><path clip-path="url(#clip110)" d="M2126.57 220.268 L2126.57 235.916 L2122.31 235.916 L2122.31 220.407 Q2122.31 216.726 2120.88 214.897 Q2119.44 213.069 2116.57 213.069 Q2113.12 213.069 2111.13 215.268 Q2109.14 217.467 2109.14 221.263 L2109.14 235.916 L2104.86 235.916 L2104.86 209.99 L2109.14 209.99 L2109.14 214.018 Q2110.67 211.68 2112.73 210.522 Q2114.81 209.365 2117.52 209.365 Q2121.99 209.365 2124.28 212.143 Q2126.57 214.897 2126.57 220.268 Z" fill="#000000" fill-rule="nonzero" fill-opacity="1"></path><path clip-path="url(#clip110)" d="M2150.32 201.356 L2170.18 201.356 L2170.18 205.291 L2155 205.291 L2155 215.476 L2168.7 215.476 L2168.7 219.411 L2155 219.411 L2155 235.916 L2150.32 235.916 L2150.32 201.356 Z" fill="#000000" fill-rule="nonzero" fill-opacity="1"></path><path clip-path="url(#clip110)" d="M2177.59 201.356 L2184.56 201.356 L2193.38 224.874 L2202.24 201.356 L2209.21 201.356 L2209.21 235.916 L2204.65 235.916 L2204.65 205.569 L2195.74 229.272 L2191.04 229.272 L2182.13 205.569 L2182.13 235.916 L2177.59 235.916 L2177.59 201.356 Z" fill="#000000" fill-rule="nonzero" fill-opacity="1"></path><polyline clip-path="url(#clip110)" style="stroke:#e26f46; stroke-linecap:round; stroke-linejoin:round; stroke-width:8; stroke-opacity:1; fill:none" points="1755.91,270.476 1896.12,270.476 "></polyline>
<path clip-path="url(#clip110)" d="M1919.49 253.196 L1939.35 253.196 L1939.35 257.131 L1924.17 257.131 L1924.17 267.316 L1937.87 267.316 L1937.87 271.251 L1924.17 271.251 L1924.17 287.756 L1919.49 287.756 L1919.49 253.196 Z" fill="#000000" fill-rule="nonzero" fill-opacity="1"></path><path clip-path="url(#clip110)" d="M1958.15 265.811 Q1957.43 265.395 1956.57 265.21 Q1955.74 265.001 1954.72 265.001 Q1951.11 265.001 1949.17 267.362 Q1947.24 269.7 1947.24 274.098 L1947.24 287.756 L1942.96 287.756 L1942.96 261.83 L1947.24 261.83 L1947.24 265.858 Q1948.59 263.497 1950.74 262.362 Q1952.89 261.205 1955.97 261.205 Q1956.41 261.205 1956.94 261.274 Q1957.48 261.321 1958.12 261.436 L1958.15 265.811 Z" fill="#000000" fill-rule="nonzero" fill-opacity="1"></path><path clip-path="url(#clip110)" d="M1983.75 273.728 L1983.75 275.811 L1964.17 275.811 Q1964.44 280.209 1966.8 282.524 Q1969.19 284.816 1973.42 284.816 Q1975.88 284.816 1978.17 284.214 Q1980.48 283.612 1982.75 282.409 L1982.75 286.436 Q1980.46 287.408 1978.05 287.918 Q1975.65 288.427 1973.17 288.427 Q1966.97 288.427 1963.33 284.816 Q1959.72 281.205 1959.72 275.047 Q1959.72 268.682 1963.15 264.955 Q1966.6 261.205 1972.43 261.205 Q1977.66 261.205 1980.69 264.585 Q1983.75 267.941 1983.75 273.728 M1979.49 272.478 Q1979.44 268.983 1977.52 266.899 Q1975.62 264.816 1972.48 264.816 Q1968.91 264.816 1966.76 266.83 Q1964.63 268.844 1964.3 272.501 L1979.49 272.478 Z" fill="#000000" fill-rule="nonzero" fill-opacity="1"></path><path clip-path="url(#clip110)" d="M1993.29 274.816 Q1993.29 279.515 1995.21 282.2 Q1997.15 284.862 2000.53 284.862 Q2003.91 284.862 2005.86 282.2 Q2007.8 279.515 2007.8 274.816 Q2007.8 270.117 2005.86 267.455 Q2003.91 264.77 2000.53 264.77 Q1997.15 264.77 1995.21 267.455 Q1993.29 270.117 1993.29 274.816 M2007.8 283.867 Q2006.46 286.182 2004.4 287.316 Q2002.36 288.427 1999.49 288.427 Q1994.79 288.427 1991.83 284.677 Q1988.89 280.927 1988.89 274.816 Q1988.89 268.705 1991.83 264.955 Q1994.79 261.205 1999.49 261.205 Q2002.36 261.205 2004.4 262.339 Q2006.46 263.45 2007.8 265.765 L2007.8 261.83 L2012.06 261.83 L2012.06 297.617 L2007.8 297.617 L2007.8 283.867 Z" fill="#000000" fill-rule="nonzero" fill-opacity="1"></path><path clip-path="url(#clip110)" d="M2020.39 277.524 L2020.39 261.83 L2024.65 261.83 L2024.65 277.362 Q2024.65 281.043 2026.09 282.895 Q2027.52 284.723 2030.39 284.723 Q2033.84 284.723 2035.83 282.524 Q2037.85 280.325 2037.85 276.529 L2037.85 261.83 L2042.1 261.83 L2042.1 287.756 L2037.85 287.756 L2037.85 283.774 Q2036.29 286.135 2034.23 287.293 Q2032.2 288.427 2029.49 288.427 Q2025.02 288.427 2022.71 285.649 Q2020.39 282.871 2020.39 277.524 M2031.11 261.205 L2031.11 261.205 Z" fill="#000000" fill-rule="nonzero" fill-opacity="1"></path><path clip-path="url(#clip110)" d="M2073.05 273.728 L2073.05 275.811 L2053.47 275.811 Q2053.75 280.209 2056.11 282.524 Q2058.49 284.816 2062.73 284.816 Q2065.18 284.816 2067.48 284.214 Q2069.79 283.612 2072.06 282.409 L2072.06 286.436 Q2069.77 287.408 2067.36 287.918 Q2064.95 288.427 2062.48 288.427 Q2056.27 288.427 2052.64 284.816 Q2049.03 281.205 2049.03 275.047 Q2049.03 268.682 2052.45 264.955 Q2055.9 261.205 2061.73 261.205 Q2066.97 261.205 2070 264.585 Q2073.05 267.941 2073.05 273.728 M2068.79 272.478 Q2068.75 268.983 2066.83 266.899 Q2064.93 264.816 2061.78 264.816 Q2058.22 264.816 2056.06 266.83 Q2053.93 268.844 2053.61 272.501 L2068.79 272.478 Z" fill="#000000" fill-rule="nonzero" fill-opacity="1"></path><path clip-path="url(#clip110)" d="M2101.6 272.108 L2101.6 287.756 L2097.34 287.756 L2097.34 272.247 Q2097.34 268.566 2095.9 266.737 Q2094.47 264.909 2091.6 264.909 Q2088.15 264.909 2086.16 267.108 Q2084.16 269.307 2084.16 273.103 L2084.16 287.756 L2079.88 287.756 L2079.88 261.83 L2084.16 261.83 L2084.16 265.858 Q2085.69 263.52 2087.75 262.362 Q2089.84 261.205 2092.54 261.205 Q2097.01 261.205 2099.3 263.983 Q2101.6 266.737 2101.6 272.108 Z" fill="#000000" fill-rule="nonzero" fill-opacity="1"></path><path clip-path="url(#clip110)" d="M2114.3 254.469 L2114.3 261.83 L2123.08 261.83 L2123.08 265.14 L2114.3 265.14 L2114.3 279.214 Q2114.3 282.385 2115.16 283.288 Q2116.04 284.191 2118.7 284.191 L2123.08 284.191 L2123.08 287.756 L2118.7 287.756 Q2113.77 287.756 2111.9 285.927 Q2110.02 284.075 2110.02 279.214 L2110.02 265.14 L2106.9 265.14 L2106.9 261.83 L2110.02 261.83 L2110.02 254.469 L2114.3 254.469 Z" fill="#000000" fill-rule="nonzero" fill-opacity="1"></path><path clip-path="url(#clip110)" d="M2128.68 261.83 L2132.94 261.83 L2132.94 287.756 L2128.68 287.756 L2128.68 261.83 M2128.68 251.737 L2132.94 251.737 L2132.94 257.131 L2128.68 257.131 L2128.68 251.737 Z" fill="#000000" fill-rule="nonzero" fill-opacity="1"></path><path clip-path="url(#clip110)" d="M2158.38 262.594 L2158.38 266.622 Q2156.57 265.696 2154.63 265.233 Q2152.68 264.77 2150.6 264.77 Q2147.43 264.77 2145.83 265.742 Q2144.26 266.714 2144.26 268.659 Q2144.26 270.14 2145.39 270.997 Q2146.53 271.83 2149.95 272.594 L2151.41 272.918 Q2155.95 273.89 2157.85 275.672 Q2159.77 277.432 2159.77 280.603 Q2159.77 284.214 2156.9 286.321 Q2154.05 288.427 2149.05 288.427 Q2146.97 288.427 2144.7 288.01 Q2142.45 287.617 2139.95 286.807 L2139.95 282.409 Q2142.31 283.635 2144.6 284.26 Q2146.9 284.862 2149.14 284.862 Q2152.15 284.862 2153.77 283.844 Q2155.39 282.802 2155.39 280.927 Q2155.39 279.191 2154.21 278.265 Q2153.05 277.339 2149.1 276.483 L2147.61 276.135 Q2143.66 275.302 2141.9 273.589 Q2140.14 271.853 2140.14 268.844 Q2140.14 265.186 2142.73 263.196 Q2145.32 261.205 2150.09 261.205 Q2152.45 261.205 2154.53 261.552 Q2156.62 261.899 2158.38 262.594 Z" fill="#000000" fill-rule="nonzero" fill-opacity="1"></path><path clip-path="url(#clip110)" d="M2170.76 254.469 L2170.76 261.83 L2179.53 261.83 L2179.53 265.14 L2170.76 265.14 L2170.76 279.214 Q2170.76 282.385 2171.62 283.288 Q2172.5 284.191 2175.16 284.191 L2179.53 284.191 L2179.53 287.756 L2175.16 287.756 Q2170.23 287.756 2168.35 285.927 Q2166.48 284.075 2166.48 279.214 L2166.48 265.14 L2163.35 265.14 L2163.35 261.83 L2166.48 261.83 L2166.48 254.469 L2170.76 254.469 Z" fill="#000000" fill-rule="nonzero" fill-opacity="1"></path><path clip-path="url(#clip110)" d="M2200.39 253.196 L2220.25 253.196 L2220.25 257.131 L2205.07 257.131 L2205.07 267.316 L2218.77 267.316 L2218.77 271.251 L2205.07 271.251 L2205.07 287.756 L2200.39 287.756 L2200.39 253.196 Z" fill="#000000" fill-rule="nonzero" fill-opacity="1"></path><path clip-path="url(#clip110)" d="M2227.66 253.196 L2234.63 253.196 L2243.45 276.714 L2252.31 253.196 L2259.28 253.196 L2259.28 287.756 L2254.72 287.756 L2254.72 257.409 L2245.81 281.112 L2241.11 281.112 L2232.2 257.409 L2232.2 287.756 L2227.66 287.756 L2227.66 253.196 Z" fill="#000000" fill-rule="nonzero" fill-opacity="1"></path></svg>