<svg xmlns="http://www.w3.org/2000/svg" xmlns:xlink="http://www.w3.org/1999/xlink" width="600" height="400" viewBox="0 0 2400 1600">
<defs>
  <clipPath id="clip230">
    <rect x="0" y="0" width="2400" height="1600"></rect>
  </clipPath>
</defs>
<path clip-path="url(#clip230)" d="M0 1600 L2400 1600 L2400 0 L0 0  Z" fill="#ffffff" fill-rule="evenodd" fill-opacity="1"></path>
<defs>
  <clipPath id="clip231">
    <rect x="480" y="0" width="1681" height="1600"></rect>
  </clipPath>
</defs>
<path clip-path="url(#clip230)" d="M247.459 1423.18 L2352.76 1423.18 L2352.76 123.472 L247.459 123.472  Z" fill="#ffffff" fill-rule="evenodd" fill-opacity="1"></path>
<defs>
  <clipPath id="clip232">
    <rect x="247" y="123" width="2106" height="1301"></rect>
  </clipPath>
</defs>
<polyline clip-path="url(#clip232)" style="stroke:#000000; stroke-linecap:round; stroke-linejoin:round; stroke-width:2; stroke-opacity:0.1; fill:none" points="525.527,1423.18 525.527,123.472 "></polyline>
<polyline clip-path="url(#clip232)" style="stroke:#000000; stroke-linecap:round; stroke-linejoin:round; stroke-width:2; stroke-opacity:0.1; fill:none" points="840.352,1423.18 840.352,123.472 "></polyline>
<polyline clip-path="url(#clip232)" style="stroke:#000000; stroke-linecap:round; stroke-linejoin:round; stroke-width:2; stroke-opacity:0.1; fill:none" points="1155.18,1423.18 1155.18,123.472 "></polyline>
<polyline clip-path="url(#clip232)" style="stroke:#000000; stroke-linecap:round; stroke-linejoin:round; stroke-width:2; stroke-opacity:0.1; fill:none" points="1470,1423.18 1470,123.472 "></polyline>
<polyline clip-path="url(#clip232)" style="stroke:#000000; stroke-linecap:round; stroke-linejoin:round; stroke-width:2; stroke-opacity:0.1; fill:none" points="1784.83,1423.18 1784.83,123.472 "></polyline>
<polyline clip-path="url(#clip232)" style="stroke:#000000; stroke-linecap:round; stroke-linejoin:round; stroke-width:2; stroke-opacity:0.1; fill:none" points="2099.65,1423.18 2099.65,123.472 "></polyline>
<polyline clip-path="url(#clip232)" style="stroke:#000000; stroke-linecap:round; stroke-linejoin:round; stroke-width:2; stroke-opacity:0.1; fill:none" points="247.459,1386.4 2352.76,1386.4 "></polyline>
<polyline clip-path="url(#clip232)" style="stroke:#000000; stroke-linecap:round; stroke-linejoin:round; stroke-width:2; stroke-opacity:0.1; fill:none" points="247.459,1112.75 2352.76,1112.75 "></polyline>
<polyline clip-path="url(#clip232)" style="stroke:#000000; stroke-linecap:round; stroke-linejoin:round; stroke-width:2; stroke-opacity:0.1; fill:none" points="247.459,839.101 2352.76,839.101 "></polyline>
<polyline clip-path="url(#clip232)" style="stroke:#000000; stroke-linecap:round; stroke-linejoin:round; stroke-width:2; stroke-opacity:0.1; fill:none" points="247.459,565.453 2352.76,565.453 "></polyline>
<polyline clip-path="url(#clip232)" style="stroke:#000000; stroke-linecap:round; stroke-linejoin:round; stroke-width:2; stroke-opacity:0.1; fill:none" points="247.459,291.805 2352.76,291.805 "></polyline>
<polyline clip-path="url(#clip230)" style="stroke:#000000; stroke-linecap:round; stroke-linejoin:round; stroke-width:4; stroke-opacity:1; fill:none" points="247.459,1423.18 2352.76,1423.18 "></polyline>
<polyline clip-path="url(#clip230)" style="stroke:#000000; stroke-linecap:round; stroke-linejoin:round; stroke-width:4; stroke-opacity:1; fill:none" points="525.527,1423.18 525.527,1404.28 "></polyline>
<polyline clip-path="url(#clip230)" style="stroke:#000000; stroke-linecap:round; stroke-linejoin:round; stroke-width:4; stroke-opacity:1; fill:none" points="840.352,1423.18 840.352,1404.28 "></polyline>
<polyline clip-path="url(#clip230)" style="stroke:#000000; stroke-linecap:round; stroke-linejoin:round; stroke-width:4; stroke-opacity:1; fill:none" points="1155.18,1423.18 1155.18,1404.28 "></polyline>
<polyline clip-path="url(#clip230)" style="stroke:#000000; stroke-linecap:round; stroke-linejoin:round; stroke-width:4; stroke-opacity:1; fill:none" points="1470,1423.18 1470,1404.28 "></polyline>
<polyline clip-path="url(#clip230)" style="stroke:#000000; stroke-linecap:round; stroke-linejoin:round; stroke-width:4; stroke-opacity:1; fill:none" points="1784.83,1423.18 1784.83,1404.28 "></polyline>
<polyline clip-path="url(#clip230)" style="stroke:#000000; stroke-linecap:round; stroke-linejoin:round; stroke-width:4; stroke-opacity:1; fill:none" points="2099.65,1423.18 2099.65,1404.28 "></polyline>
<path clip-path="url(#clip230)" d="M488.328 1454.1 Q484.717 1454.1 482.888 1457.66 Q481.083 1461.2 481.083 1468.33 Q481.083 1475.44 482.888 1479.01 Q484.717 1482.55 488.328 1482.55 Q491.962 1482.55 493.768 1479.01 Q495.596 1475.44 495.596 1468.33 Q495.596 1461.2 493.768 1457.66 Q491.962 1454.1 488.328 1454.1 M488.328 1450.39 Q494.138 1450.39 497.194 1455 Q500.272 1459.58 500.272 1468.33 Q500.272 1477.06 497.194 1481.67 Q494.138 1486.25 488.328 1486.25 Q482.518 1486.25 479.439 1481.67 Q476.384 1477.06 476.384 1468.33 Q476.384 1459.58 479.439 1455 Q482.518 1450.39 488.328 1450.39 Z" fill="#000000" fill-rule="nonzero" fill-opacity="1"></path><path clip-path="url(#clip230)" d="M508.49 1479.7 L513.374 1479.7 L513.374 1485.58 L508.49 1485.58 L508.49 1479.7 Z" fill="#000000" fill-rule="nonzero" fill-opacity="1"></path><path clip-path="url(#clip230)" d="M533.559 1454.1 Q529.948 1454.1 528.119 1457.66 Q526.314 1461.2 526.314 1468.33 Q526.314 1475.44 528.119 1479.01 Q529.948 1482.55 533.559 1482.55 Q537.193 1482.55 538.999 1479.01 Q540.828 1475.44 540.828 1468.33 Q540.828 1461.2 538.999 1457.66 Q537.193 1454.1 533.559 1454.1 M533.559 1450.39 Q539.369 1450.39 542.425 1455 Q545.504 1459.58 545.504 1468.33 Q545.504 1477.06 542.425 1481.67 Q539.369 1486.25 533.559 1486.25 Q527.749 1486.25 524.67 1481.67 Q521.615 1477.06 521.615 1468.33 Q521.615 1459.58 524.67 1455 Q527.749 1450.39 533.559 1450.39 Z" fill="#000000" fill-rule="nonzero" fill-opacity="1"></path><path clip-path="url(#clip230)" d="M553.767 1451.02 L572.124 1451.02 L572.124 1454.96 L558.05 1454.96 L558.05 1463.43 Q559.068 1463.08 560.087 1462.92 Q561.105 1462.73 562.124 1462.73 Q567.911 1462.73 571.29 1465.9 Q574.67 1469.08 574.67 1474.49 Q574.67 1480.07 571.198 1483.17 Q567.726 1486.25 561.406 1486.25 Q559.23 1486.25 556.962 1485.88 Q554.717 1485.51 552.309 1484.77 L552.309 1480.07 Q554.392 1481.2 556.615 1481.76 Q558.837 1482.32 561.314 1482.32 Q565.318 1482.32 567.656 1480.21 Q569.994 1478.1 569.994 1474.49 Q569.994 1470.88 567.656 1468.77 Q565.318 1466.67 561.314 1466.67 Q559.439 1466.67 557.564 1467.08 Q555.712 1467.5 553.767 1468.38 L553.767 1451.02 Z" fill="#000000" fill-rule="nonzero" fill-opacity="1"></path><path clip-path="url(#clip230)" d="M802.655 1454.1 Q799.044 1454.1 797.216 1457.66 Q795.41 1461.2 795.41 1468.33 Q795.41 1475.44 797.216 1479.01 Q799.044 1482.55 802.655 1482.55 Q806.29 1482.55 808.095 1479.01 Q809.924 1475.44 809.924 1468.33 Q809.924 1461.2 808.095 1457.66 Q806.29 1454.1 802.655 1454.1 M802.655 1450.39 Q808.466 1450.39 811.521 1455 Q814.6 1459.58 814.6 1468.33 Q814.6 1477.06 811.521 1481.67 Q808.466 1486.25 802.655 1486.25 Q796.845 1486.25 793.767 1481.67 Q790.711 1477.06 790.711 1468.33 Q790.711 1459.58 793.767 1455 Q796.845 1450.39 802.655 1450.39 Z" fill="#000000" fill-rule="nonzero" fill-opacity="1"></path><path clip-path="url(#clip230)" d="M822.817 1479.7 L827.702 1479.7 L827.702 1485.58 L822.817 1485.58 L822.817 1479.7 Z" fill="#000000" fill-rule="nonzero" fill-opacity="1"></path><path clip-path="url(#clip230)" d="M838.697 1481.64 L846.336 1481.64 L846.336 1455.28 L838.026 1456.95 L838.026 1452.69 L846.289 1451.02 L850.965 1451.02 L850.965 1481.64 L858.604 1481.64 L858.604 1485.58 L838.697 1485.58 L838.697 1481.64 Z" fill="#000000" fill-rule="nonzero" fill-opacity="1"></path><path clip-path="url(#clip230)" d="M878.048 1454.1 Q874.437 1454.1 872.609 1457.66 Q870.803 1461.2 870.803 1468.33 Q870.803 1475.44 872.609 1479.01 Q874.437 1482.55 878.048 1482.55 Q881.683 1482.55 883.488 1479.01 Q885.317 1475.44 885.317 1468.33 Q885.317 1461.2 883.488 1457.66 Q881.683 1454.1 878.048 1454.1 M878.048 1450.39 Q883.859 1450.39 886.914 1455 Q889.993 1459.58 889.993 1468.33 Q889.993 1477.06 886.914 1481.67 Q883.859 1486.25 878.048 1486.25 Q872.238 1486.25 869.16 1481.67 Q866.104 1477.06 866.104 1468.33 Q866.104 1459.58 869.16 1455 Q872.238 1450.39 878.048 1450.39 Z" fill="#000000" fill-rule="nonzero" fill-opacity="1"></path><path clip-path="url(#clip230)" d="M1117.98 1454.1 Q1114.37 1454.1 1112.54 1457.66 Q1110.73 1461.2 1110.73 1468.33 Q1110.73 1475.44 1112.54 1479.01 Q1114.37 1482.55 1117.98 1482.55 Q1121.61 1482.55 1123.42 1479.01 Q1125.25 1475.44 1125.25 1468.33 Q1125.25 1461.2 1123.42 1457.66 Q1121.61 1454.1 1117.98 1454.1 M1117.98 1450.39 Q1123.79 1450.39 1126.84 1455 Q1129.92 1459.58 1129.92 1468.33 Q1129.92 1477.06 1126.84 1481.67 Q1123.79 1486.25 1117.98 1486.25 Q1112.17 1486.25 1109.09 1481.67 Q1106.03 1477.06 1106.03 1468.33 Q1106.03 1459.58 1109.09 1455 Q1112.17 1450.39 1117.98 1450.39 Z" fill="#000000" fill-rule="nonzero" fill-opacity="1"></path><path clip-path="url(#clip230)" d="M1138.14 1479.7 L1143.02 1479.7 L1143.02 1485.58 L1138.14 1485.58 L1138.14 1479.7 Z" fill="#000000" fill-rule="nonzero" fill-opacity="1"></path><path clip-path="url(#clip230)" d="M1154.02 1481.64 L1161.66 1481.64 L1161.66 1455.28 L1153.35 1456.95 L1153.35 1452.69 L1161.61 1451.02 L1166.29 1451.02 L1166.29 1481.64 L1173.93 1481.64 L1173.93 1485.58 L1154.02 1485.58 L1154.02 1481.64 Z" fill="#000000" fill-rule="nonzero" fill-opacity="1"></path><path clip-path="url(#clip230)" d="M1183.42 1451.02 L1201.77 1451.02 L1201.77 1454.96 L1187.7 1454.96 L1187.7 1463.43 Q1188.72 1463.08 1189.74 1462.92 Q1190.76 1462.73 1191.77 1462.73 Q1197.56 1462.73 1200.94 1465.9 Q1204.32 1469.08 1204.32 1474.49 Q1204.32 1480.07 1200.85 1483.17 Q1197.38 1486.25 1191.06 1486.25 Q1188.88 1486.25 1186.61 1485.88 Q1184.37 1485.51 1181.96 1484.77 L1181.96 1480.07 Q1184.04 1481.2 1186.26 1481.76 Q1188.49 1482.32 1190.96 1482.32 Q1194.97 1482.32 1197.31 1480.21 Q1199.64 1478.1 1199.64 1474.49 Q1199.64 1470.88 1197.31 1468.77 Q1194.97 1466.67 1190.96 1466.67 Q1189.09 1466.67 1187.21 1467.08 Q1185.36 1467.5 1183.42 1468.38 L1183.42 1451.02 Z" fill="#000000" fill-rule="nonzero" fill-opacity="1"></path><path clip-path="url(#clip230)" d="M1432.31 1454.1 Q1428.69 1454.1 1426.87 1457.66 Q1425.06 1461.2 1425.06 1468.33 Q1425.06 1475.44 1426.87 1479.01 Q1428.69 1482.55 1432.31 1482.55 Q1435.94 1482.55 1437.75 1479.01 Q1439.57 1475.44 1439.57 1468.33 Q1439.57 1461.2 1437.75 1457.66 Q1435.94 1454.1 1432.31 1454.1 M1432.31 1450.39 Q1438.12 1450.39 1441.17 1455 Q1444.25 1459.58 1444.25 1468.33 Q1444.25 1477.06 1441.17 1481.67 Q1438.12 1486.25 1432.31 1486.25 Q1426.5 1486.25 1423.42 1481.67 Q1420.36 1477.06 1420.36 1468.33 Q1420.36 1459.58 1423.42 1455 Q1426.5 1450.39 1432.31 1450.39 Z" fill="#000000" fill-rule="nonzero" fill-opacity="1"></path><path clip-path="url(#clip230)" d="M1452.47 1479.7 L1457.35 1479.7 L1457.35 1485.58 L1452.47 1485.58 L1452.47 1479.7 Z" fill="#000000" fill-rule="nonzero" fill-opacity="1"></path><path clip-path="url(#clip230)" d="M1471.56 1481.64 L1487.88 1481.64 L1487.88 1485.58 L1465.94 1485.58 L1465.94 1481.64 Q1468.6 1478.89 1473.18 1474.26 Q1477.79 1469.61 1478.97 1468.27 Q1481.22 1465.74 1482.1 1464.01 Q1483 1462.25 1483 1460.56 Q1483 1457.8 1481.06 1456.07 Q1479.13 1454.33 1476.03 1454.33 Q1473.83 1454.33 1471.38 1455.09 Q1468.95 1455.86 1466.17 1457.41 L1466.17 1452.69 Q1469 1451.55 1471.45 1450.97 Q1473.9 1450.39 1475.94 1450.39 Q1481.31 1450.39 1484.5 1453.08 Q1487.7 1455.77 1487.7 1460.26 Q1487.7 1462.39 1486.89 1464.31 Q1486.1 1466.2 1483.99 1468.8 Q1483.42 1469.47 1480.31 1472.69 Q1477.21 1475.88 1471.56 1481.64 Z" fill="#000000" fill-rule="nonzero" fill-opacity="1"></path><path clip-path="url(#clip230)" d="M1507.7 1454.1 Q1504.09 1454.1 1502.26 1457.66 Q1500.45 1461.2 1500.45 1468.33 Q1500.45 1475.44 1502.26 1479.01 Q1504.09 1482.55 1507.7 1482.55 Q1511.33 1482.55 1513.14 1479.01 Q1514.97 1475.44 1514.97 1468.33 Q1514.97 1461.2 1513.14 1457.66 Q1511.33 1454.1 1507.7 1454.1 M1507.7 1450.39 Q1513.51 1450.39 1516.56 1455 Q1519.64 1459.58 1519.64 1468.33 Q1519.64 1477.06 1516.56 1481.67 Q1513.51 1486.25 1507.7 1486.25 Q1501.89 1486.25 1498.81 1481.67 Q1495.75 1477.06 1495.75 1468.33 Q1495.75 1459.58 1498.81 1455 Q1501.89 1450.39 1507.7 1450.39 Z" fill="#000000" fill-rule="nonzero" fill-opacity="1"></path><path clip-path="url(#clip230)" d="M1747.63 1454.1 Q1744.02 1454.1 1742.19 1457.66 Q1740.38 1461.2 1740.38 1468.33 Q1740.38 1475.44 1742.19 1479.01 Q1744.02 1482.55 1747.63 1482.55 Q1751.26 1482.55 1753.07 1479.01 Q1754.9 1475.44 1754.9 1468.33 Q1754.9 1461.2 1753.07 1457.66 Q1751.26 1454.1 1747.63 1454.1 M1747.63 1450.39 Q1753.44 1450.39 1756.49 1455 Q1759.57 1459.58 1759.57 1468.33 Q1759.57 1477.06 1756.49 1481.67 Q1753.44 1486.25 1747.63 1486.25 Q1741.82 1486.25 1738.74 1481.67 Q1735.68 1477.06 1735.68 1468.33 Q1735.68 1459.58 1738.74 1455 Q1741.82 1450.39 1747.63 1450.39 Z" fill="#000000" fill-rule="nonzero" fill-opacity="1"></path><path clip-path="url(#clip230)" d="M1767.79 1479.7 L1772.67 1479.7 L1772.67 1485.58 L1767.79 1485.58 L1767.79 1479.7 Z" fill="#000000" fill-rule="nonzero" fill-opacity="1"></path><path clip-path="url(#clip230)" d="M1786.89 1481.64 L1803.21 1481.64 L1803.21 1485.58 L1781.26 1485.58 L1781.26 1481.64 Q1783.92 1478.89 1788.51 1474.26 Q1793.11 1469.61 1794.29 1468.27 Q1796.54 1465.74 1797.42 1464.01 Q1798.32 1462.25 1798.32 1460.56 Q1798.32 1457.8 1796.38 1456.07 Q1794.46 1454.33 1791.35 1454.33 Q1789.16 1454.33 1786.7 1455.09 Q1784.27 1455.86 1781.49 1457.41 L1781.49 1452.69 Q1784.32 1451.55 1786.77 1450.97 Q1789.23 1450.39 1791.26 1450.39 Q1796.63 1450.39 1799.83 1453.08 Q1803.02 1455.77 1803.02 1460.26 Q1803.02 1462.39 1802.21 1464.31 Q1801.42 1466.2 1799.32 1468.8 Q1798.74 1469.47 1795.64 1472.69 Q1792.54 1475.88 1786.89 1481.64 Z" fill="#000000" fill-rule="nonzero" fill-opacity="1"></path><path clip-path="url(#clip230)" d="M1813.07 1451.02 L1831.42 1451.02 L1831.42 1454.96 L1817.35 1454.96 L1817.35 1463.43 Q1818.37 1463.08 1819.39 1462.92 Q1820.41 1462.73 1821.42 1462.73 Q1827.21 1462.73 1830.59 1465.9 Q1833.97 1469.08 1833.97 1474.49 Q1833.97 1480.07 1830.5 1483.17 Q1827.03 1486.25 1820.71 1486.25 Q1818.53 1486.25 1816.26 1485.88 Q1814.02 1485.51 1811.61 1484.77 L1811.61 1480.07 Q1813.69 1481.2 1815.91 1481.76 Q1818.14 1482.32 1820.61 1482.32 Q1824.62 1482.32 1826.96 1480.21 Q1829.29 1478.1 1829.29 1474.49 Q1829.29 1470.88 1826.96 1468.77 Q1824.62 1466.67 1820.61 1466.67 Q1818.74 1466.67 1816.86 1467.08 Q1815.01 1467.5 1813.07 1468.38 L1813.07 1451.02 Z" fill="#000000" fill-rule="nonzero" fill-opacity="1"></path><path clip-path="url(#clip230)" d="M2061.96 1454.1 Q2058.34 1454.1 2056.52 1457.66 Q2054.71 1461.2 2054.71 1468.33 Q2054.71 1475.44 2056.52 1479.01 Q2058.34 1482.55 2061.96 1482.55 Q2065.59 1482.55 2067.4 1479.01 Q2069.22 1475.44 2069.22 1468.33 Q2069.22 1461.2 2067.4 1457.66 Q2065.59 1454.1 2061.96 1454.1 M2061.96 1450.39 Q2067.77 1450.39 2070.82 1455 Q2073.9 1459.58 2073.9 1468.33 Q2073.9 1477.06 2070.82 1481.67 Q2067.77 1486.25 2061.96 1486.25 Q2056.15 1486.25 2053.07 1481.67 Q2050.01 1477.06 2050.01 1468.33 Q2050.01 1459.58 2053.07 1455 Q2056.15 1450.39 2061.96 1450.39 Z" fill="#000000" fill-rule="nonzero" fill-opacity="1"></path><path clip-path="url(#clip230)" d="M2082.12 1479.7 L2087 1479.7 L2087 1485.58 L2082.12 1485.58 L2082.12 1479.7 Z" fill="#000000" fill-rule="nonzero" fill-opacity="1"></path><path clip-path="url(#clip230)" d="M2111.35 1466.95 Q2114.71 1467.66 2116.58 1469.93 Q2118.48 1472.2 2118.48 1475.53 Q2118.48 1480.65 2114.96 1483.45 Q2111.45 1486.25 2104.96 1486.25 Q2102.79 1486.25 2100.47 1485.81 Q2098.18 1485.39 2095.73 1484.54 L2095.73 1480.02 Q2097.67 1481.16 2099.99 1481.74 Q2102.3 1482.32 2104.83 1482.32 Q2109.22 1482.32 2111.52 1480.58 Q2113.83 1478.84 2113.83 1475.53 Q2113.83 1472.48 2111.68 1470.77 Q2109.55 1469.03 2105.73 1469.03 L2101.7 1469.03 L2101.7 1465.19 L2105.91 1465.19 Q2109.36 1465.19 2111.19 1463.82 Q2113.02 1462.43 2113.02 1459.84 Q2113.02 1457.18 2111.12 1455.77 Q2109.25 1454.33 2105.73 1454.33 Q2103.81 1454.33 2101.61 1454.75 Q2099.41 1455.16 2096.77 1456.04 L2096.77 1451.88 Q2099.43 1451.14 2101.75 1450.77 Q2104.08 1450.39 2106.15 1450.39 Q2111.47 1450.39 2114.57 1452.83 Q2117.67 1455.23 2117.67 1459.35 Q2117.67 1462.22 2116.03 1464.21 Q2114.39 1466.18 2111.35 1466.95 Z" fill="#000000" fill-rule="nonzero" fill-opacity="1"></path><path clip-path="url(#clip230)" d="M2137.35 1454.1 Q2133.74 1454.1 2131.91 1457.66 Q2130.1 1461.2 2130.1 1468.33 Q2130.1 1475.44 2131.91 1479.01 Q2133.74 1482.55 2137.35 1482.55 Q2140.98 1482.55 2142.79 1479.01 Q2144.62 1475.44 2144.62 1468.33 Q2144.62 1461.2 2142.79 1457.66 Q2140.98 1454.1 2137.35 1454.1 M2137.35 1450.39 Q2143.16 1450.39 2146.21 1455 Q2149.29 1459.58 2149.29 1468.33 Q2149.29 1477.06 2146.21 1481.67 Q2143.16 1486.25 2137.35 1486.25 Q2131.54 1486.25 2128.46 1481.67 Q2125.4 1477.06 2125.4 1468.33 Q2125.4 1459.58 2128.46 1455 Q2131.54 1450.39 2137.35 1450.39 Z" fill="#000000" fill-rule="nonzero" fill-opacity="1"></path><path clip-path="url(#clip230)" d="M1010.8 1545.76 Q1012.87 1546.46 1014.81 1548.76 Q1016.79 1551.05 1018.76 1555.06 L1025.28 1568.04 L1018.38 1568.04 L1012.3 1555.85 Q1009.94 1551.08 1007.71 1549.52 Q1005.52 1547.96 1001.7 1547.96 L994.697 1547.96 L994.697 1568.04 L988.267 1568.04 L988.267 1520.52 L1002.78 1520.52 Q1010.93 1520.52 1014.94 1523.93 Q1018.95 1527.34 1018.95 1534.21 Q1018.95 1538.7 1016.85 1541.66 Q1014.78 1544.62 1010.8 1545.76 M994.697 1525.81 L994.697 1542.68 L1002.78 1542.68 Q1007.43 1542.68 1009.78 1540.54 Q1012.17 1538.38 1012.17 1534.21 Q1012.17 1530.04 1009.78 1527.94 Q1007.43 1525.81 1002.78 1525.81 L994.697 1525.81 Z" fill="#000000" fill-rule="nonzero" fill-opacity="1"></path><path clip-path="url(#clip230)" d="M1033.3 1532.4 L1039.16 1532.4 L1039.16 1568.04 L1033.3 1568.04 L1033.3 1532.4 M1033.3 1518.52 L1039.16 1518.52 L1039.16 1525.93 L1033.3 1525.93 L1033.3 1518.52 Z" fill="#000000" fill-rule="nonzero" fill-opacity="1"></path><path clip-path="url(#clip230)" d="M1074.14 1533.45 L1074.14 1538.98 Q1071.66 1537.71 1068.98 1537.07 Q1066.31 1536.44 1063.45 1536.44 Q1059.09 1536.44 1056.89 1537.77 Q1054.73 1539.11 1054.73 1541.79 Q1054.73 1543.82 1056.28 1545 Q1057.84 1546.15 1062.56 1547.2 L1064.56 1547.64 Q1070.8 1548.98 1073.41 1551.43 Q1076.05 1553.85 1076.05 1558.21 Q1076.05 1563.17 1072.1 1566.07 Q1068.19 1568.97 1061.31 1568.97 Q1058.45 1568.97 1055.33 1568.39 Q1052.24 1567.85 1048.81 1566.74 L1048.81 1560.69 Q1052.05 1562.38 1055.2 1563.24 Q1058.35 1564.07 1061.44 1564.07 Q1065.58 1564.07 1067.81 1562.66 Q1070.03 1561.23 1070.03 1558.65 Q1070.03 1556.27 1068.41 1554.99 Q1066.82 1553.72 1061.38 1552.54 L1059.34 1552.07 Q1053.9 1550.92 1051.48 1548.56 Q1049.06 1546.18 1049.06 1542.04 Q1049.06 1537.01 1052.62 1534.27 Q1056.19 1531.54 1062.75 1531.54 Q1065.99 1531.54 1068.86 1532.01 Q1071.72 1532.49 1074.14 1533.45 Z" fill="#000000" fill-rule="nonzero" fill-opacity="1"></path><path clip-path="url(#clip230)" d="M1085.15 1518.52 L1091.04 1518.52 L1091.04 1547.77 L1108.52 1532.4 L1116 1532.4 L1097.09 1549.07 L1116.79 1568.04 L1109.15 1568.04 L1091.04 1550.63 L1091.04 1568.04 L1085.15 1568.04 L1085.15 1518.52 Z" fill="#000000" fill-rule="nonzero" fill-opacity="1"></path><path clip-path="url(#clip230)" d="M1149.51 1562.7 L1149.51 1581.6 L1143.62 1581.6 L1143.62 1532.4 L1149.51 1532.4 L1149.51 1537.81 Q1151.36 1534.62 1154.16 1533.1 Q1156.99 1531.54 1160.91 1531.54 Q1167.4 1531.54 1171.44 1536.69 Q1175.51 1541.85 1175.51 1550.25 Q1175.51 1558.65 1171.44 1563.81 Q1167.4 1568.97 1160.91 1568.97 Q1156.99 1568.97 1154.16 1567.44 Q1151.36 1565.88 1149.51 1562.7 M1169.44 1550.25 Q1169.44 1543.79 1166.76 1540.13 Q1164.12 1536.44 1159.47 1536.44 Q1154.83 1536.44 1152.15 1540.13 Q1149.51 1543.79 1149.51 1550.25 Q1149.51 1556.71 1152.15 1560.4 Q1154.83 1564.07 1159.47 1564.07 Q1164.12 1564.07 1166.76 1560.4 Q1169.44 1556.71 1169.44 1550.25 Z" fill="#000000" fill-rule="nonzero" fill-opacity="1"></path><path clip-path="url(#clip230)" d="M1205.88 1537.87 Q1204.89 1537.3 1203.71 1537.04 Q1202.57 1536.76 1201.17 1536.76 Q1196.2 1536.76 1193.53 1540 Q1190.89 1543.22 1190.89 1549.27 L1190.89 1568.04 L1185 1568.04 L1185 1532.4 L1190.89 1532.4 L1190.89 1537.93 Q1192.73 1534.69 1195.69 1533.13 Q1198.65 1531.54 1202.89 1531.54 Q1203.49 1531.54 1204.22 1531.63 Q1204.96 1531.7 1205.85 1531.85 L1205.88 1537.87 Z" fill="#000000" fill-rule="nonzero" fill-opacity="1"></path><path clip-path="url(#clip230)" d="M1212.02 1532.4 L1217.88 1532.4 L1217.88 1568.04 L1212.02 1568.04 L1212.02 1532.4 M1212.02 1518.52 L1217.88 1518.52 L1217.88 1525.93 L1212.02 1525.93 L1212.02 1518.52 Z" fill="#000000" fill-rule="nonzero" fill-opacity="1"></path><path clip-path="url(#clip230)" d="M1255.79 1533.76 L1255.79 1539.24 Q1253.3 1537.87 1250.79 1537.2 Q1248.31 1536.5 1245.76 1536.5 Q1240.06 1536.5 1236.91 1540.13 Q1233.76 1543.73 1233.76 1550.25 Q1233.76 1556.78 1236.91 1560.4 Q1240.06 1564 1245.76 1564 Q1248.31 1564 1250.79 1563.33 Q1253.3 1562.63 1255.79 1561.26 L1255.79 1566.68 Q1253.34 1567.82 1250.69 1568.39 Q1248.08 1568.97 1245.12 1568.97 Q1237.07 1568.97 1232.33 1563.91 Q1227.59 1558.85 1227.59 1550.25 Q1227.59 1541.53 1232.36 1536.53 Q1237.17 1531.54 1245.51 1531.54 Q1248.21 1531.54 1250.79 1532.11 Q1253.37 1532.65 1255.79 1533.76 Z" fill="#000000" fill-rule="nonzero" fill-opacity="1"></path><path clip-path="url(#clip230)" d="M1296.46 1548.76 L1296.46 1551.62 L1269.54 1551.62 Q1269.92 1557.67 1273.16 1560.85 Q1276.44 1564 1282.27 1564 Q1285.64 1564 1288.79 1563.17 Q1291.98 1562.35 1295.09 1560.69 L1295.09 1566.23 Q1291.94 1567.57 1288.63 1568.27 Q1285.32 1568.97 1281.92 1568.97 Q1273.39 1568.97 1268.39 1564 Q1263.42 1559.04 1263.42 1550.57 Q1263.42 1541.82 1268.14 1536.69 Q1272.88 1531.54 1280.9 1531.54 Q1288.09 1531.54 1292.26 1536.18 Q1296.46 1540.8 1296.46 1548.76 M1290.61 1547.04 Q1290.54 1542.23 1287.9 1539.37 Q1285.29 1536.5 1280.96 1536.5 Q1276.06 1536.5 1273.1 1539.27 Q1270.17 1542.04 1269.73 1547.07 L1290.61 1547.04 Z" fill="#000000" fill-rule="nonzero" fill-opacity="1"></path><path clip-path="url(#clip230)" d="M1340.86 1518.58 Q1336.6 1525.9 1334.53 1533.06 Q1332.46 1540.23 1332.46 1547.58 Q1332.46 1554.93 1334.53 1562.16 Q1336.63 1569.35 1340.86 1576.64 L1335.77 1576.64 Q1331 1569.16 1328.61 1561.93 Q1326.25 1554.71 1326.25 1547.58 Q1326.25 1540.48 1328.61 1533.29 Q1330.97 1526.09 1335.77 1518.58 L1340.86 1518.58 Z" fill="#000000" fill-rule="nonzero" fill-opacity="1"></path><path clip-path="url(#clip230)" d="M1366.26 1524.09 L1382.72 1568.04 L1376.51 1568.04 L1366.52 1541.69 L1354.23 1568.04 L1348.03 1568.04 L1363.65 1533.86 L1361.3 1527.56 Q1359.8 1523.55 1356.4 1523.55 L1353.34 1523.55 L1353.34 1518.52 L1357.06 1518.58 Q1364.26 1518.68 1366.26 1524.09 Z" fill="#000000" fill-rule="nonzero" fill-opacity="1"></path><path clip-path="url(#clip230)" d="M1413.53 1533.45 L1413.53 1538.98 Q1411.05 1537.71 1408.37 1537.07 Q1405.7 1536.44 1402.83 1536.44 Q1398.47 1536.44 1396.28 1537.77 Q1394.11 1539.11 1394.11 1541.79 Q1394.11 1543.82 1395.67 1545 Q1397.23 1546.15 1401.94 1547.2 L1403.95 1547.64 Q1410.19 1548.98 1412.8 1551.43 Q1415.44 1553.85 1415.44 1558.21 Q1415.44 1563.17 1411.49 1566.07 Q1407.58 1568.97 1400.7 1568.97 Q1397.84 1568.97 1394.72 1568.39 Q1391.63 1567.85 1388.19 1566.74 L1388.19 1560.69 Q1391.44 1562.38 1394.59 1563.24 Q1397.74 1564.07 1400.83 1564.07 Q1404.97 1564.07 1407.19 1562.66 Q1409.42 1561.23 1409.42 1558.65 Q1409.42 1556.27 1407.8 1554.99 Q1406.21 1553.72 1400.77 1552.54 L1398.73 1552.07 Q1393.29 1550.92 1390.87 1548.56 Q1388.45 1546.18 1388.45 1542.04 Q1388.45 1537.01 1392.01 1534.27 Q1395.58 1531.54 1402.13 1531.54 Q1405.38 1531.54 1408.24 1532.01 Q1411.11 1532.49 1413.53 1533.45 Z" fill="#000000" fill-rule="nonzero" fill-opacity="1"></path><path clip-path="url(#clip230)" d="M1430.56 1522.27 L1430.56 1532.4 L1442.62 1532.4 L1442.62 1536.95 L1430.56 1536.95 L1430.56 1556.3 Q1430.56 1560.66 1431.73 1561.9 Q1432.94 1563.14 1436.6 1563.14 L1442.62 1563.14 L1442.62 1568.04 L1436.6 1568.04 Q1429.82 1568.04 1427.25 1565.53 Q1424.67 1562.98 1424.67 1556.3 L1424.67 1536.95 L1420.37 1536.95 L1420.37 1532.4 L1424.67 1532.4 L1424.67 1522.27 L1430.56 1522.27 Z" fill="#000000" fill-rule="nonzero" fill-opacity="1"></path><path clip-path="url(#clip230)" d="M1470.98 1537.87 Q1469.99 1537.3 1468.81 1537.04 Q1467.67 1536.76 1466.27 1536.76 Q1461.3 1536.76 1458.63 1540 Q1455.99 1543.22 1455.99 1549.27 L1455.99 1568.04 L1450.1 1568.04 L1450.1 1532.4 L1455.99 1532.4 L1455.99 1537.93 Q1457.83 1534.69 1460.79 1533.13 Q1463.75 1531.54 1467.99 1531.54 Q1468.59 1531.54 1469.32 1531.63 Q1470.06 1531.7 1470.95 1531.85 L1470.98 1537.87 Z" fill="#000000" fill-rule="nonzero" fill-opacity="1"></path><path clip-path="url(#clip230)" d="M1489.5 1536.5 Q1484.79 1536.5 1482.06 1540.19 Q1479.32 1543.85 1479.32 1550.25 Q1479.32 1556.65 1482.02 1560.34 Q1484.76 1564 1489.5 1564 Q1494.18 1564 1496.92 1560.31 Q1499.66 1556.62 1499.66 1550.25 Q1499.66 1543.92 1496.92 1540.23 Q1494.18 1536.5 1489.5 1536.5 M1489.5 1531.54 Q1497.14 1531.54 1501.5 1536.5 Q1505.86 1541.47 1505.86 1550.25 Q1505.86 1559 1501.5 1564 Q1497.14 1568.97 1489.5 1568.97 Q1481.83 1568.97 1477.47 1564 Q1473.14 1559 1473.14 1550.25 Q1473.14 1541.47 1477.47 1536.5 Q1481.83 1531.54 1489.5 1531.54 Z" fill="#000000" fill-rule="nonzero" fill-opacity="1"></path><path clip-path="url(#clip230)" d="M1545.2 1546.53 L1545.2 1568.04 L1539.35 1568.04 L1539.35 1546.72 Q1539.35 1541.66 1537.37 1539.14 Q1535.4 1536.63 1531.45 1536.63 Q1526.71 1536.63 1523.97 1539.65 Q1521.24 1542.68 1521.24 1547.9 L1521.24 1568.04 L1515.35 1568.04 L1515.35 1532.4 L1521.24 1532.4 L1521.24 1537.93 Q1523.34 1534.72 1526.17 1533.13 Q1529.03 1531.54 1532.76 1531.54 Q1538.9 1531.54 1542.05 1535.36 Q1545.2 1539.14 1545.2 1546.53 Z" fill="#000000" fill-rule="nonzero" fill-opacity="1"></path><path clip-path="url(#clip230)" d="M1580.34 1549.81 Q1580.34 1543.44 1577.7 1539.94 Q1575.09 1536.44 1570.35 1536.44 Q1565.64 1536.44 1563 1539.94 Q1560.39 1543.44 1560.39 1549.81 Q1560.39 1556.14 1563 1559.64 Q1565.64 1563.14 1570.35 1563.14 Q1575.09 1563.14 1577.7 1559.64 Q1580.34 1556.14 1580.34 1549.81 M1586.2 1563.62 Q1586.2 1572.72 1582.16 1577.15 Q1578.11 1581.6 1569.77 1581.6 Q1566.69 1581.6 1563.95 1581.13 Q1561.21 1580.68 1558.63 1579.72 L1558.63 1574.03 Q1561.21 1575.43 1563.73 1576.1 Q1566.24 1576.76 1568.85 1576.76 Q1574.61 1576.76 1577.48 1573.74 Q1580.34 1570.75 1580.34 1564.67 L1580.34 1561.77 Q1578.53 1564.92 1575.69 1566.48 Q1572.86 1568.04 1568.92 1568.04 Q1562.36 1568.04 1558.35 1563.05 Q1554.34 1558.05 1554.34 1549.81 Q1554.34 1541.53 1558.35 1536.53 Q1562.36 1531.54 1568.92 1531.54 Q1572.86 1531.54 1575.69 1533.1 Q1578.53 1534.66 1580.34 1537.81 L1580.34 1532.4 L1586.2 1532.4 L1586.2 1563.62 Z" fill="#000000" fill-rule="nonzero" fill-opacity="1"></path><path clip-path="url(#clip230)" d="M1597.34 1518.58 L1602.43 1518.58 Q1607.2 1526.09 1609.56 1533.29 Q1611.95 1540.48 1611.95 1547.58 Q1611.95 1554.71 1609.56 1561.93 Q1607.2 1569.16 1602.43 1576.64 L1597.34 1576.64 Q1601.57 1569.35 1603.64 1562.16 Q1605.74 1554.93 1605.74 1547.58 Q1605.74 1540.23 1603.64 1533.06 Q1601.57 1525.9 1597.34 1518.58 Z" fill="#000000" fill-rule="nonzero" fill-opacity="1"></path><polyline clip-path="url(#clip230)" style="stroke:#000000; stroke-linecap:round; stroke-linejoin:round; stroke-width:4; stroke-opacity:1; fill:none" points="247.459,1423.18 247.459,123.472 "></polyline>
<polyline clip-path="url(#clip230)" style="stroke:#000000; stroke-linecap:round; stroke-linejoin:round; stroke-width:4; stroke-opacity:1; fill:none" points="247.459,1386.4 266.356,1386.4 "></polyline>
<polyline clip-path="url(#clip230)" style="stroke:#000000; stroke-linecap:round; stroke-linejoin:round; stroke-width:4; stroke-opacity:1; fill:none" points="247.459,1112.75 266.356,1112.75 "></polyline>
<polyline clip-path="url(#clip230)" style="stroke:#000000; stroke-linecap:round; stroke-linejoin:round; stroke-width:4; stroke-opacity:1; fill:none" points="247.459,839.101 266.356,839.101 "></polyline>
<polyline clip-path="url(#clip230)" style="stroke:#000000; stroke-linecap:round; stroke-linejoin:round; stroke-width:4; stroke-opacity:1; fill:none" points="247.459,565.453 266.356,565.453 "></polyline>
<polyline clip-path="url(#clip230)" style="stroke:#000000; stroke-linecap:round; stroke-linejoin:round; stroke-width:4; stroke-opacity:1; fill:none" points="247.459,291.805 266.356,291.805 "></polyline>
<path clip-path="url(#clip230)" d="M154.283 1372.2 Q150.672 1372.2 148.843 1375.76 Q147.038 1379.3 147.038 1386.43 Q147.038 1393.54 148.843 1397.1 Q150.672 1400.64 154.283 1400.64 Q157.917 1400.64 159.723 1397.1 Q161.552 1393.54 161.552 1386.43 Q161.552 1379.3 159.723 1375.76 Q157.917 1372.2 154.283 1372.2 M154.283 1368.49 Q160.093 1368.49 163.149 1373.1 Q166.227 1377.68 166.227 1386.43 Q166.227 1395.16 163.149 1399.76 Q160.093 1404.35 154.283 1404.35 Q148.473 1404.35 145.394 1399.76 Q142.339 1395.16 142.339 1386.43 Q142.339 1377.68 145.394 1373.1 Q148.473 1368.49 154.283 1368.49 Z" fill="#000000" fill-rule="nonzero" fill-opacity="1"></path><path clip-path="url(#clip230)" d="M174.445 1397.8 L179.329 1397.8 L179.329 1403.68 L174.445 1403.68 L174.445 1397.8 Z" fill="#000000" fill-rule="nonzero" fill-opacity="1"></path><path clip-path="url(#clip230)" d="M199.514 1372.2 Q195.903 1372.2 194.075 1375.76 Q192.269 1379.3 192.269 1386.43 Q192.269 1393.54 194.075 1397.1 Q195.903 1400.64 199.514 1400.64 Q203.149 1400.64 204.954 1397.1 Q206.783 1393.54 206.783 1386.43 Q206.783 1379.3 204.954 1375.76 Q203.149 1372.2 199.514 1372.2 M199.514 1368.49 Q205.324 1368.49 208.38 1373.1 Q211.459 1377.68 211.459 1386.43 Q211.459 1395.16 208.38 1399.76 Q205.324 1404.35 199.514 1404.35 Q193.704 1404.35 190.625 1399.76 Q187.57 1395.16 187.57 1386.43 Q187.57 1377.68 190.625 1373.1 Q193.704 1368.49 199.514 1368.49 Z" fill="#000000" fill-rule="nonzero" fill-opacity="1"></path><path clip-path="url(#clip230)" d="M149.306 1126.09 L165.626 1126.09 L165.626 1130.03 L143.681 1130.03 L143.681 1126.09 Q146.343 1123.34 150.927 1118.71 Q155.533 1114.06 156.714 1112.71 Q158.959 1110.19 159.839 1108.45 Q160.741 1106.7 160.741 1105.01 Q160.741 1102.25 158.797 1100.51 Q156.876 1098.78 153.774 1098.78 Q151.575 1098.78 149.121 1099.54 Q146.691 1100.31 143.913 1101.86 L143.913 1097.14 Q146.737 1096 149.191 1095.42 Q151.644 1094.84 153.681 1094.84 Q159.052 1094.84 162.246 1097.53 Q165.44 1100.21 165.44 1104.7 Q165.44 1106.83 164.63 1108.76 Q163.843 1110.65 161.737 1113.25 Q161.158 1113.92 158.056 1117.14 Q154.954 1120.33 149.306 1126.09 Z" fill="#000000" fill-rule="nonzero" fill-opacity="1"></path><path clip-path="url(#clip230)" d="M175.44 1124.15 L180.325 1124.15 L180.325 1130.03 L175.44 1130.03 L175.44 1124.15 Z" fill="#000000" fill-rule="nonzero" fill-opacity="1"></path><path clip-path="url(#clip230)" d="M190.556 1095.47 L208.912 1095.47 L208.912 1099.4 L194.838 1099.4 L194.838 1107.88 Q195.857 1107.53 196.875 1107.37 Q197.894 1107.18 198.912 1107.18 Q204.699 1107.18 208.079 1110.35 Q211.459 1113.52 211.459 1118.94 Q211.459 1124.52 207.987 1127.62 Q204.514 1130.7 198.195 1130.7 Q196.019 1130.7 193.75 1130.33 Q191.505 1129.96 189.098 1129.22 L189.098 1124.52 Q191.181 1125.65 193.403 1126.21 Q195.625 1126.76 198.102 1126.76 Q202.107 1126.76 204.445 1124.66 Q206.783 1122.55 206.783 1118.94 Q206.783 1115.33 204.445 1113.22 Q202.107 1111.12 198.102 1111.12 Q196.227 1111.12 194.352 1111.53 Q192.5 1111.95 190.556 1112.83 L190.556 1095.47 Z" fill="#000000" fill-rule="nonzero" fill-opacity="1"></path><path clip-path="url(#clip230)" d="M144.329 821.821 L162.686 821.821 L162.686 825.756 L148.612 825.756 L148.612 834.228 Q149.63 833.881 150.649 833.719 Q151.667 833.534 152.686 833.534 Q158.473 833.534 161.852 836.705 Q165.232 839.876 165.232 845.293 Q165.232 850.871 161.76 853.973 Q158.288 857.052 151.968 857.052 Q149.792 857.052 147.524 856.682 Q145.279 856.311 142.871 855.57 L142.871 850.871 Q144.954 852.006 147.177 852.561 Q149.399 853.117 151.876 853.117 Q155.88 853.117 158.218 851.01 Q160.556 848.904 160.556 845.293 Q160.556 841.682 158.218 839.575 Q155.88 837.469 151.876 837.469 Q150.001 837.469 148.126 837.885 Q146.274 838.302 144.329 839.182 L144.329 821.821 Z" fill="#000000" fill-rule="nonzero" fill-opacity="1"></path><path clip-path="url(#clip230)" d="M174.445 850.501 L179.329 850.501 L179.329 856.381 L174.445 856.381 L174.445 850.501 Z" fill="#000000" fill-rule="nonzero" fill-opacity="1"></path><path clip-path="url(#clip230)" d="M199.514 824.899 Q195.903 824.899 194.075 828.464 Q192.269 832.006 192.269 839.135 Q192.269 846.242 194.075 849.807 Q195.903 853.348 199.514 853.348 Q203.149 853.348 204.954 849.807 Q206.783 846.242 206.783 839.135 Q206.783 832.006 204.954 828.464 Q203.149 824.899 199.514 824.899 M199.514 821.196 Q205.324 821.196 208.38 825.802 Q211.459 830.385 211.459 839.135 Q211.459 847.862 208.38 852.469 Q205.324 857.052 199.514 857.052 Q193.704 857.052 190.625 852.469 Q187.57 847.862 187.57 839.135 Q187.57 830.385 190.625 825.802 Q193.704 821.196 199.514 821.196 Z" fill="#000000" fill-rule="nonzero" fill-opacity="1"></path><path clip-path="url(#clip230)" d="M144.098 548.173 L166.32 548.173 L166.32 550.163 L153.774 582.733 L148.89 582.733 L160.695 552.108 L144.098 552.108 L144.098 548.173 Z" fill="#000000" fill-rule="nonzero" fill-opacity="1"></path><path clip-path="url(#clip230)" d="M175.44 576.853 L180.325 576.853 L180.325 582.733 L175.44 582.733 L175.44 576.853 Z" fill="#000000" fill-rule="nonzero" fill-opacity="1"></path><path clip-path="url(#clip230)" d="M190.556 548.173 L208.912 548.173 L208.912 552.108 L194.838 552.108 L194.838 560.58 Q195.857 560.233 196.875 560.071 Q197.894 559.886 198.912 559.886 Q204.699 559.886 208.079 563.057 Q211.459 566.228 211.459 571.645 Q211.459 577.224 207.987 580.325 Q204.514 583.404 198.195 583.404 Q196.019 583.404 193.75 583.034 Q191.505 582.663 189.098 581.923 L189.098 577.224 Q191.181 578.358 193.403 578.913 Q195.625 579.469 198.102 579.469 Q202.107 579.469 204.445 577.362 Q206.783 575.256 206.783 571.645 Q206.783 568.034 204.445 565.927 Q202.107 563.821 198.102 563.821 Q196.227 563.821 194.352 564.237 Q192.5 564.654 190.556 565.534 L190.556 548.173 Z" fill="#000000" fill-rule="nonzero" fill-opacity="1"></path><path clip-path="url(#clip230)" d="M114.931 305.15 L122.57 305.15 L122.57 278.784 L114.26 280.451 L114.26 276.192 L122.524 274.525 L127.2 274.525 L127.2 305.15 L134.839 305.15 L134.839 309.085 L114.931 309.085 L114.931 305.15 Z" fill="#000000" fill-rule="nonzero" fill-opacity="1"></path><path clip-path="url(#clip230)" d="M154.283 277.604 Q150.672 277.604 148.843 281.168 Q147.038 284.71 147.038 291.84 Q147.038 298.946 148.843 302.511 Q150.672 306.052 154.283 306.052 Q157.917 306.052 159.723 302.511 Q161.552 298.946 161.552 291.84 Q161.552 284.71 159.723 281.168 Q157.917 277.604 154.283 277.604 M154.283 273.9 Q160.093 273.9 163.149 278.506 Q166.227 283.09 166.227 291.84 Q166.227 300.566 163.149 305.173 Q160.093 309.756 154.283 309.756 Q148.473 309.756 145.394 305.173 Q142.339 300.566 142.339 291.84 Q142.339 283.09 145.394 278.506 Q148.473 273.9 154.283 273.9 Z" fill="#000000" fill-rule="nonzero" fill-opacity="1"></path><path clip-path="url(#clip230)" d="M174.445 303.205 L179.329 303.205 L179.329 309.085 L174.445 309.085 L174.445 303.205 Z" fill="#000000" fill-rule="nonzero" fill-opacity="1"></path><path clip-path="url(#clip230)" d="M199.514 277.604 Q195.903 277.604 194.075 281.168 Q192.269 284.71 192.269 291.84 Q192.269 298.946 194.075 302.511 Q195.903 306.052 199.514 306.052 Q203.149 306.052 204.954 302.511 Q206.783 298.946 206.783 291.84 Q206.783 284.71 204.954 281.168 Q203.149 277.604 199.514 277.604 M199.514 273.9 Q205.324 273.9 208.38 278.506 Q211.459 283.09 211.459 291.84 Q211.459 300.566 208.38 305.173 Q205.324 309.756 199.514 309.756 Q193.704 309.756 190.625 305.173 Q187.57 300.566 187.57 291.84 Q187.57 283.09 190.625 278.506 Q193.704 273.9 199.514 273.9 Z" fill="#000000" fill-rule="nonzero" fill-opacity="1"></path><path clip-path="url(#clip230)" d="M21.7677 886.636 L58.7206 886.636 L58.7206 878.869 Q58.7206 869.034 54.2646 864.483 Q49.8086 859.9 40.1964 859.9 Q30.6479 859.9 26.2237 864.483 Q21.7677 869.034 21.7677 878.869 L21.7677 886.636 M16.4842 893.065 L16.4842 879.856 Q16.4842 866.043 22.2451 859.581 Q27.9743 853.12 40.1964 853.12 Q52.4822 853.12 58.2432 859.613 Q64.0042 866.106 64.0042 879.856 L64.0042 893.065 L16.4842 893.065 Z" fill="#000000" fill-rule="nonzero" fill-opacity="1"></path><path clip-path="url(#clip230)" d="M44.7161 812.634 L47.5806 812.634 L47.5806 839.561 Q53.6281 839.179 56.8109 835.933 Q59.9619 832.654 59.9619 826.83 Q59.9619 823.456 59.1344 820.305 Q58.3069 817.122 56.6518 814.003 L62.1899 814.003 Q63.5267 817.154 64.227 820.464 Q64.9272 823.774 64.9272 827.18 Q64.9272 835.71 59.9619 840.707 Q54.9967 845.672 46.5303 845.672 Q37.7774 845.672 32.6531 840.962 Q27.4968 836.219 27.4968 828.198 Q27.4968 821.005 32.1438 816.836 Q36.7589 812.634 44.7161 812.634 M42.9973 818.491 Q38.1912 818.554 35.3266 821.196 Q32.4621 823.806 32.4621 828.135 Q32.4621 833.036 35.2312 835.996 Q38.0002 838.925 43.0292 839.37 L42.9973 818.491 Z" fill="#000000" fill-rule="nonzero" fill-opacity="1"></path><path clip-path="url(#clip230)" d="M42.4881 773.39 L64.0042 773.39 L64.0042 779.246 L42.679 779.246 Q37.6183 779.246 35.1038 781.219 Q32.5894 783.193 32.5894 787.14 Q32.5894 791.882 35.6131 794.619 Q38.6368 797.357 43.8567 797.357 L64.0042 797.357 L64.0042 803.245 L28.3562 803.245 L28.3562 797.357 L33.8944 797.357 Q30.6797 795.256 29.0883 792.423 Q27.4968 789.559 27.4968 785.835 Q27.4968 779.692 31.3163 776.541 Q35.1038 773.39 42.4881 773.39 Z" fill="#000000" fill-rule="nonzero" fill-opacity="1"></path><path clip-path="url(#clip230)" d="M29.4065 738.983 L34.9447 738.983 Q33.6716 741.466 33.035 744.139 Q32.3984 746.813 32.3984 749.677 Q32.3984 754.038 33.7352 756.234 Q35.072 758.398 37.7456 758.398 Q39.7826 758.398 40.9603 756.839 Q42.1061 755.279 43.1565 750.569 L43.6021 748.563 Q44.9389 742.325 47.3897 739.715 Q49.8086 737.073 54.1691 737.073 Q59.1344 737.073 62.0308 741.02 Q64.9272 744.935 64.9272 751.81 Q64.9272 754.674 64.3543 757.794 Q63.8132 760.881 62.6992 764.319 L56.6518 764.319 Q58.3387 761.072 59.198 757.921 Q60.0256 754.77 60.0256 751.683 Q60.0256 747.545 58.6251 745.317 Q57.1929 743.089 54.6147 743.089 Q52.2276 743.089 50.9545 744.712 Q49.6813 746.304 48.5037 751.746 L48.0262 753.783 Q46.8804 759.226 44.5251 761.645 Q42.138 764.064 38.0002 764.064 Q32.9713 764.064 30.2341 760.499 Q27.4968 756.934 27.4968 750.378 Q27.4968 747.131 27.9743 744.267 Q28.4517 741.402 29.4065 738.983 Z" fill="#000000" fill-rule="nonzero" fill-opacity="1"></path><path clip-path="url(#clip230)" d="M28.3562 727.748 L28.3562 721.891 L64.0042 721.891 L64.0042 727.748 L28.3562 727.748 M14.479 727.748 L14.479 721.891 L21.895 721.891 L21.895 727.748 L14.479 727.748 Z" fill="#000000" fill-rule="nonzero" fill-opacity="1"></path><path clip-path="url(#clip230)" d="M18.2347 703.844 L28.3562 703.844 L28.3562 691.781 L32.9077 691.781 L32.9077 703.844 L52.2594 703.844 Q56.6199 703.844 57.8613 702.667 Q59.1026 701.457 59.1026 697.797 L59.1026 691.781 L64.0042 691.781 L64.0042 697.797 Q64.0042 704.576 61.4897 707.154 Q58.9434 709.733 52.2594 709.733 L32.9077 709.733 L32.9077 714.029 L28.3562 714.029 L28.3562 709.733 L18.2347 709.733 L18.2347 703.844 Z" fill="#000000" fill-rule="nonzero" fill-opacity="1"></path><path clip-path="url(#clip230)" d="M67.3143 669.247 Q73.68 671.729 75.6216 674.085 Q77.5631 676.44 77.5631 680.387 L77.5631 685.065 L72.6615 685.065 L72.6615 681.628 Q72.6615 679.209 71.5157 677.872 Q70.3699 676.535 66.1048 674.912 L63.4312 673.862 L28.3562 688.28 L28.3562 682.074 L56.238 670.934 L28.3562 659.794 L28.3562 653.587 L67.3143 669.247 Z" fill="#000000" fill-rule="nonzero" fill-opacity="1"></path><path clip-path="url(#clip230)" d="M1064.87 14.0809 L1064.87 22.0612 Q1060.21 19.8332 1056.08 18.7395 Q1051.95 17.6457 1048.1 17.6457 Q1041.42 17.6457 1037.77 20.2383 Q1034.17 22.8309 1034.17 27.611 Q1034.17 31.6214 1036.56 33.6873 Q1038.99 35.7128 1045.71 36.9686 L1050.65 37.9813 Q1059.81 39.7232 1064.14 44.1387 Q1068.52 48.5136 1068.52 55.8863 Q1068.52 64.6767 1062.6 69.2137 Q1056.73 73.7508 1045.35 73.7508 Q1041.05 73.7508 1036.19 72.7785 Q1031.37 71.8063 1026.19 69.9024 L1026.19 61.4765 Q1031.17 64.2716 1035.95 65.6895 Q1040.73 67.1073 1045.35 67.1073 Q1052.35 67.1073 1056.16 64.3527 Q1059.97 61.598 1059.97 56.4939 Q1059.97 52.0379 1057.22 49.5264 Q1054.5 47.0148 1048.26 45.759 L1043.28 44.7868 Q1034.12 42.9639 1030.03 39.075 Q1025.94 35.1862 1025.94 28.2591 Q1025.94 20.2383 1031.57 15.6203 Q1037.24 11.0023 1047.17 11.0023 Q1051.42 11.0023 1055.84 11.7719 Q1060.25 12.5416 1064.87 14.0809 Z" fill="#000000" fill-rule="nonzero" fill-opacity="1"></path><path clip-path="url(#clip230)" d="M1088.33 14.324 L1088.33 27.2059 L1103.68 27.2059 L1103.68 32.9987 L1088.33 32.9987 L1088.33 57.6282 Q1088.33 63.1779 1089.82 64.7578 Q1091.36 66.3376 1096.02 66.3376 L1103.68 66.3376 L1103.68 72.576 L1096.02 72.576 Q1087.39 72.576 1084.11 69.3758 Q1080.83 66.1351 1080.83 57.6282 L1080.83 32.9987 L1075.36 32.9987 L1075.36 27.2059 L1080.83 27.2059 L1080.83 14.324 L1088.33 14.324 Z" fill="#000000" fill-rule="nonzero" fill-opacity="1"></path><path clip-path="url(#clip230)" d="M1139.77 34.1734 Q1138.52 33.4443 1137.02 33.1202 Q1135.56 32.7556 1133.78 32.7556 Q1127.46 32.7556 1124.06 36.8875 Q1120.69 40.9789 1120.69 48.6757 L1120.69 72.576 L1113.2 72.576 L1113.2 27.2059 L1120.69 27.2059 L1120.69 34.2544 Q1123.04 30.1225 1126.81 28.1376 Q1130.58 26.1121 1135.96 26.1121 Q1136.73 26.1121 1137.67 26.2337 Q1138.6 26.3147 1139.73 26.5172 L1139.77 34.1734 Z" fill="#000000" fill-rule="nonzero" fill-opacity="1"></path><path clip-path="url(#clip230)" d="M1163.35 32.4315 Q1157.35 32.4315 1153.87 37.1306 Q1150.39 41.7891 1150.39 49.9314 Q1150.39 58.0738 1153.83 62.7728 Q1157.31 67.4314 1163.35 67.4314 Q1169.3 67.4314 1172.79 62.7323 Q1176.27 58.0333 1176.27 49.9314 Q1176.27 41.8701 1172.79 37.1711 Q1169.3 32.4315 1163.35 32.4315 M1163.35 26.1121 Q1173.07 26.1121 1178.62 32.4315 Q1184.17 38.7509 1184.17 49.9314 Q1184.17 61.0714 1178.62 67.4314 Q1173.07 73.7508 1163.35 73.7508 Q1153.59 73.7508 1148.04 67.4314 Q1142.53 61.0714 1142.53 49.9314 Q1142.53 38.7509 1148.04 32.4315 Q1153.59 26.1121 1163.35 26.1121 Z" fill="#000000" fill-rule="nonzero" fill-opacity="1"></path><path clip-path="url(#clip230)" d="M1234.24 45.1919 L1234.24 72.576 L1226.79 72.576 L1226.79 45.4349 Q1226.79 38.994 1224.27 35.7938 Q1221.76 32.5936 1216.74 32.5936 Q1210.7 32.5936 1207.22 36.4419 Q1203.74 40.2903 1203.74 46.9338 L1203.74 72.576 L1196.24 72.576 L1196.24 27.2059 L1203.74 27.2059 L1203.74 34.2544 Q1206.41 30.163 1210.02 28.1376 Q1213.66 26.1121 1218.4 26.1121 Q1226.22 26.1121 1230.23 30.9732 Q1234.24 35.7938 1234.24 45.1919 Z" fill="#000000" fill-rule="nonzero" fill-opacity="1"></path><path clip-path="url(#clip230)" d="M1278.96 49.3643 Q1278.96 41.2625 1275.6 36.8065 Q1272.28 32.3505 1266.24 32.3505 Q1260.25 32.3505 1256.88 36.8065 Q1253.56 41.2625 1253.56 49.3643 Q1253.56 57.4256 1256.88 61.8816 Q1260.25 66.3376 1266.24 66.3376 Q1272.28 66.3376 1275.6 61.8816 Q1278.96 57.4256 1278.96 49.3643 M1286.42 66.9452 Q1286.42 78.5308 1281.27 84.1616 Q1276.13 89.8329 1265.51 89.8329 Q1261.58 89.8329 1258.1 89.2252 Q1254.62 88.6581 1251.33 87.4428 L1251.33 80.1917 Q1254.62 81.9741 1257.82 82.8248 Q1261.02 83.6755 1264.34 83.6755 Q1271.67 83.6755 1275.32 79.8271 Q1278.96 76.0193 1278.96 68.282 L1278.96 64.5957 Q1276.65 68.6061 1273.05 70.5911 Q1269.44 72.576 1264.42 72.576 Q1256.07 72.576 1250.97 66.2161 Q1245.87 59.8562 1245.87 49.3643 Q1245.87 38.832 1250.97 32.472 Q1256.07 26.1121 1264.42 26.1121 Q1269.44 26.1121 1273.05 28.0971 Q1276.65 30.082 1278.96 34.0924 L1278.96 27.2059 L1286.42 27.2059 L1286.42 66.9452 Z" fill="#000000" fill-rule="nonzero" fill-opacity="1"></path><path clip-path="url(#clip230)" d="M1328.46 12.096 L1363.22 12.096 L1363.22 18.9825 L1336.65 18.9825 L1336.65 36.8065 L1360.63 36.8065 L1360.63 43.6931 L1336.65 43.6931 L1336.65 72.576 L1328.46 72.576 L1328.46 12.096 Z" fill="#000000" fill-rule="nonzero" fill-opacity="1"></path><path clip-path="url(#clip230)" d="M1388.86 49.7694 Q1379.83 49.7694 1376.35 51.8354 Q1372.86 53.9013 1372.86 58.8839 Q1372.86 62.8538 1375.45 65.2034 Q1378.09 67.5124 1382.58 67.5124 Q1388.78 67.5124 1392.51 63.1374 Q1396.28 58.7219 1396.28 51.4303 L1396.28 49.7694 L1388.86 49.7694 M1403.73 46.6907 L1403.73 72.576 L1396.28 72.576 L1396.28 65.6895 Q1393.72 69.8214 1389.92 71.8063 Q1386.11 73.7508 1380.6 73.7508 Q1373.63 73.7508 1369.5 69.8619 Q1365.41 65.9325 1365.41 59.3701 Q1365.41 51.7138 1370.51 47.825 Q1375.66 43.9361 1385.82 43.9361 L1396.28 43.9361 L1396.28 43.2069 Q1396.28 38.0623 1392.87 35.2672 Q1389.51 32.4315 1383.39 32.4315 Q1379.51 32.4315 1375.82 33.3632 Q1372.13 34.295 1368.73 36.1584 L1368.73 29.2718 Q1372.82 27.692 1376.67 26.9223 Q1380.52 26.1121 1384.16 26.1121 Q1394.01 26.1121 1398.87 31.2163 Q1403.73 36.3204 1403.73 46.6907 Z" fill="#000000" fill-rule="nonzero" fill-opacity="1"></path><path clip-path="url(#clip230)" d="M1451.73 28.9478 L1451.73 35.9153 Q1448.57 34.1734 1445.37 33.3227 Q1442.21 32.4315 1438.97 32.4315 Q1431.72 32.4315 1427.71 37.0496 Q1423.7 41.6271 1423.7 49.9314 Q1423.7 58.2358 1427.71 62.8538 Q1431.72 67.4314 1438.97 67.4314 Q1442.21 67.4314 1445.37 66.5807 Q1448.57 65.6895 1451.73 63.9476 L1451.73 70.8341 Q1448.61 72.2924 1445.25 73.0216 Q1441.93 73.7508 1438.16 73.7508 Q1427.91 73.7508 1421.88 67.3098 Q1415.84 60.8689 1415.84 49.9314 Q1415.84 38.832 1421.92 32.472 Q1428.03 26.1121 1438.65 26.1121 Q1442.09 26.1121 1445.37 26.8413 Q1448.65 27.5299 1451.73 28.9478 Z" fill="#000000" fill-rule="nonzero" fill-opacity="1"></path><path clip-path="url(#clip230)" d="M1472.07 14.324 L1472.07 27.2059 L1487.42 27.2059 L1487.42 32.9987 L1472.07 32.9987 L1472.07 57.6282 Q1472.07 63.1779 1473.57 64.7578 Q1475.11 66.3376 1479.76 66.3376 L1487.42 66.3376 L1487.42 72.576 L1479.76 72.576 Q1471.14 72.576 1467.86 69.3758 Q1464.57 66.1351 1464.57 57.6282 L1464.57 32.9987 L1459.11 32.9987 L1459.11 27.2059 L1464.57 27.2059 L1464.57 14.324 L1472.07 14.324 Z" fill="#000000" fill-rule="nonzero" fill-opacity="1"></path><path clip-path="url(#clip230)" d="M1514.81 32.4315 Q1508.81 32.4315 1505.33 37.1306 Q1501.84 41.7891 1501.84 49.9314 Q1501.84 58.0738 1505.29 62.7728 Q1508.77 67.4314 1514.81 67.4314 Q1520.76 67.4314 1524.24 62.7323 Q1527.73 58.0333 1527.73 49.9314 Q1527.73 41.8701 1524.24 37.1711 Q1520.76 32.4315 1514.81 32.4315 M1514.81 26.1121 Q1524.53 26.1121 1530.08 32.4315 Q1535.63 38.7509 1535.63 49.9314 Q1535.63 61.0714 1530.08 67.4314 Q1524.53 73.7508 1514.81 73.7508 Q1505.04 73.7508 1499.49 67.4314 Q1493.98 61.0714 1493.98 49.9314 Q1493.98 38.7509 1499.49 32.4315 Q1505.04 26.1121 1514.81 26.1121 Z" fill="#000000" fill-rule="nonzero" fill-opacity="1"></path><path clip-path="url(#clip230)" d="M1574.27 34.1734 Q1573.02 33.4443 1571.52 33.1202 Q1570.06 32.7556 1568.28 32.7556 Q1561.96 32.7556 1558.55 36.8875 Q1555.19 40.9789 1555.19 48.6757 L1555.19 72.576 L1547.7 72.576 L1547.7 27.2059 L1555.19 27.2059 L1555.19 34.2544 Q1557.54 30.1225 1561.31 28.1376 Q1565.08 26.1121 1570.46 26.1121 Q1571.23 26.1121 1572.17 26.2337 Q1573.1 26.3147 1574.23 26.5172 L1574.27 34.1734 Z" fill="#000000" fill-rule="nonzero" fill-opacity="1"></path><polyline clip-path="url(#clip232)" style="stroke:#009af9; stroke-linecap:round; stroke-linejoin:round; stroke-width:8; stroke-opacity:1; fill:none" points="440.357,1386.39 449.401,1386.39 458.445,1386.39 467.489,1386.38 476.533,1386.37 485.577,1386.34 494.621,1386.3 503.665,1386.23 512.709,1386.13 521.753,1385.96 530.797,1385.72 539.841,1385.38 548.885,1384.89 557.929,1384.24 566.973,1383.37 576.017,1382.26 585.061,1380.84 594.105,1379.09 603.149,1376.96 612.193,1374.4 621.237,1371.37 630.281,1367.84 639.325,1363.79 648.369,1359.22 657.413,1354.13 666.457,1348.58 675.501,1342.63 684.545,1336.38 693.589,1329.91 702.633,1323.32 711.677,1316.64 720.721,1309.88 729.765,1302.98 738.809,1295.82 747.853,1288.2 756.897,1279.88 765.941,1270.57 774.985,1259.97 784.029,1247.77 793.073,1233.66 802.117,1217.37 811.161,1198.71 820.205,1177.57 829.249,1153.95 838.293,1128.03 847.337,1100.14 856.381,1070.79 865.425,1040.64 874.469,1010.42 883.514,980.926 892.558,952.888 901.602,926.926 910.646,903.477 919.69,882.761 928.734,864.759 937.778,849.227 946.822,835.723 955.866,823.651 964.91,812.31 973.954,800.941 982.998,788.78 992.042,775.096 1001.09,759.225 1010.13,740.609 1019.17,718.82 1028.22,693.588 1037.26,664.831 1046.31,632.669 1055.35,597.434 1064.39,559.669 1073.44,520.11 1082.48,479.646 1091.53,439.28 1100.57,400.057 1109.61,362.999 1118.66,329.035 1127.7,298.924 1136.75,273.199 1145.79,252.117 1154.83,235.641 1163.88,223.446 1172.92,214.959 1181.97,209.425 1191.01,206.005 1200.05,203.877 1209.1,202.338 1218.14,200.883 1227.19,199.256 1236.23,197.46 1245.27,195.724 1254.32,194.441 1263.36,194.08 1272.41,195.094 1281.45,197.831 1290.49,202.482 1299.54,209.054 1308.58,217.396 1317.63,227.258 1326.67,238.377 1335.71,250.574 1344.76,263.826 1353.8,278.309 1362.85,294.391 1371.89,312.573 1380.93,333.384 1389.98,357.274 1399.02,384.492 1408.07,415.012 1417.11,448.493 1426.15,484.301 1435.2,521.581 1444.24,559.359 1453.29,596.678 1462.33,632.714 1471.37,666.88 1480.42,698.881 1489.46,728.72 1498.51,756.656 1507.55,783.117 1516.59,808.597 1525.64,833.553 1534.68,858.322 1543.73,883.081 1552.77,907.842 1561.81,932.49 1570.86,956.837 1579.9,980.682 1588.95,1003.86 1597.99,1026.29 1607.03,1047.93 1616.08,1068.82 1625.12,1089.04 1634.17,1108.65 1643.21,1127.7 1652.25,1146.19 1661.3,1164.1 1670.34,1181.33 1679.39,1197.8 1688.43,1213.4 1697.47,1228.01 1706.52,1241.57 1715.56,1254.02 1724.61,1265.37 1733.65,1275.63 1742.69,1284.86 1751.74,1293.13 1760.78,1300.52 1769.83,1307.09 1778.87,1312.92 1787.91,1318.08 1796.96,1322.65 1806,1326.7 1815.05,1330.33 1824.09,1333.64 1833.13,1336.73 1842.18,1339.69 1851.22,1342.58 1860.27,1345.45 1869.31,1348.31 1878.35,1351.17 1887.4,1354 1896.44,1356.79 1905.49,1359.52 1914.53,1362.15 1923.57,1364.69 1932.62,1367.11 1941.66,1369.38 1950.71,1371.48 1959.75,1373.37 1968.79,1375.01 1977.84,1376.38 1986.88,1377.47 1995.93,1378.29 2004.97,1378.87 2014.01,1379.27 2023.06,1379.56 2032.1,1379.8 2041.15,1380.06 2050.19,1380.38 2059.23,1380.8 2068.28,1381.3 2077.32,1381.89 2086.37,1382.52 2095.41,1383.16 2104.45,1383.78 2113.5,1384.35 2122.54,1384.85 2131.59,1385.26 2140.63,1385.59 2149.67,1385.85 2158.72,1386.03 2167.76,1386.16 2176.81,1386.25 2185.85,1386.31 2194.89,1386.35 2203.94,1386.37 2212.98,1386.38 2222.03,1386.39 2231.07,1386.39 2240.11,1386.39 "></polyline>
<polyline clip-path="url(#clip232)" style="stroke:#e26f46; stroke-linecap:round; stroke-linejoin:round; stroke-width:8; stroke-opacity:1; fill:none" points="307.043,1386.4 317.023,1386.39 327.004,1386.39 336.984,1386.39 346.965,1386.37 356.945,1386.35 366.926,1386.3 376.906,1386.22 386.887,1386.1 396.868,1385.93 406.848,1385.71 416.829,1385.47 426.809,1385.23 436.79,1385.02 446.77,1384.89 456.751,1384.84 466.731,1384.85 476.712,1384.88 486.692,1384.85 496.673,1384.65 506.654,1384.2 516.634,1383.4 526.615,1382.19 536.595,1380.54 546.576,1378.45 556.556,1375.98 566.537,1373.23 576.517,1370.35 586.498,1367.49 596.479,1364.81 606.459,1362.37 616.44,1360.16 626.42,1358.01 636.401,1355.73 646.381,1353.07 656.362,1349.91 666.342,1346.22 676.323,1342.08 686.303,1337.59 696.284,1332.8 706.265,1327.63 716.245,1321.9 726.226,1315.4 736.206,1307.99 746.187,1299.66 756.167,1290.53 766.148,1280.77 776.128,1270.51 786.109,1259.73 796.09,1248.27 806.07,1235.84 816.051,1222.05 826.031,1206.56 836.012,1189.04 845.992,1169.29 855.973,1147.25 865.953,1123.04 875.934,1097.01 885.914,1069.75 895.895,1041.99 905.876,1014.5 915.856,987.861 925.837,962.369 935.817,937.935 945.798,914.162 955.778,890.497 965.759,866.395 975.739,841.438 985.72,815.329 995.701,787.806 1005.68,758.538 1015.66,727.105 1025.64,693.117 1035.62,656.45 1045.6,617.495 1055.58,577.283 1065.56,537.405 1075.54,499.715 1085.53,465.913 1095.51,437.123 1105.49,413.571 1115.47,394.476 1125.45,378.18 1135.43,362.531 1145.41,345.436 1155.39,325.452 1165.37,302.207 1175.35,276.53 1185.33,250.203 1195.31,225.428 1205.29,204.175 1215.27,187.654 1225.25,176.049 1235.23,168.638 1245.21,164.204 1255.19,161.606 1265.18,160.256 1275.16,160.317 1285.14,162.521 1295.12,167.721 1305.1,176.407 1315.08,188.448 1325.06,203.179 1335.04,219.789 1345.02,237.757 1355,257.112 1364.98,278.386 1374.96,302.309 1384.94,329.432 1394.92,359.838 1404.9,393.061 1414.88,428.199 1424.86,464.128 1434.84,499.74 1444.83,534.136 1454.81,566.759 1464.79,597.472 1474.77,626.569 1484.75,654.687 1494.73,682.624 1504.71,711.079 1514.69,740.408 1524.67,770.485 1534.65,800.746 1544.63,830.418 1554.61,858.842 1564.59,885.753 1574.57,911.384 1584.55,936.353 1594.53,961.39 1604.51,987.043 1614.49,1013.5 1624.48,1040.56 1634.46,1067.78 1644.44,1094.61 1654.42,1120.44 1664.4,1144.71 1674.38,1166.85 1684.36,1186.39 1694.34,1203.07 1704.32,1216.96 1714.3,1228.51 1724.28,1238.49 1734.26,1247.8 1744.24,1257.28 1754.22,1267.46 1764.2,1278.48 1774.18,1290.08 1784.16,1301.7 1794.14,1312.67 1804.13,1322.42 1814.11,1330.58 1824.09,1337.13 1834.07,1342.3 1844.05,1346.48 1854.03,1350.09 1864.01,1353.48 1873.99,1356.85 1883.97,1360.28 1893.95,1363.72 1903.93,1367.07 1913.91,1370.2 1923.89,1373.01 1933.87,1375.4 1943.85,1377.35 1953.83,1378.87 1963.81,1380.02 1973.79,1380.88 1983.77,1381.53 1993.76,1382.04 2003.74,1382.46 2013.72,1382.83 2023.7,1383.16 2033.68,1383.47 2043.66,1383.75 2053.64,1384.01 2063.62,1384.27 2073.6,1384.51 2083.58,1384.71 2093.56,1384.85 2103.54,1384.92 2113.52,1384.91 2123.5,1384.87 2133.48,1384.82 2143.46,1384.81 2153.44,1384.87 2163.42,1385.01 2173.41,1385.22 2183.39,1385.46 2193.37,1385.71 2203.35,1385.93 2213.33,1386.1 2223.31,1386.22 2233.29,1386.3 2243.27,1386.35 2253.25,1386.37 2263.23,1386.39 2273.21,1386.39 2283.19,1386.39 2293.17,1386.4 "></polyline>
<polyline clip-path="url(#clip232)" style="stroke:#808080; stroke-linecap:round; stroke-linejoin:round; stroke-width:6; stroke-opacity:1; fill:none" stroke-dasharray="3, 6" points="1009.61,2722.89 1009.61,-1176.24 "></polyline>
<path clip-path="url(#clip230)" d="M1841.54 322.316 L2282.58 322.316 L2282.58 166.796 L1841.54 166.796  Z" fill="#ffffff" fill-rule="evenodd" fill-opacity="1"></path>
<polyline clip-path="url(#clip230)" style="stroke:#000000; stroke-linecap:round; stroke-linejoin:round; stroke-width:4; stroke-opacity:1; fill:none" points="1841.54,322.316 2282.58,322.316 2282.58,166.796 1841.54,166.796 1841.54,322.316 "></polyline>
<polyline clip-path="url(#clip230)" style="stroke:#009af9; stroke-linecap:round; stroke-linejoin:round; stroke-width:8; stroke-opacity:1; fill:none" points="1864.93,218.636 2005.29,218.636 "></polyline>
<path clip-path="url(#clip230)" d="M2033.36 219.411 L2033.36 232.073 L2040.85 232.073 Q2044.63 232.073 2046.43 230.522 Q2048.26 228.948 2048.26 225.731 Q2048.26 222.49 2046.43 220.962 Q2044.63 219.411 2040.85 219.411 L2033.36 219.411 M2033.36 205.198 L2033.36 215.615 L2040.28 215.615 Q2043.7 215.615 2045.37 214.342 Q2047.06 213.045 2047.06 210.407 Q2047.06 207.791 2045.37 206.495 Q2043.7 205.198 2040.28 205.198 L2033.36 205.198 M2028.68 201.356 L2040.62 201.356 Q2045.97 201.356 2048.86 203.578 Q2051.76 205.8 2051.76 209.897 Q2051.76 213.069 2050.28 214.944 Q2048.79 216.819 2045.92 217.282 Q2049.37 218.022 2051.27 220.383 Q2053.19 222.721 2053.19 226.24 Q2053.19 230.869 2050.04 233.393 Q2046.9 235.916 2041.09 235.916 L2028.68 235.916 L2028.68 201.356 Z" fill="#000000" fill-rule="nonzero" fill-opacity="1"></path><path clip-path="url(#clip230)" d="M2081.09 202.49 L2081.09 207.05 Q2078.42 205.777 2076.06 205.152 Q2073.7 204.527 2071.5 204.527 Q2067.68 204.527 2065.6 206.008 Q2063.54 207.49 2063.54 210.221 Q2063.54 212.513 2064.91 213.694 Q2066.29 214.851 2070.14 215.569 L2072.96 216.147 Q2078.19 217.143 2080.67 219.666 Q2083.17 222.166 2083.17 226.379 Q2083.17 231.402 2079.79 233.994 Q2076.43 236.587 2069.93 236.587 Q2067.48 236.587 2064.7 236.031 Q2061.94 235.476 2058.98 234.388 L2058.98 229.573 Q2061.83 231.17 2064.56 231.981 Q2067.29 232.791 2069.93 232.791 Q2073.93 232.791 2076.11 231.217 Q2078.29 229.643 2078.29 226.726 Q2078.29 224.18 2076.71 222.744 Q2075.16 221.309 2071.6 220.592 L2068.75 220.036 Q2063.52 218.995 2061.18 216.772 Q2058.84 214.55 2058.84 210.592 Q2058.84 206.008 2062.06 203.37 Q2065.3 200.731 2070.97 200.731 Q2073.4 200.731 2075.92 201.171 Q2078.45 201.61 2081.09 202.49 Z" fill="#000000" fill-rule="nonzero" fill-opacity="1"></path><path clip-path="url(#clip230)" d="M2095.14 205.198 L2095.14 232.073 L2100.79 232.073 Q2107.94 232.073 2111.25 228.832 Q2114.58 225.592 2114.58 218.601 Q2114.58 211.657 2111.25 208.439 Q2107.94 205.198 2100.79 205.198 L2095.14 205.198 M2090.46 201.356 L2100.07 201.356 Q2110.11 201.356 2114.81 205.546 Q2119.51 209.712 2119.51 218.601 Q2119.51 227.536 2114.79 231.726 Q2110.07 235.916 2100.07 235.916 L2090.46 235.916 L2090.46 201.356 Z" fill="#000000" fill-rule="nonzero" fill-opacity="1"></path><path clip-path="url(#clip230)" d="M2126.97 201.356 L2146.83 201.356 L2146.83 205.291 L2131.64 205.291 L2131.64 215.476 L2145.35 215.476 L2145.35 219.411 L2131.64 219.411 L2131.64 235.916 L2126.97 235.916 L2126.97 201.356 Z" fill="#000000" fill-rule="nonzero" fill-opacity="1"></path><path clip-path="url(#clip230)" d="M2151.9 221.032 L2164.37 221.032 L2164.37 224.828 L2151.9 224.828 L2151.9 221.032 Z" fill="#000000" fill-rule="nonzero" fill-opacity="1"></path><path clip-path="url(#clip230)" d="M2186.69 204.527 Q2181.59 204.527 2178.59 208.323 Q2175.6 212.12 2175.6 218.67 Q2175.6 225.198 2178.59 228.994 Q2181.59 232.791 2186.69 232.791 Q2191.78 232.791 2194.74 228.994 Q2197.73 225.198 2197.73 218.67 Q2197.73 212.12 2194.74 208.323 Q2191.78 204.527 2186.69 204.527 M2186.69 200.731 Q2193.96 200.731 2198.31 205.615 Q2202.66 210.476 2202.66 218.67 Q2202.66 226.842 2198.31 231.726 Q2193.96 236.587 2186.69 236.587 Q2179.4 236.587 2175.02 231.726 Q2170.67 226.865 2170.67 218.67 Q2170.67 210.476 2175.02 205.615 Q2179.4 200.731 2186.69 200.731 Z" fill="#000000" fill-rule="nonzero" fill-opacity="1"></path><path clip-path="url(#clip230)" d="M2209.97 201.356 L2214.65 201.356 L2214.65 231.981 L2231.48 231.981 L2231.48 235.916 L2209.97 235.916 L2209.97 201.356 Z" fill="#000000" fill-rule="nonzero" fill-opacity="1"></path><path clip-path="url(#clip230)" d="M2257.1 202.49 L2257.1 207.05 Q2254.44 205.777 2252.08 205.152 Q2249.72 204.527 2247.52 204.527 Q2243.7 204.527 2241.62 206.008 Q2239.56 207.49 2239.56 210.221 Q2239.56 212.513 2240.92 213.694 Q2242.31 214.851 2246.15 215.569 L2248.98 216.147 Q2254.21 217.143 2256.69 219.666 Q2259.19 222.166 2259.19 226.379 Q2259.19 231.402 2255.81 233.994 Q2252.45 236.587 2245.95 236.587 Q2243.49 236.587 2240.72 236.031 Q2237.96 235.476 2235 234.388 L2235 229.573 Q2237.84 231.17 2240.58 231.981 Q2243.31 232.791 2245.95 232.791 Q2249.95 232.791 2252.13 231.217 Q2254.3 229.643 2254.3 226.726 Q2254.3 224.18 2252.73 222.744 Q2251.18 221.309 2247.61 220.592 L2244.77 220.036 Q2239.53 218.995 2237.2 216.772 Q2234.86 214.55 2234.86 210.592 Q2234.86 206.008 2238.08 203.37 Q2241.32 200.731 2246.99 200.731 Q2249.42 200.731 2251.94 201.171 Q2254.46 201.61 2257.1 202.49 Z" fill="#000000" fill-rule="nonzero" fill-opacity="1"></path><polyline clip-path="url(#clip230)" style="stroke:#e26f46; stroke-linecap:round; stroke-linejoin:round; stroke-width:8; stroke-opacity:1; fill:none" points="1864.93,270.476 2005.29,270.476 "></polyline>
<path clip-path="url(#clip230)" d="M2054.23 282.825 L2054.23 273.543 L2046.6 273.543 L2046.6 269.7 L2058.86 269.7 L2058.86 284.538 Q2056.16 286.459 2052.89 287.455 Q2049.63 288.427 2045.92 288.427 Q2037.82 288.427 2033.24 283.705 Q2028.68 278.959 2028.68 270.51 Q2028.68 262.038 2033.24 257.316 Q2037.82 252.571 2045.92 252.571 Q2049.3 252.571 2052.34 253.404 Q2055.39 254.237 2057.96 255.858 L2057.96 260.835 Q2055.37 258.636 2052.45 257.524 Q2049.54 256.413 2046.32 256.413 Q2039.98 256.413 2036.78 259.955 Q2033.61 263.497 2033.61 270.51 Q2033.61 277.501 2036.78 281.043 Q2039.98 284.584 2046.32 284.584 Q2048.79 284.584 2050.74 284.168 Q2052.68 283.728 2054.23 282.825 Z" fill="#000000" fill-rule="nonzero" fill-opacity="1"></path><path clip-path="url(#clip230)" d="M2067.41 253.196 L2074.37 253.196 L2083.19 276.714 L2092.06 253.196 L2099.03 253.196 L2099.03 287.756 L2094.47 287.756 L2094.47 257.409 L2085.55 281.112 L2080.85 281.112 L2071.94 257.409 L2071.94 287.756 L2067.41 287.756 L2067.41 253.196 Z" fill="#000000" fill-rule="nonzero" fill-opacity="1"></path><path clip-path="url(#clip230)" d="M2108.31 253.196 L2115.28 253.196 L2124.1 276.714 L2132.96 253.196 L2139.93 253.196 L2139.93 287.756 L2135.37 287.756 L2135.37 257.409 L2126.46 281.112 L2121.76 281.112 L2112.85 257.409 L2112.85 287.756 L2108.31 287.756 L2108.31 253.196 Z" fill="#000000" fill-rule="nonzero" fill-opacity="1"></path><path clip-path="url(#clip230)" d="M2146.87 272.872 L2159.35 272.872 L2159.35 276.668 L2146.87 276.668 L2146.87 272.872 Z" fill="#000000" fill-rule="nonzero" fill-opacity="1"></path><path clip-path="url(#clip230)" d="M2181.66 256.367 Q2176.57 256.367 2173.56 260.163 Q2170.58 263.96 2170.58 270.51 Q2170.58 277.038 2173.56 280.834 Q2176.57 284.631 2181.66 284.631 Q2186.76 284.631 2189.72 280.834 Q2192.71 277.038 2192.71 270.51 Q2192.71 263.96 2189.72 260.163 Q2186.76 256.367 2181.66 256.367 M2181.66 252.571 Q2188.93 252.571 2193.28 257.455 Q2197.64 262.316 2197.64 270.51 Q2197.64 278.682 2193.28 283.566 Q2188.93 288.427 2181.66 288.427 Q2174.37 288.427 2170 283.566 Q2165.65 278.705 2165.65 270.51 Q2165.65 262.316 2170 257.455 Q2174.37 252.571 2181.66 252.571 Z" fill="#000000" fill-rule="nonzero" fill-opacity="1"></path><path clip-path="url(#clip230)" d="M2204.95 253.196 L2209.63 253.196 L2209.63 283.821 L2226.46 283.821 L2226.46 287.756 L2204.95 287.756 L2204.95 253.196 Z" fill="#000000" fill-rule="nonzero" fill-opacity="1"></path><path clip-path="url(#clip230)" d="M2252.08 254.33 L2252.08 258.89 Q2249.42 257.617 2247.06 256.992 Q2244.7 256.367 2242.5 256.367 Q2238.68 256.367 2236.59 257.848 Q2234.53 259.33 2234.53 262.061 Q2234.53 264.353 2235.9 265.534 Q2237.29 266.691 2241.13 267.409 L2243.96 267.987 Q2249.19 268.983 2251.66 271.506 Q2254.16 274.006 2254.16 278.219 Q2254.16 283.242 2250.78 285.834 Q2247.43 288.427 2240.92 288.427 Q2238.47 288.427 2235.69 287.871 Q2232.94 287.316 2229.97 286.228 L2229.97 281.413 Q2232.82 283.01 2235.55 283.821 Q2238.28 284.631 2240.92 284.631 Q2244.93 284.631 2247.1 283.057 Q2249.28 281.483 2249.28 278.566 Q2249.28 276.02 2247.71 274.584 Q2246.15 273.149 2242.59 272.432 L2239.74 271.876 Q2234.51 270.835 2232.17 268.612 Q2229.84 266.39 2229.84 262.432 Q2229.84 257.848 2233.05 255.21 Q2236.29 252.571 2241.97 252.571 Q2244.4 252.571 2246.92 253.011 Q2249.44 253.45 2252.08 254.33 Z" fill="#000000" fill-rule="nonzero" fill-opacity="1"></path></svg>